<!-- Generated by IcoMoon.io -->
<svg version="1.1" xmlns="http://www.w3.org/2000/svg" viewBox="0 0 16 16">
<title>amazonaws</title>
<path d="M12.623 3.070l3.377-1.296v4.776l-3.377 1.365v-4.844zM8.256 6.721l0.068-4.947 3.65 1.467v5.117l-3.719-1.638zM9.62 1.501l2.559-1.092 2.559 1.092-2.763 1.023-2.354-1.023zM4.401 3.241l3.377-1.262v4.742l-3.377 1.365v-4.844zM0 6.925l0.102-4.947 3.65 1.433v5.151l-3.753-1.638zM1.365 1.706l2.559-1.126 2.559 1.126-2.729 0.989-2.388-0.989zM8.597 10.303l3.377-1.296v4.776l-3.377 1.365v-4.844zM4.23 13.953l0.068-4.947 3.65 1.467v5.117l-3.719-1.638zM5.595 8.733l2.559-1.092 2.559 1.092-2.763 1.023-2.354-1.023z"></path>
</svg>
