<!-- Generated by IcoMoon.io -->
<svg version="1.1" xmlns="http://www.w3.org/2000/svg" viewBox="0 0 16 16">
<title>android</title>
<path d="M2.626 5.375c-0.507-0-0.917 0.411-0.917 0.918l0.001 3.842c0 0.508 0.411 0.918 0.918 0.918s0.918-0.41 0.917-0.918v-3.843c-0-0.506-0.411-0.917-0.918-0.917zM10.025 1.925l0.64-1.169c0.034-0.061 0.012-0.139-0.050-0.173-0.063-0.033-0.14-0.011-0.173 0.051l-0.647 1.182c-0.544-0.242-1.153-0.378-1.798-0.377-0.643-0.001-1.252 0.135-1.794 0.376l-0.648-1.179c-0.034-0.062-0.111-0.085-0.172-0.051-0.062 0.034-0.085 0.112-0.051 0.172l0.641 1.169c-1.259 0.649-2.109 1.885-2.108 3.305l8.265-0.001c0-1.419-0.849-2.653-2.106-3.303zM6.118 3.732c-0.19-0-0.345-0.155-0.345-0.346s0.155-0.347 0.346-0.347c0.192-0 0.347 0.156 0.347 0.347s-0.155 0.346-0.347 0.346zM9.881 3.732c-0.191 0-0.347-0.155-0.347-0.346 0.001-0.19 0.155-0.346 0.347-0.347 0.19 0.001 0.346 0.157 0.346 0.347 0 0.191-0.155 0.346-0.346 0.346zM3.899 5.549l0.001 5.954c-0 0.542 0.438 0.979 0.979 0.979l0.667 0 0.001 2.033c-0 0.506 0.411 0.918 0.917 0.918 0.507 0 0.918-0.412 0.918-0.918l-0-2.033 1.239-0 0.001 2.033c0 0.506 0.412 0.918 0.917 0.917 0.507 0 0.918-0.412 0.918-0.918l-0.001-2.032 0.669-0.001c0.54 0 0.979-0.438 0.979-0.979l-0.001-5.954-8.203 0.001zM14.291 6.292c-0-0.507-0.411-0.918-0.918-0.917s-0.917 0.411-0.917 0.918l0.001 3.842c-0 0.507 0.41 0.917 0.917 0.917s0.917-0.41 0.917-0.918l-0.001-3.842z"></path>
</svg>
