<!-- Generated by IcoMoon.io -->
<svg version="1.1" xmlns="http://www.w3.org/2000/svg" viewBox="0 0 16 16">
<title>apache</title>
<path d="M1.85 8.875l-0.925 2.5h0.65l0.175-0.5h0.937l0.175 0.5h0.675l-0.925-2.5h-0.762zM1.913 10.375l0.313-0.9 0.313 0.9h-0.625zM5.1 9.4c-0.125 0-0.225 0.025-0.325 0.075s-0.15 0.113-0.275 0.175v-0.15h-0.625v2.5h0.625v-0.738c0 0.037 0.138 0.075 0.213 0.1s0.162 0.037 0.263 0.037c0.112 0 0.225-0.025 0.325-0.063s0.188-0.113 0.275-0.2c0.075-0.088 0.138-0.188 0.188-0.313s0.075-0.275 0.075-0.425c0-0.3-0.063-0.537-0.2-0.713s-0.3-0.287-0.537-0.287zM5.1 10.825c-0.075 0.1-0.2 0.137-0.362 0.137-0.050 0-0.075 0-0.125-0.012-0.050 0-0.112-0.012-0.112-0.025v-0.95c0-0.037 0.1-0.063 0.162-0.075s0.112-0.025 0.175-0.025c0.138 0 0.237 0.037 0.3 0.125s0.088 0.213 0.088 0.4c-0.013 0.188-0.050 0.325-0.125 0.425zM7.787 9.563c-0.15-0.113-0.4-0.162-0.737-0.162-0.15 0-0.313 0.012-0.463 0.037s-0.213 0.050-0.338 0.063v0.5h0.112c0.050 0 0.138-0.063 0.25-0.1s0.225-0.063 0.325-0.063c0.162 0 0.263 0.012 0.35 0.050s0.088 0.113 0.088 0.213v0.012c-0.125 0.012-0.325 0.025-0.487 0.050s-0.287 0.063-0.4 0.113c-0.112 0.050-0.2 0.125-0.25 0.213-0.063 0.088-0.088 0.2-0.088 0.338 0 0.175 0.063 0.313 0.188 0.425s0.275 0.162 0.45 0.162c0.075 0 0.15-0.012 0.213-0.025s0.125-0.037 0.188-0.063c0.037-0.025 0.063-0.050 0.112-0.088s0.088-0.063 0.088-0.088v0.225h0.625v-1.313c-0.013-0.225-0.075-0.387-0.225-0.5zM7.375 10.863c0 0.037-0.075 0.075-0.138 0.1s-0.112 0.037-0.175 0.037c-0.075 0-0.125 0-0.162-0.012s-0.063-0.025-0.088-0.050c-0.025-0.025-0.037-0.050-0.050-0.075s-0.013-0.063-0.013-0.1c0-0.063 0.013-0.113 0.050-0.15s0.075-0.063 0.138-0.088c0.050-0.012 0.088-0.025 0.188-0.037l0.237-0.025v0.4zM9.563 9.4c-0.15 0-0.287 0.012-0.412 0.050-0.137 0.037-0.25 0.1-0.35 0.175-0.1 0.088-0.188 0.188-0.25 0.325s-0.088 0.287-0.088 0.463c0 0.162 0.025 0.313 0.088 0.438s0.137 0.225 0.238 0.313c0.1 0.088 0.225 0.137 0.363 0.188 0.137 0.037 0.287 0.063 0.45 0.063 0.125 0 0.25-0.012 0.35-0.037s0.188-0.063 0.313-0.113v-0.512h-0.1c-0.025 0-0.050 0.050-0.075 0.075s-0.063 0.050-0.1 0.075c-0.037 0.025-0.088 0.037-0.15 0.063-0.063 0.012-0.125 0.025-0.213 0.025-0.162 0-0.287-0.050-0.375-0.137s-0.137-0.238-0.137-0.412 0.037-0.313 0.125-0.425c0.088-0.1 0.213-0.15 0.375-0.15 0.075 0 0.137 0.012 0.188 0.025s0.1 0.037 0.15 0.063c0.050 0.025 0.088 0.075 0.125 0.1s0.063-0.025 0.088 0.1h0.088v-0.563c-0.125-0.050-0.2-0.088-0.313-0.113-0.113-0.050-0.238-0.075-0.375-0.075zM11.887 9.4c-0.125 0-0.225 0.025-0.325 0.063-0.1 0.050-0.188 0.113-0.313 0.2v-0.912h-0.625v2.625h0.625v-1.363c0.125-0.037 0.125-0.063 0.188-0.088 0.063-0.012 0.113-0.025 0.162-0.025 0.075 0 0.137 0.012 0.188 0.025 0.037 0.025 0.075 0.050 0.1 0.088s0 0.088 0.012 0.162c0.012 0.075-0.012 0.15-0.012 0.225v0.975h0.625v-1.25c0-0.238-0.037-0.412-0.15-0.537-0.125-0.125-0.262-0.188-0.475-0.188zM14.050 9.4c-0.338 0-0.6 0.088-0.787 0.275s-0.287 0.438-0.287 0.75 0.1 0.563 0.3 0.738c0.2 0.175 0.5 0.262 0.875 0.262 0.15 0 0.313-0.012 0.438-0.037s0.175-0.063 0.425-0.125v-0.5h-0.125c-0.075 0.125-0.162 0.113-0.287 0.15-0.125 0.050-0.25 0.075-0.375 0.075-0.2 0-0.363-0.050-0.463-0.125s-0.162-0.225-0.175-0.35h1.412v-0.188c0-0.287-0.088-0.512-0.25-0.675-0.15-0.175-0.4-0.25-0.7-0.25zM13.575 10.125c0.012-0.125 0.050-0.213 0.125-0.275s0.175-0.088 0.287-0.088c0.125 0 0.225 0.012 0.275 0.088 0.063 0.063 0.088 0.15 0.1 0.275h-0.787zM15.912 7.3l-0.025-0.013v-0.050l-0.012-0.050-0.025-0.037-0.050-0.025h-0.012l-0.012-0.025-0.075-0.050-0.050-0.013h-0.025l-0.050-0.050-0.063-0.037-0.075-0.037-0.075-0.025h-0.025l-0.063-0.075-0.075-0.050-0.075-0.037-0.075-0.025h-0.012l-0.075-0.050-0.1-0.037-0.063-0.013-0.063-0.050-0.063-0.025-0.125-0.025h-0.063l-0.075 0.013h-0.012l-0.050-0.075-0.075-0.050-0.1-0.025h-0.113l-0.125 0.025-0.050 0.013-0.1-0.037-0.1-0.025h-0.325l-0.125-0.050-0.113-0.037-0.113-0.013h-0.075l-0.1-0.1-0.113-0.075-0.1-0.050-0.1-0.025h-0.1l-0.050 0.037-0.063-0.050-0.075-0.037-0.088-0.013-0.075 0.013-0.088-0.037-0.088-0.025h-0.125l-0.137-0.050-0.15-0.037-0.137-0.013h-0.025l-0.15-0.088-0.15-0.037h-0.125l-0.213-0.050-0.137-0.013h-0.063l-0.088-0.088-0.1-0.063-0.113-0.025-0.113 0.013-0.075 0.025-0.1-0.013h-0.225v-0.025l-0.175-0.037-0.175-0.025-0.162-0.013-0.063 0.013v-0.013l-0.25-0.025h-0.012l-0.137-0.063-0.137-0.037-0.125-0.013h-0.1l-0.137-0.050-0.113-0.025h-0.125l-0.138-0.1-0.112-0.037-0.088-0.013-0.1-0.050-0.15-0.025h-0.138l-0.138-0.063-0.125-0.025h-0.075l-0.15-0.075-0.125-0.037-0.125-0.013-0.037 0.013h0.013l-0.175-0.1-0.138-0.050-0.125-0.013h-0.013l-0.088-0.063-0.075-0.037-0.075-0.025-0.088-0.013-0.088 0.013-0.1-0.075-0.088-0.037-0.112-0.013h-0.1l-0.112 0.025-0.025 0.013-0.125-0.063-0.125-0.037h-0.112l-0.1-0.063-0.088-0.037h-0.1l-0.088 0.013-0.088 0.025h-0.013l-0.088-0.088-0.075-0.050-0.087-0.013-0.087 0.013-0.075 0.037-0.025-0.013-0.038-0.025-0.075-0.025h-0.087l-0.038 0.013-0.063 0.037-0.013 0.013-0.112-0.025h-0.1l-0.087 0.025-0.075 0.063-0.050 0.063-0.038 0.088-0.038 0.1-0.025 0.1-0.013 0.1-0.013 0.2 0.013 0.225v0.037c-0.063-0.025-0.125-0.050-0.2-0.075v-0.050l0.013-0.075 0.013-0.162 0.013-0.15-0.013-0.15-0.013-0.075-0.025-0.125-0.025-0.063-0.025-0.050-0.075-0.1-0.075-0.063 0.025 0.113 0.025 0.15 0.013 0.063 0.013 0.075 0.013 0.063-0.050-0.15-0.038-0.125-0.013-0.037-0.025-0.163v-0.050l0.013-0.087 0.013-0.038 0.025-0.087h-0.025l-0.063 0.075-0.075 0.175-0.013 0.075v0.175l0.025 0.175-0.013-0.013-0.075-0.1-0.075-0.188-0.013-0.087-0.013-0.125-0.087 0.075-0.038 0.075-0.025 0.075v0.075l0.013 0.075 0.025 0.075 0.050 0.1-0.025 0.025-0.075-0.013-0.013 0.025 0.050 0.025 0.050 0.037 0.125 0.1 0.038 0.037 0.063 0.075 0.175 0.175 0.038 0.050 0.025 0.025c-0.712-0.287-1.462-0.625-2.388-1.063l-0.050-0.025 0.025 0.050c0.125 0.212 0.488 0.425 0.8 0.625 0.15 0.088 0.287 0.175 0.388 0.25 0.3 0.162 0.7 0.338 1.050 0.475h-0.025l-0.25 0.050-0.175 0.037-0.175 0.063-0.087 0.037-0.087 0.025-0.075 0.050-0.063 0.050-0.063 0.063-0.050 0.063-0.038 0.075-0.025 0.088 0.025 0.013 0.113-0.112 0.15-0.1 0.075-0.037 0.050-0.013 0.038-0.013 0.087-0.025 0.087-0.013 0.075-0.025 0.163-0.088 0.15-0.1 0.063-0.037 0.050-0.025 0.038-0.013 0.075 0.025-0.3 0.15-0.163 0.1-0.087 0.063-0.15 0.125-0.063 0.075-0.038 0.063-0.025 0.075-0.012 0.075 0.012 0.088 0.050 0.112 0.063-0.125 0.050-0.075 0.050-0.063 0.050-0.050 0.050-0.037 0.112-0.075 0.050-0.025-0.038 0.15v0.112l0.013 0.125 0.038 0.138h0.025l0.025-0.138 0.038-0.125 0.025-0.063 0.050-0.112 0.063-0.112 0.1-0.175 0.138-0.225c0.050 0.025 0.1 0.037 0.15 0.050l-0.1 0.2-0.050 0.075-0.038 0.088-0.013 0.088-0.025 0.088-0.013 0.088v0.088l0.013 0.075 0.038 0.075 0.063 0.063 0.087 0.050 0.1 0.037 0.038 0.075 0.050 0.063 0.050 0.050 0.050 0.037 0.050 0.025 0.050 0.013h0.125v0.013l0.050 0.075 0.075 0.063 0.087 0.037h0.1l0.1-0.025 0.1 0.1 0.075 0.050 0.087 0.037 0.1 0.013h0.075l0.075 0.050 0.088 0.037 0.1 0.025 0.075 0.063 0.1 0.050 0.125 0.025 0.138 0.013h0.025l0.088 0.075 0.1 0.050 0.088 0.037 0.1 0.013 0.112-0.025 0.125 0.063 0.075 0.013h0.075l0.075-0.013 0.037 0.025 0.125 0.037 0.138 0.013 0.162-0.013 0.050 0.025 0.112 0.037 0.125 0.013 0.175-0.013h0.013l0.112 0.037 0.125 0.013 0.138-0.013 0.050 0.037 0.125 0.050 0.125 0.013 0.138-0.013v-0.013l0.075 0.025h0.125l0.138-0.025 0.088 0.025h0.1l0.1-0.013 0.137 0.025 0.037 0.025 0.125 0.037 0.125 0.025 0.137 0.013 0.137-0.013v-0.013l0.075 0.025 0.225 0.025v-0.013l0.225 0.075 0.162 0.037 0.175-0.037v-0.013h0.025l0.113 0.025 0.1 0.013h0.113l0.012 0.013 0.1 0.075 0.1 0.050h0.162l0.1-0.050 0.088-0.075 0.113 0.013 0.137-0.013h0.15v0.013l0.037 0.025 0.137 0.025 0.137-0.012 0.137-0.063h0.125l0.15 0.013 0.125-0.013 0.075 0.013h0.175l0.113-0.013 0.063 0.025 0.075 0.013 0.075-0.013 0.075-0.037 0.012 0.013 0.1 0.013h0.313l0.1-0.037 0.137-0.050h0.2l0.1-0.013 0.063 0.025 0.1 0.025 0.1 0.013 0.1-0.013 0.113-0.025 0.025 0.013 0.113 0.050 0.1 0.037h0.1l0.075-0.037 0.063-0.063 0.037 0.013 0.125 0.025h0.063l0.063-0.013 0.063-0.025 0.088 0.013 0.1-0.013 0.088-0.037h0.088l0.075-0.013 0.075-0.037 0.063-0.050 0.012-0.013 0.075 0.013 0.075-0.013 0.063 0.013h0.113l0.050-0.037 0.037-0.025 0.012-0.025h0.012l0.037-0.013 0.037-0.025 0.025-0.063 0.012-0.075h0.025l0.037-0.013 0.012-0.037 0.012 0.013v-0.1l-0.037-0.050zM2.612 5.3l-0.038 0.025 0.025-0.063 0.038 0.013-0.025 0.025zM2.675 4.938l-0.025-0.025-0.025-0.050v-0.3l0.013-0.1 0.013 0.013 0.038 0.188 0.038 0.2 0.025 0.088c-0.038 0-0.063-0.013-0.075-0.013z"></path>
</svg>
