<!-- Generated by IcoMoon.io -->
<svg version="1.1" xmlns="http://www.w3.org/2000/svg" viewBox="0 0 16 16">
  <title>arrow_left</title>
  <path d="M13.333 7.333h-9.067l2.867-2.867c0.267-0.267 0.267-0.667 0-0.933s-0.667-0.267-0.933 0l-4 4c-0.067 0.067-0.133 0.133-0.133 0.2-0.067 0.133-0.067 0.333 0 0.533 0.067 0.067 0.067 0.133 0.133 0.2l4 4c0.133 0.133 0.267 0.2 0.467 0.2s0.333-0.067 0.467-0.2c0.267-0.267 0.267-0.667 0-0.933l-2.867-2.867h9.067c0.4 0 0.667-0.267 0.667-0.667s-0.267-0.667-0.667-0.667z"></path>
</svg>
