<!-- Generated by IcoMoon.io -->
<svg version="1.1" xmlns="http://www.w3.org/2000/svg" viewBox="0 0 16 16">
<title>atom</title>
<path d="M4.828 8.372c-0.101 0.209-0.189 0.386-0.272 0.565-0.417 0.897-0.763 1.819-0.941 2.796-0.099 0.543-0.154 1.091-0.012 1.636 0.122 0.469 0.376 0.709 0.809 0.729 0.19 0.009 0.388-0.031 0.573-0.084 0.489-0.139 0.915-0.406 1.327-0.696 0.1-0.070 0.202-0.114 0.327-0.068 0.221 0.082 0.301 0.375 0.115 0.514-0.673 0.501-1.385 0.933-2.256 0.96-0.714 0.022-1.231-0.361-1.458-1.041-0.17-0.508-0.18-1.030-0.118-1.554 0.185-1.56 0.787-2.977 1.51-4.351 0.062-0.118 0.066-0.212 0.022-0.338-0.181-0.518-0.348-1.041-0.513-1.565-0.031-0.099-0.063-0.128-0.171-0.104-0.708 0.156-1.406 0.346-2.034 0.718-0.243 0.144-0.475 0.322-0.669 0.526-0.323 0.339-0.329 0.714-0.065 1.1 0.23 0.338 0.554 0.569 0.896 0.777 0.107 0.066 0.22 0.121 0.328 0.185 0.157 0.094 0.21 0.275 0.13 0.426s-0.261 0.211-0.426 0.127c-0.48-0.247-0.929-0.54-1.288-0.951-0.22-0.252-0.382-0.535-0.435-0.871-0.067-0.419 0.053-0.788 0.305-1.119 0.259-0.342 0.6-0.585 0.972-0.788 0.659-0.359 1.37-0.574 2.1-0.732 0.050-0.011 0.099-0.024 0.167-0.041-0.034-0.195-0.071-0.384-0.101-0.574-0.12-0.774-0.175-1.549 0.015-2.321 0.075-0.305 0.193-0.594 0.399-0.837 0.42-0.496 0.959-0.606 1.564-0.459 0.598 0.146 1.1 0.477 1.568 0.863 0.133 0.109 0.136 0.306 0.028 0.433-0.11 0.129-0.282 0.146-0.432 0.044-0.236-0.161-0.465-0.332-0.711-0.477-0.281-0.166-0.583-0.284-0.919-0.286-0.278-0.001-0.494 0.112-0.652 0.337-0.2 0.285-0.272 0.615-0.31 0.952-0.080 0.714 0.015 1.416 0.154 2.115 0.015 0.074 0.043 0.101 0.122 0.093 0.564-0.056 1.128-0.112 1.692-0.16 0.123-0.010 0.203-0.054 0.279-0.151 0.734-0.927 1.538-1.785 2.484-2.501 0.527-0.399 1.084-0.747 1.725-0.937 0.402-0.119 0.808-0.163 1.212-0.021 0.505 0.177 0.787 0.561 0.933 1.057 0.154 0.526 0.13 1.062 0.068 1.598-0.016 0.137-0.040 0.274-0.066 0.41-0.035 0.185-0.172 0.283-0.357 0.261-0.168-0.019-0.277-0.154-0.26-0.342 0.024-0.258 0.083-0.515 0.086-0.773 0.003-0.305-0.003-0.618-0.067-0.914-0.132-0.616-0.559-0.858-1.189-0.719-0.473 0.104-0.892 0.327-1.292 0.59-0.82 0.541-1.52 1.216-2.17 1.947-0.121 0.136-0.237 0.276-0.355 0.415-0.007 0.008-0.007 0.023-0.016 0.058h0.17c1.674 0.017 3.323 0.216 4.935 0.68 0.768 0.221 1.508 0.509 2.19 0.933 0.363 0.226 0.696 0.487 0.959 0.827 0.537 0.695 0.492 1.475-0.126 2.098-0.417 0.42-0.931 0.686-1.479 0.892-0.155 0.058-0.325-0.027-0.385-0.176-0.065-0.163 0.005-0.332 0.171-0.412 0.253-0.123 0.516-0.229 0.755-0.374 0.197-0.12 0.385-0.269 0.543-0.437 0.335-0.356 0.347-0.745 0.063-1.144-0.213-0.298-0.498-0.517-0.805-0.707-0.758-0.471-1.589-0.762-2.445-0.99-0.892-0.237-1.799-0.403-2.719-0.468-0.734-0.052-1.47-0.067-2.205-0.102-0.106-0.005-0.179 0.026-0.238 0.117-0.431 0.665-0.867 1.326-1.295 1.992-0.031 0.048-0.045 0.136-0.023 0.187 0.726 1.727 1.645 3.338 2.863 4.769 0.513 0.602 1.070 1.159 1.748 1.58 0.318 0.198 0.649 0.363 1.034 0.388 0.348 0.024 0.603-0.122 0.776-0.418 0.163-0.279 0.228-0.587 0.258-0.904 0.095-1.022-0.108-2.008-0.376-2.984-0.274-0.999-0.663-1.957-1.108-2.892-0.036-0.075-0.065-0.165-0.061-0.246 0.007-0.147 0.123-0.252 0.269-0.275 0.128-0.020 0.262 0.050 0.326 0.187 0.159 0.341 0.321 0.681 0.467 1.028 0.45 1.071 0.813 2.171 1.004 3.32 0.134 0.803 0.197 1.608 0.012 2.412-0.042 0.18-0.103 0.358-0.18 0.526-0.316 0.691-0.956 1.002-1.698 0.84-0.603-0.132-1.113-0.447-1.588-0.824-0.874-0.693-1.583-1.537-2.224-2.442-0.731-1.031-1.348-2.127-1.866-3.279-0.019-0.043-0.042-0.085-0.080-0.162zM4.512 5.629l0.399 1.271c0.316-0.482 0.61-0.931 0.926-1.414l-1.326 0.144zM8.059 8.908c-0.502-0.001-0.911-0.408-0.91-0.906 0.001-0.506 0.409-0.91 0.92-0.91 0.502 0 0.909 0.407 0.91 0.907 0 0.506-0.408 0.91-0.92 0.909z"></path>
</svg>
