<!-- Generated by IcoMoon.io -->
<svg version="1.1" xmlns="http://www.w3.org/2000/svg" viewBox="0 0 16 16">
<title>babel-plain</title>
<path d="M11.273 6.313v0.019h0.039c0-0.019 0.004-0.038 0.012-0.055l-0-0.033c-0.016 0-0.033 0.026-0.047 0.072zM10.905 5.428v-0.034h-0.055v0.034h0.055zM9.838 7.428c-0.084-0.143-0.182-0.266-0.293-0.375-0-0.040 0.062-0.099 0.198-0.178l0.383-0.332c0.1-0.151 0.16-0.336 0.16-0.535 0-0.003-0-0.005-0-0.008v-0.057c-0.015-0.173-0.14-0.311-0.375-0.418q-0.21-0.141-0.75-0.156c-0.438 0.058-0.834 0.172-1.205 0.334-0.099 0.081-0.248 0.176-0.401 0.263l-0.024 0.041c0.017-0.003 0.032-0.010 0.045-0.020 0.002-0 0.004-0.001 0.006-0.001 0.014 0 0.026 0.012 0.026 0.026 0 0 0 0.001-0 0.001l0.018-0.013h0.014v0.013c-0.092 0.094-0.195 0.177-0.308 0.246l0.009 0.034h-0.014l-0.035-0.013c0 0.010-0.014 0.018-0.043 0.020v0.013l0.034 0.043c-0.018-0-0.034-0.005-0.050-0.012-0.058 0.009-0.108 0.037-0.144 0.079l0.020-0.086c0.056-0.222 0.107-0.498 0.142-0.779l-0-0.058c-0.053-0.035-0.098-0.077-0.135-0.124-0-0.010 0-0.021 0-0.032s-0-0.021-0.001-0.032l0-0.011h-0.014q-0.231 0.346-0.889 1.181-0.5 0.594-0.518 0.66c-0.136 0.141-0.201 0.226-0.195 0.25-0.036 0.024-0.051 0.046-0.045 0.072-0.002 0.001-0.003 0.001-0.005 0.001-0.007 0-0.013-0.005-0.015-0.012-0.057 0.092-0.149 0.158-0.257 0.181l-0.128 0.028c-0.014 0.002-0.025 0.014-0.025 0.028 0 0.002 0 0.005 0.001 0.007l-0 0.015 0.045-0.010v0.013l-0.103 0.040-0.181 0.043h-0.095c-0.014 0.014 0.076 0 0.041 0.008l-0.125 0.027c-0.072 0.016-0.111 0.010-0.125-0.019h-0.014c0.001 0.005 0.002 0.010 0.002 0.015s-0.001 0.011-0.002 0.015l-0.007-0.029-0.095 0.022q0.009-0.051-0.366-0.463c0-0.054 0.084-0.131 0.265-0.232l0.51-0.449q0.171-0.22 0.204-0.706l-0.008-0.076c-0.020-0.229-0.185-0.412-0.5-0.555-0.184-0.125-0.515-0.191-0.993-0.201-0.577 0.077-1.099 0.224-1.588 0.435-0.131 0.108-0.326 0.232-0.528 0.345l-0.030 0.055c0.023-0.004 0.043-0.012 0.061-0.024 0.002-0 0.005-0.001 0.008-0.001 0.019 0 0.034 0.015 0.034 0.034l0.040-0.022h0.025v0.024c-0.123 0.121-0.26 0.228-0.407 0.319l0.012 0.041h-0.018l-0.042-0.015c0 0.011-0.019 0.020-0.060 0.024v0.021l0.046 0.051c-0.023-0-0.044-0.005-0.064-0.013-0.114 0.025-0.208 0.097-0.263 0.195l0.021 0.037c0.038-0.041 0.082-0.077 0.13-0.105l0.003 0.056c-0.023 0.005-0.043 0.013-0.061 0.024l0.048 0.072c0.089-0.094 0.189-0.177 0.297-0.246 0.061 0.010 0.090 0.027 0.091 0.046h0.042c0.256-0.197 0.551-0.36 0.87-0.475l0.023 0.033q-0.083 0.125-0.111 0.125c0.001 0.028 0.012 0.054 0.029 0.074q0.007 0.075-0.401 1.012-0.915 2.161-1.545 3.204c0.004 0.021 0.013 0.040 0.025 0.057 0.074-0.013 0.14-0.039 0.198-0.077l0.020 0.001v0.040h0.039l0.040-0.023c0 0.011 0.014 0.018 0.041 0.015v0.040c-0.006 0.067-0.029 0.128-0.066 0.179-0.056 0.082-0.101 0.178-0.128 0.281l-0.001 0.025h0.039c0.147-0.16 0.275-0.341 0.376-0.538 0.439-0.13 0.812-0.275 1.167-0.452 0.188 0.010 0.393-0.066 0.56-0.19l-0.003-0.019-0.098 0.029h-0.022v-0.021c0.148-0.010 0.283-0.056 0.4-0.127q0.554-0.428 0.839-0.607 0.585-0.43 0.76-0.838l0.065-0.015c0.014 0.001 0.030 0.001 0.047 0.001s0.033-0 0.049-0.001c-0.002-0.010-0.002-0.016 0.010-0.019 0.088-0.009 0.045 0 0.101-0.008l0.146-0.034h0.025l-0.011 0.008c0.008 0.002 0.017 0.003 0.027 0.003s0.019-0.001 0.028-0.003l0.009 0.043-0.668 1.061-0.156 0.171-0.072 0.242h0.014l0.072-0.030-0.024 0.094 0.007 0.027 0.020 0.025c-0.009 0-0.013 0.009-0.010 0.019v0.015l0.030-0.008q0.066-0.057 0.056-0.105c0.021 0.006 0.044 0.009 0.069 0.009 0.009 0 0.018-0 0.027-0.001l-0.001 0.015c-0.029 0.008-0.044 0.030-0.046 0.070v0.015h0.016c0.242-0.265 0.836-1.169 1.313-1.784q-0.022-0.1 0.75-0.277h0.016q0.027 0.125-0.125 0.584c-0.036 0.087-0.067 0.189-0.087 0.295-0.047 0.123-0.087 0.258-0.114 0.398l-0.174 0.601c-0.108 0.271-0.201 0.592-0.265 0.924 0.002 0.032 0.011 0.031 0.020 0.031s0.017 0.001 0.026 0.003l0.025-0.023c0.001 0.007 0.007 0.012 0.015 0.012 0.002 0 0.004-0 0.005-0.001l-0.010-0.042h0.079c0.024 0 0.043-0.035 0.060-0.089 0-0.080 0.013-0.125 0.049-0.133 0.021-0.109 0.052-0.207 0.093-0.298 0.018-0.114 0.053-0.223 0.101-0.325 0.065-0.242 0.122-0.367 0.148-0.375l0.008 0.030-0.050 0.125c-0.075 0.358-0.167 0.665-0.28 0.962l0.041 0.068h0.016q0.325-0.699 0.935-2.768c0.013-0.115 0.077-0.212 0.17-0.269l-0.022-0.026v-0.013c0.039-0.006 0.073-0.026 0.097-0.055 0-0.010-0.042-0.026-0.125-0.046l0.202-0.875c0.022-0.024 0.048-0.044 0.076-0.059l0.002 0.043c-0.017 0.003-0.032 0.010-0.045 0.020l0.039 0.055c0.067-0.071 0.142-0.135 0.223-0.188 0.047 0.008 0.067 0.023 0.070 0.037h0.030c0.195-0.149 0.419-0.272 0.661-0.358l0.017 0.023q-0.061 0.093-0.084 0.094c0.002 0.021 0.009 0.040 0.019 0.057-0.093 0.301-0.195 0.556-0.315 0.801-0.381 0.938-0.776 1.742-1.22 2.515 0.058-0.086 0.065-0.071 0.075-0.059 0.056-0.009 0.105-0.030 0.149-0.059l0.012 0.001v0.029h0.032l0.029-0.015q0 0.012 0.031 0.010v0.031c-0.005 0.050-0.023 0.096-0.051 0.133-0.047 0.064-0.083 0.14-0.105 0.222l-0.001 0.020h0.030c0.112-0.121 0.208-0.259 0.285-0.408 0.332-0.099 0.614-0.209 0.882-0.343 0.144 0.008 0.3-0.050 0.428-0.144l-0.002-0.013-0.076 0.023h-0.016v-0.015c0.112-0.008 0.214-0.043 0.303-0.098 0.278-0.215 0.497-0.373 0.637-0.461 0.45-0.328 0.659-0.641 0.634-0.944zM9.76 7.447l0.010 0.117c-0.014 0.029-0.029 0.044-0.043 0.045l-0.018-0.2c0.033 0.011 0.049 0.024 0.050 0.037zM0.94 6.5h-0.020v-0.036l0.080-0.006v0.019c-0.022 0.004-0.042 0.012-0.059 0.024zM0.547 10.425c-0.033-0.017-0.071-0.027-0.112-0.027-0.005 0-0.009 0-0.013 0l0.001-0.058c0-0.023 0.010-0.037 0.039-0.043s0.041 0.016 0.042 0.054c0.034-0.047 0.071-0.087 0.111-0.124l0.043 0.017c-0.014 0.116-0.050 0.176-0.108 0.18zM4.741 6.037c-0.020 0-0.060-0.060-0.116-0.181v-0.036c0.037 0 0.076 0.058 0.116 0.181v0.036zM4.685 5.603l-0.016 0.039-0.57-0.237q0.57 0.019 0.586 0.199zM2.281 7.669l-0.080 0.008v-0.036l0.080-0.008v0.036zM2.216 6.429h0.020v0.058c-0.019 0-0.042 0.029-0.074 0.082v-0.040c0.036-0.043 0.055-0.076 0.053-0.099zM2.047 6.827l0.007 0.076h-0.020l-0.007-0.076zM1.959 6.97h0.039c0 0.063-0.021 0.096-0.052 0.099h-0.020c0.019-0.027 0.032-0.060 0.034-0.096zM1.893 7.168h0.022v0.019l-0.036 0.060h-0.039v-0.019c0.001 0 0.002 0 0.004 0 0.028 0 0.050-0.022 0.050-0.050 0-0.004-0-0.008-0.001-0.012zM1.827 7.346l-0.011 0.095h-0.020l-0.009-0.094h0.040zM1.173 9.203c-0.026 0.125-0.054 0.196-0.083 0.199v-0.019c-0-0.004-0-0.008-0-0.013 0-0.068 0.033-0.129 0.084-0.167zM1.048 9.463v0.019c0.001 0.003 0.001 0.006 0.001 0.009 0 0.019-0.015 0.034-0.034 0.034-0.001 0-0.002-0-0.003-0l0-0.024q0-0.034 0.035-0.043zM1.019 10h0.060v0.021c-0.023 0.004-0.043 0.012-0.061 0.024l-0.038-0c0-0.020 0.010-0.035 0.035-0.043zM2.743 9.467c-0.229 0.1-0.427 0.215-0.609 0.348q-0.543 0.185-0.538 0.234c-0.26 0.097-0.473 0.192-0.68 0.3-0.006-0.016-0.042-0.026-0.074-0.044 0.001-0.003 0.001-0.007 0.001-0.012 0-0.064 0.036-0.121 0.088-0.15 0.010-0.001 0.020-0.002 0.030-0.002 0.049 0 0.095 0.010 0.137 0.028 0.088-0.043 0.194-0.078 0.303-0.103l0.011-0.042-0.125 0.010c0.101-0.062 0.217-0.116 0.34-0.157l0.072-0.003v0.019c-0.104 0.009-0.161 0.040-0.174 0.094 0 0.025 0.016 0.035 0.042 0.033 0.077-0.049 0.116-0.078 0.115-0.086q0.221-0.043 1.226-0.641v0.036c0 0.018-0.056 0.066-0.171 0.15zM1.715 9.805c0.098-0.008 0.185-0.051 0.25-0.116 0.028-0 0.043 0.009 0.044 0.032-0.104 0.028-0.195 0.071-0.277 0.127l-0.017-0.002v-0.039zM3.375 8.534l-0.514 0.408c-0.177 0.127-0.379 0.252-0.589 0.362q-0.941 0.513-1.162 0.535h-0.022q0.028-0.102 0.813-1.664c0.408-0.067 0.774-0.179 1.117-0.334l0.097 0.001c0.037-0.007 0.079-0.011 0.123-0.011 0.167 0 0.32 0.058 0.44 0.156l0.006 0.075c-0.092 0.266-0.195 0.422-0.305 0.469zM2.375 7.969l0.083-0.008v0.019l-0.083 0.008v-0.019zM3.536 7.772h0.060c0.056 0.026 0.085 0.050 0.087 0.071v0.019c-0.001 0-0.001 0-0.002 0-0.062 0-0.116-0.033-0.146-0.083zM3.7 6.838c-0.132 0.122-0.279 0.23-0.438 0.32-0.091 0.014-0.387 0.131-0.896 0.351-0.017-0.006-0.036-0.010-0.057-0.010-0.008 0-0.015 0.001-0.023 0.002l0.001-0.036c0.003-0.105 0.040-0.201 0.1-0.279 0.039-0.209 0.082-0.329 0.124-0.358l0.425-0.956q-0.007-0.089 0.272-0.136h0.060v0.055c0.183-0.027 0.297-0.044 0.341-0.048 0.337-0.029 0.514 0.040 0.528 0.204h0.039l-0.009-0.096h0.043c0.081 0.030 0.142 0.097 0.165 0.179-0.004 0.079-0.036 0.149-0.086 0.201-0.026-0-0.041-0.016-0.042-0.054h-0.043l-0.009 0.116q-0.256 0.384-0.375 0.395c-0.070 0.096-0.112 0.145-0.125 0.145zM3.961 7.508c-0.023-0.018-0.052-0.030-0.083-0.032l-0-0.058h0.039l0.085 0.050c0.001 0.003 0.001 0.006 0.001 0.009 0 0.019-0.015 0.034-0.034 0.034-0.001 0-0.002-0-0.003-0zM4.231 7.827c0.037 0.015 0.060 0.031 0.064 0.046h-0.030l-0.027 0.022-0.008-0.077zM4.25 7.987v-0.015l0.049-0.011v0.015l-0.049 0.011zM4.367 8.125c0.050-0.009 0.075-0.011 0.168-0.033v0.015l-0.178 0.041c0-0.004 0-0.008 0-0.012s-0-0.008-0-0.012zM4.54 8.199c-0.064 0.001-0.125 0.010-0.183 0.026l0.005-0.016 0.149-0.047 0.071-0.016 0.008 0.027c-0.032 0.008-0.009 0.008-0.046 0.026zM4.697 8.161c-0.003 0.001-0.005 0.001-0.008 0.001-0.015 0-0.028-0.010-0.032-0.025l0.045-0.010c0.003-0.001 0.006-0.002 0.010-0.002 0.015 0 0.026 0.011 0.027 0.026l-0.043 0.010zM5.125 7.696v-0.015l0.074-0.018 0.008 0.027h-0.077zM5.58 10.489c0.002-0.007 0.002-0.015 0.002-0.023s-0.001-0.016-0.002-0.024l0.016 0.001c0.003-0.001 0.006-0.002 0.010-0.002 0.013 0 0.025 0.010 0.026 0.023l0 0.015-0.060 0.014zM5.899 7.816h-0.032c-0.036 0.016-0.081 0.031-0.126 0.042l-0.036 0.009c-0.003 0.001-0.006 0.002-0.010 0.002-0.014 0-0.026-0.010-0.029-0.023l0.21-0.054 0.070-0.032 0.024 0.026c-0.028 0.004-0.052 0.015-0.073 0.030zM6.063 7.764v-0.015c0.016-0.005 0.030-0.014 0.040-0.026l0.148-0.034v0.015c-0.074 0.017-0.138 0.037-0.199 0.063zM6.086 7.457c-0.016 0.006-0.031 0.015-0.043 0.026 0-0.010-0.024-0.010-0.062-0-0.008-0.029 0.105-0.070 0.336-0.125l0.032-0.008 0.008 0.027c-0.162 0.048-0.25 0.075-0.271 0.077zM6.494 7.018c-0.016 0.185-0.081 0.29-0.196 0.316v-0.015l-0.103 0.040-0.045 0.010c-0.009 0.003-0.020 0.004-0.031 0.004s-0.022-0.002-0.032-0.005l-0.008-0.041c0.149-0.233 0.296-0.433 0.453-0.624l0.027 0.010c0 0.008 0.001 0.018 0.001 0.028 0 0.098-0.022 0.192-0.062 0.275zM7.215 6.4h-0.015v-0.029h0.060v0.015c-0.017 0.005-0.032 0.011-0.046 0.019zM6.918 9.383c-0.025-0.013-0.055-0.021-0.087-0.021-0.003 0-0.005 0-0.007 0l0-0.044q0-0.023 0.027-0.031c0.020 0 0.031 0.011 0.034 0.043 0.025-0.036 0.052-0.068 0.083-0.096l0.032 0.017c-0.011 0.089-0.039 0.135-0.080 0.139zM10.101 6.053c-0.015 0-0.044-0.045-0.090-0.14v-0.029c0.029 0 0.060 0.043 0.090 0.136v0.032zM10.059 5.72l-0.014 0.030-0.431-0.18c0.287 0.009 0.436 0.060 0.445 0.15zM8.232 7.287h-0.060v-0.029h0.060v0.029zM8.182 6.345h0.016v0.044q-0.023 0-0.056 0.063v-0.029c0.020-0.020 0.034-0.047 0.039-0.077zM8.057 6.647v0.058h-0.016v-0.058zM7.989 6.756h0.030q0 0.074-0.039 0.076h-0.018c0.014-0.022 0.023-0.048 0.025-0.076zM7.94 6.905h0.014v0.015l-0.026 0.046h-0.030v-0.015c0.031 0 0.045-0.019 0.043-0.048zM7.891 7.040l-0.010 0.075h-0.014v-0.074h0.030zM7.391 8.453q-0.030 0.146-0.063 0.15v-0.012c-0-0.002-0-0.004-0-0.007 0-0.053 0.025-0.1 0.064-0.131zM7.3 8.65v0.012c0.001 0.002 0.001 0.005 0.001 0.008 0 0.014-0.012 0.026-0.026 0.026-0.001 0-0.002-0-0.002-0l0-0.015q0-0.023 0.027-0.031zM7.274 9.060h0.046v0.015c-0.017 0.003-0.032 0.009-0.046 0.018l-0.029-0q0-0.025 0.027-0.031zM8.581 8.656c-0.175 0.078-0.325 0.164-0.465 0.263-0.271 0.092-0.409 0.153-0.408 0.177-0.196 0.073-0.357 0.145-0.512 0.227-0.005-0.013-0.033-0.021-0.057-0.035 0-0.004 0-0.008 0-0.013 0-0.048 0.027-0.090 0.068-0.111 0.008-0.001 0.017-0.002 0.025-0.002 0.036 0 0.071 0.007 0.102 0.021 0.066-0.031 0.147-0.057 0.23-0.076l0.009-0.030-0.094 0.009c0.077-0.049 0.165-0.091 0.259-0.122l0.055-0.003v0.012c-0.079 0.008-0.125 0.030-0.133 0.072 0 0-0 0-0 0.001 0 0.014 0.012 0.026 0.026 0.026 0.002 0 0.004-0 0.006-0.001 0.059-0.039 0.086-0.060 0.086-0.067q0.168-0.030 0.93-0.488v0.029c0 0.011-0.043 0.049-0.125 0.113zM7.801 8.906c0.077-0.003 0.146-0.033 0.199-0.081 0.020 0 0.031 0.008 0.032 0.026-0.079 0.021-0.148 0.051-0.211 0.091l-0.013-0.002v-0.027zM9.061 7.939l-0.387 0.312c-0.135 0.098-0.289 0.193-0.45 0.278q-0.712 0.385-0.882 0.405h-0.016q0.021-0.079 0.619-1.263c0.31-0.053 0.588-0.14 0.848-0.259l0.072-0c0.028-0.005 0.059-0.008 0.092-0.008 0.127 0 0.243 0.045 0.334 0.12l-0.001 0.057c-0.071 0.2-0.148 0.317-0.231 0.354zM8.3 7.516h0.060v0.015h-0.060v-0.015zM9.181 7.366h0.046c0.043 0.021 0.065 0.040 0.066 0.055v0.013c-0.001 0-0.003 0-0.005 0-0.047 0-0.087-0.025-0.109-0.063zM9.306 6.657c-0.098 0.093-0.207 0.176-0.324 0.245-0.27 0.083-0.493 0.171-0.706 0.276 0.011-0.017-0.007-0.021-0.026-0.021-0.003 0-0.007 0-0.010 0l0-0.029c0.002-0.080 0.029-0.153 0.074-0.212 0.029-0.16 0.063-0.249 0.098-0.27l0.325-0.726c0-0.043 0.065-0.077 0.205-0.105h0.046v0.044q0.206-0.034 0.259-0.039c0.25-0.022 0.39 0.029 0.401 0.155h0.030v-0.070h0.030c0.064 0.024 0.112 0.079 0.125 0.146-0.002 0.060-0.025 0.113-0.061 0.154-0.020-0-0.031-0.011-0.034-0.043h-0.030l-0.009 0.088c-0.125 0.196-0.224 0.299-0.283 0.303-0.053 0.071-0.085 0.107-0.1 0.109zM9.443 7.143v-0.044h0.030l0.065 0.040c0 0.001 0 0.002 0 0.004 0 0.015-0.012 0.027-0.027 0.027-0 0-0 0-0 0-0.018-0.014-0.039-0.023-0.063-0.025zM4.019 9.97l-0.030 0.008-0.026 0.023c0.002 0.013 0.013 0.023 0.026 0.023 0.004 0 0.007-0.001 0.010-0.002 0.020 0 0.027-0.016 0.024-0.035v-0.015zM3.904 9.74v0.015c0.020 0 0.027-0.016 0.024-0.035v-0.015c-0.014 0.001-0.025 0.013-0.025 0.027 0 0.003 0 0.005 0.001 0.008zM4.729 8.191l0.022-0.014h-0.011c-0.006 0.002-0.010 0.007-0.010 0.013 0 0.001 0 0.002 0 0.003zM4.729 7.79l0.035-0.009-0.014-0.031-0.035 0.009 0.008 0.030zM12.96 8.966l-0.079-0.009-0.014 0.030v0.012l0.471-0.040v-0.029l-0.375 0.033zM13.391 8.93v0zM15.37 8.671v0.029l0.051 0.009v-0.029l-0.051-0.009zM15.297 8.671c-0.14 0.041-0.302 0.066-0.47 0.071l-0.003 0.029h0.050l0.039-0.015c0.35-0.039 0.391-0.025 0.387-0.064v-0.014zM13.172 8.156l-0.031-0.010c-0.016 0.036-0.029 0.078-0.037 0.122l-0 0.016c0.025 0 0.046-0.043 0.068-0.125zM12.746 7.926v-0.015h-0.016l-0.029 0.019 0.016 0.027c0.023 0 0.033-0.013 0.030-0.032zM13.672 8.884v-0.029h-0.009v0.029zM15.594 8.45h0.023c0.012 0 0.019-0.011 0.018-0.030l-0.012-0.027c-0.001 0-0.001 0-0.002 0-0.066 0-0.128 0.017-0.182 0.047l0.002-0.016-0.096 0.009c0-0.029-0.010-0.044-0.024-0.043h-0.050c-0.059 0-0.086 0-0.115 0.025 0-0.010 0-0.015-0.010-0.015h-0.056l-0.033 0.019c0-0.010 0-0.015-0.010-0.015l-0.020 0.018v-0.015h-0.096v0.029l0.040 0.010h0.037c0.010 0.006 0.022 0.009 0.034 0.009 0.003 0 0.006-0 0.009-0.001l0.032-0.016v0.012c-0.085 0.023-0.189 0.044-0.296 0.058-0.020-0.006-0.031-0.011-0.043-0.011l-0-0c-0.013-0.001-0.024-0.012-0.024-0.025 0-0 0-0.001 0-0.001l0.065-0.009c0.012 0.004 0.026 0.008 0.041 0.011 0.055-0.026 0.058-0.036 0.085-0.038v-0.029c-0.1 0.019-0.214 0.031-0.332 0.031h-0.011v-0.029c0.289-0.035 0.193-0.015 0.291-0.043 0 0.010 0 0.015 0.010 0.015 0.010-0.011 0.024-0.018 0.040-0.020l0.020-0c0.014 0.001 0.031 0.001 0.047 0.001 0.097 0 0.192-0.013 0.281-0.038l-0.007 0.014 0.033-0.016h0.030c0-0.029 0.043-0.034 0.057-0.035v-0.031c-0.351 0.071-0.444 0.051-0.541 0.079v-0.012c-0.029 0.007-0.062 0.011-0.096 0.011-0.010 0-0.020-0-0.030-0.001-0.010 0.004-0.020 0.010-0.027 0.019-0-0.010-0-0.015-0.011-0.015v0l-0.299 0.049c0-0.009 0-0.012-0.011-0.011-0.094 0.029-0.203 0.049-0.315 0.057-0.020 0.003-0.033 0.009-0.044 0.017 0-0.009 0-0.013-0.016-0.011l-0.125 0.010-0.085 0.021c0-0.009 0-0.012-0.016-0.011-0.036 0.011-0.079 0.019-0.122 0.024l-0.003 0c-0.021 0 0.010 0 0-0.012l-0.026 0.015c-0.037 0-0.018 0-0.145 0-0.225 0.027-0.2 0.031-0.225 0.033h-0.084c0 0.001 0 0.002 0 0.003 0 0.006-0.005 0.011-0.011 0.011-0.001 0-0.001-0-0.002-0-0.095-0.012-0.145-0.027-0.145-0.045q0.019-0.136 0.066-0.14h0.016l-0.014 0.030h0.016c0.030-0.016 0.044-0.031 0.043-0.045v-0.031h-0.030v-0.029c-0.001-0.004-0.001-0.009-0.001-0.015 0-0.016 0.004-0.031 0.010-0.045l0.068-0.111v0.029h0.033v-0.029l-0.019-0.026c0.016-0.016 0.036-0.028 0.058-0.034l0.001-0.015h-0.044v-0.044c0.053-0.093 0.096-0.2 0.123-0.313l0.033 0.004c0.020 0 0.029-0.013 0.027-0.034h-0.030v-0.013c-0-0.003-0.001-0.007-0.001-0.011 0-0.018 0.004-0.035 0.012-0.051 0.040-0.035 0.065-0.087 0.065-0.145 0-0.002-0-0.005-0-0.007 0.009 0 0.014 0 0.015 0.014 0.041-0.024 0.072-0.085 0.095-0.188 0.107-0.214 0.211-0.473 0.297-0.74 0.268-0.731 0.262-0.804 0.293-0.968h-0.030c0 0.003 0.001 0.007 0.001 0.011 0 0.018-0.004 0.034-0.012 0.049-0.014-0.007-0.031-0.011-0.048-0.012l-0-0.013c0.001-0.081 0.030-0.155 0.077-0.214l0.013 0.001 0.026 0.1h0.030c0.006-0.048 0.014-0.090 0.025-0.131-0.001-0.009-0.014-0.019-0.038-0.020l-0.029 0.019c0-0.021 0-0.076 0-0.162h-0.015c-0.020-0.016-0.034-0.038-0.040-0.063l-0.166 0.015c-0.003-0.019-0.010-0.037-0.019-0.052 0-0.014 0.037-0.029 0.113-0.044l0.034 0.013 0.031-0.019c0 0.010 0.008 0.015 0.019 0.014l0.031-0.019c0 0.010 0.008 0.015 0.019 0.014h0.015v-0.034c-0.024 0-0.085 0-0.182 0l-0.031 0.021v-0.019q-1.172 0.096-1.331 0.111c-0.014 0-0.069 0-0.165 0 0 0.013-0.010 0.020-0.034 0.022l-0.034-0.015-0.133 0.022c-0.020 0.002-0.044 0.003-0.068 0.003s-0.047-0.001-0.070-0.003c-0.014 0.014-0.036 0.023-0.060 0.025l0.331-0.025c-0.023 0.016-0.051 0.025-0.081 0.026-0.005 0.001-0.010 0.001-0.015 0.001-0.019 0-0.036-0.005-0.052-0.013-0.068 0.022-0.152 0.043-0.238 0.057l-0.045-0.011-0.545 0.084c-0.017-0.008-0.036-0.012-0.057-0.012-0.006 0-0.012 0-0.018 0.001-0.054 0.007-0.103 0.018-0.151 0.033l-0.257 0.108 0.020 0.032c0.020-0.004 0.038-0.011 0.054-0.022l0.093 0.009-0.011 0.088c-0.075 0.027-0.131 0.089-0.15 0.166-0.125 0.059-0.194 0.099-0.194 0.127v0.015h0.020l0.035-0.019 0.041 0.049v0.067q0 0.031-0.651 1.375c-0.375 0.863-0.575 1.334-0.594 1.419-0.125 0.036-0.204 0.089-0.226 0.159 0 0.023 0.041 0.037 0.115 0.043v0.034l-0.034 0.056v0.068q0 0.053 0.283 0.080c0-0.011 0-0.019 0.018-0.020-0.001 0.089-0.014 0.175-0.037 0.257l0.044-0.007c0.055-0.058 0.094-0.132 0.11-0.214l0.015-0.003c0.019 0 0.039 0.020 0.061 0.065q-0.035 0.014-0.25 0.556l0.020 0.033h0.020q0.256-0.65 0.322-0.719 0.338-0.030 1.166-0.125l0.035-0.021c-0 0-0 0.001-0 0.001 0 0.009 0.007 0.016 0.016 0.016 0.002 0 0.004-0 0.005-0.001l0.036 0 0.035-0.021c-0 0-0 0.001-0 0.001 0 0.009 0.007 0.016 0.016 0.016 0.002 0 0.004-0 0.005-0.001l0.419-0.036c0.111-0.009 0.162-0.043 0.159-0.1 0-0.015 0.064-0.033 0.196-0.051 0.001 0 0.001-0 0.002-0 0.020 0 0.039 0.004 0.057 0.010-0.001-0.010 0.064-0.022 0.196-0.033 0-0.070 0.025-0.107 0.065-0.111v-0.034c-0.047 0.005-0.089 0.016-0.129 0.030-0.055-0.002-0.113-0.009-0.168-0.022-0.010 0.011-0.028 0.018-0.047 0.022l-0.3-0.009-0.035 0.019q0-0.016-0.021-0.014h-0.016l-0.037 0.019c0-0.010-0.031-0.019-0.092-0.026l-0.037 0.023h-0.072v-0.019q0.563-0.061 0.555-0.152c0.002-0.001 0.005-0.001 0.008-0.001 0.018 0 0.033 0.015 0.033 0.033 0 0.001-0 0.002-0 0.002l0.11-0.028v-0.034l-0.898 0.025c0 0.011 0 0.019-0.018 0.020l-0.11-0.009c-0.026 0.002-0.051 0.011-0.070 0.025l-0.043-0.008c-0.091 0.006-0.177 0.021-0.259 0.043-0.029-0.005-0.072-0.007-0.116-0.007s-0.088 0.002-0.131 0.005l-0.196 0.017-0.094-0.010c0-0.060 0.111-0.351 0.349-0.875 0.037-0.13 0.104-0.241 0.193-0.33 0.021 0 0.041 0.005 0.058 0.014l0.128-0.049 0.074 0.011c0.16-0.018 0.306-0.055 0.443-0.11-0.003 0.003 0.007 0.002 0.017 0.002 0.023 0 0.046 0.004 0.067 0.011l0.109-0.027 0.326-0.027c0.168-0.016 0.321-0.049 0.468-0.097l-0.015-0.029c-0.060 0-0.092 0-0.094-0.029 0-0.045-0.047-0.064-0.133-0.058v-0.034l0.090-0.026 0.235-0.020v-0.034c-0.009 0-0.057 0-0.145 0v-0.036l0.091-0.009c0.025 0 0.035-0.014 0.033-0.037-0.125 0-0.184 0-0.185-0.019q-1.279 0.063-1.283 0.024c-0.020 0.005-0.038 0.013-0.054 0.024l-0.036-0.039q0.339-0.72 0.398-0.725c-0.002 0.033-0.012 0.064-0.028 0.091l0.001 0.009h0.036c0.090-0.214 0.165-0.325 0.229-0.33 0.268-0.024-0.037-0.041 0.536-0.125 0.015 0.008 0.032 0.013 0.051 0.014q0.338-0.069 0.94-0.143v-0.034l-0.214 0.020v-0.034c0.024-0.002 0.046-0.011 0.064-0.025l-0 0.019c0.019-0.005 0.035-0.013 0.049-0.024 0.007-0.001 0.016-0.002 0.025-0.002 0.022 0 0.042 0.004 0.061 0.012 0.049-0.015 0.11-0.028 0.173-0.036l0.14-0.013c0.033-0.021 0.047-0.040 0.046-0.058v-0.015c-0.010 0.001-0.021 0.001-0.032 0.001-0.030 0-0.060-0.003-0.088-0.009 0.003-0.001 0.003-0.002 0.003-0.003 0-0.017 0.013-0.032 0.030-0.034l0.25-0.024 0.114-0.029c0 0.013 0.008 0.018 0.016 0.018 0.019-0.005 0.035-0.013 0.049-0.024l0.018 0c-0.018 0.038-0.035 0.083-0.048 0.13l-0.034 0.007c-0.002-0.022-0.009-0.043-0.019-0.061l-0.022 0.001c-0.303 0.844-0.438 1.236-0.717 1.884-0.051 0.165-0.094 0.258-0.131 0.277 0 0-0 0-0 0.001 0 0.014 0.012 0.026 0.026 0.026 0.002 0 0.004-0 0.006-0.001 0.001 0.009 0.001 0.020 0.001 0.031 0 0.078-0.022 0.15-0.060 0.212-0.124 0.373-0.214 0.574-0.259 0.612l0.029 0.176c0 0.001 0 0.002 0 0.004 0 0.015-0.012 0.027-0.027 0.027-0 0-0 0-0 0h-0.030c0-0.049-0.023-0.072-0.054-0.069h-0.016c-0.040 0.062-0.071 0.134-0.089 0.21l0.029 0.005c0.034-0.017 0.056-0.051 0.056-0.091 0-0.001-0-0.002-0-0.003l0.060 0 0.035 0.012c-0.023 0.029-0.037 0.066-0.039 0.106l0.016 0.028-0.040 0.094v0.015c0.002-0 0.005-0 0.008-0 0.040 0 0.076 0.012 0.107 0.033 0.034-0.007 0.064-0.021 0.090-0.041 0.035 0 0.165 0 0.39 0l0.113-0.039c0.017 0 0.037 0.001 0.058 0.001 0.078 0 0.155-0.003 0.231-0.010l0.039 0.001 0.026-0.018v0.015c0.026-0.003 0.056-0.005 0.086-0.005 0.051 0 0.101 0.005 0.149 0.014l-0.005 0.014h-0.069v0.029c0.021-0.001 0.040-0.009 0.055-0.021 0.017 0 0.027 0.009 0.029 0.029-0.035 0.004-0.066 0.011-0.097 0.022l-0.027-0.011c-0.047 0.012-0.037 0.016-0.070 0.019l-0.047-0.009c0 0.001 0 0.002 0 0.002 0 0.006-0.005 0.011-0.011 0.011-0 0-0 0-0 0s-0 0.001-0 0.002c0 0.014 0.011 0.025 0.025 0.025 0.001 0 0.003-0 0.004-0l0.049 0 0.25-0.023 0.096-0.021c0 0.009 0 0.012 0.012 0.011l0.046-0.018 0.088-0.008c0.068 0 0.066-0.010 0.214-0.034 0-0.009 0-0.012 0.009-0.014v0.012c0.112-0.014 0.211-0.033 0.308-0.060l-0.015 0.011c0.060-0.014 0.026-0.010 0.043-0.023 0 0.010 0 0.015 0.010 0.015h0.043v-0.031h-0.105c-0.025 0.005-0.053 0.008-0.083 0.008-0.004 0-0.009-0-0.013-0l-0.213 0.011v-0.015l0.125-0.016h0.043l0.025-0.018v0.014c0.168-0.014 0.227 0.027 1-0.137 0.043 0 0.039-0.039 0.065-0.111-0.002 0-0.004 0-0.006 0-0.013 0-0.025-0.003-0.035-0.009-0.064 0.017-0.14 0.028-0.218 0.033-0.013 0-0.022-0.009-0.026-0.026v-0.012h0.125c0.047-0.005 0.089-0.020 0.126-0.043-0.001 0.011-0.026 0.017-0.011 0.016zM9.859 8.543h-0.055c0.020-0.095 0.050-0.178 0.090-0.256l0.034 0.006c-0.013 0.093-0.037 0.177-0.071 0.256zM9.925 8.277v-0.015c0-0.019 0.010-0.031 0.036-0.037v0.025c0 0.023-0.010 0.035-0.036 0.037zM10.652 8.84v0.015l-0.091 0.009v-0.015l0.091-0.009zM10.543 8.831c0 0.019-0.026 0.040-0.088 0.060l-0.111-0.009h-0.036v-0.034l0.239-0.023zM11.279 5.442h-0.055v-0.019c0-0.019 0.009-0.031 0.033-0.037h0.020l0.037 0.015c0 0.002 0 0.003 0 0.005 0 0.018-0.015 0.032-0.033 0.032-0.001 0-0.001-0-0.002-0zM12.111 5.28h0.014v0.034h-0.050c-0-0.001-0-0.003-0-0.004 0-0.017 0.013-0.032 0.030-0.034zM11.901 5.354l-0.082-0.009v-0.015c0.077-0.005 0.149-0.020 0.218-0.042-0.006 0.014 0.006 0.019 0.027 0.017v0.034h-0.033c-0.005 0.001-0.010 0.001-0.015 0.001-0.019 0-0.036-0.005-0.052-0.013-0.017 0.013-0.039 0.021-0.062 0.024zM12 5.661v-0.015l0.134-0.013v0.015l-0.134 0.013zM12.144 5.545v-0.020h0.065v0.019h-0.065zM12.159 5.316h-0.018l0.015-0.036 0.149-0.014v0.019c-0.056 0.007-0.106 0.017-0.154 0.032zM12.235 5.638v-0.034h0.065q0.034 0 0.035 0.031l-0.098 0.009zM12.63 5.1l-0.084 0.024h-0.015c-0.025 0.003-0.055 0.004-0.085 0.004-0.025 0-0.050-0.001-0.075-0.003 0.112-0.007 0.216-0.015 0.253-0.021zM12.54 5.475v0.015l-0.115 0.010v-0.015l0.115-0.010zM12.729 5.565c0-0.014-0.024-0.024-0.069-0.027l-0.115 0.032h-0.089c-0.020-0.014-0.030-0.024-0.031-0.030h0.102l0.23-0.037h0.117v0.019c-0.054 0.005-0.104 0.015-0.152 0.031zM13.915 5.25h0.026c0.039-0.039 0.085-0.070 0.136-0.093-0.025 0.158-0.094 0.297-0.194 0.408l-0.064-0.041c0.033-0.075 0.066-0.168 0.093-0.263zM13.715 5.594h0.016c-0.023 0.043-0.043 0.064-0.059 0.065v-0.044c0.017-0.003 0.033-0.010 0.045-0.020zM13.59 5.902c0.011-0.082 0.043-0.156 0.091-0.216l-0.001 0.016c-0.016 0.116-0.043 0.179-0.076 0.183v0.074c-0.022 0.025-0.037 0.058-0.040 0.093l-0.016 0.001-0.009-0.101c0.019 0 0.034-0.019 0.044-0.049zM13.54 6.070c-0.005 0.046-0.017 0.089-0.035 0.128l-0.015-0.003v-0.044c0.023-0.051 0.041-0.077 0.054-0.077zM12.6 8.797v-0.012h0.030v0.044c-0.016 0-0.027-0.009-0.033-0.029zM13.943 8.832c0-0.010 0-0.015-0.016-0.014l-0.076 0.008v-0.015h0.008l0.179-0.015v0.015c-0.004-0-0.008-0-0.012-0-0.030 0-0.059 0.009-0.083 0.023zM13.852 8.795c0.008 0 0 0.008 0 0.009s-0.009 0 0-0.009zM13.861 8.585l-0.1 0.009v-0.015l0.091-0.009 0.079-0.020c0 0.009 0 0.012 0.016 0.011 0.094-0.016 0.085-0.021 0.125-0.025 0.015 0 0.025 0.009 0.026 0.026l-0.241 0.021zM14.211 8.555c-0.024-0.005-0.051-0.008-0.079-0.008-0.007 0-0.014 0-0.020 0.001l0.001-0.013 0.090-0.009v0.012c-0.009 0 0.025 0 0.009 0.015zM14.219 8.539v-0.012h0.049v0.012h-0.049zM14.328 8.53v-0.012c0.014-0.004 0.025-0.010 0.035-0.019 0.001-0 0.003-0 0.005-0 0.019 0 0.034 0.014 0.035 0.033zM14.466 8.512v-0.012h0.060v0.015h-0.060zM14.549 8.505c0-0.018 0-0.027 0.021-0.030l0.020 0.026c-0-0.001-0-0.002-0-0.003 0-0.005 0.004-0.010 0.009-0.011l0.015 0.027-0.065-0.009zM15.691 8.375v0 0zM15.713 8.36c0.009 0 0.014-0.011-0.009-0.015s0.011 0.015-0.011 0.016v0.014l0.012-0.009-0.012 0.010-0.025 0.031 0.049-0.018v-0.029zM15.797 8.426h-0.009v0.029h0.069c0-0.019-0.046-0.025-0.061-0.025z"></path>
</svg>
