<?xml version="1.0" encoding="UTF-8"?>
<svg viewBox="0 0 13 16" version="1.1" xmlns="http://www.w3.org/2000/svg" xmlns:xlink="http://www.w3.org/1999/xlink">
    <!-- soda by ✦ Shmidt Sergey ✦ from the Noun Project -->
    <title>soda</title>
    <desc>soda by ✦ Shmidt Sergey ✦ from the Noun Project</desc>
    <defs></defs>
    <g id="Page-1" stroke="none" stroke-width="1" fill="none" fill-rule="evenodd">
        <g id="noun_972479_cc" fill-rule="nonzero" fill="#000000">
            <g id="Group">
                <path d="M7.62752,15.36 L1.9936,15.36 L1.78048,15.27808 L1.344,14.88832 L1.2384,14.68544 L0.00192,3.5552 L0.32,3.2 L9.92,3.2 L10.23552,3.57248 L8.37696,14.72512 L8.2688,14.91648 L7.8336,15.28448 L7.62752,15.36 Z M2.11584,14.72 L7.5104,14.72 L7.76512,14.50432 L9.5424,3.84 L0.67776,3.84 L1.86112,14.4928 L2.11584,14.72 Z" id="Shape"></path>
                <path d="M7.31456,8.3392 C6.58432,8.3392 5.85344,8.09216 5.29728,7.59936 C4.41856,6.82048 2.99008,6.82048 2.11072,7.59936 C1.856,7.82528 1.5616,8.00384 1.23584,8.13056 L0.9376,8.2464 L0.70592,7.64992 L1.00416,7.53408 C1.25888,7.43552 1.48864,7.296 1.6864,7.12064 C2.79872,6.1344 4.60864,6.1344 5.7216,7.12064 C6.60096,7.90016 8.03072,7.89824 8.90816,7.12064 L9.14752,6.90816 L9.57248,7.38752 L9.33312,7.6 C8.77632,8.0928 8.04544,8.3392 7.31456,8.3392 Z" id="Shape"></path>
                <path d="M6.34816,13.80416 L5.7152,13.7088 L7.6032,1.232 C7.67872,0.75712 7.98208,0.352 8.41408,0.14592 C8.84416,-0.05952 9.3504,-0.04096 9.76576,0.19776 L12.79168,2.26304 L12.43072,2.79168 L9.42656,0.73984 C9.21216,0.6176 8.9344,0.60672 8.69056,0.72384 C8.4448,0.84096 8.27904,1.0624 8.2368,1.3312 L6.34816,13.80416 Z" id="Shape"></path>
                <path d="M3.84,10.24 C3.31072,10.24 2.88,9.80928 2.88,9.28 C2.88,8.75072 3.31072,8.32 3.84,8.32 C4.36928,8.32 4.8,8.75072 4.8,9.28 C4.8,9.80928 4.36928,10.24 3.84,10.24 Z M3.84,8.96 C3.66336,8.96 3.52,9.104 3.52,9.28 C3.52,9.456 3.66336,9.6 3.84,9.6 C4.01664,9.6 4.16,9.456 4.16,9.28 C4.16,9.104 4.01664,8.96 3.84,8.96 Z" id="Shape"></path>
                <circle id="Oval" cx="3.52" cy="12.8" r="1"></circle>
                <circle id="Oval" cx="5.12" cy="11.2" r="1"></circle>
            </g>
        </g>
    </g>
</svg>
