<!-- Generated by IcoMoon.io -->
<svg version="1.1" xmlns="http://www.w3.org/2000/svg" viewBox="0 0 16 16">
<title>beverage</title>
<path d="M11.527 4.453c0.278 0 0.504 0.226 0.504 0.504l-0.914 10.046c0 0.278-0.226 0.504-0.504 0.504h-5.229c-0.279 0-0.504-0.226-0.504-0.504l-0.913-10.046c0-0.279 0.225-0.504 0.504-0.504h4.505l0.533-2.718 2.42-1.242-0.174 0.649-1.796 0.9-0.469 2.411h2.036zM8.757 7.981h2.014l-0.567 6.519h-4.409l-0.567-6.519h3.014l0.63-3.024h-4.4l0.913 10.046h5.228l0.913-10.046h-2.141l-0.629 3.024z"></path>
</svg>
