<!-- Generated by IcoMoon.io -->
<svg version="1.1" xmlns="http://www.w3.org/2000/svg" viewBox="0 0 16 16">
<title>bitbucket</title>
<path d="M8 0.128v0c-3.75 0-6.82 1.009-6.82 2.263 0 0.33 0.819 5.063 1.143 6.94 0.146 0.842 2.32 2.076 5.674 2.076l0.003-0.010v0.010c3.375 0 5.53-1.234 5.675-2.076 0.325-1.877 1.144-6.61 1.144-6.94 0-1.253-3.069-2.263-6.819-2.263zM8 9.886c-1.197 0-2.168-0.971-2.168-2.168s0.971-2.168 2.168-2.168 2.168 0.971 2.168 2.168c0 1.197-0.971 2.168-2.168 2.168zM7.999 3.090c-2.412-0.004-4.367-0.423-4.366-0.936s1.957-0.926 4.369-0.922c2.412 0.004 4.367 0.423 4.366 0.936s-1.957 0.926-4.369 0.922zM12.902 11.211c-0.104 0-0.187 0.073-0.187 0.073s-1.679 1.33-4.715 1.33-4.715-1.33-4.715-1.33-0.083-0.073-0.187-0.073c-0.124 0-0.241 0.083-0.241 0.267 0 0.019 0.002 0.039 0.006 0.058 0.261 1.395 0.451 2.386 0.485 2.537 0.228 1.026 2.235 1.802 4.652 1.802h0c2.418 0 4.425-0.776 4.653-1.802 0.034-0.151 0.224-1.141 0.485-2.536 0.004-0.019 0.005-0.039 0.005-0.058 0-0.184-0.117-0.267-0.241-0.267zM9.084 7.717c0 0.6-0.486 1.086-1.086 1.086s-1.086-0.486-1.086-1.086c0-0.6 0.486-1.086 1.086-1.086s1.086 0.486 1.086 1.086z"></path>
</svg>
