<!-- Generated by IcoMoon.io -->
<svg version="1.1" xmlns="http://www.w3.org/2000/svg" viewBox="0 0 16 16">
<title>bootstrap</title>
<path d="M9.463 8.2c-0.292-0.096-0.712-0.075-1.26-0.075h-2.203v2.875h2.355c0.368 0 0.627-0.039 0.775-0.067 0.262-0.047 0.482-0.138 0.658-0.248s0.321-0.276 0.435-0.485c0.114-0.21 0.17-0.455 0.17-0.729 0-0.321-0.082-0.568-0.247-0.804s-0.393-0.371-0.684-0.467zM9.16 6.886c0.29-0.086 0.508-0.236 0.655-0.436s0.22-0.454 0.22-0.755c0-0.286-0.069-0.539-0.206-0.757s-0.333-0.302-0.587-0.382c-0.255-0.080-0.691-0.056-1.31-0.056h-1.932v2.5h2.073c0.505 0 0.867-0.048 1.087-0.114zM15.75 2.328c0-1.148-0.93-2.078-2.078-2.078h-11.469c-1.148 0-2.078 0.93-2.078 2.078v11.469c0 1.148 0.93 2.078 2.078 2.078h11.469c1.148 0 2.078-0.93 2.078-2.078v-11.469zM11.319 10.593c-0.17 0.347-0.381 0.614-0.631 0.802s-0.565 0.348-0.943 0.444c-0.378 0.096-0.841 0.162-1.389 0.162h-3.481v-8.625h3.428c0.658 0 1.186 0.076 1.583 0.25s0.709 0.437 0.934 0.799c0.225 0.362 0.338 0.738 0.338 1.134 0 0.368-0.1 0.713-0.3 1.038s-0.501 0.587-0.905 0.787c0.521 0.153 0.921 0.413 1.201 0.781s0.42 0.803 0.42 1.304c0 0.403-0.085 0.778-0.255 1.125z"></path>
</svg>
