<!-- Generated by IcoMoon.io -->
<svg version="1.1" xmlns="http://www.w3.org/2000/svg" viewBox="0 0 16 16">
<title>bower</title>
<path d="M14.305 5.806c-0.141-0.057-0.283-0.121-0.43-0.153-0.837-0.181-1.674-0.37-2.516-0.524-0.616-0.112-1.241-0.175-1.862-0.261 0.063-0.432 0.121-0.486 0.585-0.558 0.236 0.409 0.236 0.409 0.725 0.351 1.001-0.117 1.641-0.694 1.823-1.721 0.134-0.761 0.292-1.497 0.869-2.065 0.007-0.007-0.005-0.032-0.007-0.048-1.060-0.325-2.423 0.405-3.271 1.763-0.388-0.051-0.635-0.176-0.808-0.584-0.463-1.093-1.316-1.752-2.53-1.796-2.196-0.081-4.192 1.193-5.052 3.22-0.853 2.011-0.58 3.97 0.387 5.866 0.393 0.771 0.894 1.466 1.638 1.945 0.637 0.41 1.224 0.28 1.651-0.346 0.018-0.026 0.050-0.042 0.089-0.073l0.19 0.498c0.064 0.169 0.122 0.34 0.194 0.506 0.147 0.336 0.539 0.497 0.88 0.383 0.088-0.029 0.201-0.033 0.289-0.005 0.38 0.12 0.728 0.123 1.033-0.185 0.049-0.049 0.151-0.065 0.228-0.062 0.523 0.017 0.812-0.155 1.037-0.625 0.019-0.040 0.048-0.079 0.082-0.107 0.35-0.276 0.436-0.564 0.26-0.967-0.106-0.243-0.239-0.476-0.364-0.711-0.090-0.169-0.186-0.334-0.305-0.546 0.579 0.191 1.097 0.389 1.574-0.046 0.098 0.051 0.181 0.099 0.268 0.137 0.479 0.208 1.118 0.14 1.391-0.18 0.113-0.133 0.214-0.142 0.365-0.13 0.596 0.046 1.293-0.143 1.391-0.852 0.634-0.129 0.923-0.409 0.975-0.946 0.056-0.583-0.175-0.933-0.78-1.176zM10.611 4.302c-0.063 0.001-0.152-0.113-0.187-0.193-0.047-0.106-0.053-0.231-0.096-0.445l0.503 0.195c0.229-0.17 0.463 0.092 0.794 0.121-0.349 0.241-0.675 0.316-1.014 0.322zM12.745 1.164l-0.76 2.607c-0.312-0.261-0.537-0.449-0.814-0.68l0.925-1.427c-0.514 0.314-0.813 0.796-1.095 1.325l-0.414-0.231c0.308-0.825 1.362-1.582 2.159-1.594zM9.254 2.749c0.7 0.039 1.299 0.336 1.844 0.756 0.036 0.028 0.042 0.095 0.093 0.219-0.636-0.217-1.177-0.14-1.718 0.063-0.158 0.060-0.351 0.028-0.528 0.039l0.003 0.082 0.997-0.062 0.009 0.072c-0.346 0.159-0.691 0.317-1.037 0.476-0.268-0.368-0.161-1.256 0.121-1.553 0.050-0.053 0.145-0.097 0.216-0.093zM10.818 6.338l-0.011 0.074 3.239 0.638c-0.127 0.344-0.386 0.45-1.017 0.439-0.024 0.588-0.297 0.744-1.185 0.677-0.18 0.534-0.66 0.65-1.479 0.353-0.438 0.477-0.936 0.305-1.448 0.104-0.101 0.793-0.467 1.411-1.163 1.806-0.647 0.367-1.341 0.327-2.031 0.176-2.785-0.607-4.388-3.32-3.647-6.159 0.555-2.124 2.288-3.569 4.423-3.687 1.032-0.057 1.949 0.48 2.381 1.411 0.041 0.089 0.045 0.252-0.010 0.32-0.576 0.717-0.586 1.486-0.213 2.279 0.086 0.183 0.058 0.29-0.051 0.428-0.493 0.622-1.153 0.982-1.893 1.219l-0.1 0.030c0.857-0.018 1.677-0.155 2.276-0.835 0.157-0.178 0.306-0.226 0.517-0.192 1.156 0.184 2.313 0.361 3.467 0.553 0.297 0.050 0.588 0.139 0.878 0.225 0.224 0.066 0.375 0.21 0.416 0.486-1.129-0.117-2.239-0.231-3.348-0.345zM7.34 3.287c-0-0.39-0.33-0.712-0.717-0.699-0.361 0.012-0.692 0.362-0.679 0.718 0.014 0.379 0.333 0.684 0.71 0.678 0.381-0.006 0.686-0.316 0.686-0.697zM6.232 2.968c0-0.247 0.241-0.28 0.446-0.27 0.183 0.008 0.404 0.054 0.393 0.276-0.013 0.251-0.254 0.261-0.513 0.336-0.115-0.114-0.326-0.227-0.326-0.341zM2.367 14.451c0.061-0.053 0.112-0.117 0.153-0.194s0.061-0.152 0.061-0.227c0-0.032-0.003-0.064-0.008-0.096s-0.017-0.069-0.033-0.108c-0.017-0.040-0.038-0.078-0.063-0.113s-0.061-0.071-0.105-0.105c-0.044-0.034-0.095-0.064-0.152-0.089s-0.127-0.075-0.209-0.090-0.174-0.053-0.273-0.053h-0.861v2.375h0.797c0.13 0 0.25 0 0.359-0.020s0.201-0.040 0.275-0.071c0.075-0.031 0.14-0.066 0.197-0.11s0.102-0.086 0.135-0.131c0.034-0.044 0.060-0.091 0.081-0.14s0.035-0.092 0.042-0.13c0.007-0.038 0.011-0.075 0.011-0.111 0-0.127-0.037-0.244-0.111-0.351s-0.172-0.185-0.295-0.236zM1.25 13.75h0.392c0.099 0 0.182 0.026 0.25 0.045s0.117 0.052 0.149 0.084c0.031 0.032 0.053 0.067 0.065 0.097s0.018 0.065 0.018 0.1l-0.002 0.037c-0.015 0.148-0.142 0.243-0.369 0.285-0.095 0.016-0.253 0.028-0.503 0.033v-0.681zM2.328 15.178c-0.020 0.036-0.045 0.065-0.074 0.088s-0.067 0.043-0.114 0.059c-0.047 0.016-0.090 0.029-0.13 0.037s-0.087 0.014-0.141 0.019c-0.055 0.004-0.098-0-0.129 0l-0.113-0.006h-0.377v-0.663c0.25-0.012 0.405-0.018 0.414-0.018 0.211 0 0.382 0.032 0.506 0.097s0.188 0.153 0.188 0.266c-0 0.045-0.009 0.085-0.029 0.121zM5.2 13.55c-0.185-0.093-0.397-0.14-0.634-0.14-0.24 0-0.453 0.049-0.639 0.145s-0.332 0.237-0.437 0.419c-0.105 0.182-0.158 0.393-0.158 0.633 0 0.193 0.034 0.366 0.101 0.519s0.158 0.278 0.273 0.374 0.244 0.169 0.389 0.219c0.144 0.050 0.297 0.075 0.458 0.075 0.244 0 0.461-0.051 0.649-0.153s0.335-0.245 0.439-0.43c0.104-0.185 0.156-0.396 0.156-0.635 0-0.236-0.053-0.442-0.159-0.62s-0.252-0.313-0.437-0.406zM5.301 14.972c-0.047 0.107-0.109 0.192-0.187 0.255s-0.162 0.11-0.254 0.141c-0.091 0.032-0.186 0.048-0.283 0.048-0.234 0-0.43-0.077-0.587-0.23s-0.235-0.357-0.235-0.61c0-0.106 0.015-0.203 0.046-0.292s0.072-0.162 0.123-0.223c0.051-0.060 0.112-0.111 0.18-0.152s0.14-0.071 0.215-0.090c0.074-0.019 0.151-0.029 0.23-0.029s0.156 0.010 0.232 0.029c0.076 0.019 0.15 0.050 0.222 0.093s0.135 0.095 0.189 0.156 0.098 0.138 0.131 0.231 0.049 0.195 0.049 0.306c0 0.137-0.024 0.259-0.071 0.367zM8.834 15.169l-0.555-1.794h-0.381l-0.675 1.794-0.537-1.794h-0.437l0.771 2.375h0.396l0.661-1.786 0.562 1.786h0.396l0.896-2.375h-0.437zM10.5 15.75h1.625v-0.375h-1.25v-0.625h1.125v-0.375h-1.125v-0.5h1.25v-0.5h-1.625zM14.37 14.682c0.067-0.049 0.121-0.107 0.159-0.169s0.067-0.128 0.085-0.196c0.018-0.067 0.027-0.139 0.027-0.213 0-0.086-0.011-0.165-0.031-0.234s-0.047-0.127-0.080-0.173c-0.032-0.046-0.073-0.085-0.122-0.119s-0.096-0.060-0.141-0.077c-0.046-0.018-0.098-0.031-0.156-0.042s-0.108-0.047-0.149-0.050c-0.041-0.003-0.086-0.034-0.136-0.034h-0.952v2.375h0.375v-0.875h0.393l0.654 0.875h0.539l-0.705-0.966c0.092-0.027 0.172-0.053 0.239-0.102zM13.959 14.45c-0.054 0.014-0.106 0.031-0.156 0.035s-0.108 0.015-0.174 0.015h-0.379v-0.625h0.456c0.336 0 0.504 0.079 0.504 0.297 0 0.058-0.011 0.094-0.034 0.136s-0.051 0.066-0.085 0.090c-0.034 0.024-0.078 0.038-0.132 0.052z"></path>
</svg>
