<!-- Generated by IcoMoon.io -->
<svg version="1.1" xmlns="http://www.w3.org/2000/svg" viewBox="0 0 16 16">
<title>c</title>
<path d="M14.563 4.037c-0.075-0.138-0.175-0.263-0.287-0.325l-6.013-3.475c-0.1-0.063-0.238-0.087-0.388-0.087s-0.287 0.038-0.388 0.087l-6.063 3.475c-0.212 0.125-0.425 0.438-0.425 0.675v6.963c0 0.137 0.087 0.287 0.175 0.425l0.012 0.012c0.063 0.1 0.163 0.188 0.25 0.238l6.037 3.487c0.1 0.063 0.25 0.088 0.4 0.088s0.288-0.037 0.388-0.088l5.938-3.488c0.213-0.125 0.3-0.438 0.3-0.675v-6.963c0-0.1 0.050-0.225 0-0.325l0.063-0.025zM14.037 4.3c0 0.037-0.037 0.063-0.037 0.088v6.963c0 0.1-0.025 0.213-0.050 0.25l-5.95 3.475c-0.013 0.012-0.063 0.025-0.138 0.025s-0.125-0.012-0.138-0.025l-6.025-3.475s-0.012-0.012-0.025-0.012l-0.075-0.075c-0.050-0.088 0.025-0.137-0.1-0.15v-6.963c0.125-0.063 0.113-0.213 0.175-0.237l6.037-3.487c0.013 0 0.075-0.025 0.15-0.025s0.125 0.012 0.138 0.025l6 3.463 0.050 0.112c0.012 0.013-0.012 0.037-0.012 0.050zM7.875 4.813c1.137 0 2.137 0.625 2.662 1.563l1.625-0.938c-0.85-1.487-2.45-2.5-4.287-2.5-2.725 0-4.938 2.213-4.938 4.938s2.213 4.938 4.938 4.938c1.825 0 3.425-1 4.275-2.475l-1.613-0.95c-0.525 0.925-1.525 1.55-2.662 1.55-1.688 0-3.063-1.375-3.063-3.063s1.375-3.063 3.063-3.063z"></path>
</svg>
