<!-- Generated by IcoMoon.io -->
<svg version="1.1" xmlns="http://www.w3.org/2000/svg" viewBox="0 0 16 16">
<title>check</title>
  <path d="M14.667 6.733c-0.4 0-0.667 0.267-0.667 0.667v0.6c0 3.333-2.667 6-6 6 0 0 0 0 0 0-3.333 0-6-2.667-6-6s2.667-6 6-6c0 0 0 0 0 0 0.867 0 1.667 0.2 2.467 0.533 0.333 0.133 0.733 0 0.867-0.333s0-0.733-0.333-0.867c-0.933-0.4-1.933-0.667-3-0.667 0 0 0 0 0 0-4.067 0-7.333 3.267-7.333 7.333s3.267 7.333 7.333 7.333c0 0 0 0 0 0 4.067 0 7.333-3.267 7.333-7.333v-0.6c0-0.4-0.267-0.667-0.667-0.667z"></path>
  <path d="M15.8 1.533c-0.267-0.267-0.667-0.267-0.933 0l-6.867 6.867-1.533-1.533c-0.267-0.267-0.667-0.267-0.933 0s-0.267 0.667 0 0.933l2 2c0.133 0.133 0.333 0.2 0.467 0.2s0.333-0.067 0.467-0.2l7.333-7.333c0.267-0.267 0.267-0.667 0-0.933z"></path>
</svg>
