<!-- Generated by IcoMoon.io -->
<svg version="1.1" xmlns="http://www.w3.org/2000/svg" viewBox="0 0 16 16">
<title>codeigniter</title>
<path d="M11.213 6.109l-0.095-0.052c0.050 0.12 0.066 0.223 0.064 0.315 0.018-0.074 0.030-0.151 0.031-0.231 0.001 0.099-0.011 0.192-0.034 0.279l0.003-0.048c-0.027 0.115-0.073 0.222-0.134 0.32l0.029-0.031c-0.36 0.602-1.342 0.734-1.826 0.112-0.777-0.999 0.016-2.075 0.127-3.133 0.139-1.325-0.692-2.612-1.723-3.382 0.568 0.918-0.18 2.133-0.779 2.812-0.58 0.659-1.286 1.208-1.926 1.806-0.688 0.643-1.35 1.319-1.915 2.074-1.131 1.509-1.824 3.407-1.315 5.291 0.508 1.882 2.139 3.080 3.979 3.503-0.929-0.402-1.798-1.422-1.8-2.465-0.002-1.138 0.719-2.104 1.616-2.739-0.108 0.407-0.167 0.78 0.1 1.144 0.248 0.339 0.684 0.503 1.094 0.414 0.96-0.21 1.004-1.265 0.435-1.88-0.563-0.608-1.107-1.296-0.893-2.179 0.107-0.442 0.379-0.857 0.723-1.153-0.265 0.695 0.487 1.381 0.982 1.722 0.86 0.593 1.802 1.041 2.592 1.735 0.831 0.73 1.445 1.717 1.321 2.862-0.134 1.241-1.12 2.104-2.226 2.54 2.337-0.516 4.752-2.33 4.801-4.922 0.041-2.132-1.422-3.773-3.234-4.713z"></path>
</svg>
