<?xml version="1.0" encoding="UTF-8"?>
<svg viewBox="0 0 16 16" version="1.1" xmlns="http://www.w3.org/2000/svg" xmlns:xlink="http://www.w3.org/1999/xlink">
    <!-- coffee cup by Satisfactory from the Noun Project -->
    <title>coffee</title>
    <desc>coffee cup by Satisfactory from the Noun Project</desc>
    <defs></defs>
    <g id="Page-1" stroke="none" stroke-width="1" fill="none" fill-rule="evenodd">
        <g id="noun_1114827_cc" fill-rule="nonzero" fill="#000000">
            <g id="Group">
                <path d="M6.75555556,3.33333333 L6.75555556,0.533333333 C6.75555556,0.288888889 6.55555556,0.0888888889 6.31111111,0.0888888889 C6.06666667,0.0888888889 5.86666667,0.288888889 5.86666667,0.533333333 L5.86666667,3.33333333 C5.86666667,3.57777778 6.06666667,3.77777778 6.31111111,3.77777778 C6.55555556,3.77777778 6.75555556,3.57777778 6.75555556,3.33333333 Z" id="Shape"></path>
                <path d="M9.64444444,4.31111111 L9.64444444,1.48888889 C9.64444444,1.24444444 9.44444444,1.04444444 9.2,1.04444444 C8.95555556,1.04444444 8.75555556,1.24444444 8.75555556,1.48888889 L8.75555556,4.31111111 C8.75555556,4.55555556 8.95555556,4.75555556 9.2,4.75555556 C9.44444444,4.75555556 9.64444444,4.55555556 9.64444444,4.31111111 Z" id="Shape"></path>
                <path d="M3.86666667,4.31111111 L3.86666667,1.48888889 C3.86666667,1.24444444 3.66666667,1.04444444 3.42222222,1.04444444 C3.17777778,1.04444444 2.97777778,1.24444444 2.97777778,1.48888889 L2.97777778,4.31111111 C2.97777778,4.55555556 3.17777778,4.75555556 3.42222222,4.75555556 C3.66666667,4.75555556 3.86666667,4.55555556 3.86666667,4.31111111 Z" id="Shape"></path>
                <path d="M0.0888888889,15.4666667 C0.0888888889,15.7111111 0.288888889,15.9111111 0.533333333,15.9111111 L11.9333333,15.9111111 C12.1777778,15.9111111 12.3777778,15.7111111 12.3777778,15.4666667 C12.3777778,15.2222222 12.1777778,15.0222222 11.9333333,15.0222222 L9.51111111,15.0222222 C10.3777778,14.4888889 11.1333333,13.7555556 11.6444444,12.8666667 L13.7333333,12.8666667 C14.9333333,12.8666667 15.9111111,11.8888889 15.9111111,10.6888889 C15.9111111,9.48888889 14.9333333,8.51111111 13.7333333,8.51111111 L12.5333333,8.51111111 L12.5333333,6.91111111 C12.5333333,6.66666667 12.3333333,6.46666667 12.0888889,6.46666667 L0.555555556,6.46666667 C0.311111111,6.46666667 0.111111111,6.66666667 0.111111111,6.91111111 L0.111111111,9.71111111 C0.111111111,11.9777778 1.31111111,13.9555556 3.13333333,15.0444444 L0.533333333,15.0444444 C0.288888889,15.0222222 0.0888888889,15.2222222 0.0888888889,15.4666667 Z M13.7333333,9.4 C14.4444444,9.4 15.0222222,9.97777778 15.0222222,10.6888889 C15.0222222,11.4 14.4444444,11.9777778 13.7333333,11.9777778 L12.0888889,11.9777778 C12.3777778,11.2666667 12.5333333,10.4888889 12.5333333,9.68888889 L12.5333333,9.37777778 L13.7333333,9.37777778 L13.7333333,9.4 Z M1,9.71111111 L1,7.35555556 L11.6444444,7.35555556 L11.6444444,9.71111111 C11.6444444,12.6444444 9.26666667,15.0444444 6.31111111,15.0444444 C3.35555556,15.0444444 1,12.6444444 1,9.71111111 Z" id="Shape"></path>
            </g>
        </g>
    </g>
</svg>
