<!-- Generated by IcoMoon.io -->
<svg version="1.1" xmlns="http://www.w3.org/2000/svg" viewBox="0 0 16 16">
<title>coffeescript</title>
<path d="M6.287 3.7c1.463-0.125 1.875-1.063 3.588-1.225 0.838-0.075 1.375 0.1 1.425 0.388 0.050 0.275-0.363 0.462-0.875 0.5-0.7 0.075-1-0.188-1.050-0.425-0.512 0.050-0.6 0.275-0.575 0.438 0.050 0.3 0.688 0.587 1.762 0.487 1.225-0.1 1.625-0.575 1.525-1.063-0.125-0.625-1.063-1.15-2.75-1-2.162 0.2-2.15 1.188-3.612 1.313-0.6 0.050-0.938-0.087-1-0.325-0.037-0.237 0.25-0.35 0.6-0.375 0.325-0.025 0.713 0.025 0.9 0.125 0.138-0.075 0.188-0.138 0.162-0.225-0.050-0.225-0.5-0.325-1.063-0.275-1.087 0.1-1.087 0.587-1.050 0.8 0.138 0.587 0.975 0.962 2.013 0.862zM13.613 6.175c-1.35 0.313-3.075 0.513-5.15 0.513-2.112 0-3.838-0.225-5.188-0.513-1.2-0.313-1.85-0.65-2.075-1 0.113 0.787 0.313 1.55 0.575 2.275-0.3 0.188-0.588 0.438-0.838 0.75-0.475 0.6-0.688 1.3-0.65 1.988s0.375 1.25 0.913 1.688c0.563 0.438 1.163 0.563 1.85 0.438 0.263-0.037 0.563-0.188 0.825-0.262-0.563 0-1.038-0.188-1.513-0.563-0.512-0.375-0.875-0.912-0.95-1.55-0.125-0.6 0-1.162 0.338-1.65 0.075-0.1 0.15-0.175 0.238-0.25 0.187 0.475 0.412 0.925 0.65 1.363 0.513 0.787 1.038 1.475 1.55 2.213 0.225 0.438 0.375 0.875 0.475 1.3 0.338 0.475 0.825 0.813 1.425 0.988 0.737 0.262 1.513 0.363 2.3 0.363h0.088c0.787 0 1.613-0.125 2.375-0.375 0.563-0.188 1.037-0.5 1.387-1h0.037c0.088-0.375 0.225-0.85 0.438-1.287 0.512-0.738 1.037-1.425 1.55-2.213 0.688-1.25 1.162-2.675 1.425-4.2-0.262 0.375-0.912 0.725-2.075 0.987zM3.275 5.088c1.35 0.338 3.075 0.513 5.15 0.513 2.113 0 3.8-0.188 5.15-0.513 1.425-0.338 2.112-0.787 2.112-1.2 0-0.313-0.313-0.6-0.875-0.825 0.125 0.087 0.225 0.225 0.225 0.375 0 0.438-0.65 0.787-1.95 1.075-1.2 0.263-2.75 0.45-4.625 0.45-1.813 0-3.425-0.188-4.588-0.438-1.25-0.313-1.913-0.65-1.913-1.075 0-0.188 0.087-0.337 0.337-0.513-0.788 0.313-1.2 0.563-1.2 0.95 0.038 0.438 0.738 0.875 2.175 1.2z"></path>
</svg>
