<!-- Generated by IcoMoon.io -->
<svg version="1.1" xmlns="http://www.w3.org/2000/svg" viewBox="0 0 16 16">
<title>coffee</title>
<path d="M14.992 7.774c-0.189-1.819-2.031-1.809-2.989-1.776 0.005-0.277 0.008-0.5 0.008-0.5l-11.014-0.003c0 0 0 1.507 0 1.545 0 2.141 1.223 3.992 3.005 4.904v0.534h5.009v-0.534c0.5-0.256 0.948-0.592 1.345-0.98 2.457-0.588 5.035-1.437 4.634-3.189zM11.125 10.033c0.562-0.863 0.893-1.887 0.893-2.994 0 0.008 0.001-0.014 0.001-0.058 0.893-0.029 1.877-0.119 2.101 0.77 0.224 0.978-1.409 1.774-2.995 2.282zM4.415 3.495c0 0.5-0.82 1.032-0.82 1.032s1.607-0.287 1.607-1.037-1.593-0.25-1.593-0.813 0.788-1.095 0.788-1.095-1.513 0.319-1.513 1.1 1.53 0.313 1.53 0.813zM6.915 3.995c0 0.5-0.82 1.032-0.82 1.032s1.607-0.287 1.607-1.037-1.593-0.25-1.593-0.813 0.788-1.095 0.788-1.095-1.513 0.319-1.513 1.099 1.531 0.313 1.531 0.813zM8.915 3.495c0 0.5-0.82 1.032-0.82 1.032s1.607-0.287 1.607-1.037-1.594-0.25-1.594-0.813 0.789-1.095 0.789-1.095-1.513 0.319-1.513 1.1 1.531 0.313 1.531 0.813zM0.967 12.964c0 0.691 2.462 1.25 5.5 1.25s5.5-0.559 5.5-1.25c0 0.014-11 0.014-11 0z"></path>
</svg>
