<!-- Generated by IcoMoon.io -->
<svg version="1.1" xmlns="http://www.w3.org/2000/svg" viewBox="0 0 512 512">
<title></title>
<g id="icomoon-ignore">
</g>
<path d="M240 32c-132.548 0-240 107.452-240 240s107.452 240 240 240c132.549 0 240-107.451 240-240s-107.451-240-240-240zM240 464c-106.039 0-192-85.961-192-192s85.961-192 192-192c106.038 0 192 85.961 192 192s-85.962 192-192 192z"></path>
<path d="M335.412 322.17c-7.635-4.442-17.431-1.854-21.875 5.785-8.628 14.831-24.544 24.045-41.537 24.045h-64c-20.858 0-38.643-13.377-45.248-32h77.248c8.836 0 16-7.163 16-16s-7.164-16-16-16h-80v-32h80c8.836 0 16-7.164 16-16s-7.164-16-16-16h-77.248c6.605-18.623 24.39-32 45.248-32h64c16.993 0 32.909 9.213 41.537 24.045 4.444 7.638 14.239 10.228 21.876 5.784s10.228-14.238 5.784-21.876c-14.336-24.644-40.851-39.953-69.197-39.953h-64c-38.634 0-70.957 27.528-78.39 64h-17.61c-8.836 0-16 7.164-16 16s7.164 16 16 16h16v32h-16c-8.836 0-16 7.163-16 16s7.164 16 16 16h17.61c7.433 36.472 39.756 64 78.39 64h64c28.346 0 54.86-15.31 69.197-39.955 4.444-7.638 1.854-17.432-5.785-21.875z"></path>
</svg>
