<!-- Generated by IcoMoon.io -->
<svg version="1.1" xmlns="http://www.w3.org/2000/svg" viewBox="0 0 16 16">
<title>confluence</title>
<path d="M11.247 10.294c-0.196-0.387-0.429-0.778-0.701-1.176-0.223-0.324-0.427-0.595-0.641-0.859-0.069-0.086-0.032-0.223 0.036-0.292s0.134-0.137 0.202-0.207c0.932-0.951 1.897-1.934 2.636-2.997 0.787-1.13 1.223-2.202 1.332-3.305 0.001-0.009 0.001-0.019 0.001-0.029 0-0.108-0.051-0.205-0.129-0.267-0.056-0.043-0.126-0.068-0.202-0.068-0.043 0-0.083 0.008-0.121 0.023-0.715 0.273-1.443 0.482-2.108 0.636-0.134 0.033-0.24 0.127-0.29 0.25-0.485 1.33-1.722 2.593-3.019 3.916-0.052 0.049-0.125 0.115-0.244 0.115s-0.191-0.063-0.244-0.115c-1.298-1.323-2.534-2.582-3.018-3.909-0.050-0.126-0.157-0.22-0.288-0.253-0.668-0.156-1.397-0.381-2.113-0.656-0.035-0.014-0.076-0.022-0.119-0.022-0.183 0-0.332 0.149-0.332 0.332 0 0.012 0.001 0.023 0.002 0.034 0.11 1.102 0.545 2.187 1.332 3.317 0.739 1.062 1.704 2.046 2.636 2.997 1.718 1.752 3.341 3.407 3.483 5.326 0.013 0.172 0.156 0.307 0.331 0.307 0 0 0 0 0 0h2.018c0.183-0 0.332-0.149 0.332-0.332 0-0.006-0-0.011-0-0.017-0.021-0.396-0.076-0.768-0.164-1.127l0.009 0.041c-0.003-0.010-0.005-0.022-0.005-0.035 0-0.073 0.059-0.132 0.132-0.133 0.006 0 0.013 0.001 0.019 0.002h0c1.648 0.241 2.69 0.627 2.692 1.051v0.001c0 0.4-0.937 1.004-2.46 1.446l-0.001 0.001c-0.135 0.039-0.234 0.161-0.234 0.306 0 0.176 0.145 0.319 0.325 0.319 0.025 0 0.049-0.003 0.072-0.008 2.047-0.473 3.404-1.269 3.404-2.167-0-1.067-1.835-2.019-4.566-2.449zM5.834 9.254c-0.060-0.062-0.143-0.1-0.236-0.101-0.151 0-0.24 0.097-0.274 0.149-0.186 0.276-0.378 0.601-0.552 0.937-2.754 0.487-4.585 1.439-4.585 2.505 0 0.899 1.347 1.693 3.398 2.167 0 0 0.002 0 0.003-0 0.024 0.006 0.049 0.009 0.075 0.009 0.179 0 0.325-0.143 0.325-0.319 0-0.145-0.099-0.266-0.234-0.305l-0.001-0.002c-1.523-0.442-2.46-1.046-2.46-1.446v-0.001c0.002-0.424 1.041-0.809 2.685-1.050 0.005-0.001 0.011-0.002 0.017-0.002 0.074 0 0.134 0.060 0.134 0.134 0 0.012-0.002 0.024-0.005 0.036l0.001 0c-0.078 0.317-0.133 0.687-0.153 1.067-0.005 0.105 0.028 0.195 0.091 0.261s0.151 0.103 0.241 0.103h2.019c0.175-0.001 0.318-0.136 0.332-0.307 0.044-0.592 0.228-1.184 0.563-1.806 0.116-0.215 0.026-0.418-0.041-0.504-0.332-0.432-0.739-0.893-1.344-1.524zM7.767 4.267c0.080 0.077 0.17 0.092 0.232 0.092h0.001c0.063 0 0.153-0.014 0.233-0.092 0.712-0.692 1.094-1.499 1.178-1.723 0.015-0.036 0.024-0.078 0.025-0.122 0-0.179-0.149-0.307-0.305-0.307-0.129 0-0.496 0.038-1.128 0.038h-0.004c-0.633 0-0.999-0.038-1.128-0.038-0.156 0-0.305 0.128-0.305 0.307 0 0.052 0.013 0.090 0.025 0.123 0.084 0.224 0.466 1.031 1.178 1.723z"></path>
</svg>
