<!-- Generated by IcoMoon.io -->
<svg version="1.1" xmlns="http://www.w3.org/2000/svg" viewBox="0 0 16 16">
<title>couchdb</title>
<path d="M12.675 9.65c0 0.625-0.338 0.938-0.95 0.963h-7.487c-0.612 0-0.95-0.313-0.95-0.963 0-0.625 0.337-0.938 0.95-0.963h7.525c0.613 0.025 0.912 0.338 0.912 0.963zM11.762 11.088h-7.525c-0.612 0-0.95 0.3-0.95 0.963 0 0.625 0.337 0.925 0.95 0.963h7.525c0.613 0 0.95-0.313 0.95-0.963-0.037-0.662-0.338-0.963-0.95-0.963zM14.088 5.825v0c-0.613 0-0.95 0.313-0.95 0.925v5.262c0 0.625 0.338 0.938 0.95 0.963v0c0.925-0.025 1.412-0.963 1.412-2.862v-2.362c0-1.275-0.488-1.9-1.412-1.925zM1.913 5.825v0c-0.925 0.025-1.413 0.65-1.413 1.925v2.363c0 1.9 0.488 2.838 1.413 2.863v0c0.613 0 0.95-0.3 0.95-0.963v-5.225c-0.025-0.625-0.337-0.938-0.95-0.963zM14.088 5.35c0-1.587-0.825-2.337-2.325-2.362h-7.525c-1.525 0.025-2.325 0.813-2.325 2.362v0c0.925 0 1.413 0.5 1.413 1.438s0.487 1.425 1.413 1.425h6.563c0.912 0 1.412-0.487 1.412-1.425-0.037-0.963 0.488-1.4 1.375-1.438z"></path>
</svg>
