<!-- Generated by IcoMoon.io -->
<svg version="1.1" xmlns="http://www.w3.org/2000/svg" viewBox="0 0 16 16">
<title>d3js</title>
<path d="M14.77 7.996c0.653-0.782 1.046-1.777 1.046-2.872 0-2.486-2.022-4.498-4.508-4.498h-5.31c1.297 0.875 2.371 2 3.103 3.25h2.207c0.694 0 1.258 0.556 1.258 1.25s-0.564 1.25-1.258 1.25h-1.302c0.102 0.625 0.158 1.077 0.158 1.637 0 0.551-0.054 1.113-0.153 1.613h1.298c0.694 0 1.258 0.619 1.258 1.313s-0.565 1.313-1.258 1.313h-2.193c-0.164 0.25-0.349 0.592-0.547 0.873-0.675 0.951-1.536 1.752-2.531 2.377h5.272c2.417 0 4.395-1.968 4.503-4.359-0.002 0.039-0.005 0.049-0.008 0.087 0.008-0.106 0.013-0.227 0.013-0.335-0-1.096-0.393-2.115-1.046-2.897zM7.629 12.193l0-0.023c0.009-0.012 0.017-0.037 0.026-0.049 0.010-0.015 0.019-0.034 0.029-0.049 0-0 0-0.004 0-0.004 0.768-1.166 1.216-2.551 1.216-4.049-0-4.082-3.322-7.395-7.404-7.395h-1.37v3.25h1.37c2.29 0 4.154 1.853 4.154 4.143 0 0.623-0.139 1.209-0.386 1.741-0.001 0.002-0.002 0.045-0.003 0.047-0.662 1.418-2.1 2.445-3.765 2.445h-1.37v3.25h1.37c2.55 0 4.801-1.34 6.133-3.307z"></path>
</svg>
