<!-- Generated by IcoMoon.io -->
<svg version="1.1" xmlns="http://www.w3.org/2000/svg" viewBox="0 0 16 16">
<title>debian</title>
<path d="M9.596 8.622c0.092-0.072 0.176-0.145 0.251-0.216-0.208 0.051-0.42 0.052-0.634 0.033-0.256 0.004 0.049 0.132 0.383 0.184zM10.589 8.095c0.153-0.211 0.264-0.441 0.303-0.68-0.034 0.17-0.126 0.317-0.213 0.472-0.479 0.302-0.045-0.179-0-0.362-0.515 0.649-0.071 0.389-0.089 0.57zM11.097 6.774c0.031-0.462-0.091-0.316-0.132-0.14 0.048 0.025 0.086 0.325 0.132 0.14zM8.241 0.465c0.137 0.025 0.296 0.043 0.273 0.076 0.15-0.033 0.184-0.063-0.273-0.076zM8.508 0.553l0.007-0.012-0.097 0.020zM8.159 10.091c-0.369-0.173-0.707-0.434-0.984-0.753 0.147 0.216 0.306 0.425 0.512 0.59-0.348-0.118-0.812-0.843-0.948-0.872 0.599 1.073 2.432 1.882 3.392 1.481-0.444 0.016-1.008 0.009-1.507-0.175-0.192-0.099-0.447-0.294-0.449-0.359-0.010 0.025-0.026 0.050-0.016 0.088zM8.178 9.992v0zM13.684 5.793c0.004-0.235 0.065-0.123 0.089-0.181-0.046-0.027-0.167-0.207-0.241-0.553 0.053-0.081 0.143 0.211 0.216 0.223-0.047-0.275-0.127-0.485-0.131-0.696-0.213-0.444-0.075 0.059-0.248-0.191-0.226-0.706 0.188-0.164 0.216-0.484 0.343 0.497 0.539 1.267 0.628 1.586-0.069-0.389-0.179-0.765-0.314-1.13 0.104 0.044-0.168-0.8 0.135-0.241-0.324-1.191-1.386-2.304-2.363-2.827 0.12 0.109 0.271 0.247 0.216 0.268-0.486-0.289-0.4-0.312-0.47-0.434-0.396-0.161-0.422 0.013-0.684 0-0.746-0.396-0.89-0.354-1.576-0.602l0.031 0.146c-0.494-0.165-0.576 0.063-1.11 0-0.033-0.025 0.171-0.092 0.339-0.116-0.478 0.063-0.455-0.094-0.923 0.017 0.115-0.081 0.237-0.134 0.36-0.203-0.389 0.024-0.93 0.227-0.763 0.042-0.636 0.284-1.764 0.682-2.398 1.276l-0.020-0.133c-0.29 0.348-1.266 1.041-1.343 1.492l-0.078 0.018c-0.151 0.256-0.249 0.546-0.369 0.809-0.198 0.337-0.29 0.129-0.261 0.182-0.389 0.788-0.582 1.45-0.748 1.992 0.119 0.178 0.003 1.069 0.048 1.782-0.195 3.524 2.473 6.945 5.389 7.735 0.428 0.153 1.063 0.147 1.604 0.163-0.638-0.182-0.721-0.097-1.342-0.313-0.448-0.211-0.547-0.452-0.864-0.728l0.126 0.222c-0.623-0.22-0.362-0.273-0.869-0.433l0.134-0.175c-0.202-0.015-0.535-0.34-0.625-0.52l-0.221 0.009c-0.265-0.327-0.407-0.563-0.396-0.746l-0.071 0.127c-0.081-0.139-0.976-1.228-0.511-0.974-0.086-0.079-0.201-0.129-0.325-0.354l0.095-0.108c-0.224-0.287-0.411-0.656-0.397-0.779 0.119 0.161 0.202 0.191 0.284 0.219-0.564-1.4-0.596-0.077-1.024-1.426l0.090-0.007c-0.069-0.104-0.111-0.218-0.167-0.329l0.039-0.392c-0.406-0.47-0.114-1.998-0.055-2.836 0.041-0.341 0.339-0.704 0.566-1.272l-0.138-0.024c0.264-0.461 1.51-1.853 2.087-1.781 0.279-0.351-0.055-0.001-0.11-0.090 0.614-0.635 0.807-0.449 1.221-0.563 0.447-0.265-0.383 0.103-0.172-0.101 0.772-0.197 0.547-0.448 1.555-0.548 0.106 0.060-0.247 0.093-0.335 0.172 0.644-0.315 2.036-0.243 2.941 0.175 1.050 0.491 2.229 1.941 2.275 3.305l0.053 0.014c-0.027 0.542 0.083 1.17-0.107 1.746l0.13-0.273c0.015 0.415-0.121 0.616-0.244 0.972l-0.222 0.111c-0.181 0.352 0.018 0.224-0.112 0.504-0.283 0.252-0.859 0.787-1.043 0.836-0.135-0.003 0.091-0.159 0.12-0.22-0.379 0.26-0.304 0.391-0.883 0.549l-0.017-0.038c-1.429 0.672-3.414-0.66-3.388-2.478-0.015 0.115-0.043 0.087-0.075 0.133-0.074-0.935 0.432-1.875 1.285-2.258 0.834-0.413 1.812-0.244 2.409 0.313-0.328-0.43-0.981-0.886-1.756-0.843-0.758 0.012-1.468 0.494-1.704 1.017-0.389 0.245-0.434 0.943-0.603 1.071-0.228 1.674 0.428 2.397 1.539 3.248 0.090 0.060 0.1 0.095 0.092 0.126l0.001-0.002c1.31 0.489 2.663 0.371 3.796-0.538 0.288-0.225 0.603-0.607 0.694-0.612-0.137 0.206 0.024 0.099-0.082 0.281 0.287-0.463-0.125-0.189 0.297-0.8l0.156 0.214c-0.058-0.384 0.477-0.851 0.423-1.46 0.123-0.186 0.137 0.2 0.007 0.628 0.181-0.475 0.048-0.551 0.094-0.943 0.050 0.132 0.116 0.272 0.15 0.41-0.118-0.459 0.121-0.773 0.18-1.039-0.058-0.026-0.181 0.203-0.21-0.339zM6.38 8.97c0.168 0.229 0.302 0.477 0.517 0.656-0.155-0.302-0.27-0.427-0.481-0.835l-0.036 0.18zM6.814 8.774c-0.089-0.099-0.142-0.217-0.201-0.336 0.057 0.208 0.172 0.386 0.28 0.568l-0.079-0.232zM13.376 8.763c0.252-0.475 0.416-0.994 0.484-1.52l-0.038 0.095c-0.069 0.49-0.218 0.976-0.447 1.425zM8.902 0.266c-0.24 0.020-0.478 0.032-0.714 0.062l0.104 0.014c0.173-0.064 0.426-0.035 0.61-0.077zM2.278 3.847c0.178-0.401-0.049-0.144-0.069-0.251 0.028 0.356-0.274 0.491 0.069 0.251zM1.924 4.752c-0.222 0.284-0.102 0.344-0.125 0.537 0.080-0.247 0.095-0.394 0.125-0.537z"></path>
</svg>
