<?xml version="1.0" encoding="UTF-8"?>
<svg viewBox="0 0 16 13" version="1.1" xmlns="http://www.w3.org/2000/svg" xmlns:xlink="http://www.w3.org/1999/xlink">
    <!-- buddies by Leonardo Schneider from the Noun Project -->
    <title>buddies</title>
    <desc>buddies by Leonardo Schneider from the Noun Project</desc>
    <defs></defs>
    <g id="Page-1" stroke="none" stroke-width="1" fill="none" fill-rule="evenodd">
        <g id="noun_88194_cc" fill-rule="nonzero" fill="#000000">
            <g id="Group">
                <path d="M3.2516129,4.18064516 C3.73333333,4.18064516 4.11182796,3.80215054 4.11182796,3.32043011 C4.11182796,2.83870968 3.73333333,2.46021505 3.2516129,2.46021505 C2.76989247,2.46021505 2.39139785,2.83870968 2.39139785,3.32043011 C2.39139785,3.80215054 2.78709677,4.18064516 3.2516129,4.18064516 Z M3.2516129,2.97634409 C3.44086022,2.97634409 3.59569892,3.1311828 3.59569892,3.32043011 C3.59569892,3.50967742 3.44086022,3.66451613 3.2516129,3.66451613 C3.06236559,3.66451613 2.90752688,3.50967742 2.90752688,3.32043011 C2.90752688,3.1311828 3.06236559,2.97634409 3.2516129,2.97634409 Z" id="Shape"></path>
                <path d="M5.23010753,4.18064516 C5.71182796,4.18064516 6.09032258,3.80215054 6.09032258,3.32043011 C6.09032258,2.83870968 5.71182796,2.46021505 5.23010753,2.46021505 C4.7483871,2.46021505 4.36989247,2.83870968 4.36989247,3.32043011 C4.36989247,3.80215054 4.7655914,4.18064516 5.23010753,4.18064516 Z M5.23010753,2.97634409 C5.41935484,2.97634409 5.57419355,3.1311828 5.57419355,3.32043011 C5.57419355,3.50967742 5.41935484,3.66451613 5.23010753,3.66451613 C5.04086022,3.66451613 4.88602151,3.50967742 4.88602151,3.32043011 C4.88602151,3.1311828 5.04086022,2.97634409 5.23010753,2.97634409 Z" id="Shape"></path>
                <path d="M5.93548387,5.28172043 C6.03870968,5.17849462 6.03870968,5.02365591 5.93548387,4.92043011 C5.83225806,4.8172043 5.67741935,4.8172043 5.57419355,4.92043011 C5.10967742,5.36774194 4.64516129,5.57419355 4.18064516,5.55698925 C3.49247312,5.52258065 3.02795699,4.95483871 3.01075269,4.95483871 C2.92473118,4.8516129 2.75268817,4.8344086 2.64946237,4.92043011 C2.54623656,5.00645161 2.52903226,5.17849462 2.61505376,5.28172043 C2.63225806,5.31612903 3.2344086,6.02150538 4.14623656,6.07311828 C4.18064516,6.07311828 4.23225806,6.07311828 4.26666667,6.07311828 C4.8344086,6.07311828 5.40215054,5.79784946 5.93548387,5.28172043 Z" id="Shape"></path>
                <circle id="Oval" cx="10.7182796" cy="3.32043011" r="1"></circle>
                <circle id="Oval" cx="12.6967742" cy="3.32043011" r="1"></circle>
                <path d="M13.5225806,7.62150538 C14.8473118,6.98494624 15.7763441,5.62580645 15.7763441,4.04301075 C15.7763441,1.85806452 14.0043011,0.0860215054 11.8193548,0.0860215054 C10.0473118,0.0860215054 8.55053763,1.23870968 8.0516129,2.83870968 C7.51827957,1.20430108 5.98709677,0 4.18064516,0 C1.94408602,0 0.137634409,1.82365591 0.137634409,4.04301075 C0.137634409,5.66021505 1.10107527,7.07096774 2.47741935,7.70752688 C1.15268817,8.36129032 0.240860215,9.72043011 0.240860215,11.2860215 C0.240860215,12.0602151 0.877419355,12.6967742 1.6516129,12.6967742 L6.79569892,12.6967742 C7.38064516,12.6967742 7.87956989,12.3354839 8.10322581,11.8365591 C8.32688172,12.3354839 8.82580645,12.6967742 9.41075269,12.6967742 L14.5548387,12.6967742 C15.3290323,12.6967742 15.9655914,12.0602151 15.9655914,11.2860215 C15.9655914,9.6516129 14.9505376,8.22365591 13.5225806,7.62150538 Z M12.6967742,2.46021505 C13.1784946,2.46021505 13.5569892,2.83870968 13.5569892,3.32043011 C13.5569892,3.80215054 13.1784946,4.18064516 12.6967742,4.18064516 C12.2150538,4.18064516 11.8365591,3.80215054 11.8365591,3.32043011 C11.8365591,2.83870968 12.2322581,2.46021505 12.6967742,2.46021505 Z M13.0408602,4.92043011 C13.144086,4.8172043 13.2989247,4.8172043 13.4021505,4.92043011 C13.5053763,5.02365591 13.5053763,5.17849462 13.4021505,5.28172043 C12.8688172,5.79784946 12.3010753,6.05591398 11.7333333,6.05591398 C11.6989247,6.05591398 11.6645161,6.05591398 11.6129032,6.05591398 C10.7010753,6.00430108 10.116129,5.29892473 10.0817204,5.26451613 C9.99569892,5.16129032 10.0129032,4.98924731 10.116129,4.90322581 C10.2193548,4.8172043 10.3913978,4.8344086 10.4774194,4.93763441 C10.4774194,4.93763441 10.9591398,5.50537634 11.6473118,5.53978495 C12.111828,5.57419355 12.5763441,5.36774194 13.0408602,4.92043011 Z M10.7182796,2.46021505 C11.2,2.46021505 11.5784946,2.83870968 11.5784946,3.32043011 C11.5784946,3.80215054 11.2,4.18064516 10.7182796,4.18064516 C10.2365591,4.18064516 9.85806452,3.80215054 9.85806452,3.32043011 C9.85806452,2.83870968 10.2537634,2.46021505 10.7182796,2.46021505 Z M1.15268817,4.04301075 C1.15268817,2.37419355 2.51182796,1.03225806 4.16344086,1.03225806 C5.81505376,1.03225806 7.17419355,2.39139785 7.17419355,4.04301075 C7.17419355,5.71182796 5.81505376,7.05376344 4.16344086,7.05376344 C2.51182796,7.05376344 1.15268817,5.71182796 1.15268817,4.04301075 Z M6.79569892,11.8537634 L1.6516129,11.8537634 C1.34193548,11.8537634 1.10107527,11.5956989 1.10107527,11.3032258 C1.10107527,9.5827957 2.51182796,8.17204301 4.23225806,8.17204301 C5.95268817,8.17204301 7.36344086,9.5827957 7.36344086,11.3032258 C7.34623656,11.6129032 7.10537634,11.8537634 6.79569892,11.8537634 Z M8.10322581,10.3569892 C7.81075269,9.16989247 7.00215054,8.20645161 5.93548387,7.69032258 C6.93333333,7.20860215 7.70752688,6.3311828 8.0516129,5.24731183 C8.41290323,6.3483871 9.22150538,7.24301075 10.2709677,7.69032258 C9.18709677,8.20645161 8.37849462,9.18709677 8.10322581,10.3569892 Z" id="Shape"></path>
            </g>
        </g>
    </g>
</svg>
