<!-- Generated by IcoMoon.io -->
<svg version="1.1" xmlns="http://www.w3.org/2000/svg" viewBox="0 0 16 16">
<title>django</title>
<path d="M11.363 7.7l0.012-0.25v-0.075h-0.1c-0.15 0-0.313 0.037-0.425 0.112-0.175 0.1-0.275 0.287-0.275 0.55 0 0.375 0.188 0.588 0.512 0.588 0.1 0 0.162-0.012 0.287-0.050v-0.537l-0.012-0.338zM2.038 8.025c0 0.4 0.2 0.613 0.587 0.613 0.087 0 0.125 0 0.25-0.025v-1.188c-0.125-0.025-0.15-0.037-0.25-0.037-0.375 0-0.587 0.237-0.587 0.637zM5.737 8.512c0 0.15 0.088 0.213 0.287 0.213 0.112 0 0.225-0.012 0.35-0.037v-0.5c-0.5 0.050-0.638 0.125-0.638 0.325zM13.613 7.375c-0.287 0-0.463 0.237-0.463 0.65s0.162 0.65 0.463 0.65c0.287 0 0.45-0.238 0.45-0.65 0-0.4-0.162-0.65-0.45-0.65zM15.75 5.487c0-0.475-0.387-0.862-0.863-0.862h-13.9c-0.475 0-0.863 0.388-0.863 0.862v5.013c0 0.488 0.387 0.875 0.863 0.875h13.887c0.475 0 0.863-0.387 0.863-0.863v-5.025zM1.288 8.037c0-0.75 0.5-1.25 1.275-1.25 0.125 0 0.2 0.013 0.325 0.037v-1.075h0.75v3.375c-0.375 0.075-0.663 0.1-0.962 0.1-0.913 0-1.387-0.4-1.387-1.188zM4.75 8.563c0 0.588-0.025 0.875-0.15 1.125-0.125 0.238-0.263 0.387-0.588 0.55l-0.688-0.325c0.325-0.15 0.462-0.287 0.563-0.5s0.112-0.463 0.112-1.1v-1.438h0.75v1.688zM4.75 6.5h-0.75v-0.75h0.75v0.75zM7 9.162c-0.25 0.050-0.725 0.088-1.037 0.088-0.625 0-0.888-0.213-0.888-0.7 0-0.525 0.412-0.763 1.288-0.838v-0.162c0-0.138-0.063-0.188-0.25-0.188-0.275 0-0.625 0.075-0.875 0.225v-0.575c0.375-0.15 0.638-0.225 0.975-0.225 0.375 0 0.6 0.1 0.713 0.3 0.063 0.112 0.063 0.25 0.063 0.563v1.512zM9.625 9.25h-0.75v-1.475c0-0.287-0.125-0.388-0.387-0.388-0.1 0-0.238 0.013-0.363 0.050v1.813h-0.75v-2.287c0.5-0.112 0.813-0.162 1.175-0.162 0.375 0 0.675 0.088 0.838 0.25s0.238 0.325 0.238 0.7v1.5zM12.037 7.8l0.088 0.7v0.213c0 0.637-0.075 0.938-0.238 1.175-0.225 0.363-0.637 0.537-1.213 0.537-0.287 0-0.563-0.037-0.813-0.15v-0.688c0.25 0.137 0.525 0.2 0.8 0.2 0.488 0 0.7-0.2 0.7-0.662v-0.012c-0.125 0.075-0.3 0.1-0.488 0.1-0.65 0-1.063-0.425-1.063-1.1 0-0.838 0.613-1.313 1.688-1.313 0.313 0 0.613 0.037 0.963 0.1l-0.287 0.537c-0.2-0.037 0.162 0-0.088-0.025zM13.6 9.262c-0.738 0-1.2-0.463-1.2-1.213 0-0.775 0.475-1.263 1.225-1.263 0.738 0 1.188 0.463 1.188 1.225 0.012 0.762-0.463 1.25-1.213 1.25z"></path>
</svg>
