<!-- Generated by IcoMoon.io -->
<svg version="1.1" xmlns="http://www.w3.org/2000/svg" viewBox="0 0 16 16">
<title>docker</title>
<path d="M10.75 14.8c0-0.037 0.012-0.075 0-0.113-0.025-0.037-0.037-0.063-0.063-0.088-0.063-0.075-0.125-0.137-0.2-0.213l-0.738-0.75 0.575-0.588 0.313-0.338c0.050-0.050 0.113-0.15 0.113-0.225v-0.050c0-0.113-0.050-0.175-0.162-0.2l0.025 0.012h-0.088c-0.075 0-0.287 0.2-0.338 0.262-0.188 0.188-0.313 0.363-0.563 0.55v-1.488c0-0.137-0.075-0.2-0.213-0.2h-0.037c-0.137 0-0.25 0.063-0.25 0.2v3.237c0 0.137 0.113 0.188 0.25 0.188h0.037c0.137 0 0.213-0.063 0.213-0.188v-0.575l0.375 0.363c0.113 0.113 0.225 0.188 0.325 0.287 0.050 0.050 0.15 0.113 0.225 0.113h0.037c0.125 0 0.162-0.063 0.188-0.162l-0.025 0.012v-0.050zM15.637 12.25h-0.050c-0.275 0-0.525 0.075-0.75 0.238-0.375 0.275-0.588 0.637-0.588 1.113v1.225c0 0.137 0.050 0.175 0.188 0.175h0.037c0.137 0 0.275-0.050 0.275-0.175v-1.15c0-0.25 0.050-0.488 0.238-0.675 0.15-0.15 0.338-0.275 0.55-0.275 0.162 0 0.35-0.037 0.35-0.238 0-0.15-0.113-0.238-0.25-0.238zM13.713 12.875c-0.137-0.225-0.325-0.4-0.563-0.512-0.438-0.213-0.9-0.238-1.325 0.012l-0.063 0.037c-0.175 0.1-0.325 0.225-0.438 0.387-0.325 0.475-0.363 1.012-0.075 1.512l0.025 0.050c0.125 0.213 0.287 0.387 0.5 0.5 0.45 0.25 0.938 0.275 1.387 0.025l0.037-0.025c0.125-0.075 0.15-0.2 0.088-0.325-0.025-0.050-0.075-0.088-0.125-0.113h-0.025c-0.088-0.012-0.325 0.088-0.412 0.125-0.175 0.025-0.375 0.037-0.55-0.025l0.95-0.825c0.137-0.125 0.287-0.262 0.438-0.375 0.125-0.1 0.25-0.238 0.15-0.412v-0.037zM12.85 13.325l-1.063 0.912c-0.037-0.037-0.063-0.088-0.088-0.125-0.075-0.125-0.125-0.275-0.125-0.425-0.012-0.375 0.125-0.688 0.463-0.875 0.25-0.15 0.525-0.175 0.8-0.075 0.137 0.050 0.3 0.137 0.387 0.262-0.125 0.113-0.262 0.213-0.375 0.325zM2.75 11.375h-0.038c-0.138 0-0.212 0.050-0.212 0.188v1.012c-0.25-0.225-0.55-0.313-0.9-0.313h-0.1c-0.238 0-0.462 0.037-0.675 0.162-0.45 0.262-0.7 0.65-0.7 1.175v0.1c0 0.238 0.063 0.438 0.188 0.65 0.262 0.45 0.675 0.675 1.188 0.675h0.1c0.238 0 0.487-0.037 0.688-0.15 0.45-0.262 0.712-0.65 0.712-1.162v-2.125c0-0.162-0.112-0.213-0.25-0.213zM2.362 14.1c-0.188 0.313-0.462 0.488-0.825 0.488-0.15 0-0.3-0.037-0.425-0.113-0.325-0.175-0.512-0.463-0.512-0.838 0-0.137 0.025-0.262 0.088-0.387 0.175-0.363 0.463-0.563 0.862-0.563 0.2 0 0.375 0.063 0.525 0.175 0.263 0.188 0.413 0.438 0.413 0.762 0.013 0.175-0.038 0.325-0.125 0.475zM4.7 12.25h-0.075c-0.237 0-0.475 0.037-0.675 0.162-0.45 0.262-0.7 0.65-0.7 1.175v0.1c0 0.238 0.063 0.438 0.188 0.65 0.263 0.45 0.675 0.675 1.2 0.675h0.1c0.237 0 0.475-0.037 0.688-0.15 0.45-0.262 0.713-0.65 0.713-1.162v-0.1c0-0.225-0.075-0.412-0.175-0.6-0.275-0.5-0.713-0.75-1.263-0.75zM5.5 14.1c-0.188 0.3-0.45 0.488-0.813 0.488-0.162 0-0.325-0.037-0.475-0.125-0.313-0.188-0.487-0.45-0.487-0.813 0-0.137 0.025-0.262 0.087-0.387 0.175-0.363 0.462-0.563 0.863-0.563 0.188 0 0.35 0.050 0.5 0.15 0.275 0.188 0.438 0.45 0.438 0.787 0.013 0.15-0.025 0.313-0.112 0.463zM8.563 12.425l-0.012 0.012c-0.213-0.137-0.45-0.188-0.7-0.188h-0.1c-0.237 0-0.475 0.037-0.675 0.162-0.45 0.262-0.7 0.65-0.7 1.162v0.1c0 0.125 0.025 0.238 0.050 0.363 0.2 0.688 0.737 1.075 1.463 1.025 0.2-0.012 0.738-0.075 0.738-0.375v-0.050c0-0.113-0.088-0.213-0.188-0.238l-0.012-0.025h-0.088l-0.025 0.037c-0.113 0.050-0.3 0.15-0.425 0.15-0.15 0-0.313 0-0.45-0.075-0.362-0.175-0.575-0.463-0.575-0.863 0-0.137 0.025-0.262 0.088-0.387 0.175-0.35 0.463-0.575 0.862-0.563 0.075 0 0.213 0.037 0.287 0.075 0.063 0.025 0.225 0.125 0.3 0.125h0.025l0.012-0.025c0.113-0.025 0.2-0.113 0.2-0.225v-0.050c0-0.050-0.025-0.088-0.050-0.125l-0.025-0.025zM0.725 8.525l0.012 0.025c0.988 1.675 2.712 2.375 4.6 2.375 3.65 0 6.663-1.637 8.038-5.075 0.925 0.050 1.875-0.225 2.325-1.112l0.113-0.225-0.225-0.125c-0.537-0.313-1.25-0.35-1.85-0.175-0.075-0.65-0.5-1.212-1-1.612l-0.2-0.163-0.162 0.2c-0.338 0.388-0.438 1.038-0.387 1.538 0.037 0.362 0.15 0.737 0.375 1.038-0.175 0.1-0.363 0.237-0.537 0.3-0.35 0.125-0.738 0.25-1.113 0.25h-0.838v-1.763h-1.625v-3.125h-1.875v1.5h-3.125v1.625h-1.625v1.75h-1.4l-0.025 0.188c-0.063 0.8 0.038 1.575 0.375 2.313l0.15 0.275zM8.25 4.375h1.375v1.375h-1.375v-1.375zM6.625 1.125h1.375v1.375h-1.375v-1.375zM6.625 2.75h1.375v1.375h-1.375v-1.375zM6.625 4.375h1.375v1.375h-1.375v-1.375zM5 2.75h1.375v1.375h-1.375v-1.375zM5 4.375h1.375v1.375h-1.375v-1.375zM5.138 8.275c0 0.213-0.175 0.387-0.388 0.387s-0.388-0.175-0.388-0.387c0-0.213 0.175-0.388 0.388-0.388 0.213 0.013 0.388 0.175 0.388 0.388zM3.5 2.75h1.25v1.375h-1.25v-1.375zM3.5 4.375h1.25v1.375h-1.25v-1.375zM1.875 4.375h1.375v1.375h-1.375v-1.375zM2.175 9.125c0.2 0 0.4 0 0.587-0.012 0.487-0.025 0.913-0.088 1.262-0.188 0.287 0.662 0.813 1.275 1.75 1.725l-0.438 0.012c-1.975-0.012-3.038-0.675-3.913-1.55 0.262 0.012 0.512 0.012 0.75 0.012zM4.75 8.55c0.15 0 0.275-0.125 0.275-0.275 0-0.037-0.013-0.075-0.025-0.1-0.025 0.037-0.050 0.063-0.1 0.063-0.063 0-0.112-0.050-0.112-0.113 0-0.037 0.025-0.075 0.050-0.1-0.013-0.012-0.050-0.025-0.088-0.025-0.15 0-0.275 0.125-0.275 0.275 0.013 0.15 0.125 0.275 0.275 0.275z"></path>
</svg>
