<!-- Generated by IcoMoon.io -->
<svg version="1.1" xmlns="http://www.w3.org/2000/svg" viewBox="0 0 16 16">
<title>dotnet</title>
<path d="M5.042 9.774h-0.211v-1.206c0-0.095 0.006-0.211 0.018-0.348h-0.005c-0.020 0.080-0.038 0.138-0.054 0.174l-0.613 1.38h-0.103l-0.614-1.37c-0.017-0.038-0.035-0.1-0.054-0.184h-0.005c0.006 0.072 0.010 0.189 0.010 0.351v1.204h-0.203v-1.796h0.278l0.551 1.253c0.042 0.094 0.068 0.166 0.081 0.215h0.009c0.036-0.098 0.065-0.172 0.086-0.22l0.563-1.247h0.264v1.796h0zM5.69 9.774h-0.205v-1.283h0.205v1.283zM5.726 8.031c0 0.038-0.013 0.069-0.040 0.095s-0.058 0.039-0.096 0.039c-0.037 0-0.069-0.013-0.095-0.038s-0.039-0.057-0.039-0.097c0-0.037 0.013-0.069 0.039-0.094s0.058-0.038 0.095-0.038c0.037 0 0.070 0.012 0.096 0.038s0.040 0.057 0.040 0.094zM6.971 9.714c-0.098 0.060-0.216 0.090-0.351 0.090-0.184 0-0.332-0.061-0.445-0.183-0.11-0.118-0.165-0.271-0.165-0.458 0-0.21 0.060-0.38 0.181-0.51s0.283-0.194 0.487-0.194c0.112 0 0.21 0.022 0.297 0.065v0.211c-0.096-0.067-0.197-0.101-0.306-0.101-0.131 0-0.237 0.046-0.319 0.137-0.086 0.093-0.129 0.218-0.129 0.373 0 0.149 0.040 0.268 0.119 0.355s0.184 0.13 0.317 0.13c0.112 0 0.217-0.037 0.316-0.11v0.195h0zM7.95 8.699c-0.036-0.028-0.088-0.041-0.157-0.041-0.083 0-0.154 0.037-0.21 0.113-0.064 0.084-0.096 0.2-0.096 0.349v0.654h-0.205v-1.283h0.205v0.264h0.005c0.030-0.094 0.077-0.166 0.139-0.217 0.058-0.047 0.124-0.070 0.197-0.070 0.055 0 0.095 0.006 0.123 0.018l0 0.213zM9.095 9.134c0-0.164-0.037-0.29-0.111-0.376-0.072-0.083-0.172-0.124-0.302-0.124-0.128 0-0.23 0.042-0.307 0.125-0.081 0.089-0.121 0.216-0.121 0.379 0 0.153 0.039 0.274 0.116 0.36s0.181 0.13 0.312 0.13c0.135 0 0.238-0.044 0.309-0.131 0.069-0.085 0.104-0.207 0.104-0.363zM9.305 9.127c0 0.204-0.058 0.369-0.173 0.492s-0.271 0.185-0.466 0.185c-0.193 0-0.346-0.062-0.458-0.185-0.11-0.119-0.165-0.276-0.165-0.472 0-0.223 0.063-0.395 0.188-0.517 0.116-0.113 0.271-0.17 0.466-0.17 0.191 0 0.341 0.060 0.448 0.178 0.107 0.119 0.161 0.282 0.161 0.49zM10.324 9.43c0 0.105-0.039 0.192-0.118 0.261-0.086 0.075-0.204 0.113-0.352 0.113-0.121 0-0.228-0.025-0.318-0.077v-0.221c0.101 0.082 0.211 0.123 0.333 0.123 0.163 0 0.244-0.060 0.244-0.179 0-0.050-0.018-0.092-0.054-0.124s-0.106-0.072-0.211-0.118c-0.107-0.047-0.184-0.095-0.229-0.145-0.054-0.059-0.082-0.137-0.082-0.232 0-0.107 0.043-0.195 0.127-0.266s0.193-0.106 0.326-0.106c0.102 0 0.193 0.020 0.274 0.060v0.207c-0.085-0.061-0.181-0.091-0.291-0.091-0.068 0-0.123 0.017-0.163 0.050s-0.062 0.077-0.062 0.129c0 0.057 0.017 0.101 0.052 0.133 0.030 0.029 0.095 0.065 0.193 0.107 0.11 0.046 0.189 0.094 0.237 0.142 0.063 0.062 0.094 0.14 0.094 0.235zM11.579 9.134c0-0.164-0.037-0.29-0.111-0.376-0.072-0.083-0.173-0.124-0.302-0.124-0.128 0-0.23 0.042-0.307 0.125-0.081 0.089-0.121 0.216-0.121 0.379 0 0.153 0.039 0.274 0.116 0.36 0.078 0.086 0.182 0.13 0.313 0.13 0.135 0 0.238-0.044 0.309-0.131 0.069-0.085 0.104-0.207 0.104-0.363zM11.79 9.127c0 0.204-0.058 0.369-0.174 0.492s-0.27 0.185-0.466 0.185c-0.193 0-0.346-0.062-0.458-0.185-0.11-0.119-0.165-0.276-0.165-0.472 0-0.223 0.063-0.395 0.188-0.517 0.116-0.113 0.271-0.17 0.466-0.17 0.191 0 0.341 0.060 0.448 0.178s0.161 0.282 0.161 0.49zM12.694 8.055c-0.040-0.022-0.085-0.034-0.136-0.034-0.144 0-0.215 0.091-0.215 0.272v0.198h0.301v0.174h-0.301v1.109h-0.206v-1.109h-0.218v-0.174h0.218v-0.208c0-0.141 0.043-0.252 0.131-0.332 0.075-0.069 0.168-0.104 0.277-0.104 0.063 0 0.113 0.008 0.149 0.022v0.185zM13.505 9.761c-0.049 0.028-0.113 0.042-0.193 0.042-0.224 0-0.336-0.126-0.336-0.379v-0.759h-0.22v-0.174h0.22v-0.313l0.206-0.067v0.38h0.323v0.174h-0.323v0.724c0 0.086 0.014 0.148 0.043 0.183 0.030 0.037 0.078 0.055 0.147 0.055 0.051 0 0.095-0.014 0.133-0.041v0.175zM2.405 14.78c0 0.101-0.036 0.188-0.108 0.261s-0.16 0.11-0.263 0.11c-0.101 0-0.186-0.037-0.256-0.11s-0.105-0.16-0.105-0.261c0-0.103 0.035-0.191 0.105-0.263s0.156-0.108 0.256-0.108c0.103 0 0.191 0.037 0.263 0.11s0.108 0.161 0.108 0.261zM7.002 15.076h-0.67l-2.431-3.754c-0.057-0.090-0.106-0.188-0.147-0.296h-0.020c0.017 0.101 0.026 0.316 0.026 0.647v3.403h-0.552v-4.71h0.716l2.358 3.695c0.094 0.147 0.158 0.252 0.191 0.315h0.013c-0.022-0.135-0.033-0.367-0.033-0.693v-3.317h0.549v4.71h0zM10.541 15.076h-2.496v-4.71h2.388v0.499h-1.836v1.567h1.701v0.499h-1.702v1.646h1.945v0.499zM14.328 10.865h-1.357v4.211h-0.552v-4.211h-1.359v-0.499h3.268v0.499zM10.264 5.791c0.060-0.154 0.128-0.306 0.178-0.463 0.286-0.887 0.569-1.775 0.851-2.664 0.108-0.341 0.227-0.677 0.439-0.971 0.336-0.464 0.805-0.707 1.36-0.791 0.218-0.033 0.44-0.049 0.66-0.051 0.658-0.006 1.317-0.002 1.976-0.001 0.035 0 0.070 0.004 0.12 0.006-0.016 0.038-0.025 0.066-0.039 0.091-0.244 0.437-0.484 0.876-0.736 1.308-0.438 0.753-0.877 1.505-1.329 2.25-0.29 0.477-0.604 0.94-0.961 1.372-0.263 0.319-0.54 0.623-0.893 0.846-0.241 0.152-0.498 0.241-0.789 0.24-1.035-0.006-2.069-0.002-3.104-0.003-0.308-0-0.571-0.118-0.795-0.325-0.32-0.298-0.512-0.676-0.668-1.076-0.285-0.729-0.445-1.494-0.629-2.252-0.086-0.355-0.184-0.707-0.277-1.060-0.006-0.023-0.018-0.044-0.031-0.077l-0.072 0.068c-0.404 0.401-0.759 0.843-1.077 1.312-0.087 0.128-0.116 0.297-0.164 0.449-0.178 0.559-0.34 1.123-0.533 1.676-0.185 0.53-0.516 0.952-1.033 1.201-0.303 0.146-0.625 0.224-0.961 0.232-0.498 0.011-0.995 0.012-1.493 0.017-0.119 0.001-0.124-0.009-0.093-0.124 0.213-0.792 0.484-1.564 0.823-2.312 0.349-0.771 0.761-1.506 1.279-2.177 0.353-0.457 0.743-0.879 1.23-1.198 0.247-0.162 0.51-0.289 0.81-0.323 0.049-0.006 0.099-0.009 0.149-0.009 1.060-0 2.119 0.010 3.179-0.005 0.568-0.008 0.98 0.232 1.288 0.689 0.192 0.284 0.329 0.595 0.444 0.916 0.233 0.647 0.377 1.318 0.541 1.985 0.094 0.381 0.198 0.76 0.297 1.14 0.008 0.029 0.020 0.056 0.030 0.083l0.025-0.001z"></path>
</svg>
