<!-- Generated by IcoMoon.io -->
<svg version="1.1" xmlns="http://www.w3.org/2000/svg" viewBox="0 0 16 16">
<title>drupal</title>
<path d="M11.386 3.116c-0.794-0.494-1.543-0.689-2.292-1.184-0.465-0.315-1.109-1.064-1.648-1.708-0.105 1.034-0.419 1.453-0.779 1.753-0.764 0.599-1.244 0.779-1.903 1.139-0.554 0.285-3.566 2.082-3.566 5.947s3.251 6.712 6.861 6.712c3.611 0 6.742-2.622 6.742-6.592s-2.936-5.768-3.416-6.067zM11.472 14.365c-0.075 0.075-0.764 0.554-1.573 0.629s-1.903 0.12-2.562-0.479c-0.105-0.105-0.075-0.255 0-0.315s0.135-0.105 0.225-0.105 0.075 0 0.12 0.030c0.3 0.24 0.749 0.434 1.708 0.434s1.633-0.27 1.933-0.494c0.135-0.105 0.195-0.015 0.21 0.045s0.045 0.15-0.060 0.255zM8.851 13.002c0.165-0.15 0.435-0.389 0.689-0.494s0.39-0.090 0.629-0.090c0.24 0 0.494 0.015 0.674 0.135s0.285 0.389 0.345 0.539 0 0.24-0.12 0.3c-0.105 0.060-0.12 0.030-0.225-0.165s-0.195-0.39-0.719-0.39-0.689 0.18-0.944 0.39c-0.255 0.21-0.345 0.285-0.434 0.165s-0.060-0.239 0.105-0.389zM12.821 13.122c-0.539-0.045-1.618-1.723-2.307-1.753-0.869-0.030-2.757 1.813-4.24 1.813-0.899 0-1.168-0.135-1.468-0.33-0.45-0.315-0.674-0.794-0.659-1.453 0.015-1.169 1.109-2.262 2.487-2.277 1.753-0.015 2.966 1.738 3.85 1.723 0.749-0.015 2.187-1.483 2.891-1.483 0.749 0 0.959 0.779 0.959 1.243s-0.15 1.303-0.509 1.828c-0.36 0.524-0.584 0.719-1.004 0.689z"></path>
</svg>
