<!-- Generated by IcoMoon.io -->
<svg version="1.1" xmlns="http://www.w3.org/2000/svg" viewBox="0 0 16 16">
<title>electron</title>
<path d="M6.134 4.082c-1.796-0.328-3.215 0.015-3.781 1-0.422 0.731-0.301 1.701 0.292 2.737 0.032 0.056 0.092 0.093 0.16 0.093 0.102 0 0.184-0.083 0.184-0.184 0-0.034-0.009-0.066-0.025-0.093-0.535-0.933-0.64-1.77-0.293-2.374 0.47-0.814 1.736-1.125 3.396-0.817 0.010 0.002 0.021 0.003 0.033 0.003 0.102 0 0.184-0.082 0.184-0.184 0-0.090-0.065-0.165-0.15-0.181zM3.579 9.076c0.788 0.843 1.694 1.563 2.694 2.138 2.661 1.53 5.431 1.936 6.806 1.003 0.049-0.034 0.080-0.089 0.080-0.152 0-0.102-0.082-0.184-0.184-0.184-0.039 0-0.075 0.012-0.104 0.032-1.232 0.836-3.871 0.451-6.362-0.99-1.020-0.585-1.895-1.281-2.652-2.090-0.040-0.043-0.088-0.066-0.142-0.066-0.102 0-0.185 0.083-0.185 0.185 0 0.048 0.018 0.092 0.049 0.125zM12.633 8.851c1.176-1.389 1.586-2.786 1.021-3.764-0.415-0.72-1.294-1.1-2.461-1.115-0.102 0-0.184 0.083-0.184 0.184s0.083 0.184 0.184 0.184c1.050 0.014 1.806 0.341 2.147 0.931 0.469 0.813 0.102 2.059-0.984 3.342-0.027 0.032-0.043 0.073-0.043 0.119 0 0.102 0.082 0.184 0.184 0.184 0.056 0 0.107-0.025 0.14-0.065zM9.611 4.144c-1.241 0.287-2.336 0.734-3.334 1.329-2.636 1.527-4.391 3.813-4.152 5.473 0.014 0.092 0.092 0.163 0.188 0.163 0.105 0 0.189-0.085 0.189-0.189 0-0.009-0.001-0.019-0.002-0.028-0.221-1.473 1.441-3.641 4.014-5.128 0.914-0.549 1.974-0.984 3.1-1.249 0.159-0.033 0.221-0.107 0.221-0.195 0-0.102-0.082-0.184-0.184-0.184-0.014 0-0.027 0.002-0.040 0.004zM5.25 12.098c0.625 1.716 1.625 2.777 2.756 2.777 0.825 0 1.588-0.563 2.182-1.553 0.018-0.028 0.028-0.062 0.028-0.099 0-0.102-0.083-0.185-0.185-0.185-0.066 0-0.124 0.034-0.156 0.086-0.535 0.891-1.192 1.376-1.868 1.376-0.94 0-1.836-0.943-2.405-2.53-0.026-0.072-0.094-0.122-0.173-0.122-0.102 0-0.184 0.082-0.184 0.184 0 0.022 0.004 0.044 0.011 0.064zM10.875 11.761c0.31-0.996 0.489-2.141 0.489-3.327 0-0.030-0-0.060-0-0.090 0-3.047-1.067-5.675-2.589-6.352-0.022-0.010-0.048-0.016-0.075-0.016-0.102 0-0.185 0.083-0.185 0.185 0 0.075 0.045 0.139 0.108 0.168 1.357 0.603 2.376 3.098 2.376 6.019 0 0.025 0 0.054 0 0.083 0 1.148-0.173 2.256-0.494 3.299 0.016-0.063 0.013-0.044 0.013-0.024 0 0.102 0.082 0.184 0.184 0.184 0.082 0 0.151-0.054 0.175-0.128zM14.339 11.581c0-0.487-0.395-0.881-0.881-0.881s-0.881 0.395-0.881 0.881c0 0.487 0.395 0.881 0.881 0.881s0.881-0.395 0.881-0.881zM13.97 11.581c0 0.283-0.229 0.512-0.512 0.512s-0.512-0.229-0.512-0.512c0-0.283 0.229-0.512 0.512-0.512s0.512 0.229 0.512 0.512zM2.542 12.463c0.487 0 0.881-0.395 0.881-0.881s-0.395-0.881-0.881-0.881c-0.487 0-0.881 0.395-0.881 0.881s0.395 0.881 0.881 0.881zM2.542 12.094c-0.283 0-0.512-0.229-0.512-0.512s0.229-0.512 0.513-0.512c0.283 0 0.513 0.229 0.513 0.512s-0.229 0.512-0.513 0.512zM8.006 2.891c0.487 0 0.881-0.395 0.881-0.881s-0.395-0.881-0.881-0.881c-0.487 0-0.881 0.395-0.881 0.881s0.395 0.881 0.881 0.881zM8.006 2.522c-0.283 0-0.513-0.229-0.513-0.513s0.229-0.512 0.513-0.512c0.283 0 0.512 0.229 0.512 0.512s-0.229 0.513-0.512 0.513zM8.141 8.971c-0.042 0.010-0.090 0.015-0.139 0.015-0.352 0-0.638-0.285-0.638-0.637s0.285-0.638 0.638-0.638c0.304 0 0.559 0.213 0.622 0.498 0.010 0.045 0.015 0.092 0.015 0.14 0 0.303-0.211 0.556-0.494 0.621z"></path>
</svg>
