<!-- Generated by IcoMoon.io -->
<svg version="1.1" xmlns="http://www.w3.org/2000/svg" viewBox="0 0 16 16">
<title>ember</title>
<path d="M15.91 9.066c0-0.002 0-0.004 0-0.005 0-0.101-0.082-0.182-0.182-0.182-0.031 0-0.059 0.008-0.085 0.021s-0.384 0.298-0.723 0.265-0.232-0.789-0.232-0.789 0.072-0.694-0.125-0.75-0.445 0.181-0.445 0.181c-0.188 0.219-0.341 0.474-0.446 0.754l-0.046 0.031s0.046-0.758-0.006-0.93c-0.040-0.086-0.405-0.080-0.465 0.072s-0.352 1.216-0.375 1.661c0 0-0.571 0.485-1.070 0.565s-0.617-0.232-0.617-0.232 1.355-0.375 1.309-1.461-1.092-0.683-1.211-0.594-0.726 0.453-0.904 1.471c0 0.035-0.016 0.186-0.016 0.186-0.235 0.163-0.504 0.312-0.787 0.433s0.787-1.363-0.21-1.988c-0.451-0.275-0.81 0.3-0.81 0.3s1.349-1.5 1.050-2.77c-0.143-0.604-0.445-0.669-0.721-0.571-0.235 0.082-0.432 0.225-0.578 0.41-0.355 0.564-0.595 1.232-0.671 1.949-0.127 1.197-0.314 2.618-0.314 2.618s-0.259 0.25-0.5 0.266-0.133-0.711-0.133-0.711 0.186-1.103 0.173-1.289-0.026-0.286-0.25-0.353-0.459 0.213-0.459 0.213-0.625 0.956-0.684 1.103l-0.034 0.060-0.034-0.040s0.445-1.303 0.020-1.322-0.702 0.465-0.702 0.465-0.481 0.811-0.5 0.899l-0.034-0.040s0.199-0.944 0.16-1.176c-0.012-0.108-0.102-0.191-0.213-0.191-0.016 0-0.032 0.002-0.048 0.005s-0.277-0.034-0.351 0.146c-0.146 0.482-0.277 1.073-0.366 1.678s-0.706 0.572-1.165 0.572-0.413-0.291-0.413-0.291 1.679-0.566 1.225-1.703c-0.151-0.23-0.407-0.379-0.698-0.379-0.030 0-0.060 0.002-0.089 0.005-0.335 0.006-0.746 0.213-1.018 0.825-0.098 0.227-0.167 0.491-0.193 0.767l-0.001 0.011s-0.304 0.060-0.464-0.072-0.25 0-0.25 0-0.276 0.344 0 0.45c0.201 0.068 0.436 0.119 0.68 0.144l0.014 0.001c0.068 0.312 0.241 0.575 0.481 0.756 0.503 0.377 1.458-0.030 1.458-0.030l0.393-0.219s0.016 0.367 0.299 0.416 0.405 0 0.904-1.21c0.293-0.617 0.314-0.589 0.314-0.589l0.034-0.006s-0.226 1.183-0.14 1.5 0.465 0.286 0.465 0.286 0.206 0.035 0.375-0.55c0.149-0.483 0.312-0.891 0.503-1.282l0.013 0.052s-0.14 1.214 0.072 1.6 0.764 0.133 0.764 0.133c0.174-0.084 0.32-0.167 0.459-0.259 0.247 0.212 0.58 0.335 0.942 0.335 0.052 0 0.103-0.002 0.153-0.007 1.436-0.283 1.949-0.666 1.949-0.666 0.185 0.391 0.566 0.661 1.012 0.686 0.052 0.005 0.109 0.008 0.167 0.008 0.465 0 0.886-0.188 1.191-0.493s-0.006 0.359 0.299 0.485 0.511-0.588 0.511-0.588l0.511-1.415h0.046s0.026 0.922 0.531 1.067 1.162-0.34 1.162-0.34c0.090-0.062 0.148-0.165 0.148-0.281 0-0.026-0.003-0.052-0.009-0.077zM1.625 9.197c0.020-0.79 0.539-1.136 0.718-0.964s0.112 0.545-0.226 0.777-0.491 0.186-0.491 0.186zM8.363 6.135s0.471-1.229 0.585-0.625-0.99 2.375-0.99 2.375c0.013-0.401 0.405-1.75 0.405-1.75zM8.928 9.556c-0.313 0.818-1.070 0.485-1.070 0.485s-0.086-0.293 0.16-1.11 0.824-0.5 0.824-0.5 0.398 0.309 0.086 1.125zM11.020 9.197s-0.072-0.259 0.199-0.758 0.485-0.226 0.485-0.226 0.232 0.25-0.034 0.625c-0.14 0.215-0.378 0.356-0.65 0.359z"></path>
</svg>
