<?xml version="1.0" encoding="UTF-8"?>
<svg viewBox="0 0 16 13" version="1.1" xmlns="http://www.w3.org/2000/svg" xmlns:xlink="http://www.w3.org/1999/xlink">
    <!-- Dividend by Michael Thompson from the Noun Project -->
    <title>equity</title>
    <desc>Dividend by Michael Thompson from the Noun Project</desc>
    <defs></defs>
    <g id="Page-1" stroke="none" stroke-width="1" fill="none" fill-rule="evenodd">
        <g id="noun_29165_cc" fill-rule="nonzero" fill="#000000">
            <path d="M2.22019048,7.47219048 L2.70228571,7.21295238 C2.89904762,7.57047619 3.23942857,7.87447619 3.76685714,7.95542857 L3.76685714,6.28361905 C2.89980952,6.04285714 2.46133333,5.66685714 2.46133333,4.99638095 C2.46133333,4.37066667 2.97066667,3.88838095 3.76685714,3.83504762 L3.76685714,2.88704762 L4.22266667,2.88704762 L4.22266667,3.84342857 C4.82133333,3.93352381 5.23257143,4.28247619 5.42914286,4.62171429 L4.98228571,4.90742857 C4.83885714,4.65714286 4.60685714,4.42495238 4.22266667,4.34457143 L4.22266667,5.82819048 L4.27619048,5.84609524 C5.21485714,6.1232381 5.67066667,6.5167619 5.67066667,7.2047619 C5.67066667,7.93733333 5.15238095,8.4112381 4.22247619,8.46514286 L4.22247619,9.46628571 L3.76666667,9.46628571 L3.76666667,8.45542857 C2.97085714,8.37504762 2.4352381,7.9192381 2.22019048,7.47219048 Z M3.05142857,4.96914286 C3.05142857,5.34495238 3.24819048,5.52380952 3.76704762,5.68457143 L3.76704762,4.32552381 C3.31980952,4.37009524 3.05142857,4.58514286 3.05142857,4.96914286 Z M5.07142857,7.24933333 C5.07142857,6.81961905 4.85695238,6.61428571 4.22266667,6.42685714 L4.22266667,7.96361905 C4.79409524,7.9192381 5.07142857,7.64171429 5.07142857,7.24933333 Z" id="Shape"></path>
            <path d="M14.0407619,12.2518095 L9.48342857,7.69428571 L15.8714286,7.35904762 L15.8820952,7.87028571 C15.9125714,9.35580952 15.3828571,10.7754286 14.3900952,11.867619 L14.0407619,12.2518095 Z M11.7565714,8.56666667 L13.9862857,10.7969524 C14.4954286,10.096 14.8017143,9.27161905 14.8754286,8.40304762 L11.7565714,8.56666667 Z" id="Shape"></path>
            <path d="M6.52361905,12.8032381 L6.4727619,12.8028571 C4.79009524,12.7910476 3.19885714,12.1232381 1.99809524,10.9222857 C0.796952381,9.72133333 0.129142857,8.13028571 0.116952381,6.44228571 C0.105142857,4.74990476 0.753333333,3.16361905 1.94247619,1.97447619 C3.11942857,0.797333333 4.68971429,0.149142857 6.36361905,0.149142857 L6.41028571,0.149333333 C8.09771429,0.161142857 9.68857143,0.829142857 10.8895238,2.03028571 C11.931619,3.07238095 12.5878095,4.44819048 12.7375238,5.90380952 L12.7401905,5.9487619 L12.751619,6.8807619 L8.13390476,7.1232381 L11.4704762,10.452 L10.9451429,10.9773333 C9.76819048,12.1546667 8.19790476,12.8032381 6.52361905,12.8032381 Z M6.36361905,1.13980952 C4.95428571,1.13980952 3.63257143,1.68495238 2.64285714,2.67504762 C1.64266667,3.67485714 1.09752381,5.01047619 1.10742857,6.43542857 C1.11752381,7.86133333 1.68247619,9.20628571 2.69847619,10.2222857 C3.71409524,11.2379048 5.05904762,11.8026667 6.48495238,11.8127619 L6.52361905,11.8127619 C7.84780952,11.8127619 9.09447619,11.3318095 10.0613333,10.4521905 L5.86114286,6.25104762 L11.7455238,5.94190476 C11.6066667,4.73542857 11.055619,3.59714286 10.1893333,2.73066667 C9.17371429,1.71485714 7.82895238,1.14971429 6.40285714,1.13980952 L6.36361905,1.13980952 Z" id="Shape"></path>
        </g>
    </g>
</svg>
