<!-- Generated by IcoMoon.io -->
<svg version="1.1" xmlns="http://www.w3.org/2000/svg" viewBox="0 0 16 16">
<title>express</title>
<path d="M5.066 9.727v-3.385h0.184v0.532c0.021-0.023 0.040-0.047 0.059-0.073 0.152-0.309 0.462-0.517 0.821-0.517 0.004 0 0.007 0 0.011 0 0.418-0.013 0.758 0.143 0.958 0.515 0.129 0.23 0.205 0.505 0.205 0.798 0 0.262-0.061 0.51-0.169 0.73-0.182 0.408-0.642 0.615-1.134 0.539-0.319-0.028-0.589-0.215-0.733-0.48l-0.002 1.341zM5.25 7.54c0.016 0.165 0.022 0.282 0.041 0.397 0.072 0.453 0.34 0.721 0.76 0.77 0.042 0.007 0.091 0.011 0.14 0.011 0.368 0 0.682-0.23 0.807-0.554 0.074-0.174 0.116-0.37 0.116-0.575 0-0.233-0.054-0.454-0.151-0.65-0.132-0.289-0.426-0.492-0.769-0.492-0.042 0-0.083 0.003-0.123 0.009-0.35 0.026-0.64 0.273-0.73 0.602-0.036 0.134-0.067 0.295-0.089 0.459zM11.051 8c-0.059 0.49-0.468 0.867-0.967 0.875-0.771 0.039-1.132-0.472-1.19-1.062-0.008-0.063-0.013-0.136-0.013-0.21 0-0.264 0.060-0.514 0.167-0.737 0.168-0.344 0.526-0.584 0.939-0.584 0.051 0 0.102 0.004 0.151 0.011 0.427 0.037 0.779 0.346 0.88 0.754 0.036 0.161 0.066 0.353 0.086 0.548l-2.022 0.021c-0.037 0.535 0.25 0.965 0.658 1.069 0.508 0.125 0.941-0.095 1.099-0.578 0.035-0.124 0.099-0.141 0.211-0.106zM9.084 7.444h1.809c-0.011-0.57-0.366-0.982-0.848-0.989-0.545-0.009-0.938 0.389-0.961 0.989zM11.424 8.012h0.178c0.014 0.272 0.179 0.503 0.413 0.611 0.136 0.063 0.29 0.098 0.452 0.098 0.182 0 0.355-0.045 0.506-0.124 0.143-0.066 0.245-0.214 0.245-0.386 0-0.011-0-0.021-0.001-0.032 0-0.005 0.001-0.012 0.001-0.020 0-0.168-0.108-0.311-0.258-0.364-0.198-0.073-0.405-0.113-0.604-0.177-0.238-0.068-0.439-0.144-0.632-0.233-0.293-0.145-0.313-0.754 0.050-0.946 0.18-0.104 0.397-0.165 0.627-0.165 0.217 0 0.421 0.054 0.6 0.149 0.192 0.108 0.325 0.318 0.325 0.559 0 0.033-0.002 0.065-0.007 0.096l-0.152-0.004c0-0.008-0.014-0.014-0.014-0.021-0.019-0.486-0.426-0.636-0.864-0.594-0.14 0.018-0.266 0.058-0.381 0.117-0.124 0.058-0.213 0.187-0.213 0.338 0 0.012 0.001 0.024 0.002 0.035 0 0.16 0.103 0.298 0.247 0.35 0.195 0.071 0.396 0.116 0.594 0.171 0.159 0.044 0.324 0.072 0.477 0.125 0.219 0.073 0.376 0.271 0.387 0.507 0.004 0.028 0.007 0.058 0.007 0.090 0 0.233-0.133 0.435-0.327 0.535-0.421 0.238-1.108 0.175-1.415-0.123-0.15-0.151-0.243-0.358-0.243-0.588 0-0.002 0-0.004 0-0.006zM15.651 7.076h-0.166c0-0.022-0.009-0.043-0.011-0.061-0.006-0.26-0.193-0.474-0.439-0.522-0.094-0.027-0.197-0.043-0.304-0.043-0.144 0-0.282 0.028-0.408 0.079-0.171 0.050-0.3 0.212-0.301 0.403-0 0.004-0 0.009-0 0.014 0 0.184 0.127 0.338 0.298 0.381 0.253 0.078 0.509 0.126 0.763 0.196 0.097 0.023 0.178 0.049 0.257 0.079 0.229 0.084 0.4 0.314 0.4 0.584 0 0.257-0.155 0.478-0.377 0.574-0.173 0.080-0.371 0.126-0.579 0.126-0.199 0-0.388-0.042-0.559-0.117-0.271-0.119-0.462-0.394-0.462-0.713 0-0.015 0-0.029 0.001-0.043l0.070 0.002h0.092c0.089 0.418 0.454 0.726 0.892 0.726 0.184 0 0.355-0.055 0.499-0.148 0.141-0.074 0.237-0.223 0.237-0.394 0-0.008-0-0.015-0.001-0.023 0-0.004 0-0.010 0-0.016 0-0.17-0.109-0.314-0.261-0.366-0.198-0.073-0.405-0.112-0.604-0.176-0.24-0.067-0.442-0.142-0.637-0.23-0.285-0.142-0.31-0.746 0.047-0.939 0.181-0.107 0.399-0.17 0.632-0.17 0.223 0 0.433 0.058 0.614 0.16 0.186 0.113 0.312 0.321 0.312 0.558 0 0.028-0.002 0.056-0.005 0.083zM4.763 8.814c-0.030 0.012-0.065 0.019-0.101 0.019-0.11 0-0.205-0.062-0.253-0.152-0.205-0.307-0.429-0.598-0.646-0.895l-0.094-0.125c-0.257 0.345-0.515 0.676-0.75 1.020-0.047 0.089-0.139 0.149-0.244 0.149-0.033 0-0.065-0.006-0.095-0.017l0.968-1.296-0.899-1.171c0.030-0.011 0.065-0.018 0.101-0.018 0.107 0 0.201 0.057 0.254 0.141 0.209 0.306 0.441 0.598 0.671 0.906 0.231-0.306 0.46-0.599 0.674-0.901 0.046-0.086 0.135-0.143 0.238-0.143 0.035 0 0.068 0.007 0.099 0.019l-0.351 0.462c-0.156 0.206-0.31 0.414-0.473 0.615-0.026 0.023-0.042 0.056-0.042 0.093s0.016 0.070 0.042 0.093c0.299 0.396 0.595 0.794 0.9 1.201zM8.865 6.332v0.175c-0.018-0.001-0.038-0.002-0.059-0.002-0.501 0-0.906 0.406-0.906 0.906 0 0.011 0 0.022 0.001 0.034q-0 0.616-0 1.233c0 0.044 0 0.088 0 0.14h-0.179v-2.476h0.175v0.508c0.216-0.37 0.55-0.508 0.969-0.518zM0.266 7.5c0.026-0.125 0.042-0.261 0.079-0.389 0.216-0.769 1.097-1.089 1.704-0.612 0.355 0.279 0.444 0.674 0.426 1.119h-2c-0.032 0.795 0.541 1.275 1.275 1.030 0.241-0.088 0.422-0.287 0.483-0.534 0.040-0.13 0.102-0.151 0.221-0.115-0.042 0.316-0.224 0.583-0.48 0.739-0.167 0.093-0.362 0.147-0.568 0.147-0.312 0-0.595-0.121-0.806-0.32-0.172-0.193-0.284-0.442-0.307-0.718-0-0.047-0.017-0.089-0.025-0.129q-0.001-0.111-0.001-0.218zM0.477 7.446h1.809c-0.011-0.576-0.375-0.985-0.86-0.989-0.54-0.008-0.926 0.393-0.95 0.986z"></path>
</svg>
