<!-- Generated by IcoMoon.io -->
<svg version="1.1" xmlns="http://www.w3.org/2000/svg" viewBox="0 0 16 16">
<title>gimp</title>
<path d="M4.55 6.8c-0.138 0-0.275-0.075-0.338-0.2l-0.1-0.2-0.037 0.225-0.013 0.1c0 0.412 0.325 0.737 0.737 0.737s0.737-0.325 0.737-0.737c0-0.388-0.313-0.713-0.7-0.737l-0.213-0.013 0.175 0.138c0.088 0.075 0.15 0.188 0.15 0.3-0.013 0.213-0.188 0.388-0.4 0.388zM4.487 5.125c0.625 0 1.163 0.425 1.325 0.987 0.1-0.275 0.263-0.513 0.475-0.7-2.037-0.125-2.913-1.938-2.913-1.938l-0.050 2.287c0.237-0.375 0.663-0.638 1.163-0.638zM7.713 7.75c0.463 0 0.838-0.375 0.838-0.838 0-0.45-0.35-0.825-0.8-0.838l-0.188-0.013 0.15 0.112c0.112 0.088 0.175 0.225 0.175 0.375 0 0.263-0.213 0.475-0.475 0.475-0.175 0-0.338-0.1-0.425-0.25l-0.088-0.162-0.025 0.188-0.013 0.112c0.013 0.45 0.388 0.838 0.85 0.838zM15.75 13.65c-0.050-0.175-0.1-0.35-0.15-0.512-0.313-1.125-0.55-2-1.537-1.912-0.15 0.012-0.275 0.063-0.387 0.137l-0.988-0.625h-0.037l-0.075-0.238-0.15 0.1c-0.313-0.2-0.662-0.375-1.012-0.537 1.125-1.338 1.738-3.7 1.313-7.563-0.037-0.337-0.225-0.388-0.35-0.025-0.1 0.313-0.762 2.288-4.175 2.837 0.45 0.287 0.75 0.787 0.75 1.362 0 0.9-0.725 1.625-1.625 1.625-0.763 0-1.412-0.537-1.575-1.25-0.213 0.5-0.7 0.85-1.275 0.85s-1.063-0.35-1.275-0.85c-0.013 0.025-0.025 0.050-0.038 0.063-0.013-0.025-0.038-0.050-0.050-0.088-0.675-0.925-1.75-1.3-2.413-0.825-0.662 0.487-0.65 1.625 0.025 2.55 0.562 0.775 1.4 1.162 2.050 0.988 1.888 1.4 5.375 2.613 7.713 1.125 0.463 0.262 0.988 0.512 1.475 0.688v0.012l0.050 0.15 0.2-0.075 0.025 0.025 1.1 0.4c0.012 0.35 0.225 0.738 0.675 0.912 0.838 0.325 1.637 0.725 1.637 0.738l0.125 0.063-0.025-0.125zM0.625 7.138c0-0.4 0.275-0.725 0.6-0.725 0.337 0 0.6 0.325 0.6 0.725s-0.275 0.725-0.6 0.725c-0.338 0-0.6-0.325-0.6-0.725zM5.2 9.463c2.288 0.463 3.462 0.037 4.138-0.5-0.175-0.238-0.488-0.488-0.488-0.488s0.8 0.225 1.088 0.588c0.125 0.162 0.162 0.3 0.15 0.438-0.4-0.137-0.7-0.225-0.762-0.25-0.25-0.113-0.488-0.037-0.55 0.15-0.050 0.137-0.012 0.3 0.113 0.425-0.787 0.363-2.075 0.213-3.688-0.363z"></path>
</svg>
