<!-- Generated by IcoMoon.io -->
<svg version="1.1" xmlns="http://www.w3.org/2000/svg" viewBox="0 0 16 16">
<title>git</title>
<path d="M15.593 7.297l-6.89-6.889c-0.396-0.397-1.040-0.397-1.437 0l-1.43 1.431 1.815 1.815c0.422-0.142 0.905-0.047 1.242 0.289 0.338 0.338 0.433 0.826 0.287 1.249l1.749 1.749c0.423-0.146 0.912-0.052 1.249 0.287 0.473 0.472 0.473 1.237 0 1.71s-1.238 0.473-1.71 0c-0.355-0.355-0.443-0.877-0.263-1.315l-1.631-1.631-0 4.293c0.115 0.057 0.224 0.133 0.32 0.229 0.472 0.472 0.472 1.237 0 1.71s-1.238 0.472-1.71 0c-0.472-0.473-0.511-1.238-0.039-1.71 0.117-0.117 0.232-0.205 0.357-0.264v-4.332c-0.125-0.059-0.24-0.146-0.357-0.264-0.358-0.357-0.425-0.883-0.241-1.322l-1.779-1.789-4.719 4.724c-0.397 0.397-0.394 1.041 0.003 1.438l6.891 6.889c0.397 0.397 1.041 0.397 1.438 0l6.857-6.857c0.397-0.397 0.397-1.041 0.001-1.438z"></path>
</svg>
