<!-- Generated by IcoMoon.io -->
<svg version="1.1" xmlns="http://www.w3.org/2000/svg" viewBox="0 0 16 16">
<title>github</title>
<path d="M8 0.638c-4.168 0-7.548 3.379-7.548 7.548 0 3.335 2.163 6.165 5.162 7.163 0.377 0.070 0.516-0.164 0.516-0.363 0-0.18-0.007-0.775-0.010-1.405-2.1 0.457-2.543-0.891-2.543-0.891-0.343-0.873-0.838-1.104-0.838-1.104-0.685-0.469 0.052-0.459 0.052-0.459 0.758 0.053 1.157 0.778 1.157 0.778 0.673 1.154 1.766 0.82 2.197 0.627 0.068-0.488 0.263-0.821 0.479-1.010-1.677-0.191-3.439-0.838-3.439-3.73 0-0.824 0.295-1.498 0.778-2.026-0.079-0.19-0.337-0.958 0.073-1.998 0 0 0.634-0.203 2.076 0.774 0.602-0.167 1.248-0.252 1.89-0.254 0.641 0.003 1.287 0.087 1.891 0.254 1.441-0.977 2.074-0.774 2.074-0.774 0.411 1.040 0.152 1.807 0.074 1.998 0.484 0.529 0.777 1.202 0.777 2.026 0 2.899-1.766 3.537-3.447 3.724 0.271 0.234 0.512 0.694 0.512 1.398 0 1.010-0.009 1.823-0.009 2.072 0 0.201 0.136 0.436 0.518 0.362 2.998-0.999 5.158-3.828 5.158-7.162-0-4.169-3.38-7.548-7.549-7.548zM3.311 11.476c-0.017 0.037-0.076 0.049-0.129 0.023-0.055-0.024-0.086-0.076-0.068-0.113 0.016-0.039 0.075-0.049 0.13-0.024 0.055 0.025 0.086 0.076 0.067 0.114zM3.616 11.817c-0.036 0.033-0.106 0.018-0.154-0.035-0.050-0.053-0.059-0.123-0.022-0.157s0.106-0.018 0.155 0.035c0.049 0.053 0.059 0.123 0.021 0.157zM3.914 12.252c-0.046 0.032-0.122 0.002-0.169-0.065s-0.046-0.148 0.001-0.18c0.047-0.032 0.121-0.003 0.169 0.063 0.046 0.068 0.046 0.149-0.001 0.181zM4.322 12.672c-0.041 0.046-0.13 0.033-0.194-0.029-0.066-0.061-0.084-0.148-0.043-0.193s0.131-0.033 0.196 0.029c0.066 0.061 0.086 0.148 0.042 0.193zM4.884 12.915c-0.018 0.059-0.103 0.086-0.189 0.061s-0.141-0.095-0.124-0.155c0.018-0.060 0.103-0.088 0.189-0.061 0.085 0.026 0.141 0.095 0.123 0.155zM5.502 12.961c0.002 0.062-0.070 0.114-0.16 0.115s-0.163-0.048-0.164-0.11c0-0.063 0.071-0.114 0.161-0.116s0.163 0.048 0.163 0.11zM6.077 12.863c0.011 0.061-0.052 0.123-0.141 0.14-0.088 0.016-0.169-0.021-0.18-0.082-0.011-0.062 0.053-0.125 0.14-0.141 0.089-0.015 0.169 0.021 0.181 0.083z"></path>
</svg>
