<!-- Generated by IcoMoon.io -->
<svg version="1.1" xmlns="http://www.w3.org/2000/svg" viewBox="0 0 16 16">
<title>gitlab</title>
<path d="M15.827 9.039l-2.622-8.069c-0.068-0.208-0.305-0.259-0.457-0.154-0.050 0.034-0.091 0.107-0.113 0.175l-1.743 5.384h-5.786l-1.742-5.394c-0.011-0.037-0.027-0.068-0.047-0.097-0.009-0.012-0.022-0.023-0.033-0.034-0.117-0.111-0.308-0.11-0.42 0.009-0.031 0.031-0.054 0.068-0.069 0.11l-2.622 8.070c-0.018 0.055-0.029 0.118-0.029 0.184 0 0.144 0.051 0.276 0.136 0.379 0.032 0.039 0.068 0.076 0.11 0.106l7.609 5.529 7.609-5.528c0.15-0.11 0.247-0.286 0.247-0.484 0-0.066-0.011-0.13-0.031-0.19z"></path>
</svg>
