<!-- Generated by IcoMoon.io -->
<svg version="1.1" xmlns="http://www.w3.org/2000/svg" viewBox="0 0 16 16">
<title>go</title>
<path d="M13.525 8.1c-0.012-0.012-0.025-0.025-0.050-0.025l-0.012-0.012c-0.012-0.012-0.025-0.012-0.025-0.025l-0.012-0.012c-0.012 0-0.025-0.012-0.025-0.012l-0.025-0.012c-0.012 0-0.025-0.013-0.025-0.013l-0.025-0.013c-0.012 0-0.025-0.013-0.025-0.013-0.012 0-0.012 0-0.025-0.013l-0.037-0.013c-0.012 0-0.012 0-0.025-0.013l-0.037-0.013h-0.012l-0.050-0.013h-0.025c-0.012 0-0.025 0-0.037-0.013h-0.287c-0.075-1.663 0.075-3.35-0.35-4.95 1.613-0.575 0.35-2.788-1.050-1.8-0.925-0.8-2.2-0.975-3.537-0.975-1.313 0.087-2.55 0.362-3.425 1.050-0.35-0.175-0.688-0.225-0.987-0.137v0.012c-0.013 0-0.038 0.012-0.050 0.025-0.013 0-0.038 0.012-0.050 0.025h-0.013c-0.013 0-0.025 0.012-0.050 0.025h-0.013l-0.038 0.025h-0.013l-0.038 0.025h-0.013l-0.038 0.025s-0.013 0-0.013 0.012l-0.038 0.025s-0.013 0-0.013 0.012l-0.038 0.025s-0.013 0-0.013 0.012l-0.038 0.025-0.013 0.012c-0.013 0.012-0.025 0.012-0.025 0.025l-0.050 0.050c-0.013 0.012-0.013 0.025-0.025 0.025l-0.013 0.012c-0.013 0.012-0.013 0.025-0.025 0.025l-0.013 0.012c-0.013 0.012-0.013 0.025-0.025 0.025l-0.013 0.012c-0.013 0.012-0.013 0.025-0.025 0.025l-0.013 0.012c-0.013 0.012-0.013 0.025-0.025 0.025l-0.013 0.012-0.013 0.038s0 0.012-0.013 0.012l-0.013 0.038s0 0.012-0.013 0.012l-0.013 0.038s0 0.012-0.013 0.012l-0.013 0.038s0 0.012-0.013 0.012c0.050 0.038 0.050 0.050 0.050 0.050v0.012l-0.013 0.038v0.012c0 0.012 0 0.025-0.013 0.038v0.387c0 0.013 0 0.025 0.013 0.038v0.013l0.013 0.038v0.013l0.013 0.038s0 0.013 0.013 0.013l0.013 0.038s0 0.013 0.013 0.013l0.013 0.038s0 0.013 0.013 0.013l0.025 0.038s0 0.013 0.013 0.013l0.025 0.038s0 0.013 0.013 0.013l0.025 0.038 0.087 0.087h0.013c0.125 0.112 0.25 0.2 0.5 0.275v-0.025c-0.525 1.575-0.087 3.162-0.063 4.787-0.075 0-0.087 0.050-0.212 0.063h-0.063c-0.013 0-0.038 0-0.063 0.013-0.013 0-0.038 0-0.050 0.013l-0.050 0.013h-0.013l-0.050 0.013h-0.013l-0.038 0.012h-0.013l-0.038 0.012s-0.013 0-0.013 0.012l-0.038 0.012-0.025 0.012c-0.013 0-0.025 0.012-0.025 0.012l-0.050 0.025c-0.013 0-0.025 0.012-0.025 0.012l-0.025 0.012-0.050 0.037c-0.013 0.012-0.025 0.025-0.038 0.025l-0.063 0.063c-0.013 0.025-0.038 0.050-0.050 0.063l-0.025 0.037-0.038 0.075-0.013 0.037v0.037c0 0.063 0.025 0.113 0.112 0.15 0.025 0.463 0.487 0.25 0.7 0.1l0.013-0.012c0.025-0.025 0.063-0.037 0.075-0.037h0.013l0.025-0.012c0.013 0 0.013 0 0.025-0.012 0.025-0.012 0.050-0.012 0.063-0.025 0.013 0 0.013-0.012 0.013-0.025l0.013-0.012c0.013-0.025 0.025-0.075 0.025-0.15l0.013-0.162v0.225c-0.063 1.637-0.5 3.838 0.413 5.313 0.163 0.262 0.362 0.488 0.588 0.675h-0.063c-0.025 0.025-0.063 0.050-0.1 0.075l-0.225 0.15-0.112 0.088-0.138 0.125c-0.025 0.025-0.038 0.050-0.050 0.063l-0.075 0.113c-0.013 0.025-0.025 0.050-0.025 0.075l-0.013 0.037c-0.025 0.1 0 0.213 0.075 0.338l0.050 0.050h0.025c0.013 0 0.025 0 0.050 0.012 0.025 0.050 0.15 0.313 0.488 0.113 0.35-0.188 0.588-0.575 1.013-0.637l-0.063-0.075c0.737 0.35 1.6 0.5 2.375 0.525 1.087 0.037 2.325-0.113 3.313-0.65 0.275 0.088 0.488 0.488 0.725 0.675l0.050 0.050s0.012 0 0.012 0.012c0 0 0.012 0 0.012 0.012 0 0 0.012 0 0.012 0.012h0.262s0.012 0 0.012-0.012h0.012s0.012 0 0.012-0.012h0.012s0.012 0 0.012-0.012c0 0 0.012 0 0.012-0.012l0.012-0.012s0.012 0 0.012-0.012l0.012-0.012h0.012l0.025-0.025 0.025-0.012h0.012l0.012-0.012h0.012l0.088-0.088v-0.012s0-0.012 0.012-0.012v-0.012s0-0.012 0.012-0.012v-0.012s0-0.012 0.012-0.012v-0.175s-0.037 0-0.037-0.012l-0.037-0.012v-0.012l0.037-0.012s0.025 0 0.025-0.012l0.012-0.012v-0.262s0-0.012-0.012-0.012v-0.012s0-0.012-0.012-0.012v-0.012s0-0.012-0.012-0.012c0 0 0-0.012-0.012-0.012 0 0 0-0.012-0.012-0.012 0 0 0-0.012-0.012-0.012 0 0 0-0.012-0.012-0.012 0 0 0-0.012-0.012-0.012 0 0 0-0.012-0.012-0.012 0 0 0-0.012-0.012-0.012 0 0 0-0.012-0.012-0.012 0 0 0-0.012-0.012-0.012 0 0 0-0.012-0.012-0.012 0 0 0-0.012-0.012-0.012 0 0 0-0.012-0.012-0.012 0 0 0-0.012-0.012-0.012l-0.15-0.15v-0.012l-0.238-0.238c0.25-0.238 0.475-0.525 0.637-0.863 0.738-1.475 0.613-3.275 0.512-4.9h0.012c0.012 0 0.025 0.012 0.025 0.012h0.037s0.012 0 0.012 0.012h0.012s0.012 0 0.012 0.012l0.025 0.012c0.213 0.15 0.675 0.363 0.7-0.1 0.2 0.075-0.037-0.225-0.162-0.313zM4.5 2.875c-0.4-2 2.8-2.375 2.912-0.425 0.1 1.625-2.5 2.038-2.912 0.425zM9.012 4.75c-0.162 0.175-0.338 0.15-0.512 0.088 0 0.237 0.050 0.487 0.012 0.737-0.063 0.112-0.188 0.125-0.287 0.175-0.15-0.025-0.263-0.112-0.325-0.25l-0.025-0.013c-0.487 0.65-0.787-0.138-0.65-0.625-0.15 0.013-0.275-0.025-0.375-0.188-0.175-0.325 0.088-0.725 0.425-0.788 0.088 0.375 1.088 0.325 1.262-0.025 0.387 0.188 0.813 0.537 0.475 0.888zM8.137 2.563c-0.113-1.725 2.537-2.188 2.925-0.5 0.438 1.875-2.6 2.362-2.925 0.5zM5.213 2.125c-0.237 0-0.438 0.212-0.438 0.475s0.2 0.475 0.438 0.475 0.438-0.212 0.438-0.475c0-0.263-0.188-0.475-0.438-0.475zM5.412 2.837c-0.063 0-0.1-0.050-0.1-0.125 0-0.063 0.050-0.125 0.1-0.125 0.063 0 0.1 0.050 0.1 0.125 0 0.063-0.037 0.125-0.1 0.125zM8.887 2.013c-0.238 0-0.425 0.212-0.425 0.475s0.188 0.475 0.425 0.475 0.425-0.212 0.425-0.475c0-0.263-0.188-0.475-0.425-0.475zM9.088 2.712c-0.050 0-0.1-0.050-0.1-0.125 0-0.063 0.050-0.125 0.1-0.125s0.1 0.050 0.1 0.125-0.050 0.125-0.1 0.125z"></path>
</svg>
