<!-- Generated by IcoMoon.io -->
<svg version="1.1" xmlns="http://www.w3.org/2000/svg" viewBox="0 0 16 16">
<title>gradle</title>
<path d="M12.438 14.063c-0.037 0-0.063 0-0.088 0-0.563 0-1.125 0-1.688 0-0.063 0-0.1-0.025-0.137-0.063-0.4-0.5-0.838-0.963-1.363-1.325-0.262-0.188-0.537-0.35-0.85-0.438-0.25-0.075-0.513-0.113-0.775-0.050s-0.487 0.213-0.675 0.4c-0.237 0.238-0.4 0.525-0.525 0.838-0.075 0.188-0.138 0.375-0.2 0.563-0.013 0.025-0.013 0.050-0.025 0.075-0.475 0-0.938 0-1.425 0-0.013-0.075-0.025-0.15-0.037-0.238-0.050-0.25-0.125-0.5-0.25-0.725-0.088-0.175-0.2-0.325-0.35-0.45-0.163-0.137-0.35-0.213-0.563-0.213-0.163 0-0.3 0.063-0.438 0.15-0.188 0.125-0.337 0.287-0.45 0.475-0.175 0.275-0.275 0.588-0.362 0.9-0.013 0.025-0.013 0.063-0.025 0.1-0.625 0-1.238 0-1.863 0-0.013-0.088-0.025-0.188-0.037-0.275-0.063-0.588-0.1-1.175-0.087-1.762 0.013-0.688 0.087-1.363 0.25-2.037 0.15-0.613 0.363-1.188 0.688-1.713 0.45-0.713 1.050-1.225 1.838-1.537 0.025-0.013 0.038-0.013 0.063-0.025 0 0 0.013 0 0.025 0 0.013 0.025 0.025 0.050 0.038 0.075 0.225 0.5 0.462 0.987 0.75 1.438 0.175 0.287 0.425 0.5 0.737 0.6 0.338 0.113 0.662 0.075 0.987-0.063 0.287-0.125 0.525-0.313 0.75-0.525 0.263-0.25 0.475-0.525 0.688-0.825 0.013-0.013 0.013-0.025 0.013-0.037-0.025 0.025-0.050 0.050-0.088 0.075-0.313 0.313-0.65 0.588-1.038 0.8-0.188 0.113-0.4 0.2-0.612 0.238-0.313 0.063-0.6 0.025-0.85-0.2-0.1-0.088-0.175-0.188-0.25-0.287-0.375-0.588-0.7-1.2-1-1.825-0.063-0.125-0.112-0.25-0.125-0.4-0.025-0.213 0.038-0.4 0.188-0.563 0.112-0.112 0.237-0.2 0.388-0.275 0.275-0.138 0.563-0.237 0.85-0.338 0.425-0.138 0.862-0.237 1.313-0.3 0.513-0.075 1.037-0.088 1.563-0.025 1.125 0.112 2.125 0.525 3.037 1.188 0.313 0.225 0.637 0.412 1.012 0.525 1.488 0.475 2.675-0.55 2.95-1.6 0.075-0.287 0.1-0.575-0.012-0.85-0.162-0.425-0.45-0.75-0.912-0.875-0.35-0.087-0.688-0.050-1.012 0.125-0.063 0.038-0.125 0.063-0.188 0.087-0.15 0.050-0.25 0.013-0.325-0.125-0.1-0.175-0.175-0.35-0.262-0.538-0.037-0.075-0.025-0.138 0.012-0.2 0.037-0.087 0.1-0.15 0.175-0.212 0.188-0.15 0.412-0.25 0.662-0.3 0.613-0.137 1.188-0.050 1.738 0.225 0.438 0.212 0.775 0.537 1.025 0.963 0.238 0.4 0.4 0.825 0.475 1.288 0.050 0.363 0.050 0.712 0.012 1.075-0.075 0.625-0.25 1.213-0.5 1.787-0.325 0.75-0.7 1.475-1.162 2.15-0.225 0.325-0.463 0.637-0.688 0.95-0.238 0.338-0.475 0.675-0.65 1.050-0.238 0.488-0.375 0.988-0.425 1.525-0.037 0.463-0.012 0.912 0.063 1.375 0.012 0.075 0.025 0.125 0.025 0.175zM11.412 7.638c0.037 0.3-0.063 0.5-0.338 0.612-0.2 0.075-0.45 0.012-0.575-0.162-0.2-0.263-0.137-0.5 0.088-0.725-0.225-0.075-0.45-0.15-0.662-0.213-0.050 0.125-0.075 0.313-0.063 0.463 0.025 0.3 0.137 0.55 0.387 0.713 0.262 0.175 0.563 0.25 0.875 0.188 0.325-0.063 0.575-0.25 0.75-0.525 0.037-0.050 0.063-0.1 0.063-0.175-0.175-0.050-0.35-0.112-0.525-0.175z"></path>
</svg>
