<?xml version="1.0" encoding="UTF-8"?>
<svg viewBox="0 0 16 16" version="1.1" xmlns="http://www.w3.org/2000/svg" xmlns:xlink="http://www.w3.org/1999/xlink">
    <!-- Team Hierarchy by ProSymbols from the Noun Project -->
    <title>group</title>
    <desc>Team Hierarchy by ProSymbols from the Noun Project</desc>
    <defs></defs>
    <g id="Page-1" stroke="none" stroke-width="1" fill="none" fill-rule="evenodd">
        <g id="noun_591098_cc" fill-rule="nonzero" fill="#000000">
            <g id="Group">
                <path d="M4.77485265,7.49705305 L11.2,7.50019646 L11.3131631,6.66090373 C11.4829077,4.39449902 9.52770138,3.60235756 9.52770138,3.60235756 L7.99056974,5.9913556 L6.45658153,3.59921415 C6.45658153,3.59921415 4.48251473,4.54223969 4.66797642,6.65776031 L4.77485265,7.49705305 Z M6.28683694,4.29390963 L7.99056974,6.94381139 L9.69744597,4.29390963 C10.4927308,4.82829077 10.9233792,5.70844794 10.8039293,6.59174853 L10.7504912,6.98467583 L5.23064833,6.98153242 L5.17721022,6.58860511 C5.05776031,5.70530452 5.48840864,4.82514735 6.28683694,4.29390963 Z" id="Shape"></path>
                <path d="M7.99056974,3.71237721 C8.91787819,3.71237721 9.73516699,2.82278978 9.73516699,1.8043222 C9.73516699,0.826719057 8.9524558,0.0314341847 7.99371316,0.0282907662 C7.03182711,0.0282907662 6.24911591,0.823575639 6.24911591,1.80117878 C6.2459725,2.81964637 7.06011788,3.71237721 7.99056974,3.71237721 Z M7.99056974,0.546954813 C8.66640472,0.546954813 9.21650295,1.11277014 9.21650295,1.80746562 C9.21650295,2.5367387 8.63182711,3.2 7.98742633,3.2 C7.34616896,3.2 6.76149312,2.53359528 6.76149312,1.8043222 C6.76463654,1.10962672 7.31473477,0.546954813 7.99056974,0.546954813 Z" id="Shape"></path>
                <path d="M4.87544204,12.0958743 L3.33831041,14.4848723 L1.8043222,12.0927308 C1.8043222,12.0927308 -0.169744597,13.0357564 0.0157170923,15.151277 L0.125736739,15.9905697 L6.55088409,15.9937132 L6.66404715,15.1544204 C6.83064833,12.8880157 4.87544204,12.0958743 4.87544204,12.0958743 Z M6.14852652,15.0884086 L6.09508841,15.481336 L0.57524558,15.4781925 L0.521807466,15.0852652 C0.402357564,14.2019646 0.836149312,13.3218075 1.63143418,12.7905697 L3.33516699,15.4404715 L5.04204322,12.7905697 C5.83732809,13.3249509 6.26797642,14.2019646 6.14852652,15.0884086 Z" id="Shape"></path>
                <path d="M3.33831041,12.2090373 C4.26561886,12.2090373 5.08290766,11.3194499 5.08290766,10.3009823 C5.08290766,9.32337917 4.30019646,8.5280943 3.34145383,8.52495088 C2.3827112,8.52180747 1.59685658,9.32023576 1.59685658,10.2978389 C1.59371316,11.3163065 2.41100196,12.2090373 3.33831041,12.2090373 Z M3.34145383,9.04047151 C4.0172888,9.04047151 4.56738703,9.60628684 4.56738703,10.3009823 C4.56738703,11.0302554 3.9827112,11.6935167 3.33831041,11.6935167 C2.69705305,11.6935167 2.11237721,11.027112 2.11237721,10.2978389 C2.11237721,9.60628684 2.66247544,9.04047151 3.34145383,9.04047151 Z" id="Shape"></path>
                <path d="M14.1705305,12.1021611 L12.6333988,14.4911591 L11.0994106,12.0990177 C11.0994106,12.0990177 9.12534381,13.0420432 9.3108055,15.1575639 L9.42396857,15.9968566 L15.8491159,16 L15.962279,15.1607073 C16.1288802,12.8943026 14.1705305,12.1021611 14.1705305,12.1021611 Z M15.4467583,15.0915521 L15.3933202,15.4844794 L9.87347741,15.481336 L9.82003929,15.0884086 C9.70058939,14.2051081 10.1343811,13.3249509 10.929666,12.7937132 L12.6333988,15.4436149 L14.340275,12.7937132 C15.1355599,13.3312377 15.5662083,14.2082515 15.4467583,15.0915521 Z" id="Shape"></path>
                <path d="M12.6365422,12.2153242 C13.5638507,12.2153242 14.3811395,11.3257367 14.3811395,10.3072692 C14.3811395,9.32966601 13.5984283,8.53438114 12.6396857,8.53123772 C11.6777996,8.53123772 10.8950884,9.32652259 10.8950884,10.3041257 C10.891945,11.3225933 11.7060904,12.2121807 12.6365422,12.2153242 Z M12.6365422,9.04675835 C13.3123772,9.04675835 13.8624754,9.61257367 13.8624754,10.3072692 C13.8624754,11.0365422 13.2777996,11.6998035 12.6333988,11.6998035 C11.9921415,11.6998035 11.4074656,11.0333988 11.4074656,10.3041257 C11.410609,9.60943026 11.9607073,9.04675835 12.6365422,9.04675835 Z" id="Shape"></path>
                <polygon id="Shape" points="9.70058939 12.1933202 8.24518664 10.9831041 8.24518664 8.01257367 7.72966601 8.01257367 7.72652259 10.9831041 6.27111984 12.1933202 6.60117878 12.589391 7.98742633 11.4388998 9.37053045 12.589391"></polygon>
            </g>
        </g>
    </g>
</svg>
