<!-- Generated by IcoMoon.io -->
<svg version="1.1" xmlns="http://www.w3.org/2000/svg" viewBox="0 0 16 16">
<title>grunt</title>
<path d="M12.433 8.402c0.361-0.208 0.734-0.415 1.041-0.69 0.51-0.458 0.441-1.128-0.101-1.545-0.101-0.078-0.227-0.178-0.252-0.288-0.099-0.438-0.185-0.882 0.115-1.296 0.097-0.134 0.155-0.304 0.201-0.465 0.143-0.499-0.086-0.92-0.578-1.082-0.087-0.029-0.18-0.045-0.271-0.058-0.123-0.017-0.185-0.073-0.203-0.206-0.066-0.492 0.060-0.761 0.519-0.968 0.239-0.108 0.501-0.167 0.752-0.249-0.358-0.61-1.36-0.959-2.197-0.733-0.674 0.182-1.147 0.623-1.589 1.122-0.047 0.053-0.149 0.085-0.223 0.081-0.215-0.014-0.207-0.184-0.175-0.326 0.067-0.296 0.157-0.587 0.24-0.891-0.386 0.011-0.68 0.222-0.969 0.453-0.020-0.031-0.034 0.006-0.042-0.013-0.144-0.344-0.111-0.623-0.050-0.998h-0.047c-0.528 0.25-1.017 0.503-1.126 1.166l-0.083-0.037c-0.056-0.262-0.112-0.537-0.174-0.831-0.478 0.324-0.741 0.737-0.814 1.283-0.010 0.075-0.053 0.143-0.080 0.216-0.073-0.040-0.164-0.066-0.215-0.125-0.498-0.578-1.060-1.034-1.851-1.155-0.701-0.107-1.567 0.234-1.895 0.778 0.289 0.11 0.594 0.196 0.87 0.338 0.332 0.171 0.442 0.452 0.407 0.768-0.026 0.228-0.117 0.319-0.353 0.349-0.52 0.067-0.823 0.476-0.748 0.992 0.026 0.179 0.079 0.382 0.19 0.516 0.257 0.311 0.229 0.662 0.222 1.018-0.006 0.278-0.105 0.497-0.345 0.67-0.518 0.374-0.581 1.060-0.105 1.489 0.312 0.282 0.689 0.496 1.054 0.711 0.271 0.16 0.452 0.381 0.466 0.677 0.023 0.487-0.004 0.976-0.020 1.465-0.006 0.196-0.037 0.391-0.060 0.63-0.42-0.379-0.646-0.807-0.763-1.329-0.446 0.444-0.637 0.954-0.662 1.544-0.045 1.056 0.407 1.809 1.358 2.25 0.081 0.037 0.152 0.122 0.198 0.203 0.398 0.697 0.967 1.16 1.764 1.324 0.090 0.018 0.196 0.021 0.264 0.072 0.436 0.326 0.933 0.484 1.466 0.532 0.804 0.072 1.579-0.014 2.27-0.487 0.067-0.046 0.149-0.084 0.228-0.098 0.829-0.141 1.425-0.602 1.849-1.316 0.065-0.109 0.177-0.211 0.291-0.267 0.477-0.232 0.856-0.556 1.070-1.051 0.216-0.498 0.272-1.020 0.171-1.549-0.083-0.436-0.264-0.834-0.63-1.148-0.113 0.521-0.341 0.948-0.766 1.28-0.050-0.699-0.089-1.395-0.069-2.090 0.008-0.267 0.192-0.488 0.451-0.638zM12.73 1.422c-0.143 0.026-0.287 0.075-0.43 0.073-0.674-0.010-1.162 0.312-1.543 0.836l-0.052 0.076-0.039 0.031-0.314-0.151c0.515-0.944 1.55-1.329 2.378-0.865zM12.025 1.873c-0.051 0.297-0.102 0.583-0.15 0.869-0.023 0.134-0.049 0.254-0.213 0.295-0.155 0.039-0.251 0.011-0.376-0.112-0.164-0.162-0.149-0.288-0.056-0.462 0.178-0.335 0.425-0.561 0.795-0.59zM3.283 1.401c0.809-0.437 1.806-0.082 2.375 0.88l-0.327 0.165 0.084-0.11c-0.221-0.17-0.441-0.342-0.663-0.51-0.308-0.234-0.657-0.328-1.042-0.329-0.144-0.001-0.288-0.046-0.427-0.095zM4.843 2.664c0.007 0.131-0.161 0.32-0.296 0.39-0.077 0.040-0.292-0.074-0.37-0.175-0.080-0.104-0.069-0.279-0.094-0.423-0.017-0.099-0.022-0.2-0.045-0.297-0.021-0.089-0.061-0.174-0.097-0.274 0.421 0.012 0.88 0.381 0.902 0.779zM3.251 12.565c-0.373-0.556-0.353-1.175-0.193-1.808 0.435 0.995 1.305 1.237 2.297 1.346-0.333 0.383-0.622 0.761-0.391 1.305-0.713-0.050-1.318-0.256-1.712-0.842zM5.412 14.607l-0.837-0.718c0.645-0.168 0.712 0.313 0.903 0.647l-0.066 0.071zM8.628 15.287c-1.575 0.304-2.811-0.413-3.278-2.096-0.12-0.431 0.138-0.713 0.63-0.719 0.676-0.008 1.352-0.002 2.028-0.002 0.653-0.001 1.306-0.001 1.958 0 0.077 0 0.156 0.005 0.23 0.024 0.409 0.1 0.57 0.313 0.452 0.713-0.307 1.040-0.876 1.861-2.020 2.081zM10.501 14.592c0.117-0.237 0.203-0.432 0.311-0.613 0.032-0.053 0.125-0.084 0.195-0.098 0.119-0.023 0.242-0.025 0.382-0.037-0.213 0.336-0.492 0.57-0.889 0.748zM12.928 10.729c0.44 1.474-0.377 2.633-1.874 2.655 0.204-0.514-0.055-0.894-0.412-1.278 0.988-0.115 1.864-0.348 2.286-1.377zM11.505 9.179c-0.003 0.621 0.036 1.243 0.078 1.863 0.027 0.404 0.037 0.43-0.357 0.515-0.233 0.050-0.476 0.066-0.715 0.066-0.064-0-0.155-0.104-0.188-0.18-0.253-0.591-0.493-1.187-0.74-1.78-0.029-0.070-0.069-0.135-0.104-0.202l-0.076 0.059c0.232 0.864 0.463 1.856 0.688 2.606h-4.18c0.223-0.75 0.454-1.732 0.684-2.595l-0.091-0.047c-0.139 0.316-0.284 0.62-0.416 0.939-0.145 0.351-0.283 0.7-0.417 1.055-0.044 0.117-0.102 0.178-0.237 0.157-0.267-0.041-0.535-0.077-0.803-0.112-0.21-0.028-0.239-0.152-0.227-0.344 0.041-0.659 0.078-1.319 0.087-1.979 0.007-0.529-0.224-0.936-0.706-1.195-0.273-0.146-0.547-0.3-0.787-0.492-0.388-0.309-0.357-0.823 0.051-1.053l-0.028 0.306c0.413-0.498 0.621-1.522 0.324-2.501l-0.033 0.28-0.074 0.024c-0.092-0.237-0.216-0.468-0.266-0.714-0.048-0.238 0.219-0.429 0.548-0.442 0.596-0.022 1.158 0.12 1.671 0.406 0.526 0.293 1.026 0.635 1.509 0.937-0.094-0.336-0.505-0.734-1.587-1.5 1.19-1.24 4.598-1.23 5.782 0.013-0.687 0.351-1.244 0.837-1.609 1.534 0.176-0.128 0.351-0.258 0.529-0.384 0.662-0.468 1.355-0.879 2.178-0.982 0.241-0.030 0.498-0.016 0.736 0.034 0.254 0.053 0.356 0.274 0.271 0.523-0.066 0.193-0.164 0.375-0.248 0.561l-0.060-0.012-0.048-0.272c-0.232 0.91-0.165 1.733 0.34 2.498l-0.042-0.299c0.318 0.136 0.439 0.535 0.23 0.834-0.116 0.166-0.291 0.296-0.458 0.418-0.155 0.114-0.331 0.202-0.504 0.289-0.483 0.243-0.705 0.658-0.707 1.171zM11.099 5.449c-0.582 0.16-1.044 0.504-1.441 0.944-0.185 0.205-0.403 0.346-0.681 0.359-0.133 0.006-0.268-0.027-0.408-0.043 0.053 0.378 0.319 0.502 0.567 0.558l0.403 0.938 0.072-0.033c-0.072-0.303-0.133-0.606 0.049-0.905 0.446 0.317 0.895 0.24 1.345 0.020 0.484-0.237 0.636-0.685 0.757-1.163l0.089 0.345c0.189-0.318 0.224-0.614-0.030-0.911l0.325-0.131c-0.377-0.096-0.713-0.071-1.047 0.021zM10.966 6.899c-0.287 0.285-0.76 0.327-1.19 0.088 0.353-0.488 0.832-0.797 1.323-1.096 0.15 0.284 0.077 0.8-0.133 1.008zM6.309 6.36c-0.349-0.396-0.767-0.702-1.273-0.872-0.377-0.126-0.76-0.174-1.186-0.055l0.33 0.119c-0.241 0.292-0.212 0.588-0.037 0.923l0.105-0.362c0.098 0.498 0.258 0.931 0.732 1.171 0.451 0.228 0.771 0.302 1.396-0.059v0.926c0 0.007 0.068 0.014 0.095 0.020 0.122-0.291 0.25-0.582 0.384-0.902 0.418-0.138 0.551-0.264 0.553-0.574-0.445 0.143-0.796 0.006-1.097-0.335zM5.079 6.936c-0.24-0.194-0.335-0.689-0.188-1.054 0.507 0.314 0.99 0.617 1.325 1.103-0.368 0.233-0.817 0.21-1.137-0.049zM8.805 5.351c-0.55 0.287-1.061 0.284-1.609 0 0.598 0.666 0.996 0.689 1.609-0zM9.918 12.938c-0.171-0.008-0.418-0.002-0.543-0.002v0.064h-0.434l-0.031-0.031c-0.227 0.016-0.313 0.129-0.207 0.32 0.104 0.188 0.224 0.374 0.379 0.518 0.097 0.090 0.283 0.138 0.418 0.122 0.367-0.042 0.523-0.341 0.668-0.635 0.099-0.199-0.020-0.346-0.25-0.356zM7.103 12.94c-0.178-0.011-0.357-0.002-0.535-0.002s-0.357-0.008-0.535 0.002c-0.159 0.009-0.264 0.083-0.239 0.267 0.033 0.245 0.397 0.651 0.64 0.715 0.206 0.054 0.389 0.018 0.522-0.153 0.123-0.158 0.241-0.323 0.337-0.498 0.102-0.184 0.021-0.318-0.19-0.331z"></path>
</svg>
