<!-- Generated by IcoMoon.io -->
<svg version="1.1" xmlns="http://www.w3.org/2000/svg" viewBox="0 0 16 16">
<title>gulp</title>
<path d="M4.621 4.432c0.11 1.154 0.218 2.301 0.33 3.475 0.181-0.312 0.313-0.611 0.511-0.856 0.184-0.228 0.417-0.439 0.67-0.585 0.33-0.191 0.763-0.011 0.87 0.327 0.029 0.091-0.040 0.212-0.064 0.319-0.081-0.043-0.185-0.066-0.238-0.131-0.224-0.277-0.359-0.31-0.607-0.070-0.462 0.447-0.722 1.007-0.822 1.636-0.019 0.122 0.057 0.258 0.089 0.388 0.126-0.043 0.273-0.059 0.375-0.136 0.332-0.247 0.538-0.583 0.651-0.985 0.025-0.087 0.158-0.143 0.242-0.213 0.040 0.082 0.131 0.179 0.112 0.244-0.176 0.605-0.367 1.206-0.567 1.804-0.020 0.060-0.131 0.091-0.2 0.135-0.028-0.079-0.087-0.163-0.077-0.238 0.021-0.17 0.076-0.335 0.114-0.491l-0.905 0.417c0.051 0.578 0.103 1.226 0.165 1.873 0.048 0.494 0.129 0.622 0.615 0.716 0.568 0.109 1.147 0.179 1.724 0.222 0.853 0.063 1.699-0.015 2.529-0.238 0.309-0.083 0.432-0.286 0.454-0.59 0.020-0.279 0.066-0.557 0.097-0.836 0.062-0.549 0.121-1.098 0.184-1.67-0.208 0.132-0.372 0.28-0.564 0.342-0.139 0.046-0.316-0.021-0.475-0.038 0.031-0.147 0.029-0.312 0.1-0.436 0.115-0.202 0.278-0.378 0.421-0.564l-0.061-0.074c-0.102 0.060-0.229 0.1-0.302 0.186-0.148 0.174-0.292 0.361-0.391 0.565-0.165 0.342-0.292 0.703-0.44 1.053-0.064 0.152-0.12 0.384-0.335 0.296-0.231-0.095-0.068-0.298-0.014-0.443 0.086-0.23 0.2-0.451 0.277-0.62-0.218 0.026-0.44 0.057-0.662 0.077-0.094 0.008-0.206-0.043-0.283-0.009-0.256 0.116-0.418 0.069-0.471-0.214-0.118 0.077-0.219 0.181-0.337 0.209-0.143 0.034-0.338 0.056-0.443-0.015-0.084-0.057-0.115-0.273-0.086-0.399 0.057-0.252 0.164-0.493 0.265-0.732 0.063-0.148 0.126-0.385 0.338-0.282 0.209 0.102 0.019 0.273-0.029 0.411-0.075 0.213-0.151 0.425-0.227 0.638l0.12 0.072c0.114-0.099 0.257-0.18 0.337-0.302 0.131-0.199 0.21-0.431 0.334-0.636 0.051-0.085 0.162-0.133 0.246-0.198 0.017 0.108 0.058 0.219 0.044 0.322-0.013 0.105-0.087 0.201-0.123 0.305-0.053 0.156-0.096 0.315-0.15 0.496 0.255 0.010 0.365-0.098 0.437-0.287 0.228-0.599 0.459-1.198 0.71-1.787 0.043-0.101 0.189-0.158 0.287-0.236 0.011 0.122 0.066 0.26 0.027 0.362-0.206 0.544-0.437 1.078-0.653 1.617-0.037 0.091-0.048 0.192-0.072 0.288 0.382-0.172 0.701-0.362 0.818-0.768 0.028-0.099 0.145-0.172 0.221-0.257l0.177 0.187c0.054-0.045 0.103-0.097 0.161-0.134 0.184-0.118 0.382-0.223 0.575-0.039 0.2 0.19 0.049 0.374-0.056 0.538-0.114 0.179-0.254 0.341-0.382 0.511 0.289-0.186 0.684-0.27 0.736-0.672 0.128-0.983 0.241-1.968 0.355-2.953 0.034-0.292 0.052-0.585 0.078-0.889-2.276 0.551-4.504 0.554-6.761-0.009zM5.598 12.104c0.11 0.29 0.276 0.574 0.32 0.876 0.092 0.643 0.115 1.296 0.181 1.944 0.010 0.094 0.071 0.224 0.147 0.265 1.123 0.61 2.256 0.716 3.401 0.049 0.171-0.1 0.203-0.231 0.225-0.416 0.107-0.898-0.131-1.85 0.443-2.695-1.607 0.399-3.175 0.411-4.716-0.024zM9.472 4.593c0.545-0.053 1.084-0.181 1.623-0.286 0.102-0.020 0.192-0.097 0.287-0.148-0.126-0.111-0.235-0.164-0.348-0.177-0.566-0.067-1.135-0.118-1.7-0.188-0.085-0.011-0.238-0.116-0.232-0.135 0.165-0.498 0.157-1.061 0.532-1.48 0.474-0.53 0.952-1.055 1.427-1.581-0.353-0.38-0.358-0.381-0.678-0.048-0.181 0.188-0.346 0.394-0.543 0.564-0.727 0.63-1.237 1.376-1.337 2.359-0.023 0.226-0.147 0.307-0.384 0.311-0.782 0.011-1.565 0.033-2.345 0.084-0.387 0.025-0.768 0.125-1.153 0.19l-0.003 0.144c0.24 0.074 0.476 0.171 0.722 0.219 1.368 0.262 2.749 0.307 4.132 0.174zM9.034 4.25c-0.31 0.25-0.566 0.25-0.813 0h0.813z"></path>
</svg>
