<!-- Generated by IcoMoon.io -->
<svg version="1.1" xmlns="http://www.w3.org/2000/svg" viewBox="0 0 16 16">
<title>gym</title>
<path d="M11.5 8.5h-6.5v1.747c0 0.417-0.336 0.753-0.75 0.753-0.417 0-0.75-0.337-0.75-0.753v-0.289c-0.078 0.028-0.162 0.043-0.25 0.043-0.417 0-0.75-0.336-0.75-0.751v-0.749h-1v-0.5h1v-0.749c0-0.415 0.336-0.751 0.75-0.751 0.088 0 0.172 0.015 0.25 0.042v0-0.289c0-0.417 0.336-0.753 0.75-0.753 0.417 0 0.75 0.337 0.75 0.753v1.747h6.5v-1.747c0-0.417 0.336-0.753 0.75-0.753 0.417 0 0.75 0.337 0.75 0.753v0.289c0.078-0.028 0.162-0.043 0.25-0.043 0.417 0 0.75 0.336 0.75 0.751v0.749h1v0.5h-1v0.749c0 0.415-0.336 0.751-0.75 0.751-0.088 0-0.172-0.015-0.25-0.042v0.289c0 0.417-0.336 0.753-0.75 0.753-0.417 0-0.75-0.337-0.75-0.753v-1.747zM13.25 7c-0.138 0-0.25 0.107-0.25 0.249v2.002c0 0.137 0.116 0.249 0.25 0.249 0.138 0 0.25-0.107 0.25-0.249v-2.002c0-0.137-0.116-0.249-0.25-0.249v0zM3.25 7c-0.138 0-0.25 0.107-0.25 0.249v2.002c0 0.137 0.116 0.249 0.25 0.249 0.138 0 0.25-0.107 0.25-0.249v-2.002c0-0.137-0.116-0.249-0.25-0.249v0zM12.25 6c-0.138 0-0.25 0.111-0.25 0.255v3.99c0 0.141 0.116 0.255 0.25 0.255 0.138 0 0.25-0.111 0.25-0.255v-3.99c0-0.141-0.116-0.255-0.25-0.255v0zM4.25 6c-0.138 0-0.25 0.111-0.25 0.255v3.99c0 0.141 0.116 0.255 0.25 0.255 0.138 0 0.25-0.111 0.25-0.255v-3.99c0-0.141-0.116-0.255-0.25-0.255v0z"></path>
</svg>
