<?xml version="1.0" encoding="UTF-8"?>
<svg viewBox="0 0 16 16" version="1.1" xmlns="http://www.w3.org/2000/svg" xmlns:xlink="http://www.w3.org/1999/xlink">
    <!-- muscles by Royyan Razka from the Noun Project -->
    <title>gym</title>
    <desc>muscles by Royyan Razka from the Noun Project</desc>
    <defs></defs>
    <g id="Page-1" stroke="none" stroke-width="1" fill="none" fill-rule="evenodd">
        <g id="noun_1094235_cc" fill="#000000">
            <g id="Group" transform="translate(0.000000, 0.113390)">
                <path d="M5.6520496,0.0331555556 C5.5514727,0.0289571816 5.45382893,0.0675846222 5.38334418,0.139454222 C4.64319289,0.894663111 4.21978507,1.76405511 4.20578827,2.658944 C4.19178471,3.55383111 4.59384498,4.44534222 5.388856,5.22154133 C5.46527517,5.29610702 5.57115548,5.33238786 5.6772464,5.32036089 L7.66759609,5.09536 C7.72235703,5.08913449 7.77492131,5.07026522 7.82113938,5.04024178 L8.75539449,4.43394311 C9.32480551,6.18357867 9.92985102,8.23537778 10.7134668,9.87488 C10.1522448,9.57891556 9.66352036,9.37388444 9.16641813,9.29653333 C8.4816432,9.18997333 7.81887787,9.36764444 7.07882133,9.83944889 C6.33479609,8.48547556 5.26489369,7.77544889 4.11051271,7.58688 C2.85456302,7.38173333 1.5305504,7.75875556 0.347123662,8.40362667 C0.233269706,8.4656733 0.162213941,8.58477354 0.161693618,8.71443556 L0.140629084,14.0386489 C0.14023083,14.1413147 0.184225471,14.2391424 0.261296818,14.3069689 C1.85541973,15.7092444 3.80139769,15.6709156 5.76720551,14.9746844 C9.25798347,16.31568 12.5819392,15.9008889 15.5687808,13.6857067 C15.6378073,13.634563 15.6859848,13.5601592 15.7044075,13.4762489 C16.2253337,11.10016 15.4073052,7.86023111 13.6359045,5.13138311 C11.8645029,2.40253333 9.09586062,0.176346667 5.6520496,0.0331555556 Z M5.78157404,0.753233778 C8.8623488,0.945550222 11.3843077,2.968832 13.039451,5.51858844 C14.6884217,8.05882667 15.4347257,11.1117156 15.0357088,13.1933689 C12.2111424,15.2406933 9.21426062,15.5765156 5.9018512,14.2650311 C5.82051985,14.2328506 5.73018105,14.2317746 5.64810631,14.2620089 C3.81441813,14.9372444 2.23359929,15.0094044 0.852244907,13.8759822 L0.871929884,8.93089778 C1.908352,8.40131556 3.01722773,8.12874667 3.99574738,8.28858667 C5.03259129,8.45795556 5.95463858,9.07795556 6.62330631,10.5118044 C6.66831587,10.6082677 6.75417335,10.6794936 6.85728997,10.7059132 C6.96040658,10.7323327 7.06993576,10.711167 7.15578507,10.6482311 C7.96117084,10.0576 8.46749529,9.90728889 9.05696924,9.99902222 C9.6464432,10.0907556 10.3703929,10.4805333 11.4372841,11.0982222 C11.5788012,11.1801124 11.7579222,11.1549459 11.8713947,11.0372299 C11.9848672,10.9195138 12.0034432,10.7395899 11.9164148,10.6011733 C10.8571015,8.91829333 10.0445849,6.04345956 9.28728107,3.77147022 C9.25247476,3.66706861 9.17129006,3.58466597 9.06741828,3.54830901 C8.9635465,3.51195205 8.84869402,3.52573822 8.75637707,3.58564444 L7.50460391,4.39804444 L5.76917084,4.59430578 C5.1640496,3.95904711 4.90681493,3.30921422 4.91681191,2.67009244 C4.92680836,2.03099556 5.20992676,1.37702933 5.78157404,0.753162667 L5.78157404,0.753233778 Z" id="Shape"></path>
                <path d="M3.28590169,9.18353778 C2.87638987,9.18762667 2.46292853,9.28378667 1.96425138,9.46483556 C1.84216692,9.50617631 1.75201209,9.61034541 1.72861703,9.73709849 C1.70522196,9.86385158 1.75225002,9.99334079 1.85153252,10.0755397 C1.95081503,10.1577386 2.08680566,10.1797759 2.20696622,10.1331378 C3.27553938,9.74517333 3.56524658,9.75667556 4.72330631,10.28432 C4.83931989,10.3397502 4.97621997,10.3282355 5.08134462,10.2542053 C5.18646927,10.1801752 5.24344217,10.0551619 5.23034732,9.927255 C5.21725247,9.79934807 5.13612979,9.68847279 5.01818507,9.63728 C4.33242133,9.32481778 3.81242133,9.17820444 3.28590169,9.18353778 L3.28590169,9.18353778 Z" id="Shape"></path>
            </g>
        </g>
    </g>
</svg>
