<!-- Generated by IcoMoon.io -->
<svg version="1.1" xmlns="http://www.w3.org/2000/svg" viewBox="0 0 16 16">
<title>handlebars</title>
<path d="M0.816 5.151v0.563c0.042-0.049 0.088-0.092 0.139-0.13 0.046-0.033 0.097-0.057 0.151-0.073s0.115-0.025 0.176-0.025c0.002 0 0.004 0 0.007 0 0.001-0 0.002-0 0.003-0 0.090 0 0.175 0.023 0.249 0.063 0.118 0.067 0.205 0.184 0.232 0.323 0.009 0.057 0.014 0.12 0.014 0.184 0 0.004-0 0.009-0 0.013v0.726c0 0.005 0.001 0.012 0.001 0.018 0 0.058-0.020 0.112-0.054 0.155-0.032 0.036-0.079 0.058-0.131 0.058-0.002 0-0.004-0-0.006-0q-0.187 0-0.187-0.23v-0.641c0.001-0.010 0.001-0.021 0.001-0.033 0-0.090-0.020-0.175-0.056-0.251-0.037-0.056-0.103-0.095-0.179-0.095-0.009 0-0.017 0.001-0.026 0.002 0-0-0.001-0-0.002-0-0.067 0-0.129 0.022-0.18 0.058-0.055 0.038-0.098 0.092-0.123 0.155-0.021 0.077-0.032 0.163-0.032 0.252 0 0.018 0 0.036 0.001 0.054l-0 0.497c0 0.006 0.001 0.012 0.001 0.019 0 0.058-0.020 0.111-0.052 0.153-0.032 0.036-0.079 0.060-0.132 0.060-0.002 0-0.004-0-0.006-0q-0.187 0-0.187-0.23v-1.644c-0-0.006-0.001-0.013-0.001-0.020 0-0.057 0.019-0.11 0.050-0.153 0.031-0.035 0.077-0.057 0.128-0.057 0.003 0 0.007 0 0.010 0 0.002-0 0.006-0 0.009-0 0.052 0 0.099 0.023 0.131 0.059 0.032 0.042 0.051 0.094 0.051 0.151 0 0.007-0 0.014-0.001 0.021zM3.125 6.811c-0.077 0.062-0.165 0.115-0.259 0.157-0.090 0.037-0.186 0.057-0.286 0.057-0.003 0-0.006-0-0.009-0-0.001 0-0.004 0-0.006 0-0.089 0-0.173-0.021-0.247-0.059-0.068-0.035-0.125-0.088-0.166-0.153-0.039-0.062-0.061-0.135-0.061-0.214 0-0.001 0-0.001 0-0.002-0-0.002-0-0.005-0-0.008 0-0.099 0.038-0.189 0.099-0.257 0.070-0.074 0.162-0.127 0.267-0.147l0.182-0.038q0.143-0.029 0.25-0.054t0.221-0.059c0-0.003 0-0.007 0-0.010 0-0.078-0.022-0.15-0.061-0.211-0.047-0.042-0.111-0.069-0.181-0.069-0.019 0-0.038 0.002-0.056 0.006-0.007-0.001-0.016-0.001-0.026-0.001-0.069 0-0.134 0.015-0.193 0.042-0.049 0.030-0.091 0.072-0.121 0.122q-0.053 0.082-0.075 0.108c-0.021 0.017-0.048 0.027-0.078 0.027-0.005 0-0.010-0-0.015-0.001-0 0-0.001 0-0.002 0-0.041 0-0.079-0.016-0.108-0.041-0.028-0.025-0.046-0.061-0.046-0.101 0-0.001 0-0.003 0-0.004 0.002-0.074 0.028-0.141 0.072-0.194 0.057-0.069 0.132-0.122 0.217-0.153 0.106-0.040 0.225-0.063 0.349-0.063 0.010 0 0.021 0 0.031 0s0.026-0.001 0.041-0.001c0.125 0 0.246 0.022 0.357 0.062 0.083 0.032 0.154 0.098 0.194 0.182 0.039 0.093 0.060 0.198 0.060 0.308 0 0.012-0 0.023-0.001 0.035q0 0.132 0 0.225t0 0.206c0 0.001 0 0.001 0 0.002 0 0.075 0.011 0.148 0.031 0.217 0.015 0.039 0.027 0.091 0.033 0.145-0.001 0.047-0.022 0.085-0.054 0.109-0.033 0.030-0.076 0.048-0.124 0.048-0.001 0-0.001 0-0.002-0-0.046-0.003-0.086-0.023-0.115-0.055-0.043-0.048-0.082-0.101-0.113-0.158zM3.1 6.264c-0.066 0.023-0.147 0.046-0.23 0.063q-0.171 0.036-0.232 0.052c-0.045 0.013-0.084 0.034-0.117 0.063s-0.055 0.072-0.055 0.12c0 0.001 0 0.003 0 0.004-0 0-0 0.001-0 0.002 0 0.057 0.025 0.109 0.065 0.144 0.042 0.038 0.098 0.060 0.16 0.060 0.004 0 0.008-0 0.012-0 0.001 0 0.003 0 0.005 0 0.074 0 0.143-0.018 0.205-0.050 0.056-0.027 0.104-0.070 0.137-0.122 0.034-0.072 0.054-0.155 0.054-0.243 0-0.014-0.001-0.029-0.002-0.043zM4.196 5.694v0.046c0.058-0.080 0.131-0.145 0.215-0.192 0.079-0.040 0.169-0.063 0.264-0.063 0.004 0 0.009 0 0.013 0 0.002-0 0.006-0 0.009-0 0.095 0 0.183 0.024 0.261 0.066 0.072 0.042 0.13 0.105 0.166 0.181 0.025 0.046 0.042 0.096 0.050 0.15 0.007 0.058 0.012 0.123 0.012 0.189 0 0.006-0 0.013-0 0.019l0 0.704c0 0.005 0.001 0.012 0.001 0.018 0 0.058-0.020 0.112-0.054 0.155-0.034 0.036-0.082 0.058-0.136 0.058s-0.102-0.023-0.136-0.059c-0.033-0.042-0.053-0.096-0.053-0.154 0-0.006 0-0.012 0.001-0.018l-0-0.632c0.001-0.014 0.002-0.031 0.002-0.047 0-0.087-0.018-0.17-0.050-0.246-0.037-0.057-0.103-0.096-0.179-0.096-0.010 0-0.019 0.001-0.028 0.002-0.066 0.001-0.128 0.024-0.178 0.062-0.056 0.040-0.099 0.095-0.123 0.16-0.019 0.080-0.030 0.17-0.030 0.262 0 0.020 0 0.040 0.001 0.059l-0 0.472c0 0.005 0.001 0.011 0.001 0.017 0 0.059-0.020 0.113-0.055 0.156-0.033 0.035-0.080 0.057-0.132 0.057-0.002 0-0.004-0-0.006-0s-0.003 0-0.004 0c-0.052 0-0.099-0.023-0.13-0.060-0.033-0.042-0.053-0.096-0.053-0.154 0-0.006 0-0.012 0.001-0.018l-0-1.089c-0-0.005-0.001-0.011-0.001-0.017 0-0.054 0.018-0.104 0.049-0.144 0.030-0.033 0.073-0.053 0.121-0.053 0.001 0 0.003 0 0.004 0s0.001-0 0.002-0c0.032 0 0.063 0.009 0.089 0.024 0.027 0.017 0.050 0.041 0.064 0.070 0.016 0.033 0.025 0.070 0.025 0.11 0 0.002-0 0.003-0 0.005zM6.606 6.809v-0.037c-0.045 0.053-0.094 0.1-0.148 0.141-0.048 0.036-0.102 0.065-0.16 0.084-0.059 0.019-0.122 0.030-0.188 0.030-0.002 0-0.004-0-0.006-0-0.001 0-0.002 0-0.003 0-0.090 0-0.175-0.021-0.25-0.059-0.077-0.039-0.143-0.095-0.196-0.162-0.056-0.072-0.098-0.156-0.125-0.246-0.029-0.096-0.045-0.2-0.045-0.308 0-0.003 0-0.007 0-0.010-0.001-0.014-0.002-0.031-0.002-0.049 0-0.191 0.066-0.367 0.177-0.506 0.105-0.121 0.261-0.197 0.434-0.197 0.007 0 0.014 0 0.022 0 0.005-0 0.011-0 0.018-0 0.093 0 0.182 0.021 0.261 0.058 0.081 0.044 0.154 0.102 0.214 0.17l0.001-0.559c-0-0.006-0.001-0.013-0.001-0.020 0-0.058 0.018-0.112 0.048-0.157 0.029-0.036 0.074-0.059 0.124-0.059 0.003 0 0.006 0 0.008 0s0.006-0 0.009-0c0.049 0 0.093 0.021 0.123 0.055 0.029 0.041 0.047 0.091 0.047 0.146 0 0.006-0 0.011-0.001 0.016l0 1.671c0 0.005 0.001 0.011 0.001 0.018 0 0.055-0.019 0.106-0.051 0.145-0.030 0.033-0.074 0.053-0.123 0.053-0.001 0-0.001 0-0.002-0s-0 0-0.001 0c-0.049 0-0.094-0.022-0.124-0.056-0.039-0.041-0.063-0.097-0.063-0.158 0-0.001 0-0.001 0-0.002zM5.856 6.253c-0 0.006-0 0.012-0 0.019 0 0.088 0.018 0.172 0.049 0.248 0.025 0.062 0.068 0.117 0.122 0.158 0.052 0.035 0.114 0.056 0.182 0.056 0 0 0.001 0 0.001 0s0.002 0 0.002 0c0.067 0 0.129-0.020 0.181-0.053 0.057-0.038 0.102-0.093 0.129-0.157 0.039-0.081 0.061-0.174 0.062-0.272 0-0.005 0-0.012 0-0.018 0-0.088-0.018-0.171-0.051-0.247-0.028-0.064-0.074-0.12-0.131-0.161-0.052-0.037-0.115-0.058-0.184-0.058-0 0-0.001 0-0.001 0s-0.003-0-0.005-0c-0.068 0-0.131 0.022-0.183 0.059-0.055 0.042-0.098 0.099-0.123 0.166-0.030 0.075-0.047 0.16-0.047 0.248 0 0.004 0 0.008 0 0.011zM7.344 6.795v-1.644c-0-0.006-0.001-0.013-0.001-0.020 0-0.058 0.020-0.111 0.052-0.153 0.031-0.036 0.077-0.058 0.129-0.058 0.002 0 0.005 0 0.007 0s0.004-0 0.007-0c0.052 0 0.099 0.022 0.131 0.058 0.033 0.042 0.053 0.096 0.053 0.154 0 0.006-0 0.013-0.001 0.019l0 1.644c0 0.005 0.001 0.011 0.001 0.017 0 0.059-0.020 0.113-0.055 0.156-0.033 0.035-0.080 0.057-0.132 0.057-0.002 0-0.004-0-0.006-0s-0.003 0-0.004 0c-0.052 0-0.099-0.023-0.13-0.060-0.033-0.042-0.053-0.096-0.053-0.154 0-0.006 0-0.011 0.001-0.017zM9.172 6.348h-0.741c-0 0.001-0 0.003-0 0.004 0 0.081 0.019 0.158 0.054 0.226 0.056 0.116 0.175 0.196 0.313 0.196 0.002 0 0.004-0 0.006-0 0.001 0 0.003 0 0.004 0 0.043 0 0.084-0.006 0.124-0.017 0.038-0.011 0.074-0.028 0.107-0.050 0.035-0.023 0.067-0.046 0.097-0.072q0.044-0.038 0.114-0.104c0.021-0.016 0.047-0.025 0.075-0.025 0.003 0 0.006 0 0.009 0 0.001-0 0.003-0 0.004-0 0.034 0 0.065 0.012 0.089 0.033 0.022 0.021 0.036 0.050 0.036 0.083 0 0.002-0 0.005-0 0.007-0.002 0.046-0.017 0.089-0.041 0.126-0.033 0.051-0.075 0.095-0.123 0.129-0.060 0.045-0.127 0.081-0.2 0.105-0.084 0.028-0.176 0.043-0.271 0.043-0.006 0-0.012-0-0.017-0-0.010 0.001-0.023 0.001-0.036 0.001-0.205 0-0.39-0.082-0.525-0.215-0.128-0.138-0.207-0.323-0.207-0.527 0-0.014 0-0.027 0.001-0.041-0-0.001-0-0.004-0-0.007 0-0.108 0.018-0.213 0.052-0.309 0.030-0.090 0.080-0.174 0.145-0.244 0.064-0.068 0.143-0.121 0.231-0.156 0.093-0.036 0.197-0.057 0.305-0.057 0.004 0 0.008 0 0.012 0s0.009-0 0.014-0c0.132 0 0.256 0.035 0.364 0.096 0.097 0.056 0.178 0.138 0.232 0.237 0.054 0.093 0.085 0.201 0.085 0.316q0 0.143-0.081 0.185c-0.058 0.024-0.125 0.039-0.195 0.039-0.012 0-0.025-0-0.037-0.001zM8.431 6.133h0.688c-0-0.111-0.040-0.213-0.106-0.292-0.056-0.056-0.135-0.091-0.221-0.091-0.006 0-0.013 0-0.019 0.001-0.002-0-0.005-0-0.008-0-0.088 0-0.167 0.038-0.223 0.097-0.064 0.078-0.105 0.176-0.11 0.284zM10.115 5.138v0.579c0.062-0.067 0.134-0.123 0.213-0.168 0.079-0.040 0.167-0.061 0.26-0.061 0.007 0 0.014 0 0.021 0 0.003-0 0.007-0 0.012-0 0.118 0 0.228 0.034 0.321 0.092 0.095 0.062 0.171 0.15 0.217 0.255 0.051 0.116 0.080 0.247 0.080 0.384 0 0.008-0 0.016-0 0.023 0 0.002 0 0.007 0 0.011 0 0.108-0.016 0.213-0.046 0.312-0.026 0.088-0.068 0.171-0.124 0.244-0.053 0.066-0.12 0.121-0.198 0.159s-0.165 0.059-0.258 0.059c-0.002 0-0.005-0-0.007-0-0.059-0.001-0.116-0.011-0.17-0.027-0.043-0.012-0.085-0.031-0.123-0.055-0.033-0.020-0.063-0.043-0.091-0.069q-0.038-0.036-0.1-0.108v0.037c0 0.005 0.001 0.011 0.001 0.016 0 0.055-0.020 0.106-0.052 0.145-0.031 0.033-0.075 0.054-0.125 0.055-0.001 0-0.002 0-0.003 0-0.048 0-0.092-0.021-0.122-0.055-0.030-0.040-0.048-0.090-0.048-0.144 0-0.006 0-0.012 0.001-0.018l-0-1.648c-0-0.006-0.001-0.013-0.001-0.019 0-0.058 0.018-0.111 0.048-0.155 0.028-0.035 0.072-0.058 0.121-0.058 0.001 0 0.002 0 0.003 0 0.003-0 0.006-0 0.010-0 0.050 0 0.094 0.022 0.125 0.056 0.023 0.037 0.037 0.081 0.037 0.129 0 0.011-0.001 0.021-0.002 0.031zM10.133 6.263c-0.001 0.010-0.001 0.022-0.001 0.034 0 0.118 0.039 0.227 0.106 0.315 0.062 0.075 0.156 0.124 0.262 0.124 0.003 0 0.006-0 0.009-0-0 0-0 0 0 0 0.102 0 0.192-0.049 0.249-0.124 0.064-0.089 0.102-0.198 0.102-0.317 0-0.015-0.001-0.031-0.002-0.046 0-0.001 0-0.005 0-0.008 0-0.086-0.016-0.169-0.044-0.245-0.024-0.063-0.068-0.12-0.123-0.162-0.050-0.037-0.112-0.059-0.179-0.059-0.002 0-0.005 0-0.007 0-0.001-0-0.003-0-0.005-0-0.070 0-0.135 0.022-0.189 0.059-0.056 0.042-0.101 0.099-0.128 0.164-0.032 0.077-0.050 0.162-0.050 0.253 0 0.005 0 0.010 0 0.014zM12.5 6.811c-0.077 0.062-0.165 0.115-0.259 0.157-0.090 0.037-0.186 0.057-0.286 0.057-0.003 0-0.006-0-0.009-0-0.001 0-0.004 0-0.006 0-0.089 0-0.173-0.021-0.247-0.059-0.068-0.035-0.125-0.088-0.166-0.153-0.039-0.062-0.061-0.135-0.061-0.214 0-0.001 0-0.001 0-0.002-0-0.002-0-0.005-0-0.008 0-0.099 0.038-0.189 0.099-0.257 0.070-0.074 0.162-0.127 0.267-0.147l0.182-0.038q0.143-0.029 0.25-0.054t0.221-0.059c0-0.003 0-0.007 0-0.010 0-0.078-0.022-0.15-0.061-0.211-0.047-0.042-0.11-0.068-0.18-0.068-0.018 0-0.036 0.002-0.053 0.005-0.007-0.001-0.016-0.001-0.026-0.001-0.069 0-0.134 0.015-0.193 0.042-0.049 0.030-0.091 0.072-0.121 0.122q-0.053 0.082-0.075 0.108c-0.021 0.017-0.048 0.027-0.078 0.027-0.005 0-0.010-0-0.015-0.001-0.042-0.001-0.080-0.019-0.108-0.047-0.028-0.025-0.046-0.061-0.046-0.101 0-0.001 0-0.003 0-0.004 0.002-0.074 0.028-0.141 0.072-0.194 0.057-0.069 0.132-0.122 0.217-0.153 0.106-0.040 0.225-0.063 0.349-0.063 0.010 0 0.021 0 0.031 0s0.026-0.001 0.041-0.001c0.125 0 0.246 0.022 0.357 0.062 0.083 0.032 0.154 0.098 0.194 0.182 0.039 0.093 0.060 0.198 0.060 0.308 0 0.012-0 0.023-0.001 0.035q0 0.132 0 0.225t0 0.206c0.001 0.080 0.013 0.156 0.037 0.228 0.014 0.038 0.027 0.088 0.033 0.14-0.001 0.047-0.022 0.085-0.054 0.109-0.033 0.030-0.076 0.048-0.124 0.048-0.001 0-0.001 0-0.002-0-0.046-0.003-0.086-0.023-0.115-0.055-0.047-0.047-0.089-0.099-0.123-0.157zM12.475 6.264c-0.066 0.023-0.147 0.046-0.23 0.063q-0.171 0.036-0.232 0.052c-0.045 0.013-0.084 0.034-0.117 0.063s-0.055 0.072-0.055 0.12c0 0.001 0 0.003 0 0.004-0 0-0 0.001-0 0.002 0 0.057 0.025 0.109 0.065 0.144 0.043 0.038 0.098 0.060 0.16 0.060 0.004 0 0.008-0 0.012-0 0.001 0 0.003 0 0.005 0 0.074 0 0.143-0.018 0.205-0.050 0.056-0.027 0.104-0.070 0.137-0.122 0.034-0.072 0.053-0.155 0.053-0.243 0-0.014-0.001-0.029-0.002-0.043zM13.606 6.479v0.316c0 0.005 0.001 0.011 0.001 0.017 0 0.059-0.020 0.113-0.055 0.156-0.033 0.035-0.079 0.057-0.132 0.057-0.002 0-0.004-0-0.006-0s-0.003 0-0.004 0c-0.052 0-0.098-0.023-0.13-0.059-0.033-0.042-0.053-0.096-0.053-0.154 0-0.006 0-0.013 0.001-0.019l-0-1.053q0-0.25 0.185-0.25c0.004-0 0.009-0.001 0.014-0.001 0.050 0 0.094 0.024 0.122 0.060 0.029 0.048 0.047 0.106 0.047 0.168 0 0.003-0 0.006-0 0.009 0.038-0.069 0.084-0.127 0.139-0.176 0.049-0.038 0.11-0.061 0.177-0.061 0.005 0 0.011 0 0.016 0 0.084 0.001 0.164 0.023 0.233 0.061 0.062 0.025 0.107 0.086 0.11 0.157 0 0.002 0 0.004 0 0.006 0 0.043-0.018 0.082-0.048 0.11-0.026 0.027-0.063 0.044-0.104 0.045-0.038-0.006-0.071-0.015-0.103-0.027-0.039-0.014-0.087-0.024-0.137-0.025-0.003-0-0.007-0-0.010-0-0.048 0-0.093 0.017-0.128 0.044-0.037 0.032-0.066 0.075-0.082 0.123-0.020 0.062-0.035 0.132-0.040 0.204q-0.013 0.121-0.013 0.292zM15.625 6.53c0 0.006 0 0.013 0 0.020 0 0.194-0.126 0.358-0.3 0.416-0.103 0.038-0.219 0.059-0.34 0.059-0.009 0-0.018-0-0.027-0-0.005 0-0.013 0-0.021 0-0.118 0-0.23-0.023-0.333-0.065-0.081-0.031-0.153-0.085-0.208-0.153-0.042-0.052-0.067-0.117-0.069-0.188-0-0.001-0-0.002-0-0.002 0-0.041 0.017-0.078 0.044-0.104s0.065-0.044 0.107-0.044c0.002 0 0.004 0 0.006 0 0.003-0 0.007-0 0.011-0 0.031 0 0.059 0.011 0.081 0.029 0.024 0.023 0.044 0.051 0.060 0.081 0.035 0.064 0.082 0.115 0.139 0.152 0.059 0.033 0.128 0.052 0.202 0.052 0.007 0 0.015-0 0.022-0.001 0.003 0 0.007 0 0.011 0 0.065 0 0.125-0.019 0.175-0.052 0.040-0.023 0.068-0.066 0.071-0.115 0-0.004 0-0.008 0-0.011 0-0.057-0.030-0.107-0.076-0.135-0.073-0.039-0.157-0.069-0.245-0.087-0.13-0.030-0.236-0.065-0.338-0.109-0.064-0.027-0.13-0.075-0.182-0.136-0.047-0.056-0.074-0.128-0.074-0.206 0-0.003 0-0.007 0-0.010-0 0-0 0-0 0 0-0.080 0.025-0.155 0.068-0.216 0.049-0.070 0.117-0.125 0.196-0.159 0.091-0.039 0.194-0.061 0.301-0.061 0.008 0 0.015 0 0.023 0 0.003-0 0.008-0 0.013-0 0.089 0 0.175 0.011 0.257 0.032 0.067 0.017 0.133 0.045 0.192 0.083 0.047 0.028 0.089 0.066 0.121 0.111 0.026 0.036 0.041 0.079 0.042 0.126 0 0.001 0 0.003 0 0.004 0 0.040-0.017 0.076-0.044 0.102-0.030 0.026-0.069 0.042-0.113 0.042-0.004 0-0.009-0-0.013-0-0 0-0.001 0-0.002 0-0.036 0-0.070-0.013-0.096-0.034-0.034-0.030-0.065-0.063-0.092-0.098-0.029-0.037-0.062-0.067-0.101-0.089-0.043-0.022-0.093-0.035-0.145-0.035-0.005 0-0.011 0-0.016 0-0.003-0-0.007-0-0.011-0-0.059 0-0.114 0.016-0.161 0.045-0.038 0.020-0.065 0.061-0.066 0.108 0 0.001-0 0.001-0 0.001 0 0.040 0.020 0.075 0.050 0.096 0.039 0.028 0.084 0.049 0.132 0.062q0.088 0.026 0.235 0.062c0.109 0.025 0.205 0.060 0.295 0.106 0.061 0.031 0.117 0.079 0.161 0.137 0.037 0.051 0.058 0.114 0.058 0.182 0 0.002-0 0.003-0 0.005zM3.869 10.039c0.092-0.076 0.16-0.177 0.195-0.292 0.016-0.041 0.024-0.085 0.024-0.13 0-0.146-0.090-0.272-0.217-0.324-0.577-0.292-0.949 0.227-1.002 0.348s-0.149 0.313-0.089 0.75 0.271 0.841 0.931 1c0.19 0.046 0.408 0.072 0.632 0.072 0.453 0 0.88-0.108 1.259-0.299 0.566-0.27 1.659-0.758 1.935-0.806 0.165-0.042 0.355-0.067 0.55-0.069l0.001-0.665c-0.266-0.471-0.763-0.784-1.334-0.784-0.051 0-0.101 0.002-0.15 0.007-1.047 0.082-1.466 0.624-1.722 0.857s-0.732 0.78-1.051 0.684-0.409-0.49-0.296-0.611 0.201-0.1 0.271 0c0.039 0.072 0.063 0.158 0.063 0.25 0 0.004-0 0.008-0 0.012zM12.271 10.039c-0.092-0.076-0.16-0.177-0.195-0.292-0.016-0.041-0.024-0.085-0.024-0.13 0-0.146 0.090-0.272 0.217-0.324 0.577-0.292 0.949 0.227 1.002 0.348s0.149 0.313 0.089 0.75-0.271 0.841-0.931 1c-0.19 0.046-0.408 0.072-0.632 0.072-0.453 0-0.88-0.108-1.259-0.299-0.566-0.27-1.659-0.758-1.935-0.806-0.165-0.042-0.355-0.067-0.55-0.069l-0.001-0.665c0.266-0.471 0.763-0.784 1.334-0.784 0.051 0 0.101 0.002 0.15 0.007 1.047 0.082 1.466 0.624 1.722 0.857s0.732 0.78 1.051 0.684 0.409-0.49 0.296-0.611-0.201-0.1-0.271 0c-0.039 0.072-0.063 0.158-0.063 0.25 0 0.004 0 0.008 0 0.012z"></path>
</svg>
