<!-- Generated by IcoMoon.io -->
<svg version="1.1" xmlns="http://www.w3.org/2000/svg" viewBox="0 0 16 16">
<title>heroku</title>
<path d="M4.912 11.125h6.662c0.575 0 1.037-0.463 1.037-1.037v-8.8c0-0.575-0.463-1.038-1.037-1.038h-6.662c-0.575 0-1.038 0.463-1.038 1.038v8.787c0 0.588 0.462 1.050 1.038 1.050zM9.688 1.75h1.35s-0.225 0.625-0.938 1.5h-1.3c0.463-0.5 0.887-1.5 0.887-1.5zM7.125 1.7v2.587s3.375-1.35 3.375 1.025v4.313h-1.1l-0.025 0.012v-4.35s0.287-1.037-3.475 0.425c-0.013 0.013-0.013-4.013-0.013-4.013h1.237zM5.875 7.15l1.237 1.238-1.237 1.238v-2.475zM4.412 12.85c-0.5 0-0.913 0.063-1.212 0.175-0.112 0.4-0.163 0.825-0.163 1.3 0 0.875 0.15 1.412 1.15 1.412 0.463 0 0.85-0.137 1.162-0.287l-0.1-0.45c-0.3 0.113-0.688 0.213-1.025 0.213-0.438 0-0.575-0.113-0.6-0.863h1.875v-0.275c0-0.762-0.275-1.225-1.088-1.225zM3.625 14c0.013-0.375 0.038-0.475 0.063-0.588 0.237-0.050 0.513-0.050 0.7-0.050 0.412 0 0.487 0.262 0.487 0.637h-1.25zM1.738 12.85c-0.338 0-0.613 0.088-0.988 0.188v-1.287h-0.5v3.875h0.5v-2.075c0.375-0.125 0.625-0.188 0.875-0.188 0.125 0 0.25 0.063 0.25 0.213v2.112l0.050-0.050h0.575v-1.975c0-0.475-0.225-0.813-0.762-0.813zM15.25 12.875v2.175c-0.375 0.125-0.7 0.188-0.963 0.188-0.125 0-0.287-0.063-0.287-0.213v-2.15h-0.5v2.088c0 0.463 0.162 0.787 0.7 0.787 0.338 0 0.925-0.050 1.55-0.438v-2.438h-0.5zM12.975 12.875h-0.675c-0.162 0.375-0.4 0.875-0.7 1.125h-0.225v-2.25h-0.625v3.875h0.625v-1.25h0.262c0.35 0.375 0.575 0.875 0.75 1.25h0.7c-0.262-0.5-0.563-1.050-0.963-1.55 0.325-0.338 0.625-0.7 0.85-1.2zM6 15.625h0.5v-2.075c0.25-0.1 0.625-0.137 0.875-0.15v-0.5c-0.375 0.025-0.875 0.113-1.375 0.387v2.338zM8.925 12.85c-0.762 0-1.287 0.4-1.287 1.463 0 1 0.4 1.438 1.287 1.438 0.762 0 1.287-0.4 1.287-1.463 0-1-0.4-1.438-1.287-1.438zM8.925 15.25c-0.5 0-0.713-0.175-0.713-0.938 0-0.7 0.25-0.963 0.713-0.963 0.5 0 0.713 0.175 0.713 0.938-0.012 0.7-0.262 0.963-0.713 0.963z"></path>
</svg>
