<!-- Generated by IcoMoon.io -->
<svg version="1.1" xmlns="http://www.w3.org/2000/svg" viewBox="0 0 16 16">
<title>home</title>
<path d="M14.4 5.467l-6-4.667c-0.267-0.2-0.6-0.2-0.8 0l-6 4.667c-0.2 0.133-0.267 0.333-0.267 0.533v7.333c0 1.133 0.867 2 2 2h9.333c1.133 0 2-0.867 2-2v-7.333c0-0.2-0.067-0.4-0.267-0.533zM9.333 14h-2.667v-5.333h2.667v5.333zM13.333 13.333c0 0.4-0.267 0.667-0.667 0.667h-2v-6c0-0.4-0.267-0.667-0.667-0.667h-4c-0.4 0-0.667 0.267-0.667 0.667v6h-2c-0.4 0-0.667-0.267-0.667-0.667v-7l5.333-4.133 5.333 4.133v7z"></path>
</svg>
