<!-- Generated by IcoMoon.io -->
<svg version="1.1" xmlns="http://www.w3.org/2000/svg" viewBox="0 0 16 16">
<title>illustrator</title>
<path d="M0.125 0.125v15.724c0.125 0.010 0.124 0.029 0.17 0.029 4.534 0.001 9.083 0.001 13.617 0.001 0.624 0 1.232 0.001 1.857-0.001 0.041-0 0.107-0.019 0.107-0.029-0-5.245-0-10.474-0-15.724h-15.75zM14.375 7.989v6.069c0 0.211-0.032 0.192-0.235 0.192h-12.169c-0.203 0-0.221 0.019-0.221-0.192v-12.153c0-0.211 0.018-0.28 0.237-0.28h12.138c0.219 0 0.25 0.069 0.25 0.295v6.069zM8.052 5.046c-0.027-0.083-0.077-0.087-0.149-0.087-0.389 0.002-0.779 0.009-1.168 0-0.123-0.003-0.176 0.034-0.214 0.154-0.548 1.723-1.102 3.445-1.654 5.167-0.090 0.281-0.177 0.563-0.273 0.867 0.364 0 0.696-0.005 1.029 0.003 0.113 0.003 0.16-0.034 0.191-0.141 0.142-0.491 0.296-0.978 0.437-1.469 0.033-0.116 0.087-0.147 0.203-0.146 0.553 0.007 1.106 0.007 1.659 0 0.108-0.001 0.151 0.034 0.182 0.133 0.152 0.494 0.313 0.984 0.464 1.478 0.031 0.102 0.071 0.141 0.188 0.133 0.163-0.012 0.327-0.015 0.491-0.015h0.574l-0.003-0.041c-0.653-2.013-1.306-4.024-1.957-6.038zM6.5 8.5c0.255-0.875 0.507-1.731 0.756-2.58 0.257 0.846 0.518 1.705 0.782 2.58h-1.539zM10.25 11.125h1.25v-4.5h-1.25v4.5zM10.884 4.819c-0.37 0-0.644 0.263-0.641 0.617 0.002 0.355 0.265 0.607 0.632 0.608 0.381 0 0.651-0.252 0.648-0.607-0.003-0.364-0.266-0.618-0.639-0.618z"></path>
</svg>
