<?xml version="1.0" encoding="UTF-8"?>
<svg viewBox="0 0 16 16" version="1.1" xmlns="http://www.w3.org/2000/svg" xmlns:xlink="http://www.w3.org/1999/xlink">
    <!-- Generator: Sketch 46.1 (44463) - http://www.bohemiancoding.com/sketch -->
    <title>improvement</title>
    <desc>Created with Sketch.</desc>
    <defs></defs>
    <g id="Page-1" stroke="none" stroke-width="1" fill="none" fill-rule="evenodd">
        <g id="improvement" fill-rule="nonzero" fill="#000000">
            <path d="M15.2034639,3.37220619 L13.2699381,1.68610309 L11.3365773,0 L9.4028866,1.68610309 L7.46936082,3.37220619 L9.58531959,3.37220619 C8.87290722,7.74845361 4.82936082,11.1526598 0.227958763,10.428866 C0.0255670103,10.3973608 -0.0564123711,10.6696907 0.142515464,10.7388041 C5.86886598,12.7317113 12.4659794,9.45715464 13.4203711,3.37220619 L15.2034639,3.37220619 Z" id="Shape"></path>
            <path d="M10.9148041,9.02630928 C10.3203299,9.57591753 9.65542268,10.0547629 8.93542268,10.4552577 L8.93542268,15.8916289 L10.9148041,15.8916289 L10.9148041,9.02630928 Z" id="Shape"></path>
            <path d="M5.96635052,15.8916289 L7.94573196,15.8916289 L7.94573196,10.9400412 C7.31678351,11.2080825 6.65468041,11.4193814 5.96635052,11.5671753 L5.96635052,15.8916289 Z" id="Shape"></path>
            <path d="M11.9044948,15.8916289 L13.8838763,15.8916289 L13.8838763,3.86705155 L13.8338969,3.86705155 C13.523299,5.40173196 12.8489897,6.79076289 11.9044948,7.96387629 L11.9044948,15.8916289 Z" id="Shape"></path>
            <path d="M2.00758763,11.699134 C1.33542268,11.6008247 0.673484536,11.443134 0.0282061856,11.2216082 L0.0282061856,15.8916289 L2.00758763,15.8916289 L2.00758763,11.699134 Z" id="Shape"></path>
            <path d="M2.99727835,15.8916289 L4.97665979,15.8916289 L4.97665979,11.7336082 C4.52651546,11.7882062 4.06779381,11.8169072 3.60181443,11.8169072 C3.39958763,11.8169072 3.19818557,11.8093196 2.99727835,11.798433 L2.99727835,15.8916289 Z" id="Shape"></path>
        </g>
    </g>
</svg>
