<!-- Generated by IcoMoon.io -->
<svg version="1.1" xmlns="http://www.w3.org/2000/svg" viewBox="0 0 16 16">
<title>inkscape</title>
<path d="M12.8 12.688c-0.637 0.575 0.075 1.162 0.7 0.787 0.137-0.15 0-0.65-0.7-0.787zM3.575 13.613c0.5 0.425 1.275-0.113 1.5-0.713-0.487-0.637-2.288 0.025-1.5 0.713zM13.063 12.1c0 0.287 2.1 0.475 2.1-0.063-0.3-0.875-1.85-0.825-2.1 0.063zM15.012 6.963l-5.838-5.975c-0.713-0.688-1.9-0.688-2.575 0l-5.638 5.763c-1.9 2.362 1.3 2.087 2.663 2.763 0.488 0.5-1.887 0.875-1.387 1.375 0.487 0.5 2.975 0.963 3.463 1.475l-0.513 1.537c0.487 0.5 1.625 0.025 1.837 1.188 0.15 0.825 2.050 0.35 2.975-0.325 0.488-0.5-0.938-0.45-0.45-0.963 1.225-1.25 2.362-0.45 2.775-1.713 0.213-0.625-1.8-0.95-1.313-1.463 1.425-0.813 6.313-1.35 4-3.662zM8.012 10.85c-0.6 0.162-3.5-1.025-2.775-1.025 0.15 0.088 2.425 0.55 2.987 0.65 0.2 0.037 0.063 0.238-0.213 0.375zM11.15 4.412l-1.1-0.888-0.213 1.313-0.925-0.487-1.475 0.938-0.487-1.938-0.813 1.4h-1.212c-0.5 0-0.55-0.662-0.1-1.112 0.787-0.85 1.688-1.725 2.175-2.225s1.35-0.5 1.837-0.012l2.225 2.263c0.213 0.212 0.213 0.625 0.088 0.75z"></path>
</svg>
