<!-- Generated by IcoMoon.io -->
<svg version="1.1" xmlns="http://www.w3.org/2000/svg" viewBox="0 0 16 16">
<title>ionic</title>
<path d="M11.010 8c0 1.662-1.348 3.010-3.010 3.010s-3.010-1.348-3.010-3.010c0-1.662 1.348-3.010 3.010-3.010s3.010 1.348 3.010 3.010zM14.143 2.893c0-0 0-0.001 0-0.002 0-0.571-0.463-1.034-1.034-1.034-0.26 0-0.498 0.096-0.68 0.255-1.218-0.926-2.76-1.483-4.433-1.483-4.073 0-7.375 3.302-7.375 7.375s3.302 7.375 7.375 7.375c4.073 0 7.375-3.302 7.375-7.375 0-1.673-0.557-3.215-1.495-4.453 0.171-0.162 0.267-0.399 0.267-0.659 0-0 0-0 0-0.001zM8 15.125c-0.002 0-0.004 0-0.006 0-3.935 0-7.125-3.19-7.125-7.125s3.19-7.125 7.125-7.125c1.609 0 3.094 0.533 4.286 1.433-0.137 0.153-0.209 0.361-0.209 0.585 0 0.571 0.463 1.034 1.034 1.034 0.224 0 0.432-0.071 0.601-0.193 0.881 1.176 1.413 2.659 1.413 4.266 0 3.933-3.187 7.122-7.12 7.125z"></path>
</svg>
