<!-- Generated by IcoMoon.io -->
<svg version="1.1" xmlns="http://www.w3.org/2000/svg" viewBox="0 0 16 16">
<title>jasmine</title>
<path d="M8.561 6.588h-1.18l-0.319-0.41v-3.215h1.797v3.215l-0.299 0.41zM6.965 6.888l-0.365 1.122-0.487 0.176-3.059-0.994 0.556-1.709 3.058 0.992 0.298 0.411zM6.755 8.467l0.955 0.694 0.016 0.518-1.889 2.603-1.455-1.056 1.891-2.603 0.481-0.155zM8.22 9.166l0.956-0.694 0.498 0.145 1.89 2.601-1.454 1.056-1.89-2.601v-0.508zM9.355 8.029l-0.365-1.124 0.291-0.429 3.058-0.992 0.556 1.709-3.059 0.994-0.481-0.158zM8 0.176c-4.321 0-7.824 3.503-7.824 7.824s3.503 7.824 7.824 7.824c4.321 0 7.824-3.503 7.824-7.824s-3.503-7.824-7.824-7.824zM7.957 14.114c-3.417 0-6.188-2.77-6.188-6.188s2.77-6.188 6.188-6.188c3.417 0 6.188 2.77 6.188 6.188 0 0 0 0.001 0 0.001 0 3.417-2.77 6.187-6.188 6.187zM7.697 10.374h0.49v2.439h-0.49v-2.439zM10.355 8.869l0.151-0.466 2.319 0.754-0.151 0.466-2.319-0.754zM9.719 5.883l-0.396-0.288 1.433-1.973 0.396 0.288-1.433 1.973zM6.669 5.595l-0.396 0.288-1.433-1.973 0.396-0.288 1.433 1.973zM5.424 8.403l0.151 0.466-2.319 0.754-0.151-0.466 2.319-0.754z"></path>
</svg>
