<!-- Generated by IcoMoon.io -->
<svg version="1.1" xmlns="http://www.w3.org/2000/svg" viewBox="0 0 16 16">
<title>javascript</title>
<path d="M0.25 0.125v15.625h15.625v-15.625h-15.625zM8.515 13.439c-0.231 0.469-0.671 0.777-1.181 0.925-0.784 0.18-1.534 0.077-2.091-0.257-0.373-0.229-0.665-0.582-0.863-0.988l1.19-0.729c0.010 0.004 0.042 0.061 0.083 0.134 0.152 0.254 0.283 0.434 0.54 0.561 0.253 0.086 0.808 0.141 1.022-0.303 0.131-0.226 0.089-0.954 0.089-1.758-0-1.264 0.006-2.524 0.006-3.774h1.464c0 1.375 0.008 2.677 0 4.019 0.003 0.822 0.075 1.556-0.259 2.17zM14.587 13.026c-0.509 1.74-3.345 1.797-4.479 0.647-0.239-0.271-0.39-0.412-0.533-0.724 0.602-0.347 0.602-0.347 1.188-0.686 0.318 0.489 0.613 0.758 1.142 0.869 0.719 0.088 1.441-0.159 1.279-0.922-0.167-0.623-1.471-0.775-2.359-1.441-0.901-0.605-1.113-2.076-0.372-2.917 0.247-0.311 0.668-0.543 1.11-0.654l0.461-0.060c0.885-0.018 1.438 0.216 1.845 0.669 0.113 0.114 0.205 0.238 0.378 0.506-0.472 0.3-0.47 0.298-1.145 0.735-0.144-0.311-0.384-0.506-0.637-0.591-0.393-0.119-0.888 0.010-0.991 0.425-0.036 0.128-0.028 0.247 0.028 0.458 0.159 0.363 0.693 0.521 1.172 0.741 1.379 0.559 1.845 1.159 1.959 1.873 0.11 0.614-0.027 1.013-0.047 1.073z"></path>
</svg>
