<!-- Generated by IcoMoon.io -->
<svg version="1.1" xmlns="http://www.w3.org/2000/svg" viewBox="0 0 16 16">
<title>java</title>
<path d="M5.952 12.265c-2.399 0.67 1.46 2.055 4.514 0.746-0.5-0.194-0.859-0.419-0.859-0.419-1.362 0.258-1.994 0.278-3.231 0.136-1.021-0.117-0.425-0.464-0.425-0.464zM10.101 10.957c-1.806 0.347-2.848 0.336-4.169 0.2-1.021-0.106-0.353-0.601-0.353-0.601-2.642 0.877 1.471 1.872 5.164 0.792-0.393-0.138-0.642-0.391-0.642-0.391zM11.516 3.386c0 0-5.341 1.334-2.79 4.273 0.753 0.867-0.197 1.646-0.197 1.646s1.911-0.986 1.034-2.222c-0.82-1.152-1.448-1.724 1.954-3.697zM12.765 13.529s0.441 0.364-0.486 0.645c-1.763 0.534-7.338 0.695-8.887 0.021-0.556-0.242 0.487-0.578 0.816-0.649 0.342-0.074 0.538-0.061 0.538-0.061-0.619-0.436-4.002 0.856-1.718 1.227 6.228 1.010 11.352-0.455 9.737-1.184zM10.625 9.737c0.299-0.204 0.713-0.382 0.713-0.382s-1.178 0.211-2.352 0.309c-1.437 0.12-2.978 0.144-3.752 0.041-1.832-0.245 1.004-0.918 1.004-0.918s-1.101-0.075-2.455 0.581c-1.601 0.774 3.961 1.127 6.842 0.37zM11.326 11.63c-0.014 0.036-0.059 0.077-0.059 0.077 3.909-1.028 2.472-3.622 0.603-2.966-0.164 0.058-0.25 0.193-0.25 0.193s0.104-0.042 0.335-0.090c0.945-0.197 2.299 1.265-0.629 2.786zM8.023 8.759c-0.577-1.304-2.533-2.444 0.001-4.445 3.159-2.493 1.538-4.115 1.538-4.115 0.654 2.576-2.306 3.354-3.375 4.958-0.728 1.093 0.357 2.268 1.836 3.602zM11.432 15.227c-2.398 0.451-5.357 0.399-7.111 0.109 0 0 0.359 0.297 2.206 0.416 2.809 0.18 7.125-0.1 7.227-1.43 0 0-0.196 0.504-2.322 0.904z"></path>
</svg>
