<!-- Generated by IcoMoon.io -->
<svg version="1.1" xmlns="http://www.w3.org/2000/svg" viewBox="0 0 16 16">
<title>jquery</title>
<path d="M5.995 9.877l0.024 0.012 0.043 0.021c0.055 0.026 0.11 0.052 0.166 0.077l0.035 0.016c0.064 0.028 0.129 0.055 0.194 0.081l0.047 0.018c0.060 0.024 0.122 0.046 0.183 0.068l0.023 0.008c0.067 0.024 0.135 0.045 0.204 0.067l0.049 0.015c0.070 0.021 0.139 0.046 0.211 0.060 4.569 0.833 5.896-2.746 5.896-2.746-1.115 1.452-3.093 1.835-4.968 1.409-0.071-0.016-0.14-0.038-0.209-0.059l-0.052-0.016c-0.068-0.021-0.135-0.043-0.202-0.066l-0.028-0.010c-0.060-0.021-0.119-0.043-0.178-0.066l-0.050-0.020c-0.064-0.025-0.128-0.052-0.192-0.080l-0.038-0.017c-0.054-0.025-0.108-0.050-0.162-0.075l-0.047-0.023c-0.042-0.021-0.084-0.042-0.125-0.064l-0.083-0.044c-0.051-0.027-0.1-0.055-0.15-0.084l-0.051-0.028c-0.066-0.039-0.131-0.079-0.195-0.12l-0.053-0.035c-0.047-0.030-0.093-0.061-0.139-0.092l-0.045-0.031c-0.044-0.031-0.088-0.063-0.131-0.095l-0.058-0.044c-0.040-0.030-0.079-0.061-0.119-0.093l-0.053-0.043c-0.050-0.041-0.099-0.082-0.148-0.124l-0.016-0.014c-0.053-0.046-0.104-0.093-0.155-0.141l-0.044-0.042c-0.038-0.036-0.075-0.072-0.112-0.109l-0.044-0.044c-0.046-0.048-0.092-0.096-0.137-0.145l-0.007-0.007c-0.047-0.052-0.094-0.105-0.139-0.158l-0.036-0.043c-0.034-0.041-0.067-0.082-0.1-0.123l-0.037-0.045c-0.039-0.051-0.078-0.102-0.115-0.154-1.041-1.42-1.415-3.378-0.583-4.986l-0.737 0.935c-0.945 1.358-0.827 3.125-0.106 4.568l0.053 0.103 0.034 0.065 0.021 0.037 0.038 0.067c0.022 0.040 0.045 0.079 0.069 0.118l0.039 0.065c0.026 0.042 0.053 0.083 0.080 0.125l0.034 0.053c0.038 0.056 0.076 0.112 0.116 0.167l0.003 0.004 0.019 0.026c0.034 0.047 0.070 0.094 0.106 0.14l0.040 0.050c0.032 0.040 0.064 0.080 0.098 0.12l0.037 0.044c0.044 0.052 0.090 0.104 0.136 0.155l0.003 0.003 0.005 0.006c0.045 0.049 0.091 0.097 0.138 0.146l0.044 0.045c0.036 0.037 0.073 0.072 0.11 0.108l0.045 0.043c0.050 0.047 0.1 0.093 0.151 0.138l0.003 0.002 0.026 0.023c0.045 0.039 0.091 0.078 0.137 0.116l0.057 0.045c0.038 0.030 0.076 0.060 0.114 0.089l0.061 0.046c0.043 0.031 0.085 0.062 0.128 0.092l0.060 0.042c0.041 0.028 0.083 0.055 0.125 0.082l0.054 0.036c0.064 0.041 0.129 0.081 0.195 0.12l0.054 0.030c0.048 0.028 0.097 0.055 0.146 0.082l0.186 0.097zM6.457 5.278c0.102 0.147 0.216 0.321 0.352 0.439 0.049 0.054 0.101 0.107 0.153 0.159l0.040 0.040c0.051 0.050 0.103 0.098 0.157 0.146l0.006 0.005 0.002 0.002c0.059 0.052 0.121 0.102 0.183 0.151l0.042 0.032c0.063 0.048 0.126 0.095 0.191 0.14l0.006 0.004 0.087 0.058 0.042 0.027c0.047 0.030 0.094 0.059 0.142 0.087l0.020 0.012c0.041 0.024 0.083 0.047 0.125 0.070l0.044 0.023 0.088 0.045 0.013 0.006c0.060 0.030 0.121 0.058 0.183 0.085l0.040 0.017c0.050 0.021 0.1 0.042 0.15 0.061l0.064 0.024c0.046 0.017 0.091 0.032 0.138 0.048l0.062 0.020c0.066 0.020 0.131 0.046 0.199 0.058 3.528 0.585 4.342-2.132 4.342-2.132-0.734 1.057-2.156 1.562-3.673 1.168-0.067-0.018-0.134-0.037-0.2-0.058l-0.060-0.019c-0.047-0.015-0.094-0.031-0.14-0.048l-0.063-0.024c-0.051-0.019-0.101-0.040-0.15-0.061l-0.040-0.017c-0.062-0.027-0.124-0.056-0.184-0.086l-0.092-0.047-0.053-0.027c-0.039-0.021-0.078-0.043-0.117-0.066l-0.028-0.016c-0.048-0.028-0.095-0.057-0.142-0.086l-0.043-0.029-0.091-0.061c-0.065-0.045-0.128-0.092-0.191-0.139l-0.043-0.034c-0.664-0.524-1.191-1.241-1.441-2.054-0.262-0.842-0.206-1.788 0.249-2.556l-0.558 0.788c-0.683 0.983-0.646 2.3-0.113 3.339 0.089 0.174 0.19 0.343 0.302 0.504zM10.175 4.062l0.088 0.030 0.039 0.012c0.042 0.013 0.083 0.028 0.126 0.036 1.948 0.376 2.476-1 2.617-1.202-0.463 0.666-1.241 0.826-2.195 0.595-0.075-0.018-0.158-0.045-0.231-0.071-0.093-0.033-0.185-0.071-0.274-0.114-0.169-0.082-0.331-0.18-0.481-0.293-0.854-0.648-1.384-1.884-0.827-2.891l-0.302 0.415c-0.403 0.593-0.442 1.329-0.163 1.984 0.295 0.695 0.899 1.24 1.604 1.499zM8.295 12.037h-0.528c-0.029 0-0.058 0.024-0.065 0.052l-0.375 1.735c-0.006 0.029-0.035 0.052-0.064 0.052h-0.374c-0.37 0-0.327-0.256-0.251-0.606l0.002-0.011 0.008-0.044 0.002-0.008 0.017-0.090 0.018-0.096 0.019-0.098 0.085-0.416 0.085-0.416c0.006-0.029-0.013-0.052-0.043-0.052h-0.542c-0.029 0-0.058 0.024-0.064 0.052l-0.117 0.553-0.117 0.553-0 0.001-0.011 0.052c-0.134 0.613-0.099 1.197 0.631 1.216l0.021 0h1.145c0.029 0 0.058-0.024 0.064-0.052l0.494-2.322c0.006-0.029-0.013-0.052-0.042-0.052zM2.638 12.031h-0.58c-0.029 0-0.059 0.024-0.065 0.052l-0.11 0.486c-0.006 0.029 0.012 0.052 0.042 0.052h0.584c0.029 0 0.058-0.024 0.065-0.052l0.106-0.485c0.006-0.029-0.013-0.052-0.042-0.052zM2.47 12.786h-0.585c-0.029 0-0.059 0.024-0.065 0.052l-0.082 0.364-0.082 0.364-0.023 0.104-0.079 0.371-0.079 0.371c-0.006 0.029-0.019 0.075-0.028 0.103 0 0-0.109 0.325-0.293 0.321l-0.023-0.001-0.159-0.003c-0.029-0-0.059 0.023-0.066 0.051l-0.061 0.255-0.060 0.255c-0.007 0.028 0.012 0.052 0.041 0.053 0.104 0.001 0.337 0.004 0.479 0.004 0.459 0 0.7-0.254 0.855-0.985l0.352-1.626c0.006-0.028-0.013-0.052-0.042-0.052zM13.234 12.589l-0.024-0.1-0.024-0.102-0.012-0.052c-0.047-0.185-0.187-0.291-0.49-0.291l-1.394-0.001c-0.029 0-0.058 0.024-0.064 0.052l-0.022 0.102-0.025 0.12-0.007 0.034-0.429 2.008c-0.006 0.029-0.008 0.064-0.005 0.078s0.060 0.026 0.089 0.026h0.441c0.029 0 0.066-0.005 0.082-0.012s0.040-0.064 0.046-0.093l0.078-0.387 0.079-0.388 0.011-0.052 0.179-0.838c0.006-0.029 0.035-0.052 0.064-0.052l1.386-0.001c0.029 0 0.048-0.023 0.041-0.052zM15.019 11.684l-0.107 0h-0.444c-0.029 0-0.067 0.020-0.083 0.044l-0.981 1.437c-0.017 0.024-0.035 0.021-0.042-0.008l-0.072-0.317c-0.007-0.029-0.036-0.052-0.065-0.052h-0.631c-0.029 0-0.047 0.023-0.039 0.051l0.283 0.99c0.008 0.028 0.009 0.075 0.001 0.103l-0.123 0.479c-0.007 0.028 0.011 0.052 0.040 0.052h0.623c0.029 0 0.059-0.023 0.066-0.052l0.123-0.479c0.007-0.029 0.028-0.071 0.045-0.094l1.593-2.114c0.018-0.024 0.008-0.043-0.021-0.042l-0.167 0.001zM10.008 12.924v-0.001c-0.004 0.032-0.033 0.055-0.062 0.055h-0.8c-0.028 0-0.042-0.019-0.038-0.042l0.001-0.002-0.001 0 0-0.003 0.004-0.014c0.076-0.203 0.232-0.336 0.524-0.336 0.329-0 0.393 0.161 0.371 0.341zM9.773 12.001c-1.026 0-1.27 0.623-1.406 1.252-0.136 0.641-0.125 1.24 0.938 1.24l0.298-0.001c0.28-0.001 0.562-0.003 0.676-0.004 0.029-0.001 0.058-0.024 0.064-0.053l0.051-0.251 0.051-0.251c0.006-0.029-0.013-0.052-0.043-0.052h-0.955c-0.38 0-0.493-0.101-0.451-0.398h1.527c0.024-0 0.047-0.017 0.056-0.039l0.004-0.013-0 0c0.227-0.855 0.162-1.431-0.809-1.431zM4.922 12.921l-0.014 0.051v0l-0.231 0.817c-0.008 0.028-0.038 0.051-0.068 0.051h-0.61c-0.463 0-0.575-0.362-0.463-0.896 0.113-0.546 0.333-0.885 0.789-0.92 0.623-0.047 0.747 0.391 0.597 0.896zM5.34 13.809s0.288-0.698 0.353-1.102c0.089-0.54-0.181-1.323-1.226-1.323-1.038 0-1.489 0.748-1.661 1.56-0.172 0.819 0.053 1.537 1.086 1.531l1.576-0.006c0.029-0 0.059-0.024 0.067-0.052l0.133-0.506c0.007-0.028-0.011-0.052-0.040-0.052l-0.254-0.002c-0.025-0-0.039-0.016-0.036-0.038l0.003-0.012zM10.48 13.342c0 0.019-0.016 0.035-0.035 0.035s-0.035-0.016-0.035-0.035c0-0.019 0.016-0.035 0.035-0.035s0.035 0.016 0.035 0.035z"></path>
</svg>
