<?xml version="1.0" encoding="UTF-8"?>
<svg viewBox="0 0 14 16" version="1.1" xmlns="http://www.w3.org/2000/svg" xmlns:xlink="http://www.w3.org/1999/xlink">
    <!-- cooker by Oliviu Stoian from the Noun Project -->
    <title>kitchen</title>
    <desc>cooker by Oliviu Stoian from the Noun Project</desc>
    <defs></defs>
    <g id="Page-1" stroke="none" stroke-width="1" fill="none" fill-rule="evenodd">
        <g id="noun_1023366_cc" fill-rule="nonzero" fill="#000000">
            <g id="Group">
                <g id="Shape">
                    <g>
                        <path d="M0.533333333,14.1333333 L12.8,14.1333333 L12.8,5.33333333 L0.533333333,5.33333333 L0.533333333,14.1333333 Z M13.0666667,14.6666667 L0.266666667,14.6666667 C0.119466667,14.6666667 0,14.5474667 0,14.4 L0,5.06666667 C0,4.9192 0.119466667,4.8 0.266666667,4.8 L13.0666667,4.8 C13.2141333,4.8 13.3333333,4.9192 13.3333333,5.06666667 L13.3333333,14.4 C13.3333333,14.5474667 13.2141333,14.6666667 13.0666667,14.6666667 L13.0666667,14.6666667 Z"></path>
                        <path d="M0.533333333,4.8 L12.8,4.8 L12.8,1.86666667 C12.8,1.71946667 12.6805333,1.6 12.5333333,1.6 L0.8,1.6 C0.653066667,1.6 0.533333333,1.71946667 0.533333333,1.86666667 L0.533333333,4.8 Z M13.0666667,5.33333333 L0.266666667,5.33333333 C0.119466667,5.33333333 0,5.21413333 0,5.06666667 L0,1.86666667 C0,1.4256 0.358933333,1.06666667 0.8,1.06666667 L12.5333333,1.06666667 C12.9744,1.06666667 13.3333333,1.4256 13.3333333,1.86666667 L13.3333333,5.06666667 C13.3333333,5.21413333 13.2141333,5.33333333 13.0666667,5.33333333 L13.0666667,5.33333333 Z"></path>
                        <path d="M0.533333333,14.6666667 L0.533333333,15.2 C0.533333333,15.3472 0.653066667,15.4666667 0.8,15.4666667 L12.5333333,15.4666667 C12.6805333,15.4666667 12.8,15.3472 12.8,15.2 L12.8,14.6666667 L0.533333333,14.6666667 Z M12.5333333,16 L0.8,16 C0.358933333,16 0,15.6410667 0,15.2 L0,14.4 C0,14.2525333 0.119466667,14.1333333 0.266666667,14.1333333 L13.0666667,14.1333333 C13.2141333,14.1333333 13.3333333,14.2525333 13.3333333,14.4 L13.3333333,15.2 C13.3333333,15.6410667 12.9744,16 12.5333333,16 L12.5333333,16 Z"></path>
                        <path d="M2.13333333,6.66666667 C1.9864,6.66666667 1.86666667,6.78613333 1.86666667,6.93333333 C1.86666667,7.08053333 1.9864,7.2 2.13333333,7.2 L11.2,7.2 C11.3472,7.2 11.4666667,7.08053333 11.4666667,6.93333333 C11.4666667,6.78613333 11.3472,6.66666667 11.2,6.66666667 L2.13333333,6.66666667 Z M11.2,7.73333333 L2.13333333,7.73333333 C1.69226667,7.73333333 1.33333333,7.3744 1.33333333,6.93333333 C1.33333333,6.49226667 1.69226667,6.13333333 2.13333333,6.13333333 L11.2,6.13333333 C11.6410667,6.13333333 12,6.49226667 12,6.93333333 C12,7.3744 11.6410667,7.73333333 11.2,7.73333333 L11.2,7.73333333 Z"></path>
                        <path d="M2.66666667,12.8 L10.6666667,12.8 L10.6666667,7.73333333 L2.66666667,7.73333333 L2.66666667,12.8 Z M10.9333333,13.3333333 L2.4,13.3333333 C2.2528,13.3333333 2.13333333,13.2141333 2.13333333,13.0666667 L2.13333333,7.46666667 C2.13333333,7.3192 2.2528,7.2 2.4,7.2 L10.9333333,7.2 C11.0805333,7.2 11.2,7.3192 11.2,7.46666667 L11.2,13.0666667 C11.2,13.2141333 11.0805333,13.3333333 10.9333333,13.3333333 L10.9333333,13.3333333 Z"></path>
                        <path d="M1.91237333,1.06666667 L5.55424,1.06666667 C5.44437333,0.756266667 5.14757333,0.533333333 4.80010667,0.533333333 L2.66677333,0.533333333 C2.31904,0.533333333 2.02250667,0.756266667 1.91237333,1.06666667 M5.86677333,1.6 L1.60010667,1.6 C1.45264,1.6 1.33344,1.4808 1.33344,1.33333333 C1.33344,0.598133333 1.93157333,0 2.66677333,0 L4.80010667,0 C5.53504,0 6.13344,0.598133333 6.13344,1.33333333 C6.13344,1.4808 6.01397333,1.6 5.86677333,1.6"></path>
                        <path d="M7.77904,1.06666667 L11.4211733,1.06666667 C11.31104,0.756266667 11.01424,0.533333333 10.6667733,0.533333333 L8.53344,0.533333333 C8.18570667,0.533333333 7.88917333,0.756266667 7.77904,1.06666667 M11.73344,1.6 L7.46677333,1.6 C7.31930667,1.6 7.20010667,1.4808 7.20010667,1.33333333 C7.20010667,0.598133333 7.79824,0 8.53344,0 L10.6667733,0 C11.4017067,0 12.0001067,0.598133333 12.0001067,1.33333333 C12.0001067,1.4808 11.88064,1.6 11.73344,1.6"></path>
                        <path d="M5.33333333,2.66666667 C5.0392,2.66666667 4.8,2.90586667 4.8,3.2 C4.8,3.49413333 5.0392,3.73333333 5.33333333,3.73333333 C5.62746667,3.73333333 5.86666667,3.49413333 5.86666667,3.2 C5.86666667,2.90586667 5.62746667,2.66666667 5.33333333,2.66666667 M5.33333333,4.26666667 C4.74506667,4.26666667 4.26666667,3.78826667 4.26666667,3.2 C4.26666667,2.61173333 4.74506667,2.13333333 5.33333333,2.13333333 C5.9216,2.13333333 6.4,2.61173333 6.4,3.2 C6.4,3.78826667 5.9216,4.26666667 5.33333333,4.26666667"></path>
                        <path d="M5.33333333,3.2 C5.18613333,3.2 5.06666667,3.0808 5.06666667,2.93333333 L5.06666667,2.4 C5.06666667,2.25253333 5.18613333,2.13333333 5.33333333,2.13333333 C5.48053333,2.13333333 5.6,2.25253333 5.6,2.4 L5.6,2.93333333 C5.6,3.0808 5.48053333,3.2 5.33333333,3.2"></path>
                        <path d="M2.66666667,2.66666667 C2.37253333,2.66666667 2.13333333,2.90586667 2.13333333,3.2 C2.13333333,3.49413333 2.37253333,3.73333333 2.66666667,3.73333333 C2.9608,3.73333333 3.2,3.49413333 3.2,3.2 C3.2,2.90586667 2.9608,2.66666667 2.66666667,2.66666667 M2.66666667,4.26666667 C2.0784,4.26666667 1.6,3.78826667 1.6,3.2 C1.6,2.61173333 2.0784,2.13333333 2.66666667,2.13333333 C3.25493333,2.13333333 3.73333333,2.61173333 3.73333333,3.2 C3.73333333,3.78826667 3.25493333,4.26666667 2.66666667,4.26666667"></path>
                        <path d="M2.66666667,3.2 C2.51946667,3.2 2.4,3.0808 2.4,2.93333333 L2.4,2.4 C2.4,2.25253333 2.51946667,2.13333333 2.66666667,2.13333333 C2.81386667,2.13333333 2.93333333,2.25253333 2.93333333,2.4 L2.93333333,2.93333333 C2.93333333,3.0808 2.81386667,3.2 2.66666667,3.2"></path>
                        <path d="M8,2.66666667 C7.70586667,2.66666667 7.46666667,2.90586667 7.46666667,3.2 C7.46666667,3.49413333 7.70586667,3.73333333 8,3.73333333 C8.29413333,3.73333333 8.53333333,3.49413333 8.53333333,3.2 C8.53333333,2.90586667 8.29413333,2.66666667 8,2.66666667 M8,4.26666667 C7.41173333,4.26666667 6.93333333,3.78826667 6.93333333,3.2 C6.93333333,2.61173333 7.41173333,2.13333333 8,2.13333333 C8.58826667,2.13333333 9.06666667,2.61173333 9.06666667,3.2 C9.06666667,3.78826667 8.58826667,4.26666667 8,4.26666667"></path>
                        <path d="M8,3.2 C7.8528,3.2 7.73333333,3.0808 7.73333333,2.93333333 L7.73333333,2.4 C7.73333333,2.25253333 7.8528,2.13333333 8,2.13333333 C8.1472,2.13333333 8.26666667,2.25253333 8.26666667,2.4 L8.26666667,2.93333333 C8.26666667,3.0808 8.1472,3.2 8,3.2"></path>
                        <path d="M10.6666667,2.66666667 C10.3725333,2.66666667 10.1333333,2.90586667 10.1333333,3.2 C10.1333333,3.49413333 10.3725333,3.73333333 10.6666667,3.73333333 C10.9608,3.73333333 11.2,3.49413333 11.2,3.2 C11.2,2.90586667 10.9608,2.66666667 10.6666667,2.66666667 M10.6666667,4.26666667 C10.0784,4.26666667 9.6,3.78826667 9.6,3.2 C9.6,2.61173333 10.0784,2.13333333 10.6666667,2.13333333 C11.2549333,2.13333333 11.7333333,2.61173333 11.7333333,3.2 C11.7333333,3.78826667 11.2549333,4.26666667 10.6666667,4.26666667"></path>
                        <path d="M10.6666667,3.2 C10.5194667,3.2 10.4,3.0808 10.4,2.93333333 L10.4,2.4 C10.4,2.25253333 10.5194667,2.13333333 10.6666667,2.13333333 C10.8138667,2.13333333 10.9333333,2.25253333 10.9333333,2.4 L10.9333333,2.93333333 C10.9333333,3.0808 10.8138667,3.2 10.6666667,3.2"></path>
                    </g>
                </g>
            </g>
        </g>
    </g>
</svg>
