<!-- Generated by IcoMoon.io -->
<svg version="1.1" xmlns="http://www.w3.org/2000/svg" width="18" height="16" viewBox="0 0 18 16">
<title>kitchen</title>
<path d="M17.5 14h-3.999v-11.5h3.999c0.276 0 0.5 0.224 0.5 0.5v10.5c0 0.276-0.224 0.5-0.5 0.5zM15.501 12h0.5v-0.5h-0.5v0.5zM15.501 11h0.5v-0.5h-0.5v0.5zM15.501 10h0.5v-0.5h-0.5v0.5zM14.501 12h0.499v-0.5h-0.499v0.5zM14.501 11h0.499v-0.5h-0.499v0.5zM14.501 10h0.499v-0.5h-0.499v0.5zM17 4.5h-2.5v1.5h2.5v-1.5zM17 9.5h-0.5v0.5h0.5v-0.5zM17 10.5h-0.5v0.5h0.5v-0.5zM17 11.5h-0.5v0.5h0.5v-0.5zM0 13.5v-10.5c0-0.276 0.224-0.5 0.5-0.5h12.5v11.5h-12.5c-0.277 0-0.5-0.224-0.5-0.5zM12.020 8.755c0.277 0 0.5-0.224 0.5-0.5s-0.223-0.5-0.5-0.5c-0.276 0-0.5 0.223-0.5 0.5s0.224 0.5 0.5 0.5zM2 11.5c0 0.276 0.224 0.5 0.5 0.5h8c0.277 0 0.5-0.224 0.5-0.5v-6.5c0-0.277-0.223-0.5-0.5-0.5h-8c-0.276 0-0.5 0.223-0.5 0.5v6.5z"></path>
</svg>
