<!-- Generated by IcoMoon.io -->
<svg version="1.1" xmlns="http://www.w3.org/2000/svg" viewBox="0 0 16 16">
<title>laravel</title>
<path d="M2.117 0.215c-0.141 0.011-0.279 0.009-0.416 0.047-0.298 0.082-0.563 0.213-0.797 0.414-0.137 0.119-0.258 0.246-0.359 0.397-0.157 0.232-0.264 0.482-0.318 0.763 0.021 0.038 0.044 0.077 0.068 0.117 0.152 0.255 0.305 0.508 0.458 0.762l0.401 0.668c0.123 0.206 0.247 0.412 0.37 0.617l0.576 0.961c0.131 0.218 0.262 0.437 0.393 0.655 0.191 0.318 0.382 0.636 0.573 0.954l0.701 1.171c0.202 0.337 0.405 0.674 0.607 1.012l0.027 0.039c0.029 0.009 0.053 0.001 0.077-0.004 0.267-0.064 0.534-0.128 0.8-0.191 0.433-0.103 0.865-0.206 1.298-0.31l0.678-0.162c0.437-0.104 0.875-0.209 1.312-0.314 0.442-0.106 0.884-0.212 1.326-0.318 0.223-0.054 0.447-0.107 0.671-0.16 0.433-0.103 0.865-0.206 1.298-0.309l1.414-0.337 0.076-0.021-0.021-0.041-0.386-0.545-0.381-0.539-0.408-0.575-0.389-0.552-0.784-1.109c-0.13-0.184-0.261-0.367-0.391-0.551l-0.206-0.291c-0.031-0.045-0.057-0.093-0.073-0.145-0.041-0.126 0.006-0.211 0.079-0.273 0.048-0.040 0.103-0.070 0.162-0.087 0.083-0.024 0.166-0.048 0.251-0.064 0.17-0.032 0.341-0.059 0.511-0.088l0.578-0.094c0.122-0.020 0.244-0.041 0.366-0.062 0.166-0.028 0.331-0.056 0.497-0.084 0.161-0.027 0.322-0.054 0.483-0.080l0.527-0.086 0.366-0.061c0.139-0.023 0.278-0.046 0.417-0.069 0.173-0.028 0.346-0.057 0.52-0.084 0.103-0.016 0.207-0.022 0.309 0.008 0.077 0.022 0.147 0.058 0.212 0.104l0.090 0.063c0.009-0.021-0.004-0.032-0.010-0.044-0.13-0.263-0.307-0.489-0.533-0.678-0.209-0.175-0.444-0.304-0.704-0.386-0.154-0.049-0.312-0.026-0.472-0.038zM6.961 15.875c-0.008 0-0.015-0.056-0.023-0.071-0.188-0.32-0.377-0.664-0.562-0.985-0.233-0.405-0.465-0.811-0.695-1.217-0.246-0.435-0.489-0.871-0.733-1.306-0.232-0.414-0.463-0.829-0.694-1.243-0.139-0.251-0.278-0.502-0.417-0.752l-0.037-0.057-0.068 0.013c-0.134 0.035-0.268 0.069-0.401 0.105-0.186 0.049-0.372 0.099-0.559 0.148-0.418 0.109-0.837 0.217-1.255 0.326-0.425 0.111-0.869 0.221-1.294 0.331-0.026 0.007 0.027 0.009-0.098 0.013v2.643c0.051 0.082 0.047 0.043 0.050 0.070 0.010 0.078 0.026 0.157 0.040 0.235 0.052 0.289 0.167 0.553 0.335 0.794 0.246 0.353 0.573 0.606 0.973 0.76 0.143 0.055 0.292 0.094 0.445 0.113l0.155 0.041zM0.622 9.718c0.492-0.117 0.985-0.234 1.477-0.351 0.216-0.051 0.433-0.102 0.649-0.153 0.108-0.026 0.216-0.050 0.324-0.079 0.095-0.026 0.107-0.057 0.058-0.143-0.071-0.124-0.143-0.248-0.215-0.372l-1.266-2.18c-0.215-0.37-0.429-0.739-0.644-1.109-0.184-0.316-0.368-0.633-0.551-0.949-0.080-0.137-0.176-0.274-0.256-0.41-0.015-0.025 0.052-0.055-0.072-0.068v5.925c0-0.004 0.057-0.007 0.076-0.012l0.421-0.097zM15.778 13.953c-0.193 0.069-0.386 0.138-0.579 0.207-0.439 0.158-0.879 0.315-1.318 0.473-0.244 0.088-0.488 0.176-0.732 0.264-0.498 0.178-0.996 0.355-1.494 0.532-0.289 0.103-0.577 0.23-0.866 0.333-0.079 0.028-0.157 0.115-0.235 0.115h3.311l0.071-0.041c0.084-0.004 0.167-0.029 0.25-0.044 0.34-0.062 0.644-0.209 0.914-0.424 0.207-0.165 0.376-0.367 0.508-0.597 0.136-0.237 0.216-0.493 0.255-0.763 0.003-0.023 0.011-0.050-0.009-0.074-0.027-0.002-0.052 0.011-0.077 0.020zM15.494 9.506c-0.146-0.2-0.292-0.399-0.438-0.599-0.201-0.276-0.402-0.552-0.603-0.828-0.082-0.112-0.164-0.223-0.244-0.336-0.024-0.034-0.051-0.043-0.089-0.033l-0.021 0.006c-0.37 0.090-0.74 0.179-1.11 0.269l-0.663 0.161c-0.432 0.105-0.864 0.21-1.296 0.315-0.427 0.104-0.855 0.208-1.282 0.312l-1.333 0.323c-0.437 0.106-0.874 0.213-1.311 0.319l-1.268 0.308c-0.223 0.054-0.447 0.108-0.67 0.163-0.033 0.008-0.068 0.010-0.103 0.037l0.030 0.057c0.187 0.323 0.374 0.646 0.562 0.969 0.212 0.366 0.425 0.731 0.638 1.097 0.234 0.402 0.469 0.803 0.704 1.204 0.135 0.231 0.269 0.462 0.405 0.691 0.151 0.255 0.303 0.511 0.457 0.764 0.046 0.076 0.098 0.148 0.151 0.22 0.035 0.048 0.079 0.088 0.131 0.12 0.053 0.032 0.111 0.042 0.171 0.029 0.031-0.007 0.062-0.017 0.092-0.028l0.111-0.041c0.405-0.138 0.809-0.277 1.214-0.415 0.316-0.107 0.632-0.214 0.948-0.321 0.314-0.106 0.627-0.212 0.941-0.318l0.934-0.316c0.319-0.108 0.637-0.215 0.955-0.323 0.391-0.133 0.781-0.266 1.172-0.398 0.377-0.127 0.754-0.254 1.131-0.382 0.023-0.008 0.049-0.011 0.068-0.036l0.002-0.055c0-0.782-0-1.564 0.001-2.346 0-0.042-0.011-0.075-0.036-0.109-0.118-0.159-0.235-0.319-0.351-0.479zM15.429 2.139c-0.088-0.111-0.2-0.146-0.337-0.111-0.060 0.016-0.121 0.026-0.182 0.037-0.199 0.037-0.399 0.072-0.598 0.108-0.292 0.053-0.583 0.107-0.875 0.159-0.231 0.042-0.462 0.082-0.693 0.123l-0.927 0.162c-0.039 0.007-0.078 0.014-0.116 0.026-0.055 0.018-0.070 0.052-0.045 0.103 0.020 0.042 0.046 0.082 0.073 0.12 0.192 0.264 0.384 0.528 0.577 0.792 0.265 0.364 0.531 0.727 0.797 1.091 0.225 0.308 0.45 0.615 0.675 0.922 0.177 0.242 0.354 0.483 0.53 0.724l0.035 0.042 1.534-0.379 0.004-0.080c0-1.064-0-2.128 0.001-3.192 0-0.047-0.011-0.085-0.041-0.122-0.129-0.163-0.256-0.328-0.383-0.492l-0.028-0.034zM15.841 7.294c-0.232 0.056-0.465 0.109-0.703 0.172 0.025 0.045 0.677 0.924 0.715 0.966l0.024 0.013 0.003-0.054 0-0.37c0-0.215 0.001-0.43 0-0.645 0-0.026 0.007-0.054-0.011-0.081l-0.028-0.002z"></path>
</svg>
