<!-- Generated by IcoMoon.io -->
<svg version="1.1" xmlns="http://www.w3.org/2000/svg" viewBox="0 0 16 16">
<title>less-plain-wordmark</title>
<path d="M15.288 7.329c-0.075-0.162-0.111-0.354-0.119-0.535-0.019-0.445-0.003-0.892-0.023-1.337-0.018-0.399-0.16-0.758-0.543-0.963-0.337-0.181-0.728-0.199-1.103-0.203v0.711c0.125 0.004 0.094 0.008 0.125 0.010 0.504 0.025 0.672 0.184 0.679 0.684 0.005 0.372 0.002 0.743 0.008 1.115 0.007 0.451 0.075 0.881 0.487 1.165 0.007 0.005 0.006 0.023 0.010 0.043-0.21 0.149-0.376 0.341-0.424 0.603-0.039 0.212-0.061 0.429-0.068 0.644-0.012 0.39 0 0.78-0.011 1.17-0.009 0.305-0.153 0.448-0.45 0.517-0.112 0.026-0.23 0.035-0.355 0.051v0.71c0.25-0.015 0.377-0.025 0.548-0.043 0.645-0.070 1.007-0.405 1.082-1.030 0.023-0.196 0.021-0.396 0.025-0.594 0.008-0.371 0.004-0.744 0.037-1.113 0.034-0.376 0.308-0.584 0.683-0.564v-0.744c-0.25 0.045-0.48-0.063-0.587-0.296zM3.539 8.846c-0-1.444-0.039-2.887-0.039-4.331v-0.227c-0.375 0-0.778-0.004-1.174 0.002-0.161 0.002-0.302 0.016-0.462 0.038-0.61 0.083-0.903 0.369-1.012 0.976-0.031 0.175-0.025 0.357-0.028 0.537-0.005 0.341 0.005 0.682-0.001 1.022-0.007 0.429-0.209 0.761-0.646 0.787-0.016 0.001 0.072 0.019-0.053 0.029v0.663c0.5 0.079 0.659 0.28 0.692 0.745 0.005 0.074 0.007 0.149 0.007 0.223 0.004 0.415-0 0.831 0.018 1.245 0.018 0.387 0.104 0.732 0.469 0.935 0.341 0.19 0.813 0.205 1.063 0.215v-0.708c0-0.006-0.026-0.011-0.051-0.013-0.542-0.033-0.665-0.18-0.668-0.723-0.002-0.359 0.013-0.719 0.008-1.078-0.007-0.451-0.073-0.88-0.482-1.165-0.006-0.004-0-0.023-0.002-0.048 0.275-0.174 0.421-0.439 0.461-0.762 0.022-0.178 0.029-0.358 0.032-0.537 0.006-0.372-0-0.744 0.010-1.115 0.007-0.261 0.174-0.451 0.386-0.494 0.201-0.041 0.306-0.039 0.681-0.058v0.257c0 1.289-0.046 2.577-0.039 3.866 0.002 0.441 0.051 0.877 0.524 1.067 0.257 0.104 0.533 0.136 0.828 0.205 0.049-0.289 0.066-0.529 0.106-0.766-0.545-0.156-0.63-0.237-0.63-0.786zM6.873 6.359c-0.918-0.439-2.031-0.055-2.458 0.865-0.322 0.693-0.31 1.406-0.027 2.109 0.154 0.381 0.431 0.666 0.809 0.834 0.738 0.328 1.485 0.248 2.229 0.018 0.040-0.012 0.091-0.090 0.087-0.131-0.025-0.208-0.067-0.413-0.105-0.628-0.177 0.045-0.325 0.090-0.476 0.119-0.4 0.075-0.8 0.075-1.189-0.080-0.384-0.152-0.642-0.591-0.578-0.966h2.609c0.032-0.375 0.019-0.891-0.14-1.317-0.143-0.381-0.388-0.646-0.76-0.824zM6.868 7.875h-1.715c0.001-0.5 0.408-0.949 0.942-0.939 0.469 0.009 0.794 0.439 0.772 0.939zM13.882 9.41c0.062-0.632-0.129-0.987-0.692-1.262-0.2-0.097-0.411-0.17-0.614-0.26-0.152-0.067-0.305-0.136-0.447-0.221-0.139-0.083-0.197-0.221-0.176-0.383 0.020-0.16 0.123-0.265 0.271-0.295 0.18-0.037 0.368-0.068 0.549-0.053 0.255 0.021 0.507 0.086 0.77 0.134l0.166-0.727c-0.356-0.054-0.689-0.124-1.024-0.151-0.373-0.029-0.737 0.033-1.079 0.209-0.722 0.372-0.735 1.514-0.072 1.889 0.198 0.112 0.41 0.2 0.617 0.297 0.217 0.103 0.442 0.193 0.65 0.313 0.158 0.091 0.214 0.249 0.172 0.434-0.039 0.172-0.169 0.248-0.322 0.263-0.232 0.022-0.471 0.043-0.701 0.016-0.277-0.033-0.548-0.117-0.832-0.181l-0.145 0.724c0.667 0.25 1.326 0.291 1.992 0.144 0.557-0.123 0.875-0.45 0.918-0.891zM10.33 8.228c-0.245-0.13-0.508-0.225-0.761-0.34-0.157-0.072-0.323-0.134-0.461-0.234-0.266-0.192-0.216-0.559 0.093-0.657 0.178-0.056 0.379-0.074 0.565-0.060 0.254 0.019 0.505 0.085 0.77 0.133l0.157-0.693c-0.135-0.037-0.257-0.077-0.381-0.103-0.496-0.104-0.995-0.145-1.484 0.027-0.42 0.148-0.711 0.424-0.769 0.889-0.064 0.519 0.108 0.929 0.587 1.175 0.192 0.099 0.398 0.17 0.593 0.262s0.395 0.178 0.577 0.293c0.139 0.088 0.194 0.236 0.155 0.407-0.039 0.17-0.163 0.255-0.317 0.271-0.232 0.024-0.471 0.046-0.701 0.019-0.278-0.033-0.55-0.117-0.839-0.182-0.043 0.202-0.093 0.405-0.124 0.611-0.007 0.045 0.043 0.131 0.085 0.145 0.673 0.233 1.358 0.267 2.043 0.065 0.409-0.12 0.695-0.381 0.752-0.828 0.065-0.507-0.056-0.943-0.54-1.2z"></path>
</svg>
