<!-- Generated by IcoMoon.io -->
<svg version="1.1" xmlns="http://www.w3.org/2000/svg" viewBox="0 0 16 16">
<title>linux</title>
<path d="M14.228 13.074c-0.224-0.185-0.454-0.365-0.664-0.566-0.234-0.223-0.381-0.493-0.349-0.835 0.018-0.197-0.027-0.366-0.264-0.431 0.056-0.144 0.108-0.241 0.129-0.344 0.024-0.115 0.022-0.236 0.025-0.354 0.033-1.245-0.417-2.336-1.083-3.354-0.307-0.468-0.627-0.929-0.954-1.383-0.511-0.711-0.695-1.51-0.704-2.373-0.005-0.396-0.051-0.797-0.135-1.184-0.164-0.755-0.569-1.345-1.302-1.662-0.562-0.243-1.144-0.291-1.738-0.136-0.863 0.226-1.384 0.867-1.375 1.761 0.009 0.861 0.052 1.722 0.115 2.581 0.036 0.487-0.039 0.907-0.362 1.293-0.311 0.371-0.588 0.771-0.857 1.175-0.154 0.231-0.29 0.482-0.385 0.741-0.259 0.708-0.497 1.422-0.909 2.063-0.153 0.238-0.17 0.503-0.062 0.775 0.028 0.070 0.045 0.179 0.011 0.235-0.294 0.488-0.626 0.918-1.258 1.012-0.497 0.074-0.522 0.164-0.506 0.677 0.012 0.417 0.008 0.838-0.035 1.253-0.045 0.444 0.001 0.565 0.43 0.672 0.99 0.246 1.989 0.456 2.937 0.857 0.403 0.171 0.808 0.111 1.133-0.22 0.339-0.346 0.768-0.482 1.231-0.482 0.786-0.001 1.572 0.037 2.357 0.046 0.213 0.002 0.335 0.082 0.421 0.275 0.105 0.237 0.283 0.411 0.556 0.441 0.524 0.058 1.002-0.020 1.399-0.42 0.49-0.493 1.055-0.883 1.702-1.153 0.185-0.077 0.36-0.199 0.513-0.331 0.279-0.24 0.264-0.393-0.017-0.625zM7.803 3.015c0.095-0.325 0.317-0.536 0.655-0.6 0.284-0.054 0.525 0.086 0.705 0.406 0.193 0.345 0.257 0.705 0.092 1.082-0.135 0.309-0.199 0.338-0.515 0.234-0.059-0.020-0.117-0.043-0.222-0.082 0.088-0.074 0.144-0.129 0.208-0.173 0.142-0.096 0.181-0.232 0.168-0.393-0.017-0.212-0.184-0.399-0.355-0.397-0.153 0.002-0.283 0.146-0.3 0.364-0.011 0.136 0.012 0.275 0.022 0.449-0.431-0.128-0.589-0.441-0.458-0.89zM6.21 2.734c0.159-0.241 0.4-0.289 0.638-0.128 0.254 0.172 0.443 0.657 0.345 0.947-0.036 0.106-0.141 0.188-0.215 0.28l-0.075-0.047c-0.029-0.157-0.035-0.323-0.095-0.467-0.038-0.091-0.157-0.148-0.24-0.22-0.078 0.092-0.212 0.18-0.22 0.279-0.011 0.135 0.060 0.285 0.121 0.416 0.039 0.083 0.125 0.143 0.214 0.24l-0.24 0.189c-0.377-0.337-0.489-1.103-0.234-1.489zM10.918 10.759c-0.025 0.325-0.063 0.339-0.39 0.387-0.232 0.034-0.295 0.095-0.307 0.37-0.014 0.323-0.013 0.646-0.002 0.969 0.008 0.221-0.067 0.395-0.219 0.549-0.845 0.857-1.856 1.263-3.064 1.116-0.521-0.064-0.862-0.381-1.137-0.83 0.122-0.045 0.213-0.076 0.301-0.112 0.39-0.159 0.463-0.494 0.152-0.785-0.236-0.22-0.498-0.41-0.751-0.611-0.244-0.194-0.492-0.385-0.736-0.579-0.208-0.165-0.288-0.379-0.293-0.649-0.012-0.648 0.122-1.254 0.392-1.843 0.242-0.526 0.429-1.077 0.655-1.611 0.117-0.275 0.238-0.557 0.41-0.798 0.165-0.232 0.267-0.459 0.248-0.742-0.011-0.16-0.002-0.32-0.002-0.48l0.088-0.044c0.143 0.123 0.288 0.244 0.428 0.37 0.506 0.456 0.987 0.477 1.54 0.084 0.236-0.168 0.491-0.309 0.741-0.457 0.062-0.037 0.136-0.053 0.242-0.092 0.269 0.633 0.533 1.254 0.797 1.875 0.134 0.316 0.242 0.646 0.408 0.943 0.334 0.597 0.511 1.227 0.509 1.909-0.002 0.354 0.017 0.709-0.010 1.060z"></path>
</svg>
