<?xml version="1.0" encoding="UTF-8"?>
<svg viewBox="0 0 16 16" version="1.1" xmlns="http://www.w3.org/2000/svg" xmlns:xlink="http://www.w3.org/1999/xlink">
    <!-- medicine bottles by ProSymbols from the Noun Project -->
    <title>medicine</title>
    <desc>medicine bottles by ProSymbols from the Noun Project</desc>
    <defs></defs>
    <g id="Page-1" stroke="none" stroke-width="1" fill="none" fill-rule="evenodd">
        <g id="noun_529766_cc" fill-rule="nonzero" fill="#000000">
            <g id="Group">
                <polygon id="Shape" points="2.83779528 11.096063 2.32125984 11.096063 2.32125984 11.8708661 1.5496063 11.8708661 1.5496063 12.3874016 2.32125984 12.3874016 2.32125984 13.1622047 2.83779528 13.1622047 2.83779528 12.3874016 3.61259843 12.3874016 3.61259843 11.8708661 2.83779528 11.8708661"></polygon>
                <path d="M15.1496063,4.46299213 C14.6173228,3.93070866 13.911811,3.63149606 13.1622047,3.61574803 L13.1622047,2.57952756 L13.6787402,2.57952756 C14.1070866,2.57952756 14.4535433,2.23307087 14.4535433,1.80472441 L14.4535433,0.77480315 C14.4535433,0.346456693 14.1070866,0 13.6787402,0 L8,0 C7.57165354,0 7.22519685,0.346456693 7.22519685,0.77480315 L7.22519685,1.80787402 C7.22519685,2.23622047 7.57165354,2.58267717 8,2.58267717 L8.51653543,2.58267717 L8.51653543,3.61889764 C7.76377953,3.63464567 7.06141732,3.93385827 6.52913386,4.46614173 C6.32440945,4.67086614 6.1511811,4.90708661 6.01574803,5.16535433 L1.5496063,5.16535433 C1.12125984,5.16535433 0.77480315,5.51181102 0.77480315,5.94015748 L0.77480315,6.97322835 C0.77480315,7.4015748 1.12125984,7.7480315 1.5496063,7.7480315 L1.5496063,8.26456693 L1.29133858,8.26456693 C0.579527559,8.26456693 0,8.84409449 0,9.55590551 L0,14.7086614 C0,15.4204724 0.579527559,16 1.29133858,16 L16,16 L16,6.51338583 C16,5.73858268 15.6976378,5.01102362 15.1496063,4.46299213 Z M8,2.06299213 C7.85826772,2.06299213 7.74173228,1.94645669 7.74173228,1.80472441 L7.74173228,0.77480315 C7.74173228,0.633070866 7.85826772,0.516535433 8,0.516535433 L13.6787402,0.516535433 C13.8204724,0.516535433 13.9370079,0.633070866 13.9370079,0.77480315 L13.9370079,1.80787402 C13.9370079,1.9496063 13.8204724,2.06614173 13.6787402,2.06614173 L8,2.06614173 L8,2.06299213 Z M12.6456693,2.57952756 L12.6456693,3.61259843 L9.03307087,3.61259843 L9.03307087,2.57952756 L12.6456693,2.57952756 Z M1.29133858,6.96692913 L1.29133858,5.93385827 C1.29133858,5.79212598 1.40787402,5.67559055 1.5496063,5.67559055 L6.70866142,5.67559055 C6.8503937,5.67559055 6.96692913,5.79212598 6.96692913,5.93385827 L6.96692913,6.96692913 C6.96692913,7.10866142 6.8503937,7.22519685 6.70866142,7.22519685 L1.5496063,7.22519685 C1.40472441,7.22519685 1.29133858,7.10866142 1.29133858,6.96692913 Z M2.06299213,7.74173228 L6.19212598,7.74173228 L6.19212598,8.25826772 L2.06299213,8.25826772 L2.06299213,7.74173228 Z M0.516535433,10.5795276 L4.64566929,10.5795276 L4.64566929,13.6755906 L0.516535433,13.6755906 L0.516535433,10.5795276 Z M1.29133858,15.4834646 C0.862992126,15.4834646 0.516535433,15.1370079 0.516535433,14.7086614 L0.516535433,14.192126 L5.16220472,14.192126 L5.16220472,10.0629921 L0.516535433,10.0629921 L0.516535433,9.54645669 C0.516535433,9.11811024 0.862992126,8.77165354 1.29133858,8.77165354 L6.97007874,8.77165354 C7.3984252,8.77165354 7.74488189,9.11811024 7.74488189,9.54645669 L7.74488189,14.7086614 C7.74488189,15.1370079 7.3984252,15.4834646 6.97007874,15.4834646 L1.29133858,15.4834646 Z M7.99370079,15.4834646 C8.15748031,15.2661417 8.25826772,15.0015748 8.25826772,14.7086614 L8.25826772,9.5496063 C8.25826772,8.83779528 7.67874016,8.25826772 6.96692913,8.25826772 L6.70866142,8.25826772 L6.70866142,7.74173228 C7.13700787,7.74173228 7.48346457,7.39527559 7.48346457,6.96692913 L7.48346457,5.93385827 C7.48346457,5.50551181 7.13700787,5.15905512 6.70866142,5.15905512 L6.61417323,5.15905512 C7.18740157,4.38740157 7.94015748,4.12598425 8.57952756,4.12598425 L13.0992126,4.12598425 C13.7354331,4.12598425 14.3338583,4.37480315 14.7874016,4.82519685 C15.2409449,5.27559055 15.4866142,5.87401575 15.4866142,6.51338583 L15.4866142,6.96692913 L10.8377953,6.96692913 L10.8377953,13.6755906 L15.4834646,13.6755906 L15.4834646,15.4834646 L7.99370079,15.4834646 Z M15.4834646,7.48346457 L15.4834646,13.1622047 L11.3543307,13.1622047 L11.3543307,7.48346457 L15.4834646,7.48346457 Z" id="Shape"></path>
                <rect id="Rectangle-path" x="12.1291339" y="8.51653543" width="2.57952756" height="1"></rect>
                <rect id="Rectangle-path" x="12.1291339" y="10.0629921" width="2.57952756" height="1"></rect>
                <rect id="Rectangle-path" x="13.1622047" y="11.6125984" width="1" height="1"></rect>
                <rect id="Rectangle-path" x="14.192126" y="11.6125984" width="1" height="1"></rect>
                <rect id="Rectangle-path" x="12.1291339" y="11.6125984" width="1" height="1"></rect>
            </g>
        </g>
    </g>
</svg>
