<!-- Generated by IcoMoon.io -->
<svg version="1.1" xmlns="http://www.w3.org/2000/svg" viewBox="0 0 16 16">
<title>meteor</title>
<path d="M15.037 8.175c0.15 0 0.262-0.113 0.262-0.263 0-0.063-0.025-0.125-0.063-0.162-0.012-0.025-3.5-3.225-3.5-3.225l3.075 3.513c0.037 0.088 0.125 0.137 0.225 0.137zM15.75 9.963l-0.025-0.025-7.6-6.938 6.988 7.6c0.075 0.075 0.188 0.125 0.313 0.125 0.25 0 0.45-0.2 0.45-0.45 0-0.113-0.050-0.225-0.125-0.313zM12.387 14.662l-11-10.188 10.137 11.063c0.113 0.125 0.275 0.213 0.463 0.213 0.338 0 0.613-0.275 0.613-0.613 0-0.188-0.075-0.363-0.213-0.475zM0.125 0.25l13.463 14.338c0.113 0.113 0.262 0.175 0.425 0.175 0.338 0 0.613-0.275 0.613-0.613 0-0.125-0.037-0.25-0.113-0.35-0.037-0.063-14.387-13.55-14.387-13.55zM15.425 11.85l-11-10.188 10.137 11.063c0.113 0.125 0.275 0.213 0.463 0.213 0.338 0 0.613-0.275 0.613-0.613 0-0.2-0.088-0.363-0.213-0.475zM10.113 14.95l-0.025-0.025-7.6-6.938 6.988 7.6c0.075 0.075 0.188 0.125 0.313 0.125 0.25 0 0.45-0.2 0.45-0.45 0-0.125-0.050-0.225-0.125-0.313zM4.263 11.463l3.075 3.513c0.050 0.075 0.125 0.137 0.225 0.137 0.15 0 0.263-0.113 0.263-0.262 0-0.063-0.025-0.125-0.063-0.162-0.025-0.012-3.5-3.225-3.5-3.225z"></path>
</svg>
