<!-- Generated by IcoMoon.io -->
<svg version="1.1" xmlns="http://www.w3.org/2000/svg" width="14" height="16" viewBox="0 0 14 16">
<title>mocha</title>
<path d="M11.62 7.44l-0.291 0.686h0.584l-0.292-0.686zM6.699 6.481h0.506c0.026-0.003 0.050-0.014 0.069-0.031 0.294-0.349 0.335-1.033 0.335-1.274 0-0 0-0 0-0 0-0.048-0.038-0.087-0.086-0.089h-1.14c-0.048 0-0.086 0.039-0.086 0.086 0.009 0.241 0.043 0.932 0.335 1.276 0.015 0.019 0.038 0.030 0.064 0.030 0.001 0 0.001-0 0.002-0zM7.257 5.827c0.213-0.077 0.213-0.154 0.213-0.154-0.026 0.252-0.117 0.478-0.256 0.667-0.009 0.008-0.025 0.016-0.043 0.016-0.002 0-0.004-0-0.006-0l-0.423 0c-0.018 0-0.043 0-0.052-0.019-0.101-0.135-0.176-0.295-0.214-0.469s0.497 0.063 0.781-0.040zM13.726 3.688l-6.196-3.573c-0.124-0.073-0.273-0.116-0.432-0.116s-0.308 0.043-0.436 0.118l-6.206 3.571c-0.266 0.147-0.445 0.421-0.456 0.738l-0 7.147c0.013 0.317 0.191 0.589 0.449 0.736l6.2 3.575c0.124 0.073 0.273 0.116 0.432 0.116s0.308-0.043 0.436-0.118l6.206-3.569c0.261-0.151 0.439-0.422 0.456-0.736l0-7.149c-0.013-0.317-0.19-0.59-0.449-0.737zM13.167 11.075c-0.001 0.27-0.149 0.506-0.369 0.631l-5.346 3.087c-0.105 0.065-0.233 0.103-0.37 0.103s-0.264-0.038-0.373-0.105l-5.333-3.081c-0.219-0.125-0.363-0.356-0.363-0.621 0-0.004 0-0.008 0-0.012l-0-6.169c-0-0.002-0-0.004-0-0.006 0-0.267 0.145-0.5 0.36-0.625l5.337-3.088c0.105-0.065 0.232-0.103 0.368-0.103s0.263 0.038 0.371 0.105l5.341 3.081c0.223 0.125 0.371 0.36 0.371 0.63 0 0.001 0 0.002 0 0.003zM5.677 7.916c0 0.338-0.274 0.613-0.613 0.613s-0.613-0.274-0.613-0.613c0-0.338 0.274-0.613 0.613-0.613s0.613 0.274 0.613 0.613zM12.668 4.496l-5.344-3.079c-0.069-0.042-0.152-0.067-0.241-0.068-0.091 0.002-0.176 0.027-0.248 0.070l-5.331 3.078c-0.143 0.088-0.237 0.243-0.237 0.42 0 0 0 0.001 0 0.002v6.165c0 0 0 0.001 0 0.001 0 0.177 0.094 0.332 0.235 0.418l5.336 3.081c0.068 0.043 0.151 0.068 0.239 0.068 0.089-0.001 0.172-0.027 0.243-0.070l5.344-3.082c0.147-0.085 0.245-0.239 0.251-0.417l0-6.166c-0.003-0.179-0.1-0.335-0.243-0.42zM7.47 8.53c0.185-0 0.35-0.083 0.461-0.213l0.193 0.189c-0.041 0.046-0.086 0.088-0.134 0.125-0.047 0.038-0.098 0.069-0.152 0.095-0.057 0.029-0.117 0.050-0.181 0.061-0.063 0.012-0.13 0.019-0.2 0.019-0.013 0-0.025-0-0.038-0.001-0.002 0-0.006 0-0.010 0-0.237 0-0.451-0.097-0.606-0.253-0.072-0.079-0.129-0.174-0.163-0.278-0.037-0.1-0.058-0.209-0.058-0.323 0-0.010 0-0.019 0-0.029l-0-0.007c-0-0.011-0.001-0.023-0.001-0.036 0-0.11 0.020-0.216 0.056-0.313 0.041-0.103 0.099-0.197 0.171-0.278 0.076-0.079 0.17-0.143 0.275-0.186 0.11-0.045 0.232-0.070 0.36-0.070 0.001 0 0.003 0 0.004 0 0.077 0.001 0.151 0.008 0.223 0.019 0.059 0.017 0.111 0.033 0.171 0.051 0.056 0.026 0.103 0.054 0.148 0.088 0.044 0.035 0.086 0.071 0.125 0.11l-0.198 0.206c-0.112-0.121-0.272-0.196-0.449-0.196-0.338 0-0.611 0.274-0.611 0.611s0.274 0.611 0.611 0.611c0.001 0 0.001 0 0.002 0zM7.111 3.766c-0.043 0.059 0.009 0.206 0.12 0.38 0.037 0.055 0.059 0.123 0.059 0.196 0 0.132-0.071 0.247-0.177 0.309-0.002-0-0.002-0.002-0.002-0.003 0-0.109-0.036-0.209-0.096-0.29-0.204-0.31-0.016-0.456 0.096-0.592zM6.768 4.084c-0.034 0.034 0 0.138 0.077 0.253 0.026 0.038 0.041 0.085 0.041 0.135 0 0.088-0.047 0.165-0.117 0.207-0.001 0-0.001-0-0.001-0.001 0-0.072-0.022-0.138-0.059-0.194-0.138-0.213-0.018-0.308 0.059-0.401zM6.14 4.835h1.615c0.002-0 0.003-0 0.005-0 0.044 0 0.080 0.036 0.081 0.080 0 0.3-0.043 1.313-0.473 1.79-0.014 0.017-0.036 0.028-0.059 0.029h-0.726c-0.024-0.002-0.045-0.015-0.059-0.033-0.427-0.489-0.469-1.487-0.469-1.783 0 0 0 0 0-0 0-0.046 0.037-0.084 0.084-0.084 0 0 0.001 0 0.001 0zM1.646 6.101h4.349s0.009 0 0.009 0.127h-4.358zM5.95 7.914v0.009c0 0.004 0 0.010 0 0.015 0 0.118-0.022 0.231-0.062 0.335-0.042 0.104-0.105 0.198-0.183 0.277s-0.171 0.144-0.276 0.187c-0.103 0.045-0.218 0.071-0.338 0.071-0.009 0-0.019-0-0.028-0-0.128-0-0.252-0.025-0.365-0.071-0.104-0.042-0.199-0.106-0.277-0.186-0.077-0.079-0.138-0.173-0.177-0.278-0.043-0.106-0.068-0.222-0.068-0.345 0-0.001 0-0.003 0-0.004v-0.009c0.001-0.124 0.025-0.242 0.069-0.349 0.043-0.104 0.106-0.198 0.184-0.277s0.172-0.144 0.277-0.187c0.104-0.045 0.218-0.071 0.339-0.071 0.010 0 0.019 0 0.029 0 0.129 0 0.253 0.025 0.366 0.071 0.104 0.042 0.199 0.106 0.277 0.186 0.074 0.079 0.133 0.173 0.169 0.278 0.040 0.102 0.063 0.214 0.063 0.332 0 0.006-0 0.012-0 0.018zM2.671 8.38h-0.013l-0.506-0.818v1.198h-0.38v-1.646h0.38l0.524 0.808 0.518-0.808h0.351v1.646h-0.38v-1.207zM12.534 9.393h-10.888v-0.127h10.888zM9.875 7.747v-0.633h0.253v1.646h-0.253v-0.76h-0.886v0.76h-0.253v-1.646h0.253v0.633zM10.727 8.76l0.76-1.646h0.275l0.76 1.646h-0.318l-0.176-0.38h-0.81l-0.18 0.38zM12.534 6.228h-4.632c0-0.127 0.009-0.127 0.009-0.127h4.624z"></path>
</svg>
