<!-- Generated by IcoMoon.io -->
<svg version="1.1" xmlns="http://www.w3.org/2000/svg" viewBox="0 0 16 16">
<title>mongodb</title>
<path d="M10.35 4.279c-0.325-1.014-0.848-1.91-1.583-2.682-0.186-0.195-0.393-0.374-0.523-0.617-0.082-0.154-0.16-0.31-0.24-0.464l-0.051-0.128-0.014 0.050c-0.007 0.252-0.15 0.424-0.328 0.583-0.2 0.18-0.387 0.375-0.58 0.564l-0.592 0.779-0.479 0.88-0.32 0.864-0.010 0.013c-0.176 0.579-0.263 1.174-0.306 1.774-0.016 0.226 0.002 0.455 0.015 0.682 0.018 0.325 0.074 0.643 0.159 0.957 0.307 1.141 0.931 2.087 1.783 2.891 0.158 0.149 0.329 0.285 0.495 0.427l0.073 0.251 0.068 0.389 0.032 0.407c-0 0.082-0.004 0.165 0.001 0.248 0.001 0.021 0.029 0.041 0.044 0.061l0.138 0.049 0.144 0.056-0.025-0.361-0.001-0.356 0.050-0.542 0.036-0.118 0.103-0.183c0.127-0.102 0.264-0.195 0.38-0.309 0.21-0.206 0.419-0.415 0.607-0.64 0.243-0.293 0.453-0.612 0.621-0.954 0.112-0.229 0.218-0.463 0.306-0.702 0.077-0.211 0.125-0.433 0.186-0.65l0.016-0.047c0.126-0.586 0.147-1.178 0.101-1.774-0.037-0.48-0.15-0.944-0.307-1.397zM7.863 10.563c0.019-0.096 0.043-0.192 0.061-0.289-0.017 0.097-0.041 0.193-0.061 0.289zM8.29 10.63v0 0zM13.309 12.87c-0.103-0.198-0.255-0.348-0.455-0.447-0.168-0.082-0.348-0.119-0.534-0.124-0.139-0.004-0.278 0.003-0.418 0.005-0.124 0.002-0.247 0.004-0.371 0.002-0.145-0.002-0.291-0.006-0.436-0.010-0.024-0.001-0.041 0.004-0.053 0.029-0.018 0.038-0.039 0.075-0.060 0.117l0.024 0.008c0.072 0.013 0.145 0.024 0.216 0.038 0.092 0.018 0.134 0.071 0.138 0.149 0.006 0.111 0.009 0.222 0.008 0.333-0.002 0.439-0.005 0.879-0.008 1.318-0 0.029-0.001 0.059-0.009 0.086-0.009 0.031-0.019 0.072-0.043 0.088-0.041 0.027-0.091 0.045-0.139 0.053-0.070 0.011-0.082 0.015-0.104 0.084l-0.009 0.034c-0.011 0.038-0.005 0.045 0.034 0.045 0.225 0.002 0.45 0.007 0.675 0.007 0.205-0.001 0.411 0.012 0.615-0.027 0.193-0.036 0.374-0.1 0.539-0.208 0.214-0.14 0.367-0.327 0.449-0.572 0.066-0.197 0.080-0.399 0.058-0.605-0.015-0.142-0.053-0.277-0.119-0.403zM12.915 14.078c-0.12 0.224-0.3 0.374-0.557 0.413-0.161 0.025-0.322 0.018-0.475-0.043-0.097-0.039-0.133-0.122-0.136-0.222-0.003-0.097-0.004-0.194-0.004-0.291-0.001-0.342-0.001-0.684 0-1.025 0-0.108 0.002-0.216 0.004-0.323 0.001-0.076 0.017-0.101 0.091-0.107 0.325-0.027 0.634 0.008 0.891 0.236 0.159 0.141 0.249 0.321 0.287 0.528 0.016 0.086 0.020 0.175 0.030 0.262-0.008 0.2-0.035 0.394-0.13 0.572zM15.638 13.708c-0.064-0.156-0.185-0.253-0.338-0.316-0.052-0.021-0.106-0.039-0.162-0.060l0.020-0.012c0.061-0.039 0.128-0.070 0.18-0.118 0.127-0.116 0.18-0.263 0.155-0.437-0.024-0.165-0.106-0.287-0.253-0.366-0.134-0.071-0.278-0.097-0.427-0.097-0.258 0-0.517 0.004-0.775 0.005-0.089 0-0.178-0.007-0.267-0.008-0.017-0-0.043 0.004-0.050 0.016-0.020 0.031-0.034 0.067-0.048 0.102-0.008 0.020-0 0.031 0.023 0.034 0.062 0.008 0.124 0.019 0.186 0.028 0.086 0.013 0.128 0.058 0.133 0.144l0.001 0.051c0 0.269 0.001 0.539-0 0.808s-0.004 0.538-0.008 0.807c-0 0.034-0.005 0.068-0.010 0.101-0.007 0.051-0.034 0.086-0.086 0.097l-0.147 0.029c-0.017 0.004-0.043 0.003-0.050 0.014-0.027 0.040-0.049 0.085-0.046 0.138l0.015 0.004 0.494 0.012 0.099-0c0.171-0.002 0.342 0.001 0.513-0.007 0.185-0.009 0.358-0.064 0.519-0.159 0.171-0.101 0.302-0.233 0.349-0.433 0.030-0.127 0.030-0.255-0.021-0.379zM14.383 12.56c0.001-0.054 0.025-0.078 0.078-0.079 0.132-0.004 0.264-0.003 0.392 0.043 0.165 0.059 0.267 0.201 0.265 0.376-0.001 0.067 0 0.133-0.024 0.197-0.049 0.127-0.142 0.193-0.274 0.206-0.069 0.007-0.139 0.008-0.2 0.011l-0.205-0.009c-0.027-0.001-0.039-0.013-0.039-0.041l0.008-0.704zM15.234 14.247c-0.066 0.144-0.187 0.22-0.338 0.246-0.121 0.021-0.242 0.015-0.361-0.016-0.088-0.023-0.124-0.094-0.142-0.172-0.012-0.053-0.010-0.115-0.011-0.17-0.002-0.085-0-0.26-0-0.26h-0.002c0-0.125 0-0.233-0-0.353-0-0.026 0.004-0.039 0.036-0.038 0.112 0.003 0.225 0.005 0.337 0.010 0.1 0.004 0.194 0.034 0.283 0.081 0.134 0.072 0.216 0.184 0.238 0.336 0.017 0.116 0.010 0.229-0.039 0.336zM2.91 14.382l0.002-0.68c0-0.102-0.013-0.203-0.046-0.3-0.092-0.267-0.347-0.389-0.612-0.293-0.121 0.044-0.229 0.11-0.332 0.185-0.060 0.044-0.060 0.044-0.104-0.019-0.123-0.177-0.299-0.237-0.504-0.172-0.132 0.042-0.248 0.114-0.358 0.197-0.010 0.008-0.031 0.016-0.037 0.012-0.010-0.008-0.017-0.026-0.017-0.039l0.007-0.121c0.001-0.025-0.004-0.051-0.007-0.078-0.049 0.017-0.089 0.034-0.13 0.044-0.128 0.031-0.257 0.060-0.385 0.089-0.031 0.007-0.064 0.017-0.067 0.052s0.031 0.041 0.057 0.052c0.055 0.022 0.11 0.046 0.165 0.070 0.046 0.020 0.063 0.057 0.063 0.106-0.001 0.211 0 0.421-0.001 0.632-0 0.086-0.004 0.171-0.008 0.257-0.003 0.076-0.029 0.108-0.103 0.127-0.039 0.010-0.079 0.017-0.118 0.026-0.009 0.002-0.023 0.008-0.024 0.012-0.002 0.037-0.004 0.075 0.003 0.111 0.001 0.007 0.040 0.007 0.062 0.009l0.015-0.001c0.151-0.002 0.303-0.005 0.455-0.006 0.080-0.001 0.161-0 0.248-0l0.009-0.121c-0.050-0.009-0.095-0.016-0.139-0.026-0.069-0.015-0.098-0.051-0.1-0.121l-0.001-0.099c-0.001-0.257-0.002-0.514-0.002-0.771 0-0.037 0.015-0.067 0.048-0.089 0.070-0.047 0.143-0.084 0.224-0.105 0.171-0.044 0.32 0.017 0.386 0.163 0.021 0.046 0.037 0.097 0.042 0.147 0.024 0.258 0.014 0.516-0.001 0.774-0.003 0.056-0.029 0.084-0.084 0.097l-0.129 0.027c-0.010 0.003-0.026-0.004-0.026 0.004-0.003 0.036-0.001 0.090-0.001 0.090h0.031l0.393 0.013c0.108-0 0.215 0.013 0.323 0.015 0.019 0 0.036 0.003 0.038-0.019 0.002-0.035 0-0.068-0.001-0.104l-0.021-0.004-0.111-0.025c-0.075-0.018-0.1-0.046-0.101-0.121-0.001-0.186 0.002-0.372 0-0.558-0.001-0.106-0.005-0.213-0.012-0.319-0.002-0.028 0.002-0.047 0.025-0.063 0.066-0.047 0.138-0.084 0.217-0.104 0.242-0.064 0.44 0.069 0.452 0.318 0.012 0.241 0.007 0.482 0.005 0.723-0.001 0.084-0.028 0.109-0.111 0.132l-0.029 0.007c-0.085 0.020-0.084 0.020-0.079 0.11 0.002 0.028 0.009 0.035 0.039 0.035 0.172-0.004 0.345-0.005 0.517-0.006 0.071-0.001 0.141 0 0.218 0l0.016-0.117c-0.067-0.018-0.13-0.031-0.19-0.051-0.053-0.018-0.072-0.050-0.071-0.106zM8.846 13.352c0.071-0.066 0.072-0.153 0.052-0.249-0.056 0.059-0.119 0.086-0.191 0.091-0.096 0.007-0.191-0.002-0.281-0.040-0.243-0.104-0.482-0.097-0.72 0.018-0.2 0.096-0.324 0.246-0.336 0.473-0.008 0.145 0.019 0.283 0.116 0.399 0.058 0.069 0.133 0.114 0.217 0.145 0.036 0.013 0.039 0.031 0.009 0.054-0.022 0.017-0.046 0.033-0.070 0.047-0.051 0.032-0.102 0.063-0.153 0.094-0.030 0.018-0.040 0.041-0.030 0.077 0.029 0.105 0.103 0.165 0.196 0.209l0.034 0.024-0.030 0.030c-0.091 0.074-0.186 0.144-0.273 0.222-0.073 0.066-0.097 0.154-0.075 0.252 0.045 0.194 0.173 0.315 0.356 0.37 0.32 0.097 0.62 0.041 0.893-0.148 0.162-0.112 0.279-0.259 0.314-0.46 0.040-0.226-0.086-0.422-0.311-0.463-0.149-0.027-0.301-0.035-0.451-0.052-0.070-0.008-0.141-0.013-0.21-0.029-0.058-0.014-0.087-0.061-0.082-0.107s0.054-0.088 0.109-0.092c0.111-0.009 0.221-0.026 0.323-0.073 0.272-0.124 0.399-0.342 0.367-0.636-0.004-0.040-0.013-0.079-0.021-0.124 0.087 0.015 0.176 0.037 0.247-0.029zM8.020 14.729c0.111 0.003 0.237 0.010 0.358 0.046 0.107 0.031 0.195 0.086 0.221 0.206 0.031 0.145-0.038 0.288-0.178 0.366-0.131 0.072-0.273 0.078-0.418 0.063-0.123-0.013-0.235-0.056-0.324-0.147-0.117-0.12-0.118-0.286-0-0.406 0.105-0.107 0.161-0.129 0.34-0.127zM8.297 13.859c-0.065 0.206-0.252 0.235-0.399 0.169-0.125-0.056-0.18-0.167-0.209-0.293-0.011-0.049-0.014-0.099-0.020-0.149 0.003-0.071 0.014-0.139 0.045-0.203 0.094-0.197 0.325-0.185 0.452-0.096 0.055 0.038 0.093 0.090 0.117 0.152 0.053 0.138 0.058 0.279 0.014 0.42zM7.126 14.517c-0.044-0.007-0.089-0.016-0.132-0.030-0.076-0.023-0.085-0.037-0.086-0.118-0.002-0.224-0.004-0.448-0.006-0.672-0.001-0.101-0.013-0.2-0.044-0.296-0.081-0.254-0.33-0.39-0.579-0.315-0.138 0.042-0.256 0.119-0.367 0.21l-0.040 0.031 0-0.041c0.003-0.048 0.008-0.095 0.007-0.143-0-0.025-0.010-0.050-0.014-0.072-0.094 0.028-0.178 0.057-0.265 0.079s-0.175 0.037-0.262 0.054c-0.043 0.009-0.075 0.035-0.074 0.065 0.001 0.042 0.036 0.050 0.067 0.063 0.055 0.023 0.11 0.046 0.165 0.070 0.039 0.017 0.055 0.050 0.054 0.091-0.003 0.291-0.005 0.582-0.009 0.874-0.001 0.092-0.024 0.116-0.115 0.136l-0.040 0.008c-0.084 0.014-0.086 0.018-0.080 0.106l0 0.015c-0.001 0.034 0.014 0.045 0.049 0.045 0.223-0.003 0.445-0.004 0.668-0.003 0.095 0 0.106-0.007 0.104-0.105l-0.005-0.042c-0.054-0.009-0.107-0.016-0.158-0.027-0.053-0.012-0.072-0.034-0.077-0.088-0.005-0.050-0.006-0.1-0.007-0.15-0.003-0.229-0.005-0.458-0.006-0.687-0-0.058 0.010-0.111 0.063-0.148 0.080-0.056 0.168-0.089 0.266-0.095 0.199-0.014 0.349 0.104 0.36 0.302 0.013 0.244 0.009 0.489 0.012 0.734 0 0.018-0.003 0.037-0.005 0.055-0.005 0.036-0.022 0.063-0.059 0.072s-0.071 0.018-0.107 0.023c-0.054 0.008-0.055 0.008-0.059 0.062l0.001 0.037c0.006 0.063 0.006 0.061 0.071 0.061 0.215-0.002 0.43-0.003 0.646-0.003 0.090 0 0.096-0.004 0.097-0.097l-0-0.022c0.001-0.024-0.009-0.033-0.034-0.037zM10.133 13.101c-0.226-0.055-0.44-0.014-0.643 0.091-0.197 0.102-0.329 0.26-0.38 0.478-0.051 0.22-0.027 0.435 0.071 0.64 0.063 0.133 0.161 0.236 0.294 0.302 0.311 0.156 0.691 0.085 0.935-0.124 0.192-0.165 0.263-0.385 0.267-0.657-0.003-0.027-0.005-0.080-0.012-0.132-0.041-0.296-0.246-0.529-0.531-0.599zM10.303 14.245c-0.060 0.236-0.264 0.341-0.494 0.259-0.117-0.041-0.205-0.12-0.264-0.227-0.136-0.245-0.162-0.505-0.085-0.773 0.052-0.178 0.198-0.275 0.372-0.263 0.156 0.011 0.275 0.086 0.363 0.212 0.093 0.134 0.128 0.286 0.138 0.446 0.002 0.026 0 0.051 0 0.077l0.011 0.001c-0.014 0.089-0.020 0.18-0.042 0.267zM4.458 13.097c-0.237-0.054-0.46-0.001-0.666 0.12-0.178 0.104-0.293 0.26-0.337 0.463-0.041 0.19-0.025 0.377 0.043 0.559 0.041 0.111 0.103 0.209 0.194 0.285 0.192 0.16 0.416 0.201 0.655 0.156 0.202-0.038 0.38-0.128 0.508-0.296 0.121-0.157 0.167-0.337 0.171-0.533-0.007-0.062-0.009-0.125-0.022-0.185-0.065-0.301-0.242-0.5-0.547-0.57zM4.652 14.245c-0.058 0.235-0.265 0.342-0.493 0.261-0.147-0.052-0.242-0.159-0.303-0.297-0.097-0.221-0.116-0.451-0.054-0.684 0.048-0.178 0.193-0.31 0.414-0.278 0.136 0.019 0.242 0.089 0.321 0.199 0.107 0.149 0.142 0.319 0.147 0.498v0.037l0.009 0.001c-0.013 0.088-0.020 0.178-0.041 0.264z"></path>
</svg>
