<!-- Generated by IcoMoon.io -->
<svg version="1.1" xmlns="http://www.w3.org/2000/svg" viewBox="0 0 16 16">
<title>mysql</title>
<path d="M0.25 11.307h0.514v-2.028l0.795 1.768c0.094 0.214 0.222 0.29 0.474 0.29s0.375-0.076 0.469-0.29l0.795-1.768v2.028h0.514v-2.024c0-0.197-0.079-0.293-0.242-0.342-0.39-0.122-0.652-0.016-0.77 0.247l-0.78 1.745-0.755-1.745c-0.114-0.263-0.38-0.369-0.77-0.247-0.163 0.049-0.242 0.145-0.242 0.342v2.025zM4.237 9.656h0.513v1.117c-0.005 0.061 0.019 0.203 0.301 0.208 0.144 0.002 1.108 0 1.117 0v-1.33h0.515c0.002 0-0 1.814-0 1.822 0.003 0.447-0.555 0.545-0.812 0.552h-1.622v-0.345c0.003 0 1.62 0 1.624-0 0.331-0.035 0.292-0.199 0.291-0.254v-0.135h-1.091c-0.508-0.005-0.831-0.226-0.835-0.481-0-0.023 0.011-1.141-0-1.152zM7.079 11.307h1.477c0.173 0 0.341-0.036 0.474-0.099 0.222-0.102 0.331-0.24 0.331-0.421v-0.375c0-0.148-0.123-0.287-0.365-0.379-0.128-0.050-0.287-0.076-0.44-0.076h-0.622c-0.207 0-0.306-0.063-0.331-0.201-0.005-0.017-0.005-0.030-0.005-0.046v-0.234c0-0.013 0-0.026 0.005-0.043 0.025-0.105 0.079-0.135 0.262-0.152l0.049-0.003h1.467v-0.342h-1.442c-0.207 0-0.316 0.013-0.415 0.043-0.306 0.095-0.44 0.247-0.44 0.51v0.3c0 0.23 0.262 0.428 0.701 0.474 0.050 0.003 0.099 0.007 0.148 0.007h0.533c0.020 0 0.040 0 0.054 0.003 0.163 0.013 0.232 0.043 0.281 0.102 0.030 0.030 0.039 0.059 0.039 0.092v0.3c0 0.036-0.025 0.082-0.074 0.122-0.044 0.040-0.118 0.066-0.217 0.072l-0.054 0.003h-1.417v0.342zM12.564 10.711c0 0.352 0.262 0.55 0.79 0.589 0.049 0.003 0.099 0.007 0.148 0.007h1.338v-0.342h-1.348c-0.301 0-0.415-0.076-0.415-0.257v-1.771h-0.514v1.774zM9.688 10.729v-1.221c0-0.31 0.218-0.498 0.648-0.557 0.044-0.007 0.094-0.010 0.139-0.010h0.975c0.050 0 0.094 0.003 0.143 0.010 0.431 0.059 0.648 0.247 0.648 0.557v1.221c0 0.252-0.092 0.386-0.306 0.474l0.506 0.457h-0.596l-0.409-0.37-0.412 0.026h-0.549c-0.094 0-0.193-0.013-0.302-0.043-0.327-0.089-0.485-0.261-0.485-0.544zM10.242 10.7c0 0.017 0.005 0.033 0.010 0.053 0.030 0.142 0.163 0.221 0.366 0.221h0.466l-0.428-0.387h0.596l0.374 0.338c0.069-0.037 0.114-0.093 0.13-0.165 0.005-0.017 0.005-0.033 0.005-0.050v-1.171c0-0.013 0-0.030-0.005-0.046-0.030-0.132-0.163-0.208-0.361-0.208h-0.777c-0.227 0-0.376 0.099-0.376 0.254v1.161zM15.292 8.369c-0.316-0.009-0.557 0.021-0.763 0.108-0.059 0.025-0.152 0.025-0.162 0.099 0.032 0.034 0.037 0.084 0.063 0.126 0.049 0.080 0.132 0.186 0.207 0.242 0.081 0.061 0.164 0.127 0.251 0.18 0.154 0.094 0.327 0.148 0.476 0.242 0.088 0.056 0.175 0.126 0.26 0.189 0.042 0.031 0.071 0.079 0.126 0.099v-0.009c-0.029-0.037-0.036-0.087-0.063-0.126l-0.117-0.117c-0.114-0.152-0.259-0.284-0.413-0.395-0.123-0.088-0.398-0.207-0.449-0.35l-0.009-0.009c0.087-0.010 0.189-0.041 0.269-0.063 0.135-0.036 0.256-0.027 0.395-0.063l0.188-0.054v-0.036c-0.070-0.072-0.121-0.168-0.197-0.233-0.201-0.171-0.42-0.342-0.646-0.485-0.125-0.079-0.28-0.13-0.413-0.197-0.044-0.023-0.123-0.034-0.153-0.072-0.070-0.089-0.108-0.202-0.162-0.305-0.113-0.217-0.223-0.454-0.323-0.682-0.068-0.156-0.113-0.309-0.197-0.449-0.408-0.67-0.846-1.075-1.526-1.472-0.145-0.085-0.319-0.118-0.503-0.162l-0.296-0.018c-0.060-0.025-0.123-0.099-0.18-0.135-0.225-0.142-0.803-0.452-0.97-0.045-0.105 0.257 0.158 0.507 0.251 0.637 0.066 0.091 0.15 0.194 0.197 0.296 0.031 0.067 0.036 0.135 0.063 0.207 0.065 0.176 0.122 0.367 0.206 0.529 0.043 0.082 0.090 0.169 0.144 0.242 0.033 0.045 0.090 0.065 0.099 0.135-0.055 0.077-0.059 0.198-0.090 0.296-0.14 0.442-0.087 0.992 0.117 1.32 0.063 0.101 0.21 0.316 0.413 0.233 0.177-0.072 0.138-0.296 0.189-0.494 0.011-0.045 0.004-0.078 0.027-0.108v0.009l0.162 0.323c0.12 0.193 0.332 0.394 0.512 0.53 0.093 0.070 0.167 0.192 0.287 0.233v-0.009h-0.009c-0.024-0.036-0.060-0.051-0.090-0.081-0.070-0.069-0.148-0.154-0.206-0.233-0.164-0.222-0.308-0.465-0.44-0.718-0.063-0.121-0.117-0.254-0.171-0.377-0.021-0.047-0.020-0.119-0.063-0.144-0.058 0.090-0.144 0.163-0.189 0.269-0.072 0.17-0.081 0.377-0.108 0.592l-0.018 0.009c-0.125-0.030-0.169-0.159-0.216-0.269-0.117-0.279-0.139-0.729-0.036-1.050 0.027-0.083 0.148-0.345 0.099-0.422-0.023-0.077-0.101-0.121-0.143-0.18-0.053-0.072-0.107-0.168-0.144-0.251-0.096-0.218-0.141-0.462-0.242-0.682-0.049-0.105-0.13-0.212-0.197-0.305-0.074-0.104-0.158-0.18-0.216-0.305-0.021-0.045-0.048-0.116-0.018-0.162 0.010-0.031 0.024-0.044 0.054-0.054 0.052-0.040 0.197 0.013 0.251 0.036 0.144 0.060 0.264 0.117 0.386 0.197 0.059 0.039 0.118 0.114 0.188 0.135h0.081c0.126 0.029 0.268 0.009 0.386 0.045 0.209 0.064 0.396 0.162 0.566 0.269 0.517 0.327 0.94 0.792 1.23 1.346 0.046 0.089 0.067 0.175 0.108 0.269 0.083 0.191 0.187 0.388 0.269 0.575s0.162 0.375 0.278 0.53c0.061 0.082 0.297 0.125 0.404 0.17 0.075 0.032 0.198 0.065 0.269 0.108 0.136 0.082 0.268 0.18 0.395 0.269 0.064 0.045 0.259 0.144 0.269 0.225zM11.28 4.949c-0.066-0.001-0.112 0.007-0.162 0.018v0.009h0.009c0.031 0.065 0.087 0.106 0.126 0.162l0.090 0.189 0.009-0.009c0.056-0.039 0.081-0.102 0.081-0.197-0.022-0.024-0.026-0.053-0.045-0.081-0.025-0.037-0.075-0.059-0.108-0.090z"></path>
</svg>
