<!-- Generated by IcoMoon.io -->
<svg version="1.1" xmlns="http://www.w3.org/2000/svg" viewBox="0 0 16 16">
<title>nginx</title>
<path d="M3.063 6.313c-0.188 0-0.313 0.15-0.313 0.338v1.762l-1.988-2c-0.1-0.1-0.275-0.125-0.4-0.075s-0.237 0.175-0.237 0.313v2.587c0 0.188 0.188 0.338 0.375 0.338s0.375-0.15 0.375-0.338v-1.763l2.013 2c0.063 0.063 0.15 0.1 0.237 0.1 0.038 0 0.050-0.012 0.087-0.025 0.125-0.050 0.163-0.175 0.163-0.313v-2.575c0-0.188-0.125-0.35-0.313-0.35zM5.525 7.787c-0.175 0-0.338 0.175-0.338 0.35s0.162 0.35 0.338 0.35l0.825 0.050-0.188 0.463h-1.063l-0.525-0.988 0.537-1.013h1.138l0.263 0.5h0.688l-0.45-0.987-0.1-0.138h-1.95l-0.088 0.15-0.737 1.288-0.087 0.162 0.087 0.162 0.725 1.287 0.1 0.2h1.888l0.088-0.213 0.537-1.125 0.237-0.537h-0.55l-1.375 0.037zM8.125 6.313c-0.175 0-0.375 0.162-0.375 0.338v0.85h0.75v-0.838c0-0.188-0.2-0.35-0.375-0.35zM11.925 6.35c-0.125-0.050-0.3-0.025-0.387 0.075l-2.037 2v-1.763c0-0.188-0.125-0.338-0.313-0.338s-0.313 0.15-0.313 0.338v2.587c0 0.137 0.088 0.262 0.213 0.313 0.037 0.012 0.088 0.025 0.125 0.025 0.088 0 0.2-0.037 0.262-0.1l2.025-2v1.762c0 0.188 0.125 0.338 0.313 0.338s0.313-0.15 0.313-0.338v-2.588c0-0.138-0.075-0.263-0.2-0.313zM14.65 7.95l1.050-1.050c0.137-0.138 0.137-0.35 0-0.475-0.137-0.138-0.35-0.138-0.475 0l-1.050 1.050-1.050-1.050c-0.137-0.138-0.35-0.138-0.475 0-0.137 0.138-0.137 0.35 0 0.475l1.050 1.050-1.050 1.050c-0.137 0.137-0.137 0.35 0 0.475 0.063 0.063 0.15 0.1 0.238 0.1s0.175-0.037 0.238-0.1l1.050-1.050 1.050 1.050c0.063 0.063 0.15 0.1 0.238 0.1s0.175-0.037 0.238-0.1c0.137-0.137 0.137-0.35 0-0.475l-1.050-1.050zM7.75 9.238c0 0.175 0.188 0.338 0.375 0.338 0.175 0 0.375-0.162 0.375-0.338v-1.487h-0.75v1.487z"></path>
</svg>
