<!-- Generated by IcoMoon.io -->
<svg version="1.1" xmlns="http://www.w3.org/2000/svg" viewBox="0 0 16 16">
<title>nodejs</title>
<path d="M14.085 3.792l-5.518-3.201c-0.348-0.198-0.803-0.198-1.153 0l-5.561 3.201c-0.359 0.206-0.603 0.594-0.603 1.009v6.393c0 0.415 0.249 0.803 0.608 1.010l1.466 0.836c0.703 0.347 0.898 0.347 1.218 0.347 1.042 0 1.583-0.63 1.583-1.729v-6.311c0-0.089 0.056-0.222-0.032-0.222h-0.703c-0.089 0-0.265 0.133-0.265 0.222v6.311c0 0.487-0.452 0.972-1.275 0.56l-1.515-0.877c-0.053-0.029-0.084-0.087-0.084-0.148v-6.393c0-0.060 0.058-0.121 0.111-0.152l5.547-3.195c0.052-0.029 0.125-0.029 0.177 0l5.495 3.194c0.053 0.032 0.044 0.090 0.044 0.152v6.393c0 0.061 0.011 0.12-0.040 0.15l-5.517 3.197c-0.047 0.028-0.109 0.028-0.161 0l-1.415-0.844c-0.043-0.025-0.094-0.034-0.135-0.011-0.393 0.223-0.466 0.252-0.835 0.38-0.091 0.032-0.225 0.086 0.051 0.241l1.85 1.094c0.177 0.102 0.378 0.156 0.581 0.156 0.205 0 0.406-0.053 0.583-0.156l5.497-3.198c0.359-0.209 0.54-0.595 0.54-1.010v-6.393c-0-0.415-0.181-0.802-0.54-1.009zM9.716 10.181c-1.466 0-1.789-0.404-1.896-1.133-0.013-0.079-0.079-0.172-0.159-0.172h-0.716c-0.089 0-0.16 0.107-0.16 0.196 0 0.933 0.508 2.064 2.932 2.064 1.755 0 2.761-0.682 2.761-1.889 0-1.197-0.808-1.511-2.51-1.736-1.72-0.227-1.895-0.342-1.895-0.745 0-0.332 0.148-0.775 1.422-0.775 1.138 0 1.558 0.244 1.73 1.011 0.015 0.072 0.081 0.124 0.155 0.124h0.719c0.044 0 0.086-0.018 0.117-0.050 0.030-0.034 0.046-0.077 0.042-0.122-0.112-1.321-0.989-1.937-2.764-1.937-1.579 0-2.521 0.667-2.521 1.784 0 1.212 0.937 1.547 2.453 1.697 1.813 0.178 1.954 0.443 1.954 0.799 0 0.62-0.497 0.883-1.663 0.883z"></path>
</svg>
