<!-- Generated by IcoMoon.io -->
<svg version="1.1" xmlns="http://www.w3.org/2000/svg" viewBox="0 0 16 16">
<title>oracle</title>
<path d="M6.923 8.309h1.042l-0.551-0.886-1.011 1.602h-0.46l1.23-1.925c0.053-0.078 0.143-0.125 0.241-0.125 0.096 0 0.185 0.045 0.237 0.122l1.234 1.928h-0.46l-0.217-0.358h-1.055l-0.23-0.358zM11.703 8.667v-1.672h-0.39v1.836c0 0.050 0.020 0.099 0.057 0.136s0.088 0.058 0.143 0.058h1.78l0.23-0.358h-1.82zM5.243 8.367c0.379 0 0.687-0.306 0.687-0.685s-0.308-0.687-0.687-0.687h-1.708v2.030h0.39v-1.672h1.292c0.181 0 0.327 0.147 0.327 0.329s-0.146 0.329-0.327 0.329l-1.101-0.002 1.165 1.016h0.567l-0.784-0.658h0.178zM1.132 9.025c-0.56 0-1.015-0.454-1.015-1.014s0.455-1.016 1.015-1.016h1.18c0.561 0 1.015 0.455 1.015 1.016s-0.454 1.014-1.015 1.014h-1.18zM2.286 8.667c0.363 0 0.657-0.293 0.657-0.656s-0.294-0.658-0.657-0.658h-1.128c-0.363 0-0.657 0.295-0.657 0.658s0.294 0.656 0.657 0.656h1.128zM9.7 9.025c-0.56 0-1.016-0.454-1.016-1.014s0.455-1.016 1.016-1.016h1.402l-0.229 0.358h-1.147c-0.363 0-0.658 0.295-0.658 0.658s0.295 0.656 0.658 0.656h1.408l-0.23 0.358h-1.204zM14.475 8.667c-0.3 0-0.554-0.201-0.632-0.478h1.669l0.23-0.358h-1.899c0.078-0.275 0.332-0.478 0.632-0.478h1.145l0.232-0.358h-1.403c-0.56 0-1.016 0.455-1.016 1.016s0.455 1.014 1.016 1.014h1.204l0.23-0.358h-1.408z"></path>
</svg>
