<?xml version="1.0" encoding="UTF-8"?>
<svg viewBox="0 0 15 16" version="1.1" xmlns="http://www.w3.org/2000/svg" xmlns:xlink="http://www.w3.org/1999/xlink">
    <!-- Pension by Josy Dom Alexis from the Noun Project -->
    <title>pension</title>
    <desc>Pension by Josy Dom Alexis from the Noun Project</desc>
    <defs></defs>
    <g id="Page-1" stroke="none" stroke-width="1" fill="none" fill-rule="evenodd">
        <g id="noun_1260091_cc" fill-rule="nonzero" fill="#000000">
            <path d="M14.88,1.22666667 C14.9866667,0.96 14.8266667,0.64 14.56,0.533333333 C14.2933333,0.426666667 13.9733333,0.586666667 13.8666667,0.853333333 L12.6933333,4.26666667 L4.85333333,3.2 C4.58666667,3.14666667 4.26666667,3.36 4.26666667,3.68 C4.26666667,4 4.42666667,4.26666667 4.74666667,4.26666667 L6.88,4.53333333 L6.45333333,6.61333333 L5.38666667,6.45333333 C4.53333333,6.34666667 3.68,6.93333333 3.57333333,7.84 C3.46666667,8.64 4,9.44 4.74666667,9.6 L3.09333333,12.9066667 C2.4,12.5866667 1.86666667,12.32 1.54666667,12.1066667 C1.28,11.9466667 0.96,12.0533333 0.8,12.32 C0.64,12.5866667 0.746666667,12.9066667 1.01333333,13.0666667 C1.97333333,13.6 4.58666667,14.9866667 7.89333333,15.4133333 C8.8,15.52 9.6,15.5733333 10.4,15.5733333 C11.84,15.5733333 13.0666667,15.4133333 14.0266667,15.2533333 C14.2933333,15.2 14.5066667,14.9333333 14.4533333,14.6133333 C14.4,14.3466667 14.1333333,14.1333333 13.8133333,14.1866667 C13.4933333,14.24 13.12,14.2933333 12.6933333,14.3466667 L11.7333333,10.1866667 L14.88,1.22666667 Z M7.94666667,4.69333333 L12.3733333,5.28 L11.6266667,7.41333333 L7.57333333,6.77333333 L7.94666667,4.69333333 Z M4.64,7.94666667 C4.64,7.78666667 4.74666667,7.68 4.85333333,7.57333333 C4.96,7.46666667 5.12,7.46666667 5.22666667,7.46666667 L11.2,8.48 L10.8266667,9.54666667 L5.06666667,8.53333333 C4.90666667,8.53333333 4.8,8.42666667 4.69333333,8.32 C4.64,8.21333333 4.58666667,8.05333333 4.64,7.94666667 Z M8.05333333,14.3466667 C6.56,14.1333333 5.17333333,13.76 4.10666667,13.3333333 L5.86666667,9.81333333 L10.7733333,10.6666667 L11.68,14.5066667 C10.56,14.5066667 9.38666667,14.5066667 8.05333333,14.3466667 Z" id="Shape"></path>
            <path d="M1.06666667,5.86666667 C1.06666667,6.18666667 1.28,6.4 1.6,6.4 C1.92,6.4 2.13333333,6.18666667 2.13333333,5.86666667 L2.13333333,5.33333333 C2.13333333,5.33333333 2.13333333,5.33333333 2.13333333,5.33333333 C2.72,5.22666667 3.2,4.69333333 3.2,4 C3.2,3.25333333 2.61333333,2.66666667 1.86666667,2.66666667 L1.33333333,2.66666667 C1.17333333,2.66666667 1.06666667,2.56 1.06666667,2.4 C1.06666667,2.24 1.17333333,2.13333333 1.33333333,2.13333333 L2.66666667,2.13333333 C2.98666667,2.13333333 3.2,1.92 3.2,1.6 C3.2,1.28 2.98666667,1.06666667 2.66666667,1.06666667 L2.13333333,1.06666667 L2.13333333,0.533333333 C2.13333333,0.213333333 1.92,0 1.6,0 C1.28,0 1.06666667,0.213333333 1.06666667,0.533333333 L1.06666667,1.06666667 C1.06666667,1.06666667 1.06666667,1.06666667 1.06666667,1.06666667 C0.48,1.17333333 0,1.70666667 0,2.4 C0,3.14666667 0.586666667,3.73333333 1.33333333,3.73333333 L1.86666667,3.73333333 C2.02666667,3.73333333 2.13333333,3.84 2.13333333,4 C2.13333333,4.16 2.02666667,4.26666667 1.86666667,4.26666667 L0.533333333,4.26666667 C0.213333333,4.26666667 0,4.48 0,4.8 C0,5.12 0.213333333,5.33333333 0.533333333,5.33333333 L1.06666667,5.33333333 L1.06666667,5.86666667 Z" id="Shape"></path>
        </g>
    </g>
</svg>
