<!-- Generated by IcoMoon.io -->
<svg version="1.1" xmlns="http://www.w3.org/2000/svg" viewBox="0 0 16 16">
<title>photoshop</title>
<path d="M15.777 0.091c-4.528-0.001-9.036-0.001-13.563-0.001-0.648 0-1.306-0.001-1.954 0.001-0.041 0-0.135 0.019-0.135 0.029v15.755h15.75v-15.755c0-0.010-0.052-0.030-0.098-0.030zM14.185 14.333c-4.080-0.005-8.159-0.004-12.239-0.004-0.197 0-0.196-0-0.196-0.203v-12.225c0-0.201-0.002-0.151 0.197-0.151h12.225c0.205 0 0.203-0.050 0.203 0.161v6.105c0 2.040-0.001 4.080 0.005 6.12 0.001 0.155-0.036 0.197-0.194 0.197zM7.103 4.955c-0.833-0.195-1.673-0.099-2.511-0.013-0.178 0.018-0.212 0.094-0.211 0.252 0.005 1.901-0.005 3.802-0.005 5.703v0.103h1.125v-2.233c0.625 0.047 1.197 0.036 1.756-0.164 0.896-0.32 1.344-1.014 1.296-2.027-0.039-0.819-0.553-1.411-1.449-1.621zM6.858 7.748c-0.399 0.195-0.824 0.19-1.251 0.132-0.033-0.005-0.084-0.064-0.085-0.098-0.005-0.666-0.004-1.333-0.004-2.017 0.391-0.061 0.763-0.091 1.133 0.002 0.459 0.115 0.726 0.415 0.775 0.865 0.054 0.494-0.156 0.915-0.569 1.116zM11.021 8.637c-0.184-0.101-0.385-0.168-0.576-0.257-0.176-0.082-0.354-0.162-0.522-0.259-0.117-0.068-0.17-0.186-0.17-0.326 0-0.237 0.162-0.427 0.438-0.45 0.206-0.017 0.42 0.004 0.624 0.043 0.172 0.032 0.335 0.112 0.51 0.174l0.221-0.784c-0.418-0.203-0.844-0.279-1.286-0.264-0.376 0.013-0.727 0.109-1.044 0.325-0.593 0.404-0.882 1.476 0.006 2.052 0.226 0.146 0.487 0.238 0.731 0.355 0.152 0.073 0.311 0.135 0.455 0.222 0.181 0.109 0.243 0.287 0.212 0.492-0.031 0.202-0.166 0.33-0.354 0.359-0.21 0.033-0.433 0.054-0.64 0.018-0.292-0.051-0.575-0.16-0.872-0.247-0.053 0.199-0.104 0.419-0.173 0.633-0.038 0.117-0.016 0.175 0.099 0.221 0.702 0.279 1.417 0.336 2.135 0.090 0.537-0.184 0.864-0.566 0.907-1.146 0.041-0.566-0.213-0.981-0.704-1.25z"></path>
</svg>
