<!-- Generated by IcoMoon.io -->
<svg version="1.1" xmlns="http://www.w3.org/2000/svg" viewBox="0 0 16 16">
<title>php</title>
<path d="M8 4.13c-4.218 0-7.637 1.733-7.637 3.87s3.419 3.87 7.637 3.87 7.637-1.733 7.637-3.87-3.419-3.87-7.637-3.87zM6.013 8.754c-0.182 0.171-0.385 0.241-0.607 0.313s-0.506 0.058-0.851 0.058h-0.782l-0.217 1.25h-0.913l0.814-4.25h1.755c0.528 0 0.913 0.152 1.155 0.429s0.315 0.67 0.218 1.167c-0.040 0.205-0.107 0.395-0.202 0.564s-0.219 0.328-0.372 0.469zM8.677 9.125l0.36-1.803c0.041-0.211 0.026-0.368-0.045-0.444s-0.223-0.128-0.454-0.128h-0.724l-0.466 2.375h-0.905l0.814-4.125h0.905l-0.216 1.125h0.807c0.508 0 0.858 0.102 1.050 0.279s0.25 0.42 0.173 0.816l-0.379 1.905h-0.92zM13.709 7.728c-0.040 0.205-0.107 0.392-0.202 0.561s-0.219 0.325-0.371 0.465c-0.182 0.171-0.385 0.241-0.607 0.313s-0.507 0.058-0.851 0.058h-0.782l-0.216 1.25h-0.913l0.814-4.25h1.755c0.528 0 0.913 0.152 1.155 0.429s0.315 0.677 0.218 1.174zM11.99 6.75h-0.625l-0.341 1.75h0.555c0.368 0 0.642-0.036 0.822-0.175s0.302-0.354 0.365-0.678c0.060-0.311 0.033-0.554-0.082-0.682s-0.347-0.215-0.694-0.215zM4.867 6.75h-0.625l-0.341 1.75h0.555c0.368 0 0.642-0.036 0.822-0.175s0.302-0.354 0.365-0.678c0.061-0.311 0.033-0.554-0.082-0.682s-0.346-0.215-0.693-0.215z"></path>
</svg>
