<!-- Generated by IcoMoon.io -->
<svg version="1.1" xmlns="http://www.w3.org/2000/svg" viewBox="0 0 16 16">
<title>postgresql</title>
<path d="M15.407 9.598c-0.056-0.365-0.363-0.604-0.719-0.62-0.129-0.006-0.26 0.008-0.389 0.024-0.155 0.020-0.309 0.055-0.464 0.078-0.107 0.016-0.216 0.023-0.323 0.034l-0.003-0.014c0.2-0.377 0.408-0.75 0.597-1.133 0.145-0.293 0.269-0.598 0.397-0.899 0.212-0.5 0.381-1.015 0.522-1.539 0.134-0.501 0.249-1.008 0.286-1.528 0.014-0.208 0.024-0.416 0.023-0.624-0.001-0.166-0.019-0.332-0.036-0.497-0.019-0.19-0.076-0.369-0.155-0.542-0.104-0.228-0.267-0.415-0.437-0.592-0.136-0.142-0.287-0.272-0.435-0.401-0.212-0.185-0.451-0.332-0.699-0.463-0.282-0.149-0.578-0.265-0.886-0.344-0.187-0.048-0.377-0.083-0.566-0.121-0.068-0.014-0.136-0.042-0.204-0.042h-1.28c-0.046 0-0.092 0.024-0.139 0.029-0.306 0.034-0.609 0.092-0.903 0.183-0.11 0.034-0.21 0.013-0.315 0.003-0.080-0.007-0.159-0.029-0.239-0.033-0.305-0.015-0.611-0.038-0.916-0.034-0.292 0.003-0.582 0.051-0.865 0.132-0.237 0.067-0.469 0.149-0.681 0.274-0.091 0.053-0.163 0.043-0.257 0.016-0.316-0.091-0.634-0.177-0.955-0.249-0.2-0.045-0.406-0.067-0.61-0.088-0.196-0.020-0.393-0.033-0.59-0.037-0.192-0.004-0.386-0.004-0.577 0.013-0.305 0.027-0.604 0.089-0.895 0.189-0.323 0.111-0.619 0.272-0.886 0.483-0.271 0.214-0.488 0.476-0.663 0.775-0.184 0.315-0.31 0.653-0.389 1.008-0.042 0.192-0.069 0.39-0.099 0.585-0.009 0.061 0.092 0.122-0.033 0.182v0.849c0.125 0.056 0.026 0.113 0.033 0.17 0.017 0.136 0.033 0.273 0.056 0.409 0.036 0.214 0.080 0.427 0.124 0.64 0.061 0.297 0.125 0.593 0.193 0.889 0.050 0.215 0.106 0.429 0.165 0.641 0.090 0.325 0.179 0.65 0.281 0.971 0.095 0.298 0.203 0.592 0.31 0.887 0.149 0.407 0.327 0.801 0.541 1.178 0.185 0.327 0.396 0.633 0.679 0.884 0.187 0.166 0.395 0.293 0.637 0.357 0.19 0.050 0.383 0.056 0.578 0.016 0.226-0.046 0.425-0.143 0.603-0.289 0.020-0.017 0.043-0.030 0.067 0.001 0.092 0.116 0.215 0.194 0.343 0.261 0.347 0.181 0.725 0.235 1.11 0.257 0.093 0.005 0.187-0.008 0.281-0.011 0.183-0.005 0.36-0.041 0.535-0.091 0.091-0.027 0.181-0.060 0.274-0.091 0.005 0.099 0.011 0.195 0.014 0.29l0.013 0.521c0.002 0.079 0.005 0.159 0.013 0.238 0.019 0.203 0.037 0.407 0.062 0.61 0.017 0.14 0.034 0.281 0.067 0.417 0.066 0.275 0.156 0.543 0.27 0.803 0.112 0.255 0.273 0.47 0.488 0.648 0.277 0.229 0.603 0.327 0.954 0.345 0.145 0.008 0.295 0.001 0.438-0.025 0.227-0.041 0.453-0.093 0.673-0.159 0.449-0.136 0.837-0.37 1.127-0.748 0.165-0.216 0.3-0.449 0.387-0.706 0.072-0.213 0.139-0.427 0.193-0.645 0.043-0.171 0.063-0.348 0.089-0.524 0.017-0.116 0.027-0.233 0.038-0.35 0.018-0.19 0.035-0.379 0.048-0.569 0.009-0.132 0.008-0.265 0.014-0.398 0.002-0.040 0.008-0.081 0.012-0.121 0.004-0.037 0.022-0.050 0.060-0.050 0.134 0.002 0.268 0.005 0.402-0.001 0.15-0.007 0.301-0.013 0.448-0.038 0.21-0.035 0.418-0.079 0.624-0.133 0.243-0.063 0.466-0.177 0.68-0.307 0.25-0.151 0.477-0.328 0.662-0.556 0.161-0.199 0.237-0.429 0.198-0.68zM14.981 9.721c-0.008 0.114-0.061 0.212-0.137 0.296-0.359 0.395-0.809 0.635-1.323 0.753-0.195 0.045-0.397 0.068-0.597 0.086-0.17 0.016-0.343 0.018-0.514 0.012-0.126-0.005-0.251-0.034-0.379-0.052-0.013 0.117-0.025 0.24-0.040 0.362l-0.060 0.468c-0.018 0.148-0.032 0.297-0.051 0.446-0.018 0.144-0.041 0.287-0.060 0.431-0.018 0.134-0.031 0.269-0.051 0.402-0.031 0.205-0.060 0.411-0.1 0.614-0.048 0.243-0.122 0.479-0.242 0.698-0.146 0.268-0.354 0.472-0.619 0.623-0.273 0.156-0.57 0.237-0.872 0.305-0.214 0.048-0.434 0.056-0.65 0.036-0.376-0.034-0.696-0.195-0.938-0.486-0.231-0.278-0.388-0.596-0.444-0.957-0.027-0.171-0.046-0.344-0.061-0.517-0.017-0.192-0.029-0.385-0.037-0.578-0.011-0.245-0.019-0.489-0.025-0.734-0.007-0.301-0.009-0.601-0.013-0.902l-0.001-0.011c-0.153 0.092-0.303 0.192-0.463 0.275-0.187 0.097-0.39 0.153-0.6 0.169-0.165 0.012-0.332 0.024-0.496 0.011-0.269-0.022-0.537-0.064-0.778-0.196-0.098-0.054-0.2-0.119-0.267-0.205-0.161-0.206-0.084-0.466 0.159-0.591 0.168-0.087 0.351-0.123 0.534-0.165 0.158-0.037 0.316-0.078 0.47-0.129 0.153-0.050 0.249-0.174 0.344-0.295l0.151-0.194c-0.063-0.007-0.122-0.013-0.181-0.019-0.18-0.017-0.351-0.066-0.516-0.139-0.141-0.062-0.143-0.069-0.246 0.043-0.172 0.187-0.339 0.378-0.508 0.568-0.124 0.14-0.247 0.28-0.371 0.42-0.122 0.139-0.237 0.285-0.368 0.414-0.196 0.191-0.431 0.306-0.712 0.293-0.18-0.008-0.345-0.072-0.494-0.175-0.306-0.213-0.513-0.512-0.701-0.826-0.241-0.402-0.426-0.83-0.584-1.27-0.11-0.304-0.22-0.608-0.315-0.917-0.104-0.335-0.195-0.675-0.285-1.014-0.068-0.256-0.128-0.514-0.185-0.773-0.065-0.294-0.128-0.589-0.183-0.885-0.037-0.2-0.059-0.403-0.089-0.604-0.041-0.271-0.048-0.545-0.033-0.817 0.013-0.245 0.048-0.49 0.083-0.734 0.048-0.337 0.16-0.655 0.32-0.956 0.098-0.184 0.219-0.351 0.36-0.507 0.231-0.255 0.51-0.44 0.82-0.578 0.217-0.097 0.446-0.155 0.68-0.2 0.347-0.068 0.697-0.065 1.047-0.058 0.153 0.003 0.305 0.031 0.458 0.046 0.329 0.033 0.652 0.102 0.97 0.188 0.232 0.062 0.46 0.143 0.69 0.213 0.023 0.007 0.057 0.006 0.076-0.006 0.312-0.204 0.653-0.338 1.016-0.415 0.138-0.029 0.28-0.042 0.42-0.051 0.171-0.011 0.344-0.021 0.514-0.011 0.205 0.012 0.409 0.042 0.614 0.070 0.099 0.014 0.196 0.048 0.295 0.057 0.047 0.004 0.098-0.030 0.148-0.042 0.256-0.059 0.511-0.125 0.77-0.172 0.192-0.035 0.389-0.051 0.585-0.062 0.218-0.012 0.438-0.022 0.656-0.011 0.276 0.013 0.549 0.052 0.819 0.115 0.335 0.078 0.656 0.191 0.961 0.348 0.228 0.117 0.445 0.253 0.64 0.42 0.128 0.11 0.259 0.218 0.374 0.34 0.143 0.151 0.288 0.302 0.377 0.495 0.067 0.146 0.115 0.296 0.129 0.456 0.017 0.198 0.037 0.397 0.035 0.596-0.002 0.19-0.028 0.38-0.046 0.569-0.042 0.432-0.136 0.854-0.25 1.271-0.094 0.344-0.204 0.685-0.324 1.021-0.11 0.31-0.237 0.615-0.365 0.918-0.095 0.224-0.197 0.446-0.307 0.663-0.21 0.411-0.428 0.817-0.68 1.204-0.043 0.067-0.085 0.135-0.127 0.204 0.11 0.074 0.235 0.1 0.36 0.114 0.119 0.013 0.241 0.021 0.36 0.012 0.191-0.014 0.381-0.041 0.571-0.068 0.188-0.026 0.372-0.080 0.565-0.066s0.331 0.161 0.318 0.341zM12.229 9.302c-0.082-0.106-0.165-0.21-0.245-0.317-0.126-0.168-0.216-0.356-0.307-0.544-0.086-0.179-0.191-0.348-0.282-0.524-0.158-0.308-0.319-0.615-0.465-0.929-0.183-0.395-0.328-0.803-0.373-1.24-0.019-0.185-0.024-0.37 0.013-0.553 0.060-0.293 0.213-0.521 0.47-0.678 0.238-0.146 0.504-0.193 0.776-0.207 0.169-0.009 0.338-0.002 0.514-0.002l-0.006-0.030c-0.109-0.228-0.211-0.46-0.33-0.682-0.168-0.314-0.383-0.597-0.623-0.86-0.178-0.194-0.37-0.375-0.581-0.534-0.207-0.157-0.426-0.297-0.659-0.412-0.278-0.137-0.567-0.242-0.871-0.31-0.292-0.065-0.585-0.104-0.885-0.108-0.255-0.003-0.509 0.009-0.758 0.066-0.375 0.087-0.718 0.241-1.017 0.492-0.167 0.14-0.312 0.297-0.44 0.471-0.149 0.205-0.27 0.427-0.373 0.66-0.141 0.319-0.239 0.651-0.305 0.992-0.033 0.17-0.059 0.342-0.086 0.513-0.009 0.060-0.010 0.121-0.015 0.19 0.046-0.024 0.079-0.043 0.113-0.059l0.111-0.050c0.374-0.171 0.762-0.281 1.178-0.269 0.177 0.005 0.346 0.040 0.504 0.118 0.302 0.149 0.479 0.402 0.555 0.722 0.053 0.221 0.089 0.447 0.125 0.671 0.028 0.176 0.056 0.353 0.059 0.53 0.005 0.259-0.008 0.518-0.023 0.777-0.012 0.221-0.058 0.438-0.135 0.643-0.14 0.374-0.296 0.742-0.442 1.114-0.048 0.123-0.085 0.25-0.131 0.385 0.070 0 0.127-0.001 0.184 0 0.022 0 0.045 0.001 0.066 0.006 0.168 0.040 0.313 0.115 0.432 0.244 0.159 0.171 0.242 0.372 0.246 0.603 0.002 0.128-0.011 0.257-0.011 0.386 0.003 0.598 0.007 1.197 0.012 1.795 0.001 0.098 0.006 0.196 0.013 0.293 0.015 0.204 0.029 0.409 0.049 0.613 0.014 0.145 0.034 0.289 0.056 0.433 0.032 0.204 0.125 0.385 0.23 0.558 0.091 0.149 0.208 0.275 0.363 0.363 0.263 0.148 0.547 0.161 0.833 0.106 0.193-0.037 0.383-0.096 0.57-0.157 0.185-0.060 0.352-0.159 0.492-0.294 0.131-0.127 0.225-0.283 0.287-0.454 0.122-0.332 0.16-0.682 0.21-1.030 0.019-0.13 0.035-0.26 0.053-0.391 0.020-0.148 0.040-0.296 0.059-0.444 0.014-0.11 0.027-0.221 0.040-0.331 0.019-0.159 0.040-0.317 0.058-0.476 0.014-0.123 0.026-0.246 0.039-0.369 0.016-0.157 0.034-0.314 0.047-0.471 0.011-0.119 0.006-0.241 0.027-0.358 0.039-0.215 0.14-0.398 0.331-0.516 0.080-0.049 0.169-0.082 0.258-0.124l-0.015-0.023zM5.029 8.42c-0.095-0.225-0.152-0.46-0.169-0.703-0.016-0.228 0.011-0.455 0.035-0.683 0.023-0.22 0.042-0.441 0.048-0.662 0.011-0.363-0.013-0.726-0.031-1.089-0.011-0.216 0.015-0.435 0.034-0.652 0.017-0.195 0.039-0.391 0.076-0.583 0.062-0.323 0.144-0.641 0.261-0.949 0.111-0.292 0.238-0.577 0.418-0.833 0.123-0.176 0.263-0.34 0.397-0.512l-0.040-0.014c-0.437-0.139-0.882-0.247-1.339-0.295-0.216-0.022-0.433-0.036-0.65-0.048-0.067-0.004-0.134 0.005-0.201 0.011-0.165 0.016-0.333 0.022-0.495 0.053-0.277 0.053-0.542 0.141-0.788 0.285-0.221 0.129-0.406 0.297-0.561 0.497-0.171 0.221-0.287 0.472-0.37 0.739-0.098 0.315-0.145 0.639-0.157 0.967-0.011 0.287-0.016 0.575 0.033 0.861 0.037 0.213 0.062 0.428 0.102 0.64 0.055 0.289 0.115 0.577 0.183 0.863 0.098 0.409 0.196 0.819 0.312 1.223 0.111 0.387 0.237 0.771 0.373 1.151 0.111 0.309 0.24 0.613 0.375 0.913 0.088 0.195 0.195 0.383 0.307 0.566 0.119 0.194 0.255 0.378 0.438 0.519 0.232 0.178 0.412 0.206 0.647 0.010 0.101-0.084 0.186-0.187 0.274-0.285 0.14-0.156 0.274-0.317 0.413-0.473 0.177-0.2 0.356-0.397 0.534-0.596 0.038-0.042 0.074-0.085 0.11-0.128l-0.061-0.053c-0.221-0.212-0.392-0.459-0.512-0.741zM11.741 2.474c0.145 0.17 0.284 0.344 0.414 0.526 0.25 0.351 0.45 0.73 0.597 1.136 0.065 0.179 0.117 0.359 0.094 0.555-0.016 0.137-0.015 0.276-0.027 0.414-0.010 0.115-0.028 0.229-0.043 0.343-0.022 0.172-0.055 0.344-0.064 0.517-0.009 0.165 0 0.331 0.011 0.496 0.011 0.168 0.033 0.335 0.049 0.502 0.017 0.19 0.041 0.38 0.046 0.57 0.004 0.156-0.009 0.313-0.023 0.469-0.016 0.188-0.064 0.37-0.135 0.544-0.050 0.123-0.11 0.242-0.166 0.365l0.023 0.024 0.034 0.027 0.035-0.062c0.292-0.461 0.553-0.94 0.778-1.437 0.145-0.32 0.281-0.644 0.411-0.971 0.203-0.508 0.364-1.030 0.488-1.563 0.056-0.239 0.098-0.482 0.136-0.725 0.030-0.19 0.054-0.382 0.060-0.573 0.006-0.203-0.005-0.408-0.024-0.611-0.014-0.153-0.052-0.307-0.148-0.431-0.154-0.2-0.32-0.392-0.525-0.543-0.172-0.128-0.344-0.258-0.529-0.366-0.293-0.17-0.61-0.283-0.942-0.36-0.323-0.075-0.651-0.108-0.981-0.115-0.194-0.004-0.39 0.017-0.584 0.035-0.176 0.016-0.351 0.045-0.528 0.068 0.19 0.107 0.377 0.202 0.554 0.314 0.372 0.235 0.705 0.519 0.991 0.854zM6.912 9.064c0.12-0.384 0.284-0.751 0.442-1.12 0.128-0.299 0.199-0.614 0.222-0.938 0.012-0.16 0.008-0.321 0-0.481-0.009-0.178-0.023-0.356-0.049-0.532-0.033-0.225-0.071-0.45-0.124-0.671-0.058-0.239-0.203-0.406-0.453-0.467-0.152-0.037-0.303-0.036-0.457-0.012-0.375 0.059-0.719 0.197-1.039 0.4-0.064 0.041-0.1 0.074-0.089 0.166 0.024 0.196 0.029 0.394 0.028 0.592-0.001 0.279-0.013 0.559-0.024 0.838-0.003 0.091-0.017 0.181-0.026 0.272-0.015 0.139-0.044 0.277-0.043 0.416 0.001 0.143 0.016 0.289 0.050 0.427 0.11 0.438 0.343 0.797 0.725 1.050 0.235 0.156 0.495 0.234 0.78 0.249 0.019-0.066 0.037-0.127 0.056-0.189zM6.464 5.303c-0.050-0.106-0.021-0.193 0.095-0.233 0.028-0.010 0.058-0.021 0.087-0.024 0.040-0.004 0.082-0.001 0.123-0.001 0.148 0.001 0.29 0.021 0.412 0.115 0.078 0.060 0.099 0.14 0.049 0.222-0.072 0.117-0.181 0.175-0.316 0.186-0.212 0.018-0.361-0.081-0.449-0.266zM12.344 5.265c0.017-0.141 0.031-0.281 0.048-0.422 0.007-0.056-0.023-0.072-0.070-0.073-0.149-0.004-0.298-0.009-0.447-0.012-0.168-0.003-0.332 0.024-0.487 0.088-0.172 0.071-0.304 0.185-0.357 0.372-0.040 0.14-0.051 0.28-0.037 0.426 0.021 0.223 0.071 0.44 0.149 0.647 0.104 0.278 0.213 0.555 0.344 0.821 0.177 0.36 0.377 0.709 0.564 1.063 0.050 0.095 0.092 0.193 0.145 0.304 0.109-0.232 0.163-0.463 0.169-0.703 0.005-0.201-0.011-0.403-0.023-0.605-0.007-0.123-0.025-0.246-0.037-0.369-0.017-0.171-0.042-0.343-0.046-0.514-0.004-0.175 0.008-0.35 0.024-0.525 0.014-0.167 0.042-0.333 0.062-0.5zM12.008 5.13c-0.055 0.153-0.174 0.239-0.327 0.264-0.143 0.024-0.268-0.029-0.362-0.144-0.066-0.081-0.041-0.178 0.059-0.232 0.114-0.063 0.24-0.079 0.388-0.089 0.040 0.007 0.101 0.013 0.159 0.030 0.084 0.024 0.114 0.087 0.084 0.17zM7.58 9.837c-0.082-0.067-0.19-0.071-0.268 0.003-0.097 0.091-0.182 0.196-0.267 0.299-0.098 0.119-0.19 0.242-0.317 0.335-0.184 0.134-0.399 0.189-0.615 0.242-0.172 0.042-0.344 0.081-0.516 0.121l-0.002 0.022c0.051 0.024 0.101 0.053 0.154 0.070 0.263 0.083 0.529 0.124 0.807 0.101 0.2-0.017 0.391-0.061 0.572-0.146 0.249-0.118 0.44-0.305 0.603-0.522 0.027-0.036 0.040-0.090 0.043-0.137 0.011-0.165-0.073-0.288-0.194-0.387zM14.049 9.903c-0.211 0.023-0.423 0.047-0.635 0.059-0.102 0.006-0.206-0.014-0.309-0.022-0.173-0.014-0.342-0.053-0.489-0.145-0.085-0.053-0.155-0.059-0.245-0.029-0.129 0.043-0.233 0.109-0.264 0.248-0.021 0.094-0.029 0.192-0.037 0.288-0.002 0.017 0.020 0.048 0.036 0.053 0.099 0.026 0.199 0.057 0.3 0.066 0.124 0.011 0.251 0.008 0.377 0.001 0.135-0.007 0.272-0.015 0.405-0.038 0.314-0.053 0.619-0.139 0.889-0.317 0.097-0.064 0.194-0.13 0.291-0.195l-0.008-0.014c-0.103 0.015-0.206 0.034-0.31 0.045z"></path>
</svg>
