<!-- Generated by IcoMoon.io -->
<svg version="1.1" xmlns="http://www.w3.org/2000/svg" viewBox="0 0 16 16">
<title>python</title>
<path d="M6.166 7.75h3.645c1.015 0 1.814-0.859 1.814-1.877v-3.475c0-0.989-0.829-1.732-1.819-1.897-0.627-0.104-1.274-0.152-1.898-0.149s-1.202 0.056-1.726 0.149c-1.544 0.273-1.807 0.844-1.807 1.897v1.352h3.625v0.5h-5.028c-1.060 0-1.989 0.638-2.28 1.851-0.335 1.39-0.35 2.24 0 3.691 0.259 1.080 0.879 1.832 1.939 1.832h1.243v-1.631c0-1.205 1.054-2.244 2.291-2.244zM5.936 2.861c-0.378 0-0.685-0.31-0.685-0.693 0-0.385 0.306-0.698 0.685-0.698 0.377 0 0.685 0.313 0.685 0.698-0 0.383-0.308 0.693-0.685 0.693zM15.285 6.101c-0.262-1.056-0.763-1.851-1.825-1.851h-1.335v1.623c0 1.256-1.099 2.252-2.314 2.252h-3.645c-0.998 0-1.791 0.916-1.791 1.916v3.475c0 0.989 0.843 1.571 1.808 1.854 1.155 0.34 2.249 0.401 3.631 0 0.919-0.266 1.811-0.801 1.811-1.854v-1.391h-3.625v-0.5h5.46c1.060 0 1.456-0.722 1.825-1.832 0.381-1.143 0.364-2.225 0-3.691zM10.041 13.052c0.378 0 0.685 0.31 0.685 0.693s-0.306 0.697-0.685 0.697c-0.377 0-0.685-0.313-0.685-0.697 0-0.383 0.308-0.693 0.685-0.693z"></path>
</svg>
