<!-- Generated by IcoMoon.io -->
<svg version="1.1" xmlns="http://www.w3.org/2000/svg" viewBox="0 0 16 16">
<title>rails</title>
<path d="M13.71 1.842c-1.526-0.753-3.088-0.83-4.688-0.264-1.472 0.52-2.647 1.452-3.52 2.72-1.477 2.147-2.55 4.489-3.152 7.033-0.308 1.302-0.507 2.683-0.454 4.028 0.004 0.109 0.021 0.14 0.031 0.39h7.546c-0.022-0.25-0.036-0.177-0.055-0.225-0.397-1.013-0.711-2.083-0.928-3.15-0.312-1.531-0.476-3.091-0.153-4.637 0.451-2.164 1.685-3.726 3.765-4.535 1.178-0.458 2.296-0.328 3.277 0.533 0.009 0.008 0.027 0.003 0.052 0.007l0.321-0.485c-0.617-0.588-1.296-1.049-2.040-1.416zM0.417 11.799c-0.057 0.49-0.111 0.95-0.168 1.431l1.391 0.167 0.255-1.487c-0.507-0.038-0.988-0.075-1.479-0.112zM3.148 7.526l-1.309-0.512-0.423 1.201 1.334 0.428c0.135-0.379 0.262-0.735 0.398-1.116zM9.326 14.233c0.447 0.033 0.895 0.056 1.388 0.085-0.179-0.372-0.338-0.709-0.505-1.042-0.018-0.036-0.080-0.071-0.122-0.072-0.379-0.005-0.758-0.003-1.161-0.003 0.091 0.329 0.17 0.632 0.262 0.93 0.014 0.045 0.088 0.098 0.138 0.101zM5.367 3.888l-0.994-0.659c-0.266 0.298-0.523 0.585-0.795 0.888l1.022 0.687 0.767-0.917zM8.533 10.559c-0.002 0.040 0.034 0.104 0.070 0.12 0.358 0.161 0.72 0.314 1.114 0.484-0.016-0.312-0.027-0.572-0.046-0.832-0.003-0.047-0.025-0.114-0.060-0.133-0.329-0.182-0.662-0.356-1.027-0.549-0.020 0.333-0.040 0.621-0.051 0.91zM8.239 1.538l-0.681-0.773-0.937 0.487c0.234 0.286 0.456 0.555 0.682 0.831l0.936-0.545zM8.666 7.684c-0.020 0.047 0.007 0.146 0.047 0.182 0.272 0.245 0.553 0.48 0.866 0.748 0.072-0.3 0.139-0.567 0.196-0.837 0.010-0.048-0.004-0.127-0.037-0.154-0.243-0.196-0.494-0.383-0.755-0.581-0.114 0.227-0.225 0.43-0.317 0.642zM10.222 1.131c0.348 0.009 0.695 0.005 1.062 0.005-0.037-0.256-0.054-0.449-0.098-0.636-0.013-0.056-0.097-0.13-0.153-0.135-0.348-0.028-0.698-0.039-1.081-0.057 0.051 0.258 0.090 0.485 0.145 0.708 0.012 0.047 0.081 0.114 0.125 0.115zM10.645 5.591c0.018-0.033 0.022-0.094 0.004-0.123-0.171-0.267-0.348-0.53-0.532-0.807l-0.595 0.546 0.823 0.912c0.111-0.192 0.209-0.359 0.3-0.529zM11.287 3.775l0.355 0.66c0.556-0.305 0.609-0.415 0.412-0.854l-0.768 0.194zM13.948 1.741c0.231 0.143 0.476 0.264 0.724 0.398l0.166-0.259c-0.303-0.221-0.595-0.435-0.927-0.678-0.013 0.138-0.032 0.234-0.027 0.33 0.004 0.073 0.016 0.18 0.064 0.209zM13.625 3.831c0.25 0.027 0.625 0.053 0.875 0.080v-0.34c-0.25-0.055-0.625-0.109-0.875-0.165v0.425z"></path>
</svg>
