<!-- Generated by IcoMoon.io -->
<svg version="1.1" xmlns="http://www.w3.org/2000/svg" viewBox="0 0 16 16">
<title>react</title>
<path d="M9.425 8c0 0.787-0.638 1.425-1.425 1.425s-1.425-0.638-1.425-1.425c0-0.787 0.638-1.425 1.425-1.425s1.425 0.638 1.425 1.425zM13.412 5.65c-0.275-0.1-0.563-0.2-0.863-0.287 0.075-0.3 0.137-0.6 0.188-0.888 0.262-1.65-0.025-2.813-0.825-3.263-0.238-0.137-0.5-0.2-0.8-0.2-0.875 0-1.988 0.65-3.112 1.738-1.125-1.087-2.237-1.738-3.112-1.738-0.3 0-0.563 0.063-0.8 0.2-0.8 0.462-1.087 1.625-0.825 3.263 0.050 0.287 0.112 0.588 0.188 0.888-0.3 0.088-0.587 0.175-0.862 0.287-1.563 0.6-2.413 1.425-2.413 2.35s0.863 1.75 2.413 2.35c0.275 0.1 0.563 0.2 0.862 0.287-0.075 0.3-0.138 0.6-0.188 0.887-0.263 1.65 0.025 2.813 0.825 3.262 0.237 0.137 0.5 0.2 0.8 0.2 0.888 0 2-0.65 3.112-1.738 1.125 1.088 2.237 1.738 3.112 1.738 0.3 0 0.563-0.063 0.8-0.2 0.8-0.463 1.088-1.625 0.825-3.262-0.050-0.287-0.113-0.588-0.188-0.887 0.3-0.088 0.588-0.175 0.863-0.287 1.563-0.6 2.412-1.425 2.412-2.35s-0.85-1.75-2.412-2.35zM11.563 1.837c0.512 0.3 0.688 1.225 0.475 2.538-0.037 0.263-0.1 0.537-0.175 0.825-0.65-0.15-1.338-0.25-2.063-0.313-0.425-0.6-0.863-1.138-1.3-1.625 0.925-0.913 1.863-1.538 2.625-1.538 0.162 0 0.313 0.038 0.438 0.113zM10.162 9.25c-0.225 0.4-0.488 0.8-0.762 1.2-0.463 0.037-0.925 0.050-1.4 0.050-0.487 0-0.95-0.012-1.4-0.050-0.275-0.4-0.525-0.8-0.75-1.2-0.237-0.412-0.463-0.838-0.662-1.25 0.2-0.412 0.425-0.838 0.662-1.25 0.225-0.4 0.487-0.8 0.763-1.2 0.463-0.037 0.925-0.050 1.4-0.050 0.488 0 0.95 0.013 1.4 0.050 0.275 0.4 0.525 0.8 0.75 1.2 0.238 0.412 0.463 0.838 0.662 1.25-0.213 0.412-0.425 0.825-0.662 1.25zM11.2 8.838c0.188 0.438 0.338 0.863 0.475 1.287-0.425 0.1-0.875 0.175-1.35 0.238 0.15-0.238 0.313-0.488 0.45-0.75 0.15-0.262 0.287-0.525 0.425-0.775zM8 12.225c-0.3-0.325-0.588-0.675-0.862-1.037 0.287 0.012 0.575 0.025 0.862 0.025s0.575-0.012 0.863-0.025c-0.275 0.363-0.563 0.713-0.863 1.037zM5.675 10.35c-0.475-0.063-0.925-0.137-1.35-0.238 0.138-0.412 0.287-0.85 0.475-1.287 0.138 0.25 0.275 0.512 0.425 0.762 0.15 0.275 0.3 0.512 0.45 0.762zM4.8 7.162c-0.188-0.438-0.338-0.862-0.475-1.287 0.425-0.1 0.875-0.175 1.35-0.237-0.15 0.237-0.313 0.487-0.45 0.75-0.15 0.263-0.287 0.525-0.425 0.775zM8 3.775c0.3 0.325 0.588 0.675 0.863 1.038-0.287-0.013-0.575-0.025-0.863-0.025s-0.575 0.013-0.862 0.025c0.275-0.362 0.563-0.713 0.862-1.038zM10.775 6.4l-0.45-0.75c0.475 0.063 0.925 0.138 1.35 0.237-0.137 0.412-0.287 0.85-0.475 1.288-0.137-0.263-0.275-0.525-0.425-0.775zM3.962 4.375c-0.212-1.313-0.038-2.237 0.475-2.538 0.125-0.075 0.275-0.113 0.438-0.113 0.75 0 1.688 0.613 2.625 1.538-0.438 0.475-0.875 1.025-1.3 1.625-0.725 0.063-1.413 0.175-2.063 0.313-0.075-0.287-0.125-0.563-0.175-0.825zM0.875 8c0-0.588 0.712-1.213 1.962-1.675 0.25-0.1 0.525-0.188 0.8-0.263 0.2 0.625 0.45 1.287 0.75 1.95-0.3 0.662-0.563 1.313-0.75 1.938-1.725-0.5-2.763-1.25-2.763-1.95zM4.438 14.162c-0.513-0.3-0.688-1.225-0.475-2.537 0.038-0.262 0.1-0.537 0.175-0.825 0.65 0.15 1.337 0.25 2.063 0.313 0.425 0.6 0.862 1.137 1.3 1.625-0.925 0.912-1.862 1.537-2.625 1.537-0.162 0-0.313-0.037-0.438-0.113zM12.037 11.625c0.213 1.313 0.037 2.238-0.475 2.537-0.125 0.075-0.275 0.113-0.438 0.113-0.75 0-1.688-0.613-2.625-1.537 0.438-0.475 0.875-1.025 1.3-1.625 0.725-0.063 1.412-0.175 2.063-0.313 0.075 0.287 0.125 0.563 0.175 0.825zM13.162 9.675c-0.25 0.1-0.525 0.188-0.8 0.262-0.2-0.625-0.45-1.287-0.75-1.95 0.3-0.662 0.563-1.313 0.75-1.938 1.725 0.5 2.763 1.25 2.763 1.95 0 0.588-0.725 1.213-1.963 1.675z"></path>
</svg>
