<!-- Generated by IcoMoon.io -->
<svg version="1.1" xmlns="http://www.w3.org/2000/svg" viewBox="0 0 16 16">
<title>redhat</title>
<path d="M9.113 8.613c0.063-0.050 0.1-0.1 0.137-0.162 0.063-0.125 0.012-0.213-0.012-0.238h-0.025c-0.075 0.088-0.1 0.113-0.15 0.15-0.125 0.1-0.262-0.012-0.363-0.063-0.2-0.125-0.363-0.050-0.412 0.050-0.037 0.088 0 0.2 0.113 0.188 0.15-0.025 0.162 0 0.275 0.075 0.213 0.137 0.363 0.063 0.438 0zM7.45 2.462c-0.275 0-0.463 0.038-0.638 0.038-0.162 0-0.3-0.125-0.362-0.2-0.050-0.063-0.213-0.125-0.3 0.075s0.075 0.413 0.213 0.45c0 0 0.225 0.413 0.388 0.237 0.125-0.125 0.188-0.2 0.825-0.237 0.3-0.025 0.338-0.087 0.325-0.163 0-0.1-0.188-0.2-0.45-0.2zM9.012 1.875c0.012 0.075-0.137 0.163-0.363 0.212-0.012 0-0.025 0.013-0.025 0.025s0.012 0.025 0.025 0.025c0.088 0.025 0.2 0.038 0.313 0.050 0.35 0.013 0.65-0.1 0.65-0.262s-0.275-0.287-0.637-0.287h-0.037c-0.063 0-0.125-0.025-0.188-0.012-0.213 0.025-0.4 0.063-0.525 0.125h-0.012c0 0.012 0.012 0 0.012 0 0.037 0 0.075 0 0.113-0.012 0.375-0.025 0.662 0.025 0.675 0.137zM5.513 7.688c0.037-0.088-0.013-0.15-0.112-0.2-0.15-0.063-0.188-0.15-0.275-0.3-0.075-0.138-0.25-0.213-0.275-0.487-0.025-0.263 0.175-0.588 0.588-0.487 0.287 0.075 0.487 0.438 0.55 0.563 0.037 0.063 0.162 0.138 0.275 0.050 0.1-0.1 0.2-0.1 0.287 0.025 0.063 0.1 0.563 0.763 1.1 0.787 0.55 0.013 0.838-0.125 1.075-0.112 0.162 0.013 0.25 0.088 0.35 0.1 0.162 0.025 0.287-0.125 0.475-0.112 0.15 0.013 0.313 0.112 0.488 0.112s0.525-0.2 0.512-0.125c-0.012 0.15-0.125 0.412-0.15 0.525-0.025 0.088 0 0.287-0.050 0.45s-0.2 0.375-0.238 0.438c-0.137 0.2-0.238 0.262-0.35 0.475-0.125 0.238-0.325 0.463-0.375 0.525-0.063 0.088 0.387 0 0.537-0.15 0.137-0.125 0.375-0.512 0.75-0.6 0.25-0.050 0.3-0.15 0.275-0.25l-0.012-0.037c0-0.037 0.025-0.063 0.050-0.075 0.262-0.113 0.625-0.175 1.012-0.175 0.225 0 0.45 0.025 0.662 0.075 0.563-0.862 0.887-1.9 0.887-3.013 0-3.050-2.475-5.537-5.537-5.537s-5.537 2.487-5.537 5.537c0 0.612 0.1 1.15 0.288 1.775h0.388c0.337 0 0.663-0.088 0.925-0.225 0.063-0.037 0.138-0.063 0.225-0.063 0.175 0 0.313 0.063 0.412 0.213 0.075 0.138 0.15 0.213 0.25 0.275 0.075 0.050 0.188 0.088 0.338 0.088 0.075 0.037 0.188 0.013 0.213-0.063zM3.625 4.075c0.125-0.45 0.85-0.65 1.813-0.55-0.15 0.3-0.138 0.65 0.5 1.037 0.775 0.438 2.088 0.813 2.45 0.775 0.137-0.013 0.25-0.075 0.137-0.162-0.125-0.075-0.225-0.237-0.287-0.513-0.037-0.15-0.075-0.375-0.912-0.525-1.787-0.337-1.725-0.85-1.675-1.138 0 0 0.162-0.712 0.225-0.962s0.237-0.825 1.388-0.575c0.662 0.15 1.025-0.038 1.213-0.087 0.5-0.125 1.050-0.038 1.35 0.275 0.313 0.325 0.75 1.325 0.963 2.075 0.1 0.375 0.075 0.563 0.025 0.688-0.037 0.088-0.063 0.138-0.188 0.362-0.025 0.037 0 0.088 0.050 0.050 0.35-0.175 0.425-0.412 0.475-0.6 0.938 0.213 1.5 0.7 1.375 1.362-0.262 1.463-2.65 1.95-4.963 1.25-2.225-0.65-4.162-1.987-3.938-2.763zM0.938 13.375h-0.025l-0.025-0.625h-0.65c0.013 0.25 0.025 0.575 0.025 0.963l-0.013 2.037h0.75v-1.537c0-0.075 0.012-0.162 0.025-0.225 0.063-0.338 0.288-0.575 0.65-0.575 0.087 0 0.2 0.012 0.2 0.025v-0.713c0-0.012-0.075 0-0.15 0-0.325 0-0.637 0.15-0.787 0.65zM3.575 12.7c-0.962 0-1.462 0.775-1.462 1.6 0 0.912 0.563 1.512 1.538 1.512 0.438 0 0.787-0.075 1.037-0.188l-0.112-0.512c-0.225 0.088-0.475 0.137-0.825 0.137-0.487 0-0.9-0.238-0.925-0.775h1.987c0.013-0.075 0.025-0.188 0.025-0.325 0.013-0.65-0.3-1.45-1.263-1.45zM2.837 14c0.038-0.375 0.225-0.725 0.688-0.725 0.5 0 0.625 0.35 0.625 0.725h-1.313zM8.125 11.625l-0.75-0.213v1.713h-0.037c-0.138-0.25-0.425-0.4-0.838-0.4-0.713 0-1.338 0.588-1.338 1.588 0 0.912 0.563 1.5 1.275 1.5 0.425 0 0.787-0.188 0.963-0.563h0.013l0.037 0.5h0.675c-0.012-0.25 0-0.525 0-0.838v-3.287zM7.375 14.463c0 0.075-0.025 0.15-0.037 0.225-0.075 0.325-0.35 0.537-0.662 0.537-0.475 0-0.75-0.4-0.75-0.95s0.263-0.975 0.75-0.975c0.338 0 0.6 0.238 0.662 0.525 0.013 0.063 0.025 0.137 0.025 0.2v0.438zM10.088 12.7c-0.225 0-0.425 0.037-0.6 0.15-0.175 0.1-0.325 0.275-0.412 0.4h-0.075v-1.338l-0.25-0.088v3.925h0.25v-1.825c0-0.125 0.050-0.2 0.075-0.287 0.125-0.375 0.512-0.675 0.938-0.675 0.613 0 0.863 0.488 0.863 1.025v1.762h0.25v-1.8c0-1.113-0.75-1.25-1.037-1.25zM13.75 13.875c0-0.537-0.15-1.175-1.012-1.175-0.275 0-0.6 0.075-0.875 0.262l0.1 0.213c0.213-0.15 0.5-0.225 0.762-0.225 0.7 0 0.775 0.588 0.775 0.875v0.075c-1.25-0.012-1.825 0.4-1.825 1.088 0 0.4 0.275 0.85 0.875 0.85 0.475 0 0.8-0.35 0.95-0.475h0.012l0.037 0.375h0.275c-0.037-0.25-0.063-0.475-0.063-0.713v-1.15zM13.5 14.8c0 0.050-0.025 0.113-0.037 0.175-0.1 0.287-0.387 0.6-0.887 0.6-0.313 0-0.588-0.188-0.588-0.625 0-0.713 0.887-0.813 1.512-0.8v0.65zM15.75 13v-0.25h-0.875v-0.637l-0.25 0.113v0.525h-0.5v0.25h0.5v1.9c0 0.3 0.063 0.55 0.2 0.713 0.113 0.137 0.3 0.213 0.525 0.213 0.175 0 0.313-0.025 0.412-0.075l-0.037-0.225c-0.075 0.025-0.225 0.050-0.375 0.050-0.325 0-0.475-0.238-0.475-0.613v-1.963h0.875z"></path>
</svg>
