<!-- Generated by IcoMoon.io -->
<svg version="1.1" xmlns="http://www.w3.org/2000/svg" viewBox="0 0 16 16">
<title>redis</title>
<path d="M0.775 6.588c0.838 0.4 5.463 2.263 6.188 2.612s1.25 0.35 2.175-0.125c0.925-0.488 5.275-2.263 6.113-2.7 0.425-0.225 0.613-0.4 0.613-0.55v-1.563c0-0.162-0.213-0.3-0.625-0.45-0.813-0.3-5.137-2.013-5.963-2.325-0.825-0.3-1.162-0.288-2.138 0.063s-5.563 2.15-6.388 2.475c-0.4 0.162-0.625 0.3-0.625 0.463h-0.025v1.588c0.025 0.15 0.263 0.313 0.675 0.513zM8.325 6.813l-2.537-1.050 3.638-0.563-1.1 1.612zM13.838 4.313l-2.15 0.85-0.238 0.088-2.15-0.85 2.388-0.938 2.15 0.85zM7.513 2.75l-0.35-0.65 1.1 0.425 1.037-0.337-0.275 0.675 1.050 0.4-1.363 0.138-0.3 0.738-0.487-0.813-1.575-0.138 1.162-0.438zM4.8 3.663c1.075 0 1.95 0.337 1.95 0.75s-0.875 0.75-1.95 0.75-1.95-0.338-1.95-0.75 0.875-0.75 1.95-0.75zM15.25 7.475c-0.838 0.438-5.175 2.225-6.1 2.7-0.925 0.488-1.438 0.475-2.162 0.125s-5.375-2.213-6.2-2.612c-0.425-0.2-0.662-0.362-0.662-0.525v1.587c0 0.162 0.237 0.325 0.65 0.525 0.838 0.4 5.463 2.263 6.188 2.612s1.25 0.35 2.175-0.125c0.925-0.488 5.275-2.262 6.113-2.7 0.425-0.225 0.613-0.4 0.613-0.55v-1.563c0 0.138-0.2 0.313-0.613 0.525zM15.25 10.063c-0.838 0.438-5.175 2.225-6.1 2.7-0.925 0.488-1.438 0.475-2.162 0.125s-5.375-2.213-6.2-2.613c-0.425-0.188-0.662-0.363-0.662-0.525v1.588c0 0.162 0.237 0.325 0.65 0.525 0.838 0.4 5.463 2.263 6.188 2.612s1.25 0.35 2.175-0.125c0.925-0.488 5.275-2.262 6.113-2.7 0.425-0.225 0.613-0.4 0.613-0.55v-1.563c0 0.15-0.2 0.313-0.613 0.525z"></path>
</svg>
