<!-- Generated by IcoMoon.io -->
<svg version="1.1" xmlns="http://www.w3.org/2000/svg" viewBox="0 0 16 16">
<title>ruby</title>
<path d="M10.315 6.832c-1.615 1.041-3.215 2.072-4.858 3.13 2.46 0.336 4.876 0.666 7.339 1.002-0.839-1.398-1.657-2.759-2.482-4.132zM13.491 2.227c-0.217 0.325-0.434 0.651-0.651 0.977-0.744 1.119-1.487 2.238-2.23 3.357-0.041 0.063-0.095 0.112-0.037 0.208 0.718 1.185 1.43 2.374 2.144 3.562 0.113 0.188 0.227 0.374 0.372 0.554l0.433-8.649-0.032-0.009zM3.691 5.923c0.034 0.032 0.118 0.050 0.156 0.031 0.689-0.338 1.382-0.669 2.055-1.036 0.22-0.119 0.388-0.333 0.578-0.507 0.627-0.575 1.252-1.151 1.878-1.726 0.038-0.035 0.084-0.070 0.107-0.114 0.225-0.439 0.445-0.88 0.674-1.334-0.273-0.102-0.531-0.203-0.793-0.294-0.036-0.012-0.091 0.012-0.13 0.034-0.605 0.338-1.222 0.658-1.808 1.027-0.293 0.184-0.532 0.456-0.792 0.693-0.418 0.382-0.837 0.765-1.249 1.154-0.109 0.103-0.209 0.221-0.294 0.345-0.282 0.411-0.556 0.827-0.842 1.256 0.16 0.166 0.306 0.324 0.461 0.471zM6.208 5.361c-0.342 1.447-0.683 2.886-1.035 4.372 1.65-1.063 3.262-2.101 4.863-3.133-1.274-0.412-2.544-0.824-3.828-1.239zM8.937 2.931l1.402 3.411c0.915-1.375 1.813-2.723 2.73-4.102-1.394 0.233-2.755 0.46-4.133 0.69zM6.265 5.065c1.255 0.408 2.486 0.807 3.752 1.218-0.47-1.145-0.924-2.251-1.388-3.379l-2.364 2.162zM3.743 6.766l-1.313 3.139c0.841-0.025 1.657-0.049 2.501-0.074-0.396-1.022-0.784-2.024-1.188-3.065zM4.96 9.103l0.031-0.007c0.3-1.248 0.605-2.488 0.911-3.785-0.684 0.355-1.336 0.694-2.006 1.043 0.342 0.889 0.707 1.826 1.064 2.75zM12.566 2.038c-0.399-0.106-0.798-0.212-1.198-0.317-0.574-0.151-1.149-0.3-1.723-0.452-0.072-0.019-0.124-0.031-0.166 0.055-0.203 0.415-0.412 0.828-0.618 1.242-0.006 0.013-0.005 0.030-0.010 0.062 1.244-0.188 2.479-0.376 3.714-0.563l0.001-0.026zM10.249 1.093c1.072 0.297 2.145 0.593 3.255 0.9l-0.538-1.532c-0.911 0.202-1.812 0.402-2.712 0.601l-0.005 0.030zM11.234 11.012l-2.67-0.364c-1.109-0.151-2.216-0.318-3.328-0.446-0.403-0.046-0.817-0.004-1.226 0.003-0.336 0.006-0.672 0.018-1.008 0.029-0.035 0.001-0.069 0.008-0.103 0.045 2.776 0.257 5.553 0.513 8.329 0.77l0.006-0.037zM2.485 8.947c0.358-0.83 0.714-1.661 1.073-2.49 0.036-0.083 0.033-0.14-0.037-0.207-0.15-0.143-0.29-0.297-0.454-0.468l-0.655 3.234 0.024 0.011c0.017-0.027 0.037-0.052 0.049-0.081zM9.536 0.874c0.603-0.156 1.216-0.277 1.824-0.413 0.039-0.009 0.078-0.022 0.117-0.033l-0.006-0.030-2.614 0.352c0.246 0.107 0.435 0.188 0.68 0.124zM3.872 13.678v1.068h-0.591v-2.785h0.811c0.378 0 0.658 0.069 0.84 0.207s0.272 0.347 0.272 0.627c0 0.164-0.045 0.31-0.135 0.437s-0.218 0.228-0.383 0.3l0.819 1.213h-0.655l-0.665-1.068h-0.314zM3.872 13.198h0.191c0.186 0 0.324-0.031 0.413-0.093s0.133-0.16 0.133-0.293c0-0.132-0.045-0.226-0.136-0.282s-0.231-0.084-0.422-0.084h-0.179v0.752zM7.319 14.746l-0.078-0.272h-0.030c-0.062 0.099-0.151 0.175-0.265 0.229s-0.245 0.081-0.391 0.081c-0.25 0-0.439-0.067-0.566-0.201s-0.19-0.327-0.19-0.578v-1.389h0.581v1.244c0 0.154 0.027 0.269 0.082 0.346s0.141 0.115 0.261 0.115c0.163 0 0.28-0.054 0.352-0.163s0.109-0.288 0.109-0.54v-1.002h0.581v2.129h-0.446zM9.559 12.577c0.251 0 0.448 0.098 0.591 0.294s0.213 0.465 0.213 0.807c0 0.352-0.073 0.624-0.22 0.817s-0.346 0.29-0.599 0.29c-0.25 0-0.446-0.091-0.588-0.273h-0.040l-0.097 0.234h-0.444v-2.963h0.581v0.69c0 0.088-0.008 0.228-0.023 0.421h0.023c0.136-0.211 0.337-0.316 0.604-0.316zM9.372 13.041c-0.143 0-0.248 0.044-0.314 0.132s-0.101 0.234-0.103 0.437v0.063c0 0.229 0.034 0.392 0.102 0.492s0.176 0.149 0.323 0.149c0.119 0 0.214-0.055 0.285-0.165s0.106-0.27 0.106-0.479c0-0.21-0.036-0.367-0.107-0.472s-0.168-0.157-0.291-0.157zM10.5 12.617h0.636l0.402 1.198c0.034 0.104 0.058 0.227 0.070 0.37h0.011c0.014-0.131 0.041-0.254 0.082-0.37l0.394-1.198h0.623l-0.901 2.402c-0.082 0.222-0.2 0.389-0.353 0.499s-0.332 0.166-0.536 0.166c-0.1 0-0.199-0.011-0.295-0.032v-0.461c0.070 0.016 0.146 0.025 0.229 0.025 0.103 0 0.193-0.031 0.27-0.094s0.137-0.158 0.18-0.285l0.034-0.105-0.845-2.114z"></path>
</svg>
