<!-- Generated by IcoMoon.io -->
<svg version="1.1" xmlns="http://www.w3.org/2000/svg" viewBox="0 0 16 16">
<title>sass-original</title>
<path d="M0.152 7.019c0 0.088 0.026 0.146 0.040 0.202 0.095 0.367 0.298 0.681 0.539 0.968 0.343 0.409 0.764 0.738 1.194 1.048 0.373 0.268 0.755 0.531 1.13 0.797 0.064 0.046 0.125 0.098 0.195 0.155-0.060 0.033-0.11 0.061-0.162 0.088-0.495 0.251-0.971 0.532-1.41 0.873-0.264 0.206-0.52 0.424-0.701 0.709-0.291 0.459-0.394 0.948-0.177 1.47 0.063 0.152 0.16 0.284 0.296 0.382 0.044 0.031 0.094 0.063 0.145 0.075 0.132 0.031 0.267 0.052 0.401 0.076l0.379-0c0.419-0.037 0.801-0.181 1.146-0.419 0.539-0.372 0.902-0.871 1.058-1.511 0.114-0.465 0.118-0.931-0.016-1.394-0.012-0.043-0.028-0.085-0.044-0.127s-0.035-0.082-0.058-0.134l0.859-0.494 0.013 0.011c-0.016 0.051-0.032 0.102-0.046 0.154-0.102 0.373-0.17 0.752-0.146 1.14 0.026 0.412 0.141 0.799 0.383 1.143 0.195 0.279 0.66 0.289 0.868 0.009 0.074-0.099 0.145-0.203 0.199-0.314 0.14-0.289 0.27-0.584 0.404-0.876l0.023-0.053c-0.010 0.139-0.021 0.26-0.026 0.382-0.008 0.19 0.003 0.379 0.068 0.56 0.056 0.155 0.15 0.27 0.327 0.291 0.121 0.014 0.218-0.042 0.307-0.112 0.139-0.11 0.252-0.246 0.336-0.4 0.238-0.436 0.482-0.87 0.697-1.317 0.233-0.484 0.437-0.982 0.653-1.474l0.036-0.087c0.051 0.201 0.087 0.398 0.152 0.584 0.076 0.216 0.171 0.427 0.273 0.632 0.049 0.097 0.043 0.16-0.024 0.241-0.282 0.34-0.559 0.684-0.836 1.028-0.061 0.076-0.123 0.153-0.174 0.236-0.031 0.050-0.051 0.112-0.060 0.171-0.017 0.112 0.053 0.22 0.173 0.246 0.11 0.024 0.227 0.032 0.338 0.024 0.387-0.028 0.739-0.164 1.049-0.395 0.403-0.298 0.532-0.705 0.434-1.188-0.026-0.131-0.073-0.258-0.118-0.384-0.020-0.057-0.022-0.097 0.015-0.15 0.322-0.46 0.597-0.947 0.853-1.446 0.010-0.020 0.021-0.039 0.038-0.060 0.083 0.431 0.208 0.847 0.431 1.224-0.114 0.11-0.227 0.21-0.329 0.319-0.225 0.242-0.42 0.504-0.522 0.824-0.044 0.138-0.077 0.278-0.058 0.426 0.030 0.229 0.218 0.378 0.443 0.325 0.482-0.111 0.898-0.338 1.201-0.741 0.204-0.271 0.223-0.573 0.137-0.889-0.024-0.086-0.051-0.171-0.081-0.269 0.119-0.037 0.235-0.081 0.355-0.108 0.622-0.142 1.238-0.117 1.838 0.107 0.35 0.131 0.633 0.351 0.801 0.696 0.205 0.422 0.092 0.823-0.306 1.090-0.037 0.025-0.080 0.044-0.11 0.076-0.019 0.019-0.030 0.057-0.026 0.084 0.003 0.015 0.043 0.035 0.067 0.034 0.131-0.001 0.237-0.070 0.339-0.14 0.255-0.177 0.441-0.414 0.482-0.727l0.008-0.024-0.010-0.204c-0.004-0.012 0.003-0.023 0.002-0.032-0.054-0.456-0.298-0.809-0.652-1.086-0.41-0.321-0.894-0.453-1.406-0.473-0.417-0.017-0.827 0.045-1.221 0.188-0.112 0.041-0.223 0.089-0.336 0.134-0.015-0.027-0.031-0.054-0.045-0.081-0.116-0.237-0.256-0.463-0.287-0.735-0.022-0.193-0.049-0.386-0.003-0.577 0.044-0.184 0.102-0.364 0.156-0.545 0.028-0.093 0.008-0.146-0.081-0.188-0.031-0.015-0.065-0.027-0.098-0.032-0.219-0.032-0.434-0.014-0.646 0.048-0.075 0.022-0.13 0.064-0.146 0.147-0.009 0.048-0.029 0.093-0.042 0.14-0.055 0.195-0.095 0.394-0.184 0.581-0.224 0.467-0.48 0.916-0.742 1.362-0.028 0.048-0.058 0.095-0.094 0.154-0.092-0.193-0.19-0.365-0.22-0.568-0.034-0.229-0.060-0.458-0.003-0.685 0.042-0.169 0.098-0.336 0.149-0.503 0.024-0.080 0.013-0.121-0.059-0.163-0.036-0.021-0.078-0.040-0.118-0.046-0.227-0.034-0.45-0.016-0.669 0.055-0.068 0.022-0.104 0.066-0.124 0.136-0.061 0.207-0.113 0.418-0.199 0.614-0.347 0.795-0.704 1.586-1.060 2.377-0.074 0.165-0.162 0.325-0.245 0.485-0.021 0.041-0.052 0.077-0.079 0.115-0.021-0.025-0.029-0.042-0.029-0.060 0.001-0.102-0.011-0.206 0.008-0.305 0.059-0.297 0.126-0.593 0.197-0.887 0.059-0.243 0.127-0.484 0.192-0.726 0.022-0.081 0.022-0.156-0.036-0.225-0.098-0.114-0.302-0.139-0.423-0.051l-0.053 0.030 0.010-0.086c0.026-0.185 0.031-0.369-0.020-0.551-0.063-0.227-0.225-0.358-0.461-0.35-0.11 0.003-0.225 0.022-0.327 0.062-0.427 0.168-0.756 0.464-1.036 0.821-0.025 0.032-0.059 0.062-0.095 0.082-0.362 0.2-0.724 0.399-1.087 0.597l-0.404 0.221c-0.108-0.103-0.207-0.21-0.318-0.301-0.341-0.278-0.687-0.549-1.030-0.824-0.304-0.244-0.599-0.497-0.825-0.82-0.168-0.24-0.276-0.503-0.286-0.799-0.013-0.378 0.094-0.724 0.287-1.045 0.246-0.412 0.582-0.742 0.951-1.041 0.391-0.316 0.813-0.585 1.251-0.83 0.613-0.343 1.243-0.646 1.918-0.847 0.693-0.205 1.396-0.323 2.121-0.241 0.285 0.032 0.562 0.098 0.816 0.237 0.195 0.107 0.354 0.246 0.428 0.465 0.073 0.215 0.071 0.432 0.020 0.651-0.103 0.442-0.345 0.806-0.649 1.131-0.499 0.533-1.108 0.896-1.794 1.136-0.396 0.138-0.803 0.225-1.221 0.26-0.341 0.029-0.675-0.002-0.998-0.12-0.214-0.079-0.4-0.199-0.55-0.373-0.027-0.031-0.061-0.065-0.111-0.036-0.049 0.029-0.058 0.075-0.041 0.122 0.027 0.078 0.053 0.16 0.095 0.23 0.107 0.176 0.263 0.303 0.435 0.412 0.33 0.21 0.7 0.281 1.082 0.297 0.581 0.025 1.148-0.062 1.707-0.218 0.798-0.223 1.492-0.615 2.048-1.236 0.463-0.516 0.794-1.099 0.865-1.802 0.035-0.343-0.002-0.68-0.163-0.993-0.174-0.339-0.452-0.592-0.783-0.766-0.483-0.253-1.004-0.401-1.542-0.401h-0.539c-0.651 0-1.281 0.187-1.893 0.409-0.463 0.169-0.917 0.368-1.359 0.588-0.96 0.48-1.855 1.058-2.589 1.854-0.366 0.396-0.676 0.834-0.854 1.349-0.052 0.151-0.102 0.312-0.139 0.468zM3.643 11.295c-0.042 0.557-0.294 1.009-0.707 1.375-0.232 0.206-0.499 0.352-0.809 0.404-0.112 0.019-0.228 0.023-0.337-0.024-0.156-0.066-0.191-0.205-0.194-0.352-0.005-0.235 0.077-0.447 0.19-0.648 0.147-0.263 0.362-0.463 0.593-0.651 0.362-0.295 0.756-0.545 1.159-0.781l0.030-0.012c0.062 0.23 0.092 0.457 0.075 0.688zM6.788 8.873c-0.029 0.178-0.066 0.356-0.118 0.529-0.18 0.597-0.411 1.176-0.66 1.747-0.046 0.106-0.113 0.202-0.172 0.302-0.009 0.015-0.022 0.029-0.035 0.042-0.072 0.071-0.141 0.068-0.177-0.026-0.043-0.108-0.069-0.225-0.091-0.339-0.015-0.077-0.011-0.158-0.016-0.237 0.005-0.562 0.176-1.072 0.467-1.547 0.12-0.196 0.25-0.383 0.45-0.507 0.061-0.038 0.13-0.069 0.199-0.088 0.106-0.030 0.171 0.019 0.154 0.126zM8.933 11.606l0.771-0.9c0.032 0.334-0.536 1.002-0.771 0.9zM11.396 11c-0.055 0.031-0.114 0.054-0.17 0.083-0.051 0.027-0.068-0-0.069-0.044-0.001-0.030 0.003-0.061 0.012-0.090 0.104-0.367 0.296-0.681 0.581-0.936l0.020-0.010c0.136 0.379-0.021 0.796-0.373 0.998z"></path>
</svg>
