<!-- Generated by IcoMoon.io -->
<svg version="1.1" xmlns="http://www.w3.org/2000/svg" viewBox="0 0 16 16">
<title>sequelize</title>
<path d="M12.73 5.215v5.535l-4.707 2.79-0.043 0.039v2.071l0.043 0.040 6.625-3.83v-7.72l-0.063-0.015-1.875 1.045 0.010 0.045zM3.3 10.8l4.723 2.74v2.15l-6.675-3.845v-7.69l0.069-0.010 1.864 1.084 0.020 0.063v5.509zM3.3 5.29l-1.952-1.135 6.66-3.845 6.645 3.83-1.922 1.075-4.723-2.695-4.707 2.77zM3.757 10.5v-2.262l0.051 0.030 1.831 1.065v2.191l-1.883-1.024zM10.409 11.575v-2.2l0.012-0.006 1.839-1.076v2.188l-1.851 1.095zM8.106 12.932l-0.051-0.053v-2.13l0.064-0.023 1.839-1.071v2.181l-1.85 1.095zM6.225 11.904v-2.258l0.051 0.029 1.814 1.056 0.015 2.201-1.88-1.029zM7.911 2.868l-1.851 1.095 1.881 1.095 1.85-1.080-1.88-1.11zM3.757 7.545v-2.226h0.051l1.816 1.056 0.015 0.041v2.158l-1.883-1.029zM5.607 4.225l-1.85 1.095 1.881 1.095 1.85-1.080-1.881-1.11zM10.409 8.625v-2.162l0.012-0.051 1.784-1.036 0.055 0.013v2.139l-1.851 1.099zM10.375 4.276l-1.848 1.099 1.881 1.095 1.85-1.080-1.884-1.114zM8.106 9.981l-0.051-0.053v-2.080l0.051-0.026 0.012-0.051 1.784-1.040 0.055 0.013v2.143l-1.85 1.095zM6.225 8.954v-2.226h0.051l1.814 1.056 0.015 0.041v2.156l-1.88-1.027zM8.075 5.633l-1.85 1.095 1.881 1.095 1.85-1.080-1.881-1.11z"></path>
</svg>
