<!-- Generated by IcoMoon.io -->
<svg version="1.1" xmlns="http://www.w3.org/2000/svg" width="17" height="16" viewBox="0 0 17 16">
<title>shower</title>
<path d="M12.795 2.223c0.116 0.116 0.116 0.295 0 0.411l-5.589 5.589c-0.116 0.116-0.295 0.116-0.411 0l-0.732-0.732c-0.116-0.116-0.116-0.295 0-0.411l0.393-0.393c-0.866-1.089-0.973-2.58-0.313-3.768-0.411-0.393-0.964-0.634-1.571-0.634-1.259 0-2.286 1.027-2.286 2.286v11.429h-2.286v-11.429c0-2.518 2.054-4.571 4.571-4.571 1.286 0 2.446 0.536 3.277 1.393 1.125-0.455 2.429-0.286 3.411 0.491l0.393-0.393c0.116-0.116 0.295-0.116 0.411 0zM12 4.571c0.313 0 0.571 0.259 0.571 0.571s-0.259 0.571-0.571 0.571-0.571-0.259-0.571-0.571 0.259-0.571 0.571-0.571zM14.286 5.714c-0.313 0-0.571-0.259-0.571-0.571s0.259-0.571 0.571-0.571 0.571 0.259 0.571 0.571-0.259 0.571-0.571 0.571zM16.571 4.571c0.313 0 0.571 0.259 0.571 0.571s-0.259 0.571-0.571 0.571-0.571-0.259-0.571-0.571 0.259-0.571 0.571-0.571zM10.857 5.714c0.313 0 0.571 0.259 0.571 0.571s-0.259 0.571-0.571 0.571-0.571-0.259-0.571-0.571 0.259-0.571 0.571-0.571zM12.571 6.286c0-0.313 0.259-0.571 0.571-0.571s0.571 0.259 0.571 0.571-0.259 0.571-0.571 0.571-0.571-0.259-0.571-0.571zM15.429 5.714c0.313 0 0.571 0.259 0.571 0.571s-0.259 0.571-0.571 0.571-0.571-0.259-0.571-0.571 0.259-0.571 0.571-0.571zM9.714 6.857c0.313 0 0.571 0.259 0.571 0.571s-0.259 0.571-0.571 0.571-0.571-0.259-0.571-0.571 0.259-0.571 0.571-0.571zM12 8c-0.313 0-0.571-0.259-0.571-0.571s0.259-0.571 0.571-0.571 0.571 0.259 0.571 0.571-0.259 0.571-0.571 0.571zM14.286 6.857c0.313 0 0.571 0.259 0.571 0.571s-0.259 0.571-0.571 0.571-0.571-0.259-0.571-0.571 0.259-0.571 0.571-0.571zM10.857 9.143c-0.313 0-0.571-0.259-0.571-0.571s0.259-0.571 0.571-0.571 0.571 0.259 0.571 0.571-0.259 0.571-0.571 0.571zM13.143 8c0.313 0 0.571 0.259 0.571 0.571s-0.259 0.571-0.571 0.571-0.571-0.259-0.571-0.571 0.259-0.571 0.571-0.571zM9.714 9.143c0.313 0 0.571 0.259 0.571 0.571s-0.259 0.571-0.571 0.571-0.571-0.259-0.571-0.571 0.259-0.571 0.571-0.571zM12 9.143c0.313 0 0.571 0.259 0.571 0.571s-0.259 0.571-0.571 0.571-0.571-0.259-0.571-0.571 0.259-0.571 0.571-0.571zM10.857 10.286c0.313 0 0.571 0.259 0.571 0.571s-0.259 0.571-0.571 0.571-0.571-0.259-0.571-0.571 0.259-0.571 0.571-0.571zM9.714 11.429c0.313 0 0.571 0.259 0.571 0.571s-0.259 0.571-0.571 0.571-0.571-0.259-0.571-0.571 0.259-0.571 0.571-0.571z"></path>
</svg>
