<!-- Generated by IcoMoon.io -->
<svg version="1.1" xmlns="http://www.w3.org/2000/svg" viewBox="0 0 16 16">
<title>sketch</title>
<path d="M7.976 14.829l-7.625-8.807v-0.039l3.326-4.431 0.021-0.012 4.301-0.451 4.304 0.451 0.021 0.012 3.325 4.43v0.039l-7.625 8.807zM0.415 6l7.585 8.76 7.585-8.76-3.304-4.401-4.281-0.449-4.281 0.449zM7.976 14.829l-7.625-8.807 0.024-0.053h3.089l0.027 0.018 4.536 8.807zM0.444 6.031l7.409 8.559-4.407-8.559zM8.024 14.829l-0.051-0.035 4.536-8.807 0.027-0.018h3.089l0.024 0.051zM12.556 6.031l-4.409 8.559 7.409-8.559zM8.027 14.822h-0.055l-4.536-8.809 0.027-0.045h9.072l0.027 0.045zM3.515 6.031l4.485 8.709 4.485-8.709zM3.486 6.021l-0.054-0.021 0.239-4.43 0.027-0.029 4.301-0.454 0.026 0.052zM3.736 1.597l-0.236 4.317 4.42-4.756zM12.514 6.021l-4.536-4.875 0.022-0.059 4.297 0.45 0.027 0.029 0.242 4.434zM8.080 1.159l4.42 4.756-0.232-4.317zM15.625 6.031h-3.089l-0.036-0.031-0.234-4.429 0.056-0.020 3.328 4.43zM12.566 5.969h3l-3.231-4.299zM12.536 6.031h-9.072l-0.022-0.053 4.536-4.875h0.046l4.536 4.875zM3.536 5.969h8.929l-4.465-4.804zM3.464 6.031h-3.089l-0.025-0.050 3.328-4.43 0.056 0.020-0.234 4.429zM0.438 5.969h3l0.231-4.299z"></path>
</svg>
