<!-- Generated by IcoMoon.io -->
<svg version="1.1" xmlns="http://www.w3.org/2000/svg" viewBox="0 0 16 16">
<title>stylus</title>
<path d="M2.578 10.674c0.406-0.486 0.455-0.989 0.14-1.921-0.199-0.59-0.53-1.045-0.288-1.411 0.259-0.391 0.809-0.013 0.351 0.51l0.091 0.064c0.55 0.064 0.821-0.69 0.41-0.905-1.084-0.566-2.033 0.522-1.614 1.782 0.18 0.534 0.43 1.1 0.228 1.551-0.175 0.386-0.514 0.614-0.741 0.625-0.475 0.020-0.155-1.069 0.386-1.344 0.048-0.024 0.115-0.056 0.051-0.135-0.674-0.076-1.069 0.235-1.295 0.67-0.661 1.268 1.256 1.734 2.28 0.514zM14.418 6.959c0.155 0.383 0.391 0.761 0.25 1.096-0.115 0.287-0.268 0.406-0.435 0.435-0.235 0.040-0.171-0.697 0.231-0.916 0.036-0.020 0.088-0.115 0.040-0.171-0.51-0.027-0.797 0.215-0.953 0.539-0.45 0.945 1.020 1.204 1.742 0.275 0.287-0.375 0.299-0.737 0.024-1.404-0.175-0.423-0.443-0.737-0.275-1.016s0.61-0.040 0.287 0.355l0.071 0.040c0.419 0.024 0.59-0.534 0.271-0.674-0.841-0.361-1.626 0.544-1.255 1.441zM9.091 5.95c-0.291-0.231-1.107 0.155-1.341 0.73-0.291 0.73-0.721 1.794-1.144 2.26-0.446 0.49-0.49 0.111-0.446-0.171 0.104-0.666 0.75-2.209 1.109-2.643-0.131-0.195-0.992-0.168-1.59 0.761-0.223 0.35-0.732 1.518-1.304 2.439-0.125 0.199-0.279 0.060-0.16-0.406 0.135-0.539 0.534-2.018 1.049-3.181 1.348-0.268 2.779-0.455 3.875-0.459 0.148-0.040 0.25-0.171 0-0.18-0.945-0.032-2.364 0.080-3.691 0.25 0.25-0.51 0.53-0.916 0.809-1.089-0.303-0.191-0.916-0.115-1.268 0.402-0.153 0.229-0.306 0.496-0.441 0.773-0.985 0.188-1.818 0.362-2.24 0.521s-0.391 0.697-0.125 0.598c0.571-0.214 1.286-0.425 2.018-0.591-0.41 1.174-0.825 2.585-0.925 3.161-0.25 1.395 0.618 1.387 1.040 0.838 0.46-0.604 1.416-2.721 1.56-2.944 0.044-0.076 0.104-0.036 0.071 0.032-1.069 2.132-0.976 2.958-0.111 2.775 0.391-0.084 1.064-0.75 1.24-1.1 0.036-0.084 0.111-0.076 0.096-0.040-0.671 1.756-1.536 3.179-2.114 3.626-0.526 0.402-0.916-0.47 0.945-1.723 0.275-0.188 0.147-0.443-0.164-0.355v0c-0.964 0.151-3.714 1.025-4.919 1.861-0.091 0.064-0.175 0.115-0.171 0.25 0 0.076 0.135 0.047 0.199 0.008 1.563-0.936 2.842-1.304 4.309-1.61 0.009 0.004 0.020 0.006 0.032 0.006s0.022-0.002 0.032-0.006c0.067-0.016 0.063 0.020 0.019 0.048-0.1 0.056-0.199 0.107-0.224 0.115-0.989 0.386-1.586 1.24-1.375 1.674 0.18 0.375 1.147 0.239 1.606-0.008 1.125-0.61 1.941-1.806 2.5-3.456 0.486-1.46 1.1-3.116 1.244-3.166zM15.625 9.326c-1.83-0.239-5.776 0.080-7.519 0.543-0.519 0.135-0.375 0.41-0.111 0.359l0.125-0.027c1.431-0.279 4.904-0.522 6.929-0.135 0.238 0.043 0.968-0.69 0.576-0.739zM9.601 9.111c0.511-0.255 1.274-1.834 1.766-2.699 0.036-0.064 0.1-0.013 0.064 0.032-1.26 2.169-0.725 2.42-0.227 2.388 0.671-0.040 1.28-0.998 1.421-1.207 0.056-0.084 0.088-0.016 0.056 0.044-0.033 0.1-0.148 0.275-0.25 0.514-0.151 0.339 0.008 0.47 0.14 0.53 0.207 0.1 0.774 0.036 0.861-0.311-0.566-0.012 0.789-2.683 0.929-2.846-0.375-0.219-0.965 0.020-1.231 0.546-0.57 1.125-1.049 2.038-1.348 2.053-0.582 0.033 0.67-2.515 0.875-2.595-0.125-0.18-0.916-0.104-1.359 0.582-0.16 0.25-1.133 1.969-1.375 2.25-0.422 0.5-0.455 0.071-0.335-0.43 0.064-0.257 0.131-0.469 0.209-0.674 0.265-0.584 0.564-0.788 0.748-0.992 1.231-1.367 1.938-2.475 1.659-2.91-0.25-0.386-1.072-0.215-1.603 0.583-0.976 1.462-1.875 3.467-1.994 4.385s0.544 0.981 0.994 0.759zM10.125 6.429c0.044-0.1 0.071-0.125 0.148-0.295v0c0.434-0.965 0.977-1.981 1.363-2.456 0.235-0.25 0.566 0.087-0.033 1-0.361 0.556-0.751 1.040-1.185 1.48l0.001-0.001c-0.111 0.125-0.211 0.228-0.25 0.287-0.036 0.049-0.072 0.040-0.044-0.015z"></path>
</svg>
