<!-- Generated by IcoMoon.io -->
<svg version="1.1" xmlns="http://www.w3.org/2000/svg" viewBox="0 0 16 16">
<title>swift</title>
<path d="M15.693 3.279c-0.072-0.357-0.187-0.674-0.341-0.967-0.16-0.282-0.358-0.541-0.586-0.77-0.234-0.229-0.508-0.42-0.809-0.561-0.296-0.151-0.618-0.261-0.957-0.321-0.352-0.067-0.715-0.067-1.047-0.098h-8.171c-0.273 0.005-0.536 0.028-0.793 0.068-0.238 0.028-0.484 0.095-0.713 0.193-0.048 0.025-0.147 0.057-0.213 0.088-0.238 0.129-0.443 0.265-0.634 0.417-0.058 0.057-0.124 0.088-0.19 0.151-0.239 0.222-0.438 0.483-0.588 0.774-0.162 0.289-0.278 0.608-0.336 0.946-0.047 0.294-0.082 0.631-0.1 0.972l-0.001 7.573c0 0.347 0.036 0.685 0.104 1.011 0.067 0.325 0.181 0.642 0.335 0.935 0.16 0.282 0.358 0.541 0.586 0.77 0.234 0.229 0.508 0.42 0.809 0.561 0.296 0.151 0.618 0.261 0.957 0.321 0.352 0.067 0.715 0.067 1.047 0.098h7.903c0.363-0 0.718-0.035 1.062-0.101 0.325-0.057 0.647-0.167 0.944-0.32s0.568-0.342 0.811-0.563c0.236-0.219 0.435-0.481 0.585-0.771 0.162-0.289 0.278-0.608 0.336-0.946 0.047-0.294 0.082-0.631 0.1-0.972l0.001-7.509c-0.001-0.347-0.037-0.685-0.106-1.011zM13.344 12.721c-0.719-1.346-2.047-0.93-2.719-0.659-1.389 0.766-3.297 0.845-5.219 0.059-1.525-0.63-2.777-1.663-3.658-2.968 0.374 0.274 0.82 0.539 1.298 0.746 2.024 0.903 4.007 0.842 5.403 0.016v0c-1.987-1.457-3.675-3.353-4.933-4.9-0.24-0.253-0.458-0.532-0.648-0.83 1.507 1.304 3.924 2.978 4.784 3.452-1.194-1.222-2.301-2.542-3.306-3.941 1.576 1.499 3.395 2.937 5.353 4.176 0.225 0.128 0.294 0.168 0.349 0.206 0.049-0.115 0.101-0.261 0.144-0.41 0.471-1.64-0.059-3.471-1.217-4.988 2.68 1.546 4.274 4.451 3.606 6.884-0.018 0.066-0.036 0.125-0.056 0.194l0.024 0.027c1.325 1.579 0.959 3.252 0.794 2.936z"></path>
</svg>
