<!-- Generated by IcoMoon.io -->
<svg version="1.1" xmlns="http://www.w3.org/2000/svg" viewBox="0 0 19 16">
<title>team-small</title>
<path d="M11.378 2.805c0.872 0.547 1.483 1.472 1.594 2.545 0.356 0.166 0.75 0.262 1.168 0.262 1.527 0 2.765-1.238 2.765-2.765s-1.238-2.765-2.765-2.765c-1.513 0-2.74 1.216-2.763 2.723zM9.566 8.467c1.527 0 2.765-1.238 2.765-2.765s-1.238-2.765-2.765-2.765c-1.527 0-2.766 1.238-2.766 2.765s1.239 2.765 2.766 2.765zM10.739 8.655h-2.346c-1.952 0-3.54 1.588-3.54 3.541v2.869l0.007 0.045 0.198 0.062c1.863 0.582 3.482 0.776 4.814 0.776 2.602 0 4.11-0.742 4.203-0.789l0.185-0.093h0.020v-2.87c0.001-1.952-1.588-3.541-3.54-3.541zM15.314 5.801h-2.328c-0.025 0.932-0.423 1.77-1.052 2.374 1.735 0.516 3.005 2.125 3.005 4.026v0.884c2.299-0.084 3.624-0.736 3.711-0.78l0.185-0.094h0.020v-2.87c0-1.952-1.588-3.54-3.54-3.54zM4.714 5.612c0.541 0 1.044-0.158 1.471-0.427 0.136-0.884 0.609-1.656 1.286-2.183 0.003-0.052 0.008-0.103 0.008-0.155 0-1.527-1.238-2.765-2.765-2.765s-2.765 1.238-2.765 2.765c0 1.527 1.238 2.765 2.765 2.765zM7.197 8.174c-0.626-0.6-1.022-1.435-1.051-2.36-0.086-0.006-0.172-0.013-0.26-0.013h-2.346c-1.952 0-3.54 1.588-3.54 3.54v2.87l0.007 0.044 0.198 0.062c1.495 0.467 2.828 0.682 3.987 0.749v-0.867c0-1.901 1.27-3.509 3.005-4.026z"></path>
</svg>
