<!-- Generated by IcoMoon.io -->
<svg version="1.1" xmlns="http://www.w3.org/2000/svg" viewBox="0 0 21 16">
<title>team-big</title>
  <path d="M10.43 5.822c0.34 0 0.665 0.071 0.96 0.199 0.022-0.481 0.188-0.926 0.454-1.295-0.187-0.039-0.381-0.060-0.579-0.060h-1.875c-0.197 0-0.391 0.021-0.577 0.059 0.284 0.393 0.453 0.874 0.456 1.394 0.345-0.189 0.74-0.297 1.16-0.297z"></path>
  <path d="M12.537 2.306c0 1.22-0.989 2.21-2.21 2.21s-2.21-0.989-2.21-2.21c0-1.22 0.989-2.21 2.21-2.21s2.21 0.989 2.21 2.21z"></path>
  <path d="M13.798 8.286c1.125 0 2.036-0.912 2.036-2.036s-0.911-2.036-2.036-2.036c-1.114 0-2.017 0.895-2.034 2.005 0.642 0.403 1.092 1.083 1.174 1.874 0.261 0.123 0.552 0.193 0.86 0.193z"></path>
  <path d="M6.857 4.215c-1.125 0-2.036 0.911-2.036 2.036s0.911 2.036 2.036 2.036c0.398 0 0.769-0.116 1.083-0.314 0.1-0.651 0.449-1.22 0.947-1.607 0.002-0.038 0.006-0.076 0.006-0.114 0-1.124-0.912-2.036-2.036-2.036z"></path>
  <path d="M15.12 4.171c0.642 0.403 1.092 1.083 1.174 1.874 0.261 0.122 0.552 0.193 0.86 0.193 1.125 0 2.036-0.911 2.036-2.036s-0.911-2.036-2.036-2.036c-1.114-0-2.017 0.895-2.034 2.005z"></path>
  <path d="M12.466 8.352c0 1.124-0.912 2.036-2.036 2.036s-2.036-0.912-2.036-2.036c0-1.124 0.912-2.036 2.036-2.036s2.036 0.912 2.036 2.036z"></path>
  <path d="M14.662 8.425h-1.715c-0.019 0.686-0.311 1.304-0.775 1.748 1.277 0.38 2.212 1.565 2.212 2.965v0.651c1.693-0.063 2.668-0.542 2.732-0.575l0.136-0.069h0.014v-2.113c0-1.437-1.169-2.607-2.606-2.607z"></path>
  <path d="M18.018 6.377h-1.714c-0.019 0.686-0.311 1.304-0.774 1.748 1.277 0.38 2.212 1.565 2.212 2.964v0.651c1.692-0.062 2.668-0.541 2.732-0.575l0.136-0.069h0.015v-2.113c0-1.437-1.169-2.607-2.607-2.607z"></path>
  <path d="M8.685 10.172c-0.461-0.442-0.753-1.056-0.774-1.738-0.063-0.005-0.126-0.010-0.191-0.010h-1.727c-1.437 0-2.607 1.169-2.607 2.607v2.113l0.005 0.033 0.145 0.046c1.1 0.344 2.083 0.502 2.936 0.552v-0.638c0-1.399 0.935-2.584 2.213-2.965z"></path>
  <path d="M11.293 10.527h-1.728c-1.437 0-2.607 1.17-2.607 2.607v2.113l0.005 0.033 0.145 0.045c1.372 0.428 2.564 0.572 3.544 0.572 1.916 0 3.026-0.546 3.095-0.581l0.136-0.069h0.014v-2.113c0.001-1.437-1.169-2.607-2.606-2.607z"></path>
  <path d="M3.471 6.303c0.308 0 0.599-0.071 0.86-0.193 0.082-0.791 0.532-1.472 1.174-1.874-0.017-1.11-0.92-2.005-2.034-2.005-1.125 0-2.036 0.911-2.036 2.036s0.911 2.036 2.036 2.036z"></path>
  <path d="M5.095 8.189c-0.463-0.444-0.756-1.062-0.774-1.748h-1.714c-1.437 0-2.607 1.17-2.607 2.607v2.113h0.015l0.136 0.069c0.064 0.032 1.040 0.512 2.732 0.574v-0.651c0-1.399 0.935-2.584 2.212-2.964z"></path>
  <path d="M5.852 4.013c0.244-0.099 0.617-0.22 0.973-0.22 0.414 0 0.819 0.107 1.18 0.309 0.080-0.079 0.154-0.165 0.221-0.257-0.343-0.451-0.531-1.003-0.531-1.571 0-0.383 0.085-0.763 0.248-1.108-0.371-0.335-0.844-0.518-1.347-0.518-0.915 0-1.712 0.62-1.945 1.492 0.684 0.398 1.129 1.093 1.201 1.873z"></path>
  <path d="M12.446 3.73c0.071 0.112 0.153 0.218 0.247 0.317 0.334-0.167 0.702-0.254 1.072-0.254 0.364 0 0.713 0.093 0.941 0.171 0.072-0.845 0.583-1.591 1.347-1.968-0.28-0.801-1.040-1.348-1.899-1.348-0.556 0-1.082 0.228-1.462 0.63 0.133 0.318 0.201 0.653 0.201 0.996-0 0.525-0.155 1.026-0.448 1.457z"></path>
</svg>
