<!-- Generated by IcoMoon.io -->
<svg version="1.1" xmlns="http://www.w3.org/2000/svg" viewBox="0 0 18 16">
<title>team-medium</title>
<path d="M4.785 2.246c0-1.234 1.001-2.235 2.235-2.235s2.235 1.001 2.235 2.235-1.001 2.235-2.235 2.235c-1.234 0-2.235-1-2.235-2.235zM8.093 6.003c0.022-0.487 0.19-0.937 0.459-1.309-0.189-0.040-0.385-0.061-0.585-0.061h-1.896c-0.2 0-0.395 0.021-0.583 0.060 0.287 0.398 0.458 0.884 0.461 1.41 0.349-0.192 0.749-0.301 1.173-0.301 0.345 0 0.673 0.072 0.971 0.201zM8.472 6.204c0.649 0.407 1.104 1.096 1.188 1.895 0.264 0.124 0.558 0.195 0.87 0.195 1.137 0 2.059-0.922 2.059-2.059s-0.922-2.059-2.059-2.059c-1.127 0-2.040 0.905-2.057 2.028zM7.123 10.42c1.137 0 2.059-0.922 2.059-2.059s-0.922-2.059-2.059-2.059c-1.137 0-2.059 0.922-2.059 2.059s0.922 2.059 2.059 2.059zM7.996 10.56h-1.747c-1.454 0-2.636 1.183-2.636 2.636v2.137l0.006 0.033 0.147 0.046c1.387 0.433 2.592 0.578 3.585 0.578 1.937 0 3.061-0.552 3.13-0.588l0.138-0.070h0.015v-2.137c0-1.454-1.182-2.636-2.636-2.636zM11.403 8.435h-1.734c-0.019 0.694-0.315 1.318-0.783 1.767 1.292 0.384 2.237 1.582 2.237 2.998v0.658c1.712-0.063 2.698-0.548 2.763-0.581l0.138-0.070h0.015v-2.137c0-1.453-1.183-2.636-2.636-2.636zM11.866 4.132c0.649 0.407 1.104 1.096 1.187 1.895 0.265 0.124 0.558 0.195 0.87 0.195 1.137 0 2.059-0.922 2.059-2.059s-0.922-2.059-2.059-2.059c-1.127-0-2.040 0.905-2.057 2.028zM14.797 6.363h-1.733c-0.019 0.694-0.315 1.318-0.783 1.767 1.292 0.384 2.237 1.582 2.237 2.998v0.658c1.711-0.063 2.698-0.548 2.763-0.581l0.137-0.070h0.015v-2.137c0-1.453-1.183-2.636-2.636-2.636zM3.51 8.294c0.403 0 0.777-0.118 1.095-0.318 0.101-0.658 0.454-1.234 0.958-1.625 0.002-0.039 0.006-0.077 0.006-0.116 0-1.137-0.922-2.059-2.058-2.059s-2.059 0.922-2.059 2.059c0 1.137 0.922 2.059 2.059 2.059zM5.359 10.202c-0.466-0.447-0.761-1.068-0.783-1.758-0.064-0.005-0.128-0.010-0.193-0.010h-1.747c-1.454 0-2.636 1.183-2.636 2.636v2.137l0.005 0.033 0.147 0.046c1.113 0.348 2.106 0.508 2.969 0.558v-0.645c0-1.415 0.945-2.613 2.238-2.997z"></path>
</svg>
