<!-- Generated by IcoMoon.io -->
<svg version="1.1" xmlns="http://www.w3.org/2000/svg" viewBox="0 0 16 16">
<title>travis</title>
<path d="M5 4.25h2.25v7.625h-1v1.375h3.5v-1.5h-0.875v-7.625h2.375v1.125h1.25v-2.25h-8.875v2.25h1.375zM15.275 0.375h-14.521c-0.253 0-0.504 0.153-0.504 0.403v14.519c0 0.25 0.251 0.453 0.504 0.453h14.521c0.253 0 0.35-0.203 0.35-0.453v-14.519c0-0.25-0.097-0.403-0.35-0.403zM13.25 6h-2.625v-1.125h-1.125v6h1.125v3h-5v-2.875h0.75v-6h-0.75v1h-2.875v-3.75h10.5v3.75z"></path>
</svg>
