<!-- Generated by IcoMoon.io -->
<svg version="1.1" xmlns="http://www.w3.org/2000/svg" viewBox="0 0 16 16">
<title>trello</title>
<path d="M15.875 2.018c0-1.045-0.847-1.893-1.893-1.893h-11.964c-1.045 0-1.893 0.847-1.893 1.893v11.964c0 1.046 0.847 1.893 1.893 1.893h11.964c1.045 0 1.893-0.847 1.893-1.893v-11.964zM7.25 12.443c0 0.476-0.411 0.807-0.887 0.807h-3.418c-0.476 0-0.82-0.332-0.82-0.807v-9.539c0-0.476 0.345-0.904 0.82-0.904h3.418c0.476 0 0.887 0.428 0.887 0.904v9.539zM14.125 4.136v3.986c0 0.476-0.367 0.879-0.843 0.879h-3.416c-0.476 0-0.866-0.403-0.866-0.879v-5.263c0-0.476 0.39-0.858 0.866-0.858h3.416c0.476 0 0.843 0.382 0.843 0.858v1.277z"></path>
</svg>
