<!-- Generated by IcoMoon.io -->
<svg version="1.1" xmlns="http://www.w3.org/2000/svg" viewBox="0 0 16 16">
<title>typescript</title>
<path d="M0.25 7.989v7.813h15.625v-15.625h-15.625zM12.841 7.364c0.388 0.092 0.721 0.29 0.977 0.562 0.142 0.147 0.266 0.311 0.369 0.489 0.007 0.032-0.668 0.488-1.080 0.743-0.015 0.010-0.075-0.055-0.141-0.154-0.151-0.257-0.421-0.429-0.732-0.441-0.475-0.033-0.78 0.216-0.778 0.625-0 0.007-0 0.014-0 0.022 0 0.099 0.025 0.192 0.069 0.273 0.102 0.213 0.296 0.342 0.903 0.604 1.119 0.481 1.598 0.799 1.895 1.25 0.332 0.5 0.406 1.308 0.181 1.905-0.25 0.65-0.863 1.091-1.729 1.238-0.164 0.020-0.353 0.031-0.545 0.031-0.227 0-0.451-0.016-0.67-0.047-0.601-0.101-1.145-0.395-1.561-0.816-0.144-0.159-0.424-0.573-0.407-0.603 0.041-0.031 0.088-0.061 0.138-0.088l0.581-0.333 0.449-0.26 0.094 0.139c0.16 0.227 0.357 0.416 0.584 0.563 0.508 0.268 1.191 0.231 1.528-0.072 0.125-0.123 0.203-0.295 0.203-0.484 0-0.142-0.044-0.274-0.118-0.383-0.123-0.171-0.373-0.318-1.072-0.623-0.806-0.348-1.154-0.563-1.471-0.905-0.191-0.218-0.339-0.479-0.425-0.767-0.039-0.19-0.059-0.393-0.059-0.599 0-0.146 0.010-0.29 0.030-0.432 0.164-0.762 0.748-1.306 1.601-1.467 0.146-0.019 0.315-0.030 0.486-0.030 0.248 0 0.49 0.023 0.725 0.066zM9.174 8.019v0.64h-2.029v5.779h-1.439v-5.78h-2.034v-0.625c-0.001-0.046-0.002-0.101-0.002-0.156 0-0.172 0.007-0.343 0.021-0.511 0.006 0.012 1.249 0.007 2.749 0.010h2.726z"></path>
</svg>
