<!-- Generated by IcoMoon.io -->
<svg version="1.1" xmlns="http://www.w3.org/2000/svg" viewBox="0 0 16 16">
<title>ubuntu</title>
<path d="M8 0.406c-4.194 0-7.594 3.4-7.594 7.594s3.4 7.594 7.594 7.594c4.194 0 7.594-3.4 7.594-7.594s-3.4-7.594-7.594-7.594zM9.704 3.021c0.28-0.485 0.9-0.651 1.385-0.372s0.651 0.9 0.371 1.385c-0.28 0.485-0.9 0.651-1.385 0.371s-0.651-0.9-0.371-1.384zM8 3.595c0.408 0 0.802 0.057 1.177 0.16 0.066 0.407 0.308 0.783 0.694 1.005s0.83 0.244 1.216 0.099c0.75 0.737 1.238 1.74 1.309 2.857l-1.445 0.021c-0.133-1.513-1.403-2.699-2.95-2.699-0.446 0-0.869 0.099-1.248 0.275l-0.705-1.262c0.588-0.291 1.251-0.456 1.952-0.456zM2.836 9.014c-0.56 0-1.014-0.454-1.014-1.014s0.454-1.014 1.014-1.014c0.56 0 1.014 0.454 1.014 1.014s-0.454 1.014-1.014 1.014zM3.735 9.104c0.32-0.261 0.525-0.659 0.525-1.104s-0.205-0.843-0.525-1.104c0.274-1.061 0.934-1.967 1.821-2.56l0.741 1.242c-0.761 0.536-1.259 1.421-1.259 2.423s0.498 1.887 1.259 2.423l-0.741 1.242c-0.887-0.593-1.548-1.499-1.821-2.561zM11.089 13.35c-0.485 0.28-1.105 0.114-1.385-0.371s-0.114-1.104 0.371-1.384c0.485-0.28 1.105-0.114 1.385 0.371s0.114 1.105-0.371 1.384zM11.086 11.141c-0.385-0.146-0.831-0.124-1.216 0.098s-0.627 0.598-0.693 1.005c-0.375 0.104-0.769 0.161-1.177 0.161-0.701 0-1.364-0.165-1.952-0.456l0.705-1.262c0.379 0.176 0.802 0.275 1.247 0.275 1.547 0 2.816-1.186 2.95-2.699l1.445 0.021c-0.071 1.117-0.559 2.12-1.309 2.857z"></path>
</svg>
