<!-- Generated by IcoMoon.io -->
<svg version="1.1" xmlns="http://www.w3.org/2000/svg" viewBox="0 0 16 16">
<title>university</title>
<path d="M1.712 6.976c0 0 12.069 0 12.086 0 0.291-0.128 0.278-0.401 0.005-0.582-0.274-0.183-6.059-4.359-6.059-4.359s-5.741 4.176-6.032 4.359c-0.291 0.181-0.309 0.455 0 0.582zM7.745 4.098c0.483 0 0.874 0.391 0.874 0.873s-0.392 0.874-0.874 0.874-0.873-0.391-0.873-0.874 0.391-0.873 0.873-0.873zM2.014 13.466h11.484v-0.489h-11.484v0.489zM4.5 12.468v-4.451h0.489v-0.551h-2.497v0.502h0.489v4.501h1.519zM8.515 12.468v-4.483h0.489v-0.489h-2.496v0.47h0.489v4.501h1.518zM1.515 14.465h12.482v-0.457h-12.482v0.457zM12.499 12.468v-4.483h0.489v-0.489h-2.496v0.47h0.489v4.501h1.518z"></path>
</svg>
