<!-- Generated by IcoMoon.io -->
<svg version="1.1" xmlns="http://www.w3.org/2000/svg" viewBox="0 0 16 16">
<title>vagrant</title>
<path d="M15.314 2.987v-1.385l-3.325 1.934v1.169l-2.659 5.739-1.331 0.916v4.201l2.851-1.644 4.464-10.93zM7.999 8.367l-1.994-4.654v-1.316l-0.014-0.006-1.981 1.145v1.169l2.66 5.99 1.329-0.658v-1.67zM13.32 0.439l-3.326 1.948v1.328l-1.995 4.654v1.556l-1.329 0.771-2.66-5.99v-1.171l1.996-1.147-3.325-1.948-1.995 1.164v1.426l4.489 10.901 2.824 1.631v-4.095l1.331-0.771-0.018-0.010 2.676-5.98v-1.169l0.001-0.002 3.324-1.931-1.994-1.164z"></path>
</svg>
