<!-- Generated by IcoMoon.io -->
<svg version="1.1" xmlns="http://www.w3.org/2000/svg" viewBox="0 0 16 16">
<title>vim</title>
<path d="M9.075 10.063c0.025 0.025 0.075 0.063 0.113 0.063h0.662c0.037 0 0.088-0.037 0.113-0.063l0.175-0.188c0.025-0.025 0.037-0.050 0.037-0.075l0.188-0.637c0.012-0.063 0-0.125-0.037-0.162l-0.137-0.113c-0.025-0.025-0.075-0.012-0.113-0.012h-0.6l-0.037-0.037c-0.025 0-0.050-0.012-0.075 0.012l-0.238 0.15c-0.025 0-0.037 0.063-0.050 0.088l-0.2 0.613c-0.025 0.063-0.012 0.137 0.037 0.188l0.162 0.175zM9.175 13.363l-0.050 0.012h-0.15l0.9-2.637c0.025-0.088-0.012-0.188-0.1-0.213l-0.050-0.012h-1.512c-0.063 0.012-0.113 0.063-0.125 0.125l-0.088 0.313c-0.025 0.088 0.037 0.162 0.125 0.188l0.037-0.012h0.225l-0.912 2.612c-0.025 0.088 0.013 0.2 0.1 0.238l0.050 0.037h1.4c0.075 0 0.137-0.063 0.162-0.137l0.088-0.3c0.037-0.088-0.012-0.188-0.1-0.213zM15.813 10.9l-0.238-0.313v-0.012c-0.037-0.037-0.075-0.075-0.125-0.075h-0.9c-0.050 0-0.088 0.050-0.125 0.075l-0.25 0.3h-0.387l-0.262-0.3v-0.012c-0.025-0.037-0.075-0.063-0.125-0.063h-0.5l2.525-2.525-2.825-2.8 2.525-2.6v-1.125l-0.35-0.45h-5.113l-0.412 0.438v0.363l-1.412-1.425-0.963 0.938-0.3-0.313h-5.050l-0.4 0.463v1.175l0.375 0.362h0.375v3.263l-1.75 1.75 1.75 1.75v4l0.65 0.363h1.45l1.138-1.188 2.7 2.7 1.813-1.813c0.012 0.050 0.050 0.063 0.113 0.088l0.050-0.025h1.175c0.075 0 0.137-0.012 0.15-0.075l0.088-0.25c0.025-0.088-0.012-0.162-0.1-0.188l-0.050 0.012h-0.050l0.425-1.338 0.287-0.287h0.625l-0.625 1.988c-0.025 0.088 0.025 0.137 0.113 0.175l0.050-0.025h1.137c0.063 0 0.125-0.012 0.15-0.075l0.1-0.225c0.037-0.088-0.012-0.162-0.088-0.2-0.012-0.012-0.037 0-0.063 0h-0.050l0.525-1.625h0.762l-0.637 1.988c-0.025 0.088 0.025 0.137 0.113 0.162l0.050-0.037h1.25c0.063 0 0.125-0.012 0.15-0.075l0.1-0.25c0.037-0.088-0.012-0.162-0.1-0.188-0.012-0.012-0.037 0.012-0.063 0.012h-0.088l0.7-2.313c0.025-0.063 0.012-0.137-0.012-0.175zM7.838 0.613l1.412 1.413v0.587l0.425 0.512h0.2l-3.625 3.5v-3.5h0.412l0.338-0.525v-1.113l-0.025-0.038 0.862-0.838zM0.362 8.012l1.512-1.513v3.025l-1.512-1.512zM5.225 12.8l7.3-7.5 2.675 2.688-2.525 2.525h-0.012c-0.037 0.012-0.063 0.037-0.088 0.063l-0.262 0.3h-0.363l-0.275-0.3c-0.025-0.037-0.075-0.075-0.125-0.075h-1.1c-0.075 0-0.137 0.050-0.162 0.125l-0.1 0.313c-0.025 0.088 0.012 0.162 0.1 0.2h0.188l-0.8 2.362-1.888 1.9-2.563-2.6z"></path>
</svg>
