<!-- Generated by IcoMoon.io -->
<svg version="1.1" xmlns="http://www.w3.org/2000/svg" viewBox="0 0 16 16">
<title>vuejs</title>
<path d="M3.924 12.151c-0.047 0-0.094 0.013-0.134 0.040s-0.078 0.073-0.078 0.132c0 0.008-0.005 0.025 0.010 0.056l-0.004-0.010 0.821 2.665c0.015 0.050 0.049 0.088 0.089 0.109s0.083 0.030 0.125 0.030c0.089 0 0.187-0.042 0.217-0.138l0-0 0.821-2.675v-0.010c0 0.013 0.004 0.005 0.004-0.023 0-0.060-0.038-0.105-0.080-0.133s-0.090-0.044-0.14-0.044c-0.062 0-0.134 0.037-0.158 0.109l-0 0.001-0.664 2.216-0.667-2.212c-0.010-0.039-0.036-0.071-0.066-0.090s-0.064-0.024-0.096-0.024zM10.466 12.289c-0.13 0-0.239 0.099-0.239 0.224s0.108 0.228 0.239 0.228c0.129 0 0.232-0.105 0.232-0.228s-0.104-0.224-0.232-0.224zM8.54 13.142c-0.446 0-0.813 0.357-0.813 0.786v0.44c0 0.24 0.096 0.446 0.258 0.589s0.389 0.221 0.65 0.221c0.192 0 0.349-0.043 0.461-0.101 0.056-0.029 0.101-0.062 0.134-0.098s0.058-0.075 0.058-0.123c0-0.044-0.017-0.083-0.045-0.118s-0.071-0.067-0.127-0.067c-0.041 0-0.072 0.017-0.099 0.034s-0.053 0.035-0.084 0.053c-0.062 0.036-0.144 0.070-0.289 0.070-0.161 0-0.296-0.046-0.388-0.123s-0.147-0.185-0.147-0.325v-0.083h0.826c0.088 0 0.185 0 0.27-0.053s0.135-0.16 0.135-0.323c0-0.451-0.376-0.778-0.798-0.778zM11.639 13.142c-0.237 0-0.412 0.077-0.524 0.192s-0.16 0.265-0.16 0.405c0 0.179 0.072 0.306 0.176 0.388s0.232 0.123 0.354 0.16c0.123 0.037 0.24 0.070 0.319 0.119s0.122 0.102 0.122 0.213c0 0.060-0.018 0.108-0.067 0.147s-0.135 0.070-0.276 0.070c-0.166 0-0.259-0.041-0.327-0.083-0.034-0.021-0.061-0.042-0.089-0.062s-0.059-0.040-0.103-0.040c-0.053 0-0.092 0.033-0.116 0.066s-0.037 0.072-0.037 0.114c0 0.051 0.025 0.096 0.061 0.136s0.084 0.075 0.143 0.105c0.119 0.061 0.282 0.104 0.476 0.104 0.211 0 0.384-0.052 0.506-0.151s0.189-0.248 0.189-0.418c0-0.193-0.070-0.332-0.173-0.423s-0.234-0.139-0.358-0.177c-0.124-0.038-0.244-0.068-0.324-0.11s-0.119-0.081-0.119-0.171c0-0.048 0.020-0.109 0.069-0.157s0.129-0.087 0.262-0.087c0.106 0 0.185 0.025 0.248 0.051 0.032 0.013 0.059 0.026 0.085 0.037s0.050 0.022 0.084 0.022c0.061 0 0.103-0.041 0.129-0.078s0.040-0.075 0.040-0.118c0-0.053-0.033-0.091-0.070-0.119s-0.083-0.051-0.137-0.071c-0.107-0.039-0.244-0.065-0.382-0.065zM6.020 13.166c-0.103 0-0.192 0.065-0.192 0.161v1.050c0 0.425 0.361 0.802 0.81 0.802 0.441 0 0.809-0.372 0.809-0.802v-1.054c0-0.048-0.026-0.090-0.061-0.116s-0.079-0.041-0.127-0.041c-0.048 0-0.093 0.014-0.128 0.040s-0.064 0.067-0.064 0.117v1.054c0 0.224-0.195 0.441-0.429 0.441-0.238 0-0.429-0.22-0.429-0.441v-1.050c0-0.050-0.027-0.088-0.061-0.115s-0.078-0.045-0.127-0.045zM10.466 13.166c-0.048 0-0.093 0.013-0.129 0.039s-0.060 0.071-0.060 0.118v1.934c0 0.145-0.010 0.267-0.042 0.341s-0.071 0.107-0.179 0.107c-0.094 0-0.173 0.082-0.173 0.181 0 0.041 0.013 0.086 0.047 0.121s0.085 0.056 0.146 0.056c0.204 0 0.359-0.090 0.452-0.237s0.129-0.343 0.129-0.569v-1.934c0-0.050-0.028-0.093-0.065-0.119s-0.081-0.038-0.128-0.038zM8.536 13.479c0.256 0 0.429 0.214 0.429 0.433 0 0.024-0.003 0.040-0.005 0.047s-0.003 0.007-0.006 0.009c-0.008 0.005-0.047 0.015-0.123 0.015h-0.724v-0.087c0-0.229 0.191-0.417 0.429-0.417zM9.755 14.683c-0.139 0-0.243 0.115-0.243 0.247 0 0.127 0.103 0.243 0.243 0.243 0.133 0 0.239-0.113 0.239-0.243 0-0.136-0.109-0.247-0.239-0.247zM0.993 0l5.458 0.017 1.566 2.673 1.566-2.673 5.425-0.017-6.989 12.058zM14.896 0.070l-2.668 0.002-4.212 7.232-4.21-7.232-2.71-0.002 6.921 11.813z"></path>
</svg>
