<!-- Generated by IcoMoon.io -->
<svg version="1.1" xmlns="http://www.w3.org/2000/svg" viewBox="0 0 16 16">
<title>wordpress</title>
<path d="M8.012 15.778c4.284-0.007 7.753-3.492 7.753-7.791 0-4.229-3.452-7.712-7.577-7.786-4.332-0.077-7.951 3.438-7.952 7.7-0.001 4.385 3.451 7.883 7.776 7.877zM7.999 0.579c4.113-0.001 7.391 3.341 7.39 7.535-0.001 3.96-3.366 7.273-7.386 7.273-4.096 0.001-7.391-3.32-7.391-7.451 0-4.024 3.346-7.356 7.388-7.357zM4.895 4.487c0.067 0.224-0.121 0.302-0.321 0.318-0.211 0.016-0.421 0.032-0.666 0.051 0.807 2.404 1.602 4.773 2.416 7.197 0.058-0.095 0.082-0.122 0.092-0.153 0.447-1.335 0.896-2.67 1.331-4.009 0.040-0.122 0.020-0.284-0.024-0.409-0.23-0.665-0.506-1.316-0.708-1.989-0.138-0.461-0.321-0.759-0.866-0.705-0.093 0.009-0.206-0.191-0.31-0.294 0.126-0.075 0.25-0.213 0.377-0.215 1.109-0.017 2.218-0.017 3.327 0.001 0.127 0.002 0.252 0.144 0.378 0.221-0.11 0.101-0.205 0.251-0.334 0.29-0.206 0.062-0.435 0.051-0.682 0.072 0.808 2.403 1.599 4.757 2.419 7.195 0.366-1.217 0.707-2.335 1.039-3.455 0.296-1 0.12-1.934-0.415-2.815-0.161-0.265-0.358-0.522-0.449-0.811-0.104-0.329-0.19-0.703-0.135-1.032 0.093-0.559 0.522-0.836 1.102-0.889-3.174-2.946-8.162-1.891-10 1.309 0.708-0.033 1.383-0.075 2.059-0.085 0.128-0.002 0.34 0.106 0.37 0.207zM6.159 14.233c-0.015 0.043-0.016 0.091-0.027 0.163 1.368 0.379 2.709 0.352 4.082-0.111l-2.098-5.745c-0.671 1.951-1.315 3.822-1.958 5.693zM5.102 13.974l-3.16-8.669c-1.426 2.785-0.341 7.034 3.16 8.669zM14.656 8.403c0.1-1.317-0.354-3.14-0.746-3.391-0.044 0.484-0.013 1.023-0.152 1.514-0.327 1.157-0.727 2.294-1.112 3.434-0.419 1.239-0.854 2.472-1.282 3.708 2.011-1.192 3.117-2.952 3.293-5.265z"></path>
</svg>
