<!-- Generated by IcoMoon.io -->
<svg version="1.1" xmlns="http://www.w3.org/2000/svg" viewBox="0 0 16 16">
<title>x</title>
  <path d="M8 0.667c-4.067 0-7.333 3.267-7.333 7.333s3.267 7.333 7.333 7.333 7.333-3.267 7.333-7.333-3.267-7.333-7.333-7.333zM8 14c-3.333 0-6-2.667-6-6s2.667-6 6-6c3.333 0 6 2.667 6 6s-2.667 6-6 6z"></path>
  <path d="M10.467 5.533c-0.267-0.267-0.667-0.267-0.933 0l-1.533 1.533-1.533-1.533c-0.267-0.267-0.667-0.267-0.933 0s-0.267 0.667 0 0.933l1.533 1.533-1.533 1.533c-0.267 0.267-0.267 0.667 0 0.933 0.133 0.133 0.267 0.2 0.467 0.2s0.333-0.067 0.467-0.2l1.533-1.533 1.533 1.533c0.133 0.133 0.333 0.2 0.467 0.2s0.333-0.067 0.467-0.2c0.267-0.267 0.267-0.667 0-0.933l-1.533-1.533 1.533-1.533c0.267-0.267 0.267-0.667 0-0.933z"></path>
</svg>
