<!-- Generated by IcoMoon.io -->
<svg version="1.1" xmlns="http://www.w3.org/2000/svg" viewBox="0 0 16 16">
<title>yarn</title>
<path d="M12.405 10.089c-0.543 0.006-1.018 0.286-1.419 0.536-0.75 0.464-1.125 0.434-1.125 0.434l-0.012-0.021c-0.051-0.084 0.24-0.835-0.086-1.73-0.352-0.979-0.912-1.215-0.867-1.29 0.191-0.324 0.67-0.838 0.861-1.795 0.114-0.58 0.084-1.535-0.174-2.035-0.047-0.093-0.473 0.155-0.473 0.155s-0.398-0.886-0.509-0.958c-0.359-0.23-0.75 0.951-0.75 0.951-0.051-0.005-0.111-0.008-0.171-0.008-0.512 0-0.972 0.22-1.292 0.569-0.133 0.129-0.294 0.226-0.474 0.283-0.060 0.020-0.122 0.017-0.277 0.436-0.237 0.634 0.405 1.351 0.405 1.351s-0.766 0.541-1.050 1.215c-0.147 0.348-0.232 0.752-0.232 1.176 0 0.1 0.005 0.199 0.014 0.297s-0.546 0.46-0.581 0.948c-0.005 0.046-0.007 0.099-0.007 0.152 0 0.305 0.085 0.59 0.233 0.834 0.036 0.076 0.119 0.133 0.216 0.133 0.040 0 0.077-0.010 0.11-0.027s-0.364 0.423-0.025 0.602c0.309 0.161 0.829 0.25 1.104-0.024 0.2-0.2 0.24-0.646 0.314-0.829 0.018-0.043 0.077 0.071 0.135 0.125 0.050 0.044 0.106 0.085 0.165 0.122s-0.482 0.213-0.282 0.692c0.066 0.159 0.303 0.26 0.689 0.258 0.144 0 1.72-0.090 2.14-0.191 0.131-0.021 0.245-0.087 0.326-0.182 0.738-0.223 1.38-0.521 1.969-0.895 0.56-0.367 0.803-0.472 1.282-0.586 0.395-0.094 0.369-0.706-0.155-0.697zM8 0.25c-4.28 0-7.75 3.47-7.75 7.75s3.47 7.75 7.75 7.75c4.28 0 7.75-3.47 7.75-7.75s-3.47-7.75-7.75-7.75zM12.662 11.229c-0.419 0.101-0.614 0.18-1.176 0.545-0.559 0.357-1.203 0.662-1.886 0.881-0.186 0.121-0.339 0.198-0.507 0.236-0.484 0.118-2.117 0.205-2.246 0.205h-0.030c-0.5 0-0.784-0.155-0.936-0.318-0.425 0.213-0.975 0.125-1.375-0.086-0.192-0.095-0.331-0.272-0.374-0.483-0.008-0.043-0.012-0.088-0.012-0.133s0.004-0.090 0.012-0.133c-0.036-0.033-0.069-0.074-0.097-0.117-0.186-0.304-0.295-0.668-0.295-1.058 0-0.071 0.004-0.142 0.011-0.211 0.036-0.458 0.358-0.874 0.568-1.095-0.001-0.037-0.002-0.081-0.002-0.125 0-0.482 0.095-0.941 0.268-1.36 0.201-0.42 0.489-0.795 0.84-1.098-0.202-0.351-0.412-0.886-0.208-1.431 0.146-0.389 0.266-0.605 0.53-0.697v0c0.121-0.036 0.226-0.093 0.315-0.169 0.372-0.404 0.893-0.668 1.475-0.706 0.030-0.060 0.058-0.125 0.088-0.183 0.2-0.425 0.412-0.664 0.661-0.75 0.063-0.024 0.137-0.039 0.214-0.039 0.125 0 0.242 0.038 0.339 0.103 0.079 0.052 0.183 0.124 0.485 0.749 0.059-0.022 0.127-0.034 0.198-0.034 0.056 0 0.111 0.008 0.163 0.023 0.127 0.036 0.233 0.123 0.293 0.239 0.31 0.595 0.351 1.651 0.216 2.33-0.129 0.634-0.384 1.194-0.738 1.675 0.322 0.314 0.568 0.708 0.723 1.145 0.124 0.34 0.192 0.707 0.192 1.090 0 0.082-0.003 0.164-0.009 0.244 0.154-0.085 0.282-0.157 0.405-0.237 0.369-0.228 0.946-0.584 1.635-0.593 0.017-0.001 0.036-0.002 0.055-0.002 0.417 0 0.762 0.309 0.819 0.71 0.005 0.036 0.007 0.072 0.007 0.109 0 0.376-0.262 0.691-0.613 0.773z"></path>
</svg>
