<!-- Generated by IcoMoon.io -->
<svg version="1.1" xmlns="http://www.w3.org/2000/svg" viewBox="0 0 16 16">
<title>zend</title>
<path d="M6.701 10.107c-1.031 0.004-2.062 0.018-3.093 0.018h-0.148c1.424-2 2.829-3.893 4.244-5.832-0.048-0.003-0.071-0.014-0.094-0.014-2.231-0-4.463-0.004-6.694-0.005-0.078 0-0.105 0.018-0.105 0.101 0.004 0.461 0.002 0.921 0.002 1.383 0 0.131 0 0.131 0.133 0.131 1.129 0 2.259-0 3.388 0 0.044 0 0.089 0.006 0.157 0.011-1.43 1.951-2.845 3.881-4.268 5.823l0.073 0.004c2.143 0 4.286-0 6.43 0.002 0.088 0 0.099-0.035 0.099-0.108-0.002-0.468-0.004-0.928 0.001-1.396 0.001-0.097-0.026-0.118-0.124-0.117zM15.655 4.373c-2.021 0-4.043-0.003-6.065 0.004-0.224 0.001-0.454 0.030-0.671 0.085-0.78 0.2-1.405 1.047-1.374 1.857 0.003 0.089 0.055 0.056 0.109 0.056h3.104c0.522 0 1.045 0.023 1.567 0.019 0.569-0.003 1.14 0.019 1.708-0.014 0.588-0.035 1.057-0.307 1.382-0.81 0.218-0.338 0.314-0.713 0.362-1.107 0.013-0.108-0.056-0.091-0.12-0.091zM12.571 7.014c-1.024-0-2.047-0.001-3.071 0-0.33 0-0.648 0.065-0.938 0.224-0.675 0.37-0.935 0.99-1.015 1.715-0.010 0.096 0.048 0.093 0.113 0.093 0.539-0.001 1.078-0.001 1.617-0.001 0.183 0 0.366 0.003 0.549-0.001 0.403-0.007 0.808 0.009 1.207-0.031 0.52-0.052 0.942-0.305 1.242-0.74 0.236-0.342 0.354-0.726 0.395-1.138 0.012-0.121 0.017-0.123-0.1-0.123zM10.52 9.645c-0.312 0.002-0.623-0.003-0.935 0.003-0.145 0.003-0.29 0.015-0.433 0.037-1.12 0.175-1.537 1.111-1.604 1.911-0.006 0.072 0.020 0.095 0.091 0.094 0.186-0.004 0.373-0.001 0.559-0.001l0.001 0.010c0.253-0.011 0.509-0.005 0.76-0.037 0.941-0.121 1.66-0.97 1.653-1.933-0.001-0.072-0.029-0.084-0.091-0.084z"></path>
</svg>
